%TF.GenerationSoftware,KiCad,Pcbnew,(6.0.1)*%
%TF.CreationDate,2022-01-30T10:49:48+01:00*%
%TF.ProjectId,board_shakercontrol,626f6172-645f-4736-9861-6b6572636f6e,rev?*%
%TF.SameCoordinates,Original*%
%TF.FileFunction,Legend,Top*%
%TF.FilePolarity,Positive*%
%FSLAX46Y46*%
G04 Gerber Fmt 4.6, Leading zero omitted, Abs format (unit mm)*
G04 Created by KiCad (PCBNEW (6.0.1)) date 2022-01-30 10:49:48*
%MOMM*%
%LPD*%
G01*
G04 APERTURE LIST*
%ADD10C,0.150000*%
%ADD11C,0.300000*%
%ADD12C,0.010000*%
%ADD13C,0.120000*%
G04 APERTURE END LIST*
D10*
X78344000Y-54209761D02*
X78486857Y-54257380D01*
X78724952Y-54257380D01*
X78820190Y-54209761D01*
X78867809Y-54162142D01*
X78915428Y-54066904D01*
X78915428Y-53971666D01*
X78867809Y-53876428D01*
X78820190Y-53828809D01*
X78724952Y-53781190D01*
X78534476Y-53733571D01*
X78439238Y-53685952D01*
X78391619Y-53638333D01*
X78344000Y-53543095D01*
X78344000Y-53447857D01*
X78391619Y-53352619D01*
X78439238Y-53305000D01*
X78534476Y-53257380D01*
X78772571Y-53257380D01*
X78915428Y-53305000D01*
X79344000Y-54257380D02*
X79344000Y-53257380D01*
X79772571Y-54257380D02*
X79772571Y-53733571D01*
X79724952Y-53638333D01*
X79629714Y-53590714D01*
X79486857Y-53590714D01*
X79391619Y-53638333D01*
X79344000Y-53685952D01*
X80677333Y-54257380D02*
X80677333Y-53733571D01*
X80629714Y-53638333D01*
X80534476Y-53590714D01*
X80344000Y-53590714D01*
X80248761Y-53638333D01*
X80677333Y-54209761D02*
X80582095Y-54257380D01*
X80344000Y-54257380D01*
X80248761Y-54209761D01*
X80201142Y-54114523D01*
X80201142Y-54019285D01*
X80248761Y-53924047D01*
X80344000Y-53876428D01*
X80582095Y-53876428D01*
X80677333Y-53828809D01*
X81153523Y-54257380D02*
X81153523Y-53257380D01*
X81248761Y-53876428D02*
X81534476Y-54257380D01*
X81534476Y-53590714D02*
X81153523Y-53971666D01*
X82344000Y-54209761D02*
X82248761Y-54257380D01*
X82058285Y-54257380D01*
X81963047Y-54209761D01*
X81915428Y-54114523D01*
X81915428Y-53733571D01*
X81963047Y-53638333D01*
X82058285Y-53590714D01*
X82248761Y-53590714D01*
X82344000Y-53638333D01*
X82391619Y-53733571D01*
X82391619Y-53828809D01*
X81915428Y-53924047D01*
X82820190Y-54257380D02*
X82820190Y-53590714D01*
X82820190Y-53781190D02*
X82867809Y-53685952D01*
X82915428Y-53638333D01*
X83010666Y-53590714D01*
X83105904Y-53590714D01*
X84772571Y-54162142D02*
X84724952Y-54209761D01*
X84582095Y-54257380D01*
X84486857Y-54257380D01*
X84344000Y-54209761D01*
X84248761Y-54114523D01*
X84201142Y-54019285D01*
X84153523Y-53828809D01*
X84153523Y-53685952D01*
X84201142Y-53495476D01*
X84248761Y-53400238D01*
X84344000Y-53305000D01*
X84486857Y-53257380D01*
X84582095Y-53257380D01*
X84724952Y-53305000D01*
X84772571Y-53352619D01*
X85344000Y-54257380D02*
X85248761Y-54209761D01*
X85201142Y-54162142D01*
X85153523Y-54066904D01*
X85153523Y-53781190D01*
X85201142Y-53685952D01*
X85248761Y-53638333D01*
X85344000Y-53590714D01*
X85486857Y-53590714D01*
X85582095Y-53638333D01*
X85629714Y-53685952D01*
X85677333Y-53781190D01*
X85677333Y-54066904D01*
X85629714Y-54162142D01*
X85582095Y-54209761D01*
X85486857Y-54257380D01*
X85344000Y-54257380D01*
X86105904Y-53590714D02*
X86105904Y-54257380D01*
X86105904Y-53685952D02*
X86153523Y-53638333D01*
X86248761Y-53590714D01*
X86391619Y-53590714D01*
X86486857Y-53638333D01*
X86534476Y-53733571D01*
X86534476Y-54257380D01*
X86867809Y-53590714D02*
X87248761Y-53590714D01*
X87010666Y-53257380D02*
X87010666Y-54114523D01*
X87058285Y-54209761D01*
X87153523Y-54257380D01*
X87248761Y-54257380D01*
X87582095Y-54257380D02*
X87582095Y-53590714D01*
X87582095Y-53781190D02*
X87629714Y-53685952D01*
X87677333Y-53638333D01*
X87772571Y-53590714D01*
X87867809Y-53590714D01*
X88344000Y-54257380D02*
X88248761Y-54209761D01*
X88201142Y-54162142D01*
X88153523Y-54066904D01*
X88153523Y-53781190D01*
X88201142Y-53685952D01*
X88248761Y-53638333D01*
X88344000Y-53590714D01*
X88486857Y-53590714D01*
X88582095Y-53638333D01*
X88629714Y-53685952D01*
X88677333Y-53781190D01*
X88677333Y-54066904D01*
X88629714Y-54162142D01*
X88582095Y-54209761D01*
X88486857Y-54257380D01*
X88344000Y-54257380D01*
X89248761Y-54257380D02*
X89153523Y-54209761D01*
X89105904Y-54114523D01*
X89105904Y-53257380D01*
X90582095Y-53257380D02*
X90677333Y-53257380D01*
X90772571Y-53305000D01*
X90820190Y-53352619D01*
X90867809Y-53447857D01*
X90915428Y-53638333D01*
X90915428Y-53876428D01*
X90867809Y-54066904D01*
X90820190Y-54162142D01*
X90772571Y-54209761D01*
X90677333Y-54257380D01*
X90582095Y-54257380D01*
X90486857Y-54209761D01*
X90439238Y-54162142D01*
X90391619Y-54066904D01*
X90344000Y-53876428D01*
X90344000Y-53638333D01*
X90391619Y-53447857D01*
X90439238Y-53352619D01*
X90486857Y-53305000D01*
X90582095Y-53257380D01*
X91344000Y-54162142D02*
X91391619Y-54209761D01*
X91344000Y-54257380D01*
X91296380Y-54209761D01*
X91344000Y-54162142D01*
X91344000Y-54257380D01*
X91772571Y-53352619D02*
X91820190Y-53305000D01*
X91915428Y-53257380D01*
X92153523Y-53257380D01*
X92248761Y-53305000D01*
X92296380Y-53352619D01*
X92344000Y-53447857D01*
X92344000Y-53543095D01*
X92296380Y-53685952D01*
X91724952Y-54257380D01*
X92344000Y-54257380D01*
X74963047Y-56248333D02*
X74915428Y-56200714D01*
X74820190Y-56057857D01*
X74772571Y-55962619D01*
X74724952Y-55819761D01*
X74677333Y-55581666D01*
X74677333Y-55391190D01*
X74724952Y-55153095D01*
X74772571Y-55010238D01*
X74820190Y-54915000D01*
X74915428Y-54772142D01*
X74963047Y-54724523D01*
X75772571Y-55819761D02*
X75677333Y-55867380D01*
X75486857Y-55867380D01*
X75391619Y-55819761D01*
X75344000Y-55772142D01*
X75296380Y-55676904D01*
X75296380Y-55391190D01*
X75344000Y-55295952D01*
X75391619Y-55248333D01*
X75486857Y-55200714D01*
X75677333Y-55200714D01*
X75772571Y-55248333D01*
X76105904Y-56248333D02*
X76153523Y-56200714D01*
X76248761Y-56057857D01*
X76296380Y-55962619D01*
X76344000Y-55819761D01*
X76391619Y-55581666D01*
X76391619Y-55391190D01*
X76344000Y-55153095D01*
X76296380Y-55010238D01*
X76248761Y-54915000D01*
X76153523Y-54772142D01*
X76105904Y-54724523D01*
X77582095Y-54962619D02*
X77629714Y-54915000D01*
X77724952Y-54867380D01*
X77963047Y-54867380D01*
X78058285Y-54915000D01*
X78105904Y-54962619D01*
X78153523Y-55057857D01*
X78153523Y-55153095D01*
X78105904Y-55295952D01*
X77534476Y-55867380D01*
X78153523Y-55867380D01*
X78772571Y-54867380D02*
X78867809Y-54867380D01*
X78963047Y-54915000D01*
X79010666Y-54962619D01*
X79058285Y-55057857D01*
X79105904Y-55248333D01*
X79105904Y-55486428D01*
X79058285Y-55676904D01*
X79010666Y-55772142D01*
X78963047Y-55819761D01*
X78867809Y-55867380D01*
X78772571Y-55867380D01*
X78677333Y-55819761D01*
X78629714Y-55772142D01*
X78582095Y-55676904D01*
X78534476Y-55486428D01*
X78534476Y-55248333D01*
X78582095Y-55057857D01*
X78629714Y-54962619D01*
X78677333Y-54915000D01*
X78772571Y-54867380D01*
X79486857Y-54962619D02*
X79534476Y-54915000D01*
X79629714Y-54867380D01*
X79867809Y-54867380D01*
X79963047Y-54915000D01*
X80010666Y-54962619D01*
X80058285Y-55057857D01*
X80058285Y-55153095D01*
X80010666Y-55295952D01*
X79439238Y-55867380D01*
X80058285Y-55867380D01*
X80439238Y-54962619D02*
X80486857Y-54915000D01*
X80582095Y-54867380D01*
X80820190Y-54867380D01*
X80915428Y-54915000D01*
X80963047Y-54962619D01*
X81010666Y-55057857D01*
X81010666Y-55153095D01*
X80963047Y-55295952D01*
X80391619Y-55867380D01*
X81010666Y-55867380D01*
X82201142Y-55200714D02*
X82201142Y-56200714D01*
X82201142Y-55248333D02*
X82296380Y-55200714D01*
X82486857Y-55200714D01*
X82582095Y-55248333D01*
X82629714Y-55295952D01*
X82677333Y-55391190D01*
X82677333Y-55676904D01*
X82629714Y-55772142D01*
X82582095Y-55819761D01*
X82486857Y-55867380D01*
X82296380Y-55867380D01*
X82201142Y-55819761D01*
X83105904Y-55867380D02*
X83105904Y-55200714D01*
X83105904Y-54867380D02*
X83058285Y-54915000D01*
X83105904Y-54962619D01*
X83153523Y-54915000D01*
X83105904Y-54867380D01*
X83105904Y-54962619D01*
X83582095Y-55200714D02*
X83582095Y-55867380D01*
X83582095Y-55295952D02*
X83629714Y-55248333D01*
X83724952Y-55200714D01*
X83867809Y-55200714D01*
X83963047Y-55248333D01*
X84010666Y-55343571D01*
X84010666Y-55867380D01*
X84486857Y-55867380D02*
X84486857Y-54867380D01*
X84486857Y-55248333D02*
X84582095Y-55200714D01*
X84772571Y-55200714D01*
X84867809Y-55248333D01*
X84915428Y-55295952D01*
X84963047Y-55391190D01*
X84963047Y-55676904D01*
X84915428Y-55772142D01*
X84867809Y-55819761D01*
X84772571Y-55867380D01*
X84582095Y-55867380D01*
X84486857Y-55819761D01*
X85820190Y-55867380D02*
X85820190Y-55343571D01*
X85772571Y-55248333D01*
X85677333Y-55200714D01*
X85486857Y-55200714D01*
X85391619Y-55248333D01*
X85820190Y-55819761D02*
X85724952Y-55867380D01*
X85486857Y-55867380D01*
X85391619Y-55819761D01*
X85344000Y-55724523D01*
X85344000Y-55629285D01*
X85391619Y-55534047D01*
X85486857Y-55486428D01*
X85724952Y-55486428D01*
X85820190Y-55438809D01*
X86439238Y-55867380D02*
X86344000Y-55819761D01*
X86296380Y-55724523D01*
X86296380Y-54867380D01*
X86963047Y-55867380D02*
X86867809Y-55819761D01*
X86820190Y-55724523D01*
X86820190Y-54867380D01*
X87344000Y-55486428D02*
X88105904Y-55486428D01*
X88582095Y-55200714D02*
X88582095Y-56200714D01*
X88582095Y-55248333D02*
X88677333Y-55200714D01*
X88867809Y-55200714D01*
X88963047Y-55248333D01*
X89010666Y-55295952D01*
X89058285Y-55391190D01*
X89058285Y-55676904D01*
X89010666Y-55772142D01*
X88963047Y-55819761D01*
X88867809Y-55867380D01*
X88677333Y-55867380D01*
X88582095Y-55819761D01*
X89629714Y-55867380D02*
X89534476Y-55819761D01*
X89486857Y-55772142D01*
X89439238Y-55676904D01*
X89439238Y-55391190D01*
X89486857Y-55295952D01*
X89534476Y-55248333D01*
X89629714Y-55200714D01*
X89772571Y-55200714D01*
X89867809Y-55248333D01*
X89915428Y-55295952D01*
X89963047Y-55391190D01*
X89963047Y-55676904D01*
X89915428Y-55772142D01*
X89867809Y-55819761D01*
X89772571Y-55867380D01*
X89629714Y-55867380D01*
X90296380Y-55200714D02*
X90486857Y-55867380D01*
X90677333Y-55391190D01*
X90867809Y-55867380D01*
X91058285Y-55200714D01*
X91820190Y-55819761D02*
X91724952Y-55867380D01*
X91534476Y-55867380D01*
X91439238Y-55819761D01*
X91391619Y-55724523D01*
X91391619Y-55343571D01*
X91439238Y-55248333D01*
X91534476Y-55200714D01*
X91724952Y-55200714D01*
X91820190Y-55248333D01*
X91867809Y-55343571D01*
X91867809Y-55438809D01*
X91391619Y-55534047D01*
X92296380Y-55867380D02*
X92296380Y-55200714D01*
X92296380Y-55391190D02*
X92344000Y-55295952D01*
X92391619Y-55248333D01*
X92486857Y-55200714D01*
X92582095Y-55200714D01*
X92915428Y-55772142D02*
X92963047Y-55819761D01*
X92915428Y-55867380D01*
X92867809Y-55819761D01*
X92915428Y-55772142D01*
X92915428Y-55867380D01*
X93820190Y-55819761D02*
X93724952Y-55867380D01*
X93534476Y-55867380D01*
X93439238Y-55819761D01*
X93391619Y-55772142D01*
X93344000Y-55676904D01*
X93344000Y-55391190D01*
X93391619Y-55295952D01*
X93439238Y-55248333D01*
X93534476Y-55200714D01*
X93724952Y-55200714D01*
X93820190Y-55248333D01*
X94391619Y-55867380D02*
X94296380Y-55819761D01*
X94248761Y-55772142D01*
X94201142Y-55676904D01*
X94201142Y-55391190D01*
X94248761Y-55295952D01*
X94296380Y-55248333D01*
X94391619Y-55200714D01*
X94534476Y-55200714D01*
X94629714Y-55248333D01*
X94677333Y-55295952D01*
X94724952Y-55391190D01*
X94724952Y-55676904D01*
X94677333Y-55772142D01*
X94629714Y-55819761D01*
X94534476Y-55867380D01*
X94391619Y-55867380D01*
X95153523Y-55867380D02*
X95153523Y-55200714D01*
X95153523Y-55295952D02*
X95201142Y-55248333D01*
X95296380Y-55200714D01*
X95439238Y-55200714D01*
X95534476Y-55248333D01*
X95582095Y-55343571D01*
X95582095Y-55867380D01*
X95582095Y-55343571D02*
X95629714Y-55248333D01*
X95724952Y-55200714D01*
X95867809Y-55200714D01*
X95963047Y-55248333D01*
X96010666Y-55343571D01*
X96010666Y-55867380D01*
D11*
X68262571Y-85451142D02*
X69405428Y-85451142D01*
D10*
X128318095Y-100798380D02*
X127841904Y-100798380D01*
X127794285Y-101274571D01*
X127841904Y-101226952D01*
X127937142Y-101179333D01*
X128175238Y-101179333D01*
X128270476Y-101226952D01*
X128318095Y-101274571D01*
X128365714Y-101369809D01*
X128365714Y-101607904D01*
X128318095Y-101703142D01*
X128270476Y-101750761D01*
X128175238Y-101798380D01*
X127937142Y-101798380D01*
X127841904Y-101750761D01*
X127794285Y-101703142D01*
X128651428Y-100798380D02*
X128984761Y-101798380D01*
X129318095Y-100798380D01*
X130984761Y-101703142D02*
X130937142Y-101750761D01*
X130794285Y-101798380D01*
X130699047Y-101798380D01*
X130556190Y-101750761D01*
X130460952Y-101655523D01*
X130413333Y-101560285D01*
X130365714Y-101369809D01*
X130365714Y-101226952D01*
X130413333Y-101036476D01*
X130460952Y-100941238D01*
X130556190Y-100846000D01*
X130699047Y-100798380D01*
X130794285Y-100798380D01*
X130937142Y-100846000D01*
X130984761Y-100893619D01*
X131270476Y-100798380D02*
X131841904Y-100798380D01*
X131556190Y-101798380D02*
X131556190Y-100798380D01*
X132651428Y-101798380D02*
X132175238Y-101798380D01*
X132175238Y-100798380D01*
X134270476Y-100846000D02*
X134175238Y-100798380D01*
X134032380Y-100798380D01*
X133889523Y-100846000D01*
X133794285Y-100941238D01*
X133746666Y-101036476D01*
X133699047Y-101226952D01*
X133699047Y-101369809D01*
X133746666Y-101560285D01*
X133794285Y-101655523D01*
X133889523Y-101750761D01*
X134032380Y-101798380D01*
X134127619Y-101798380D01*
X134270476Y-101750761D01*
X134318095Y-101703142D01*
X134318095Y-101369809D01*
X134127619Y-101369809D01*
X134746666Y-101798380D02*
X134746666Y-100798380D01*
X135318095Y-101798380D01*
X135318095Y-100798380D01*
X135794285Y-101798380D02*
X135794285Y-100798380D01*
X136032380Y-100798380D01*
X136175238Y-100846000D01*
X136270476Y-100941238D01*
X136318095Y-101036476D01*
X136365714Y-101226952D01*
X136365714Y-101369809D01*
X136318095Y-101560285D01*
X136270476Y-101655523D01*
X136175238Y-101750761D01*
X136032380Y-101798380D01*
X135794285Y-101798380D01*
D11*
X93916571Y-85451142D02*
X95059428Y-85451142D01*
X94488000Y-86022571D02*
X94488000Y-84879714D01*
D10*
%TO.C,R1*%
X146137333Y-70810380D02*
X145804000Y-70334190D01*
X145565904Y-70810380D02*
X145565904Y-69810380D01*
X145946857Y-69810380D01*
X146042095Y-69858000D01*
X146089714Y-69905619D01*
X146137333Y-70000857D01*
X146137333Y-70143714D01*
X146089714Y-70238952D01*
X146042095Y-70286571D01*
X145946857Y-70334190D01*
X145565904Y-70334190D01*
X147089714Y-70810380D02*
X146518285Y-70810380D01*
X146804000Y-70810380D02*
X146804000Y-69810380D01*
X146708761Y-69953238D01*
X146613523Y-70048476D01*
X146518285Y-70096095D01*
%TO.C,D1*%
X91463904Y-82748380D02*
X91463904Y-81748380D01*
X91702000Y-81748380D01*
X91844857Y-81796000D01*
X91940095Y-81891238D01*
X91987714Y-81986476D01*
X92035333Y-82176952D01*
X92035333Y-82319809D01*
X91987714Y-82510285D01*
X91940095Y-82605523D01*
X91844857Y-82700761D01*
X91702000Y-82748380D01*
X91463904Y-82748380D01*
X92987714Y-82748380D02*
X92416285Y-82748380D01*
X92702000Y-82748380D02*
X92702000Y-81748380D01*
X92606761Y-81891238D01*
X92511523Y-81986476D01*
X92416285Y-82034095D01*
%TO.C,F1*%
X66222571Y-83645333D02*
X66222571Y-83978666D01*
X66746380Y-83978666D02*
X65746380Y-83978666D01*
X65746380Y-83502476D01*
X66746380Y-82597714D02*
X66746380Y-83169142D01*
X66746380Y-82883428D02*
X65746380Y-82883428D01*
X65889238Y-82978666D01*
X65984476Y-83073904D01*
X66032095Y-83169142D01*
%TO.C,R3*%
X146391333Y-55570380D02*
X146058000Y-55094190D01*
X145819904Y-55570380D02*
X145819904Y-54570380D01*
X146200857Y-54570380D01*
X146296095Y-54618000D01*
X146343714Y-54665619D01*
X146391333Y-54760857D01*
X146391333Y-54903714D01*
X146343714Y-54998952D01*
X146296095Y-55046571D01*
X146200857Y-55094190D01*
X145819904Y-55094190D01*
X146724666Y-54570380D02*
X147343714Y-54570380D01*
X147010380Y-54951333D01*
X147153238Y-54951333D01*
X147248476Y-54998952D01*
X147296095Y-55046571D01*
X147343714Y-55141809D01*
X147343714Y-55379904D01*
X147296095Y-55475142D01*
X147248476Y-55522761D01*
X147153238Y-55570380D01*
X146867523Y-55570380D01*
X146772285Y-55522761D01*
X146724666Y-55475142D01*
%TO.C,C1*%
X96117553Y-59449142D02*
X96069934Y-59496761D01*
X95927077Y-59544380D01*
X95831839Y-59544380D01*
X95688981Y-59496761D01*
X95593743Y-59401523D01*
X95546124Y-59306285D01*
X95498505Y-59115809D01*
X95498505Y-58972952D01*
X95546124Y-58782476D01*
X95593743Y-58687238D01*
X95688981Y-58592000D01*
X95831839Y-58544380D01*
X95927077Y-58544380D01*
X96069934Y-58592000D01*
X96117553Y-58639619D01*
X97069934Y-59544380D02*
X96498505Y-59544380D01*
X96784220Y-59544380D02*
X96784220Y-58544380D01*
X96688981Y-58687238D01*
X96593743Y-58782476D01*
X96498505Y-58830095D01*
%TO.C,REF\u002A\u002A*%
X142430666Y-35792380D02*
X142097333Y-35316190D01*
X141859238Y-35792380D02*
X141859238Y-34792380D01*
X142240190Y-34792380D01*
X142335428Y-34840000D01*
X142383047Y-34887619D01*
X142430666Y-34982857D01*
X142430666Y-35125714D01*
X142383047Y-35220952D01*
X142335428Y-35268571D01*
X142240190Y-35316190D01*
X141859238Y-35316190D01*
X142859238Y-35268571D02*
X143192571Y-35268571D01*
X143335428Y-35792380D02*
X142859238Y-35792380D01*
X142859238Y-34792380D01*
X143335428Y-34792380D01*
X144097333Y-35268571D02*
X143764000Y-35268571D01*
X143764000Y-35792380D02*
X143764000Y-34792380D01*
X144240190Y-34792380D01*
X144764000Y-34792380D02*
X144764000Y-35030476D01*
X144525904Y-34935238D02*
X144764000Y-35030476D01*
X145002095Y-34935238D01*
X144621142Y-35220952D02*
X144764000Y-35030476D01*
X144906857Y-35220952D01*
X145525904Y-34792380D02*
X145525904Y-35030476D01*
X145287809Y-34935238D02*
X145525904Y-35030476D01*
X145764000Y-34935238D01*
X145383047Y-35220952D02*
X145525904Y-35030476D01*
X145668761Y-35220952D01*
%TO.C,Q1*%
X126142761Y-53125619D02*
X126047523Y-53078000D01*
X125952285Y-52982761D01*
X125809428Y-52839904D01*
X125714190Y-52792285D01*
X125618952Y-52792285D01*
X125666571Y-53030380D02*
X125571333Y-52982761D01*
X125476095Y-52887523D01*
X125428476Y-52697047D01*
X125428476Y-52363714D01*
X125476095Y-52173238D01*
X125571333Y-52078000D01*
X125666571Y-52030380D01*
X125857047Y-52030380D01*
X125952285Y-52078000D01*
X126047523Y-52173238D01*
X126095142Y-52363714D01*
X126095142Y-52697047D01*
X126047523Y-52887523D01*
X125952285Y-52982761D01*
X125857047Y-53030380D01*
X125666571Y-53030380D01*
X127047523Y-53030380D02*
X126476095Y-53030380D01*
X126761809Y-53030380D02*
X126761809Y-52030380D01*
X126666571Y-52173238D01*
X126571333Y-52268476D01*
X126476095Y-52316095D01*
%TO.C,R4*%
X98385333Y-40298380D02*
X98052000Y-39822190D01*
X97813904Y-40298380D02*
X97813904Y-39298380D01*
X98194857Y-39298380D01*
X98290095Y-39346000D01*
X98337714Y-39393619D01*
X98385333Y-39488857D01*
X98385333Y-39631714D01*
X98337714Y-39726952D01*
X98290095Y-39774571D01*
X98194857Y-39822190D01*
X97813904Y-39822190D01*
X99242476Y-39631714D02*
X99242476Y-40298380D01*
X99004380Y-39250761D02*
X98766285Y-39965047D01*
X99385333Y-39965047D01*
%TO.C,J3*%
X137334666Y-95210380D02*
X137334666Y-95924666D01*
X137287047Y-96067523D01*
X137191809Y-96162761D01*
X137048952Y-96210380D01*
X136953714Y-96210380D01*
X137715619Y-95210380D02*
X138334666Y-95210380D01*
X138001333Y-95591333D01*
X138144190Y-95591333D01*
X138239428Y-95638952D01*
X138287047Y-95686571D01*
X138334666Y-95781809D01*
X138334666Y-96019904D01*
X138287047Y-96115142D01*
X138239428Y-96162761D01*
X138144190Y-96210380D01*
X137858476Y-96210380D01*
X137763238Y-96162761D01*
X137715619Y-96115142D01*
%TO.C,REF\u002A\u002A*%
X44386666Y-94432380D02*
X44053333Y-93956190D01*
X43815238Y-94432380D02*
X43815238Y-93432380D01*
X44196190Y-93432380D01*
X44291428Y-93480000D01*
X44339047Y-93527619D01*
X44386666Y-93622857D01*
X44386666Y-93765714D01*
X44339047Y-93860952D01*
X44291428Y-93908571D01*
X44196190Y-93956190D01*
X43815238Y-93956190D01*
X44815238Y-93908571D02*
X45148571Y-93908571D01*
X45291428Y-94432380D02*
X44815238Y-94432380D01*
X44815238Y-93432380D01*
X45291428Y-93432380D01*
X46053333Y-93908571D02*
X45720000Y-93908571D01*
X45720000Y-94432380D02*
X45720000Y-93432380D01*
X46196190Y-93432380D01*
X46720000Y-93432380D02*
X46720000Y-93670476D01*
X46481904Y-93575238D02*
X46720000Y-93670476D01*
X46958095Y-93575238D01*
X46577142Y-93860952D02*
X46720000Y-93670476D01*
X46862857Y-93860952D01*
X47481904Y-93432380D02*
X47481904Y-93670476D01*
X47243809Y-93575238D02*
X47481904Y-93670476D01*
X47720000Y-93575238D01*
X47339047Y-93860952D02*
X47481904Y-93670476D01*
X47624761Y-93860952D01*
%TO.C,J1*%
X109902666Y-94194380D02*
X109902666Y-94908666D01*
X109855047Y-95051523D01*
X109759809Y-95146761D01*
X109616952Y-95194380D01*
X109521714Y-95194380D01*
X110902666Y-95194380D02*
X110331238Y-95194380D01*
X110616952Y-95194380D02*
X110616952Y-94194380D01*
X110521714Y-94337238D01*
X110426476Y-94432476D01*
X110331238Y-94480095D01*
X96575809Y-101798380D02*
X96575809Y-100798380D01*
X96956761Y-100798380D01*
X97052000Y-100846000D01*
X97099619Y-100893619D01*
X97147238Y-100988857D01*
X97147238Y-101131714D01*
X97099619Y-101226952D01*
X97052000Y-101274571D01*
X96956761Y-101322190D01*
X96575809Y-101322190D01*
X97718666Y-101798380D02*
X97623428Y-101750761D01*
X97575809Y-101703142D01*
X97528190Y-101607904D01*
X97528190Y-101322190D01*
X97575809Y-101226952D01*
X97623428Y-101179333D01*
X97718666Y-101131714D01*
X97861523Y-101131714D01*
X97956761Y-101179333D01*
X98004380Y-101226952D01*
X98052000Y-101322190D01*
X98052000Y-101607904D01*
X98004380Y-101703142D01*
X97956761Y-101750761D01*
X97861523Y-101798380D01*
X97718666Y-101798380D01*
X98385333Y-101131714D02*
X98575809Y-101798380D01*
X98766285Y-101322190D01*
X98956761Y-101798380D01*
X99147238Y-101131714D01*
X99909142Y-101750761D02*
X99813904Y-101798380D01*
X99623428Y-101798380D01*
X99528190Y-101750761D01*
X99480571Y-101655523D01*
X99480571Y-101274571D01*
X99528190Y-101179333D01*
X99623428Y-101131714D01*
X99813904Y-101131714D01*
X99909142Y-101179333D01*
X99956761Y-101274571D01*
X99956761Y-101369809D01*
X99480571Y-101465047D01*
X100385333Y-101798380D02*
X100385333Y-101131714D01*
X100385333Y-101322190D02*
X100432952Y-101226952D01*
X100480571Y-101179333D01*
X100575809Y-101131714D01*
X100671047Y-101131714D01*
%TO.C,U2*%
X138346380Y-64007904D02*
X139155904Y-64007904D01*
X139251142Y-63960285D01*
X139298761Y-63912666D01*
X139346380Y-63817428D01*
X139346380Y-63626952D01*
X139298761Y-63531714D01*
X139251142Y-63484095D01*
X139155904Y-63436476D01*
X138346380Y-63436476D01*
X138441619Y-63007904D02*
X138394000Y-62960285D01*
X138346380Y-62865047D01*
X138346380Y-62626952D01*
X138394000Y-62531714D01*
X138441619Y-62484095D01*
X138536857Y-62436476D01*
X138632095Y-62436476D01*
X138774952Y-62484095D01*
X139346380Y-63055523D01*
X139346380Y-62436476D01*
%TO.C,R2*%
X146391333Y-51252380D02*
X146058000Y-50776190D01*
X145819904Y-51252380D02*
X145819904Y-50252380D01*
X146200857Y-50252380D01*
X146296095Y-50300000D01*
X146343714Y-50347619D01*
X146391333Y-50442857D01*
X146391333Y-50585714D01*
X146343714Y-50680952D01*
X146296095Y-50728571D01*
X146200857Y-50776190D01*
X145819904Y-50776190D01*
X146772285Y-50347619D02*
X146819904Y-50300000D01*
X146915142Y-50252380D01*
X147153238Y-50252380D01*
X147248476Y-50300000D01*
X147296095Y-50347619D01*
X147343714Y-50442857D01*
X147343714Y-50538095D01*
X147296095Y-50680952D01*
X146724666Y-51252380D01*
X147343714Y-51252380D01*
%TO.C,JP1*%
X130484666Y-85558380D02*
X130484666Y-86272666D01*
X130437047Y-86415523D01*
X130341809Y-86510761D01*
X130198952Y-86558380D01*
X130103714Y-86558380D01*
X130960857Y-86558380D02*
X130960857Y-85558380D01*
X131341809Y-85558380D01*
X131437047Y-85606000D01*
X131484666Y-85653619D01*
X131532285Y-85748857D01*
X131532285Y-85891714D01*
X131484666Y-85986952D01*
X131437047Y-86034571D01*
X131341809Y-86082190D01*
X130960857Y-86082190D01*
X132484666Y-86558380D02*
X131913238Y-86558380D01*
X132198952Y-86558380D02*
X132198952Y-85558380D01*
X132103714Y-85701238D01*
X132008476Y-85796476D01*
X131913238Y-85844095D01*
X137017714Y-89050761D02*
X136922476Y-89098380D01*
X136732000Y-89098380D01*
X136636761Y-89050761D01*
X136589142Y-88955523D01*
X136589142Y-88574571D01*
X136636761Y-88479333D01*
X136732000Y-88431714D01*
X136922476Y-88431714D01*
X137017714Y-88479333D01*
X137065333Y-88574571D01*
X137065333Y-88669809D01*
X136589142Y-88765047D01*
X137493904Y-88431714D02*
X137493904Y-89098380D01*
X137493904Y-88526952D02*
X137541523Y-88479333D01*
X137636761Y-88431714D01*
X137779619Y-88431714D01*
X137874857Y-88479333D01*
X137922476Y-88574571D01*
X137922476Y-89098380D01*
X138827238Y-89098380D02*
X138827238Y-88574571D01*
X138779619Y-88479333D01*
X138684380Y-88431714D01*
X138493904Y-88431714D01*
X138398666Y-88479333D01*
X138827238Y-89050761D02*
X138732000Y-89098380D01*
X138493904Y-89098380D01*
X138398666Y-89050761D01*
X138351047Y-88955523D01*
X138351047Y-88860285D01*
X138398666Y-88765047D01*
X138493904Y-88717428D01*
X138732000Y-88717428D01*
X138827238Y-88669809D01*
X139303428Y-89098380D02*
X139303428Y-88098380D01*
X139303428Y-88479333D02*
X139398666Y-88431714D01*
X139589142Y-88431714D01*
X139684380Y-88479333D01*
X139732000Y-88526952D01*
X139779619Y-88622190D01*
X139779619Y-88907904D01*
X139732000Y-89003142D01*
X139684380Y-89050761D01*
X139589142Y-89098380D01*
X139398666Y-89098380D01*
X139303428Y-89050761D01*
X140351047Y-89098380D02*
X140255809Y-89050761D01*
X140208190Y-88955523D01*
X140208190Y-88098380D01*
X141112952Y-89050761D02*
X141017714Y-89098380D01*
X140827238Y-89098380D01*
X140732000Y-89050761D01*
X140684380Y-88955523D01*
X140684380Y-88574571D01*
X140732000Y-88479333D01*
X140827238Y-88431714D01*
X141017714Y-88431714D01*
X141112952Y-88479333D01*
X141160571Y-88574571D01*
X141160571Y-88669809D01*
X140684380Y-88765047D01*
X142827238Y-88098380D02*
X142351047Y-88098380D01*
X142303428Y-88574571D01*
X142351047Y-88526952D01*
X142446285Y-88479333D01*
X142684380Y-88479333D01*
X142779619Y-88526952D01*
X142827238Y-88574571D01*
X142874857Y-88669809D01*
X142874857Y-88907904D01*
X142827238Y-89003142D01*
X142779619Y-89050761D01*
X142684380Y-89098380D01*
X142446285Y-89098380D01*
X142351047Y-89050761D01*
X142303428Y-89003142D01*
X143160571Y-88098380D02*
X143493904Y-89098380D01*
X143827238Y-88098380D01*
X145065333Y-89098380D02*
X144970095Y-89050761D01*
X144922476Y-89003142D01*
X144874857Y-88907904D01*
X144874857Y-88622190D01*
X144922476Y-88526952D01*
X144970095Y-88479333D01*
X145065333Y-88431714D01*
X145208190Y-88431714D01*
X145303428Y-88479333D01*
X145351047Y-88526952D01*
X145398666Y-88622190D01*
X145398666Y-88907904D01*
X145351047Y-89003142D01*
X145303428Y-89050761D01*
X145208190Y-89098380D01*
X145065333Y-89098380D01*
X146255809Y-88431714D02*
X146255809Y-89098380D01*
X145827238Y-88431714D02*
X145827238Y-88955523D01*
X145874857Y-89050761D01*
X145970095Y-89098380D01*
X146112952Y-89098380D01*
X146208190Y-89050761D01*
X146255809Y-89003142D01*
X146589142Y-88431714D02*
X146970095Y-88431714D01*
X146732000Y-88098380D02*
X146732000Y-88955523D01*
X146779619Y-89050761D01*
X146874857Y-89098380D01*
X146970095Y-89098380D01*
%TO.C,J2*%
X64690666Y-94089380D02*
X64690666Y-94803666D01*
X64643047Y-94946523D01*
X64547809Y-95041761D01*
X64404952Y-95089380D01*
X64309714Y-95089380D01*
X65119238Y-94184619D02*
X65166857Y-94137000D01*
X65262095Y-94089380D01*
X65500190Y-94089380D01*
X65595428Y-94137000D01*
X65643047Y-94184619D01*
X65690666Y-94279857D01*
X65690666Y-94375095D01*
X65643047Y-94517952D01*
X65071619Y-95089380D01*
X65690666Y-95089380D01*
X74985809Y-101798380D02*
X74985809Y-100798380D01*
X75366761Y-100798380D01*
X75462000Y-100846000D01*
X75509619Y-100893619D01*
X75557238Y-100988857D01*
X75557238Y-101131714D01*
X75509619Y-101226952D01*
X75462000Y-101274571D01*
X75366761Y-101322190D01*
X74985809Y-101322190D01*
X76128666Y-101798380D02*
X76033428Y-101750761D01*
X75985809Y-101703142D01*
X75938190Y-101607904D01*
X75938190Y-101322190D01*
X75985809Y-101226952D01*
X76033428Y-101179333D01*
X76128666Y-101131714D01*
X76271523Y-101131714D01*
X76366761Y-101179333D01*
X76414380Y-101226952D01*
X76462000Y-101322190D01*
X76462000Y-101607904D01*
X76414380Y-101703142D01*
X76366761Y-101750761D01*
X76271523Y-101798380D01*
X76128666Y-101798380D01*
X76795333Y-101131714D02*
X76985809Y-101798380D01*
X77176285Y-101322190D01*
X77366761Y-101798380D01*
X77557238Y-101131714D01*
X78319142Y-101750761D02*
X78223904Y-101798380D01*
X78033428Y-101798380D01*
X77938190Y-101750761D01*
X77890571Y-101655523D01*
X77890571Y-101274571D01*
X77938190Y-101179333D01*
X78033428Y-101131714D01*
X78223904Y-101131714D01*
X78319142Y-101179333D01*
X78366761Y-101274571D01*
X78366761Y-101369809D01*
X77890571Y-101465047D01*
X78795333Y-101798380D02*
X78795333Y-101131714D01*
X78795333Y-101322190D02*
X78842952Y-101226952D01*
X78890571Y-101179333D01*
X78985809Y-101131714D01*
X79081047Y-101131714D01*
%TO.C,J4*%
X125142666Y-94194380D02*
X125142666Y-94908666D01*
X125095047Y-95051523D01*
X124999809Y-95146761D01*
X124856952Y-95194380D01*
X124761714Y-95194380D01*
X126047428Y-94527714D02*
X126047428Y-95194380D01*
X125809333Y-94146761D02*
X125571238Y-94861047D01*
X126190285Y-94861047D01*
X117808666Y-101750761D02*
X117951523Y-101798380D01*
X118189619Y-101798380D01*
X118284857Y-101750761D01*
X118332476Y-101703142D01*
X118380095Y-101607904D01*
X118380095Y-101512666D01*
X118332476Y-101417428D01*
X118284857Y-101369809D01*
X118189619Y-101322190D01*
X117999142Y-101274571D01*
X117903904Y-101226952D01*
X117856285Y-101179333D01*
X117808666Y-101084095D01*
X117808666Y-100988857D01*
X117856285Y-100893619D01*
X117903904Y-100846000D01*
X117999142Y-100798380D01*
X118237238Y-100798380D01*
X118380095Y-100846000D01*
X118808666Y-101798380D02*
X118808666Y-100798380D01*
X119237238Y-101798380D02*
X119237238Y-101274571D01*
X119189619Y-101179333D01*
X119094380Y-101131714D01*
X118951523Y-101131714D01*
X118856285Y-101179333D01*
X118808666Y-101226952D01*
X120142000Y-101798380D02*
X120142000Y-101274571D01*
X120094380Y-101179333D01*
X119999142Y-101131714D01*
X119808666Y-101131714D01*
X119713428Y-101179333D01*
X120142000Y-101750761D02*
X120046761Y-101798380D01*
X119808666Y-101798380D01*
X119713428Y-101750761D01*
X119665809Y-101655523D01*
X119665809Y-101560285D01*
X119713428Y-101465047D01*
X119808666Y-101417428D01*
X120046761Y-101417428D01*
X120142000Y-101369809D01*
X120618190Y-101798380D02*
X120618190Y-100798380D01*
X120713428Y-101417428D02*
X120999142Y-101798380D01*
X120999142Y-101131714D02*
X120618190Y-101512666D01*
X121808666Y-101750761D02*
X121713428Y-101798380D01*
X121522952Y-101798380D01*
X121427714Y-101750761D01*
X121380095Y-101655523D01*
X121380095Y-101274571D01*
X121427714Y-101179333D01*
X121522952Y-101131714D01*
X121713428Y-101131714D01*
X121808666Y-101179333D01*
X121856285Y-101274571D01*
X121856285Y-101369809D01*
X121380095Y-101465047D01*
X122284857Y-101798380D02*
X122284857Y-101131714D01*
X122284857Y-101322190D02*
X122332476Y-101226952D01*
X122380095Y-101179333D01*
X122475333Y-101131714D01*
X122570571Y-101131714D01*
%TO.C,L1*%
X119281619Y-76127338D02*
X119281619Y-75651147D01*
X120281619Y-75651147D01*
X119281619Y-76984481D02*
X119281619Y-76413052D01*
X119281619Y-76698766D02*
X120281619Y-76698766D01*
X120138761Y-76603528D01*
X120043523Y-76508290D01*
X119995904Y-76413052D01*
%TO.C,C2*%
X75719333Y-59449142D02*
X75671714Y-59496761D01*
X75528857Y-59544380D01*
X75433619Y-59544380D01*
X75290761Y-59496761D01*
X75195523Y-59401523D01*
X75147904Y-59306285D01*
X75100285Y-59115809D01*
X75100285Y-58972952D01*
X75147904Y-58782476D01*
X75195523Y-58687238D01*
X75290761Y-58592000D01*
X75433619Y-58544380D01*
X75528857Y-58544380D01*
X75671714Y-58592000D01*
X75719333Y-58639619D01*
X76100285Y-58639619D02*
X76147904Y-58592000D01*
X76243142Y-58544380D01*
X76481238Y-58544380D01*
X76576476Y-58592000D01*
X76624095Y-58639619D01*
X76671714Y-58734857D01*
X76671714Y-58830095D01*
X76624095Y-58972952D01*
X76052666Y-59544380D01*
X76671714Y-59544380D01*
%TO.C,U1*%
X146558095Y-77938380D02*
X146558095Y-78747904D01*
X146605714Y-78843142D01*
X146653333Y-78890761D01*
X146748571Y-78938380D01*
X146939047Y-78938380D01*
X147034285Y-78890761D01*
X147081904Y-78843142D01*
X147129523Y-78747904D01*
X147129523Y-77938380D01*
X148129523Y-78938380D02*
X147558095Y-78938380D01*
X147843809Y-78938380D02*
X147843809Y-77938380D01*
X147748571Y-78081238D01*
X147653333Y-78176476D01*
X147558095Y-78224095D01*
%TO.C,REF\u002A\u002A*%
X52006666Y-35792380D02*
X51673333Y-35316190D01*
X51435238Y-35792380D02*
X51435238Y-34792380D01*
X51816190Y-34792380D01*
X51911428Y-34840000D01*
X51959047Y-34887619D01*
X52006666Y-34982857D01*
X52006666Y-35125714D01*
X51959047Y-35220952D01*
X51911428Y-35268571D01*
X51816190Y-35316190D01*
X51435238Y-35316190D01*
X52435238Y-35268571D02*
X52768571Y-35268571D01*
X52911428Y-35792380D02*
X52435238Y-35792380D01*
X52435238Y-34792380D01*
X52911428Y-34792380D01*
X53673333Y-35268571D02*
X53340000Y-35268571D01*
X53340000Y-35792380D02*
X53340000Y-34792380D01*
X53816190Y-34792380D01*
X54340000Y-34792380D02*
X54340000Y-35030476D01*
X54101904Y-34935238D02*
X54340000Y-35030476D01*
X54578095Y-34935238D01*
X54197142Y-35220952D02*
X54340000Y-35030476D01*
X54482857Y-35220952D01*
X55101904Y-34792380D02*
X55101904Y-35030476D01*
X54863809Y-34935238D02*
X55101904Y-35030476D01*
X55340000Y-34935238D01*
X54959047Y-35220952D02*
X55101904Y-35030476D01*
X55244761Y-35220952D01*
D12*
X103633833Y-86540663D02*
X103636048Y-86578850D01*
X103636048Y-86578850D02*
X103637784Y-86636886D01*
X103637784Y-86636886D02*
X103638899Y-86710180D01*
X103638899Y-86710180D02*
X103639257Y-86787055D01*
X103639257Y-86787055D02*
X103639257Y-87047196D01*
X103639257Y-87047196D02*
X103593326Y-87093127D01*
X103593326Y-87093127D02*
X103561675Y-87121429D01*
X103561675Y-87121429D02*
X103533890Y-87132893D01*
X103533890Y-87132893D02*
X103495915Y-87132168D01*
X103495915Y-87132168D02*
X103480840Y-87130321D01*
X103480840Y-87130321D02*
X103433726Y-87124948D01*
X103433726Y-87124948D02*
X103394756Y-87121869D01*
X103394756Y-87121869D02*
X103385257Y-87121585D01*
X103385257Y-87121585D02*
X103353233Y-87123445D01*
X103353233Y-87123445D02*
X103307432Y-87128114D01*
X103307432Y-87128114D02*
X103289674Y-87130321D01*
X103289674Y-87130321D02*
X103246057Y-87133735D01*
X103246057Y-87133735D02*
X103216745Y-87126320D01*
X103216745Y-87126320D02*
X103187680Y-87103427D01*
X103187680Y-87103427D02*
X103177188Y-87093127D01*
X103177188Y-87093127D02*
X103131257Y-87047196D01*
X103131257Y-87047196D02*
X103131257Y-86560602D01*
X103131257Y-86560602D02*
X103168226Y-86543758D01*
X103168226Y-86543758D02*
X103200059Y-86531282D01*
X103200059Y-86531282D02*
X103218683Y-86526914D01*
X103218683Y-86526914D02*
X103223458Y-86540718D01*
X103223458Y-86540718D02*
X103227921Y-86579286D01*
X103227921Y-86579286D02*
X103231775Y-86638356D01*
X103231775Y-86638356D02*
X103234722Y-86713663D01*
X103234722Y-86713663D02*
X103236143Y-86777286D01*
X103236143Y-86777286D02*
X103240114Y-87027657D01*
X103240114Y-87027657D02*
X103274759Y-87032556D01*
X103274759Y-87032556D02*
X103306268Y-87029131D01*
X103306268Y-87029131D02*
X103321708Y-87018041D01*
X103321708Y-87018041D02*
X103326023Y-86997308D01*
X103326023Y-86997308D02*
X103329708Y-86953145D01*
X103329708Y-86953145D02*
X103332469Y-86891146D01*
X103332469Y-86891146D02*
X103334012Y-86816909D01*
X103334012Y-86816909D02*
X103334235Y-86778706D01*
X103334235Y-86778706D02*
X103334457Y-86558783D01*
X103334457Y-86558783D02*
X103380166Y-86542849D01*
X103380166Y-86542849D02*
X103412518Y-86532015D01*
X103412518Y-86532015D02*
X103430115Y-86526962D01*
X103430115Y-86526962D02*
X103430623Y-86526914D01*
X103430623Y-86526914D02*
X103432388Y-86540648D01*
X103432388Y-86540648D02*
X103434329Y-86578730D01*
X103434329Y-86578730D02*
X103436282Y-86636482D01*
X103436282Y-86636482D02*
X103438084Y-86709227D01*
X103438084Y-86709227D02*
X103439343Y-86777286D01*
X103439343Y-86777286D02*
X103443314Y-87027657D01*
X103443314Y-87027657D02*
X103530400Y-87027657D01*
X103530400Y-87027657D02*
X103534396Y-86799240D01*
X103534396Y-86799240D02*
X103538392Y-86570822D01*
X103538392Y-86570822D02*
X103580847Y-86548868D01*
X103580847Y-86548868D02*
X103612192Y-86533793D01*
X103612192Y-86533793D02*
X103630744Y-86526951D01*
X103630744Y-86526951D02*
X103631279Y-86526914D01*
X103631279Y-86526914D02*
X103633833Y-86540663D01*
X103633833Y-86540663D02*
X103633833Y-86540663D01*
G36*
X103633833Y-86540663D02*
G01*
X103636048Y-86578850D01*
X103637784Y-86636886D01*
X103638899Y-86710180D01*
X103639257Y-86787055D01*
X103639257Y-87047196D01*
X103593326Y-87093127D01*
X103561675Y-87121429D01*
X103533890Y-87132893D01*
X103495915Y-87132168D01*
X103480840Y-87130321D01*
X103433726Y-87124948D01*
X103394756Y-87121869D01*
X103385257Y-87121585D01*
X103353233Y-87123445D01*
X103307432Y-87128114D01*
X103289674Y-87130321D01*
X103246057Y-87133735D01*
X103216745Y-87126320D01*
X103187680Y-87103427D01*
X103177188Y-87093127D01*
X103131257Y-87047196D01*
X103131257Y-86560602D01*
X103168226Y-86543758D01*
X103200059Y-86531282D01*
X103218683Y-86526914D01*
X103223458Y-86540718D01*
X103227921Y-86579286D01*
X103231775Y-86638356D01*
X103234722Y-86713663D01*
X103236143Y-86777286D01*
X103240114Y-87027657D01*
X103274759Y-87032556D01*
X103306268Y-87029131D01*
X103321708Y-87018041D01*
X103326023Y-86997308D01*
X103329708Y-86953145D01*
X103332469Y-86891146D01*
X103334012Y-86816909D01*
X103334235Y-86778706D01*
X103334457Y-86558783D01*
X103380166Y-86542849D01*
X103412518Y-86532015D01*
X103430115Y-86526962D01*
X103430623Y-86526914D01*
X103432388Y-86540648D01*
X103434329Y-86578730D01*
X103436282Y-86636482D01*
X103438084Y-86709227D01*
X103439343Y-86777286D01*
X103443314Y-87027657D01*
X103530400Y-87027657D01*
X103534396Y-86799240D01*
X103538392Y-86570822D01*
X103580847Y-86548868D01*
X103612192Y-86533793D01*
X103630744Y-86526951D01*
X103631279Y-86526914D01*
X103633833Y-86540663D01*
G37*
X103633833Y-86540663D02*
X103636048Y-86578850D01*
X103637784Y-86636886D01*
X103638899Y-86710180D01*
X103639257Y-86787055D01*
X103639257Y-87047196D01*
X103593326Y-87093127D01*
X103561675Y-87121429D01*
X103533890Y-87132893D01*
X103495915Y-87132168D01*
X103480840Y-87130321D01*
X103433726Y-87124948D01*
X103394756Y-87121869D01*
X103385257Y-87121585D01*
X103353233Y-87123445D01*
X103307432Y-87128114D01*
X103289674Y-87130321D01*
X103246057Y-87133735D01*
X103216745Y-87126320D01*
X103187680Y-87103427D01*
X103177188Y-87093127D01*
X103131257Y-87047196D01*
X103131257Y-86560602D01*
X103168226Y-86543758D01*
X103200059Y-86531282D01*
X103218683Y-86526914D01*
X103223458Y-86540718D01*
X103227921Y-86579286D01*
X103231775Y-86638356D01*
X103234722Y-86713663D01*
X103236143Y-86777286D01*
X103240114Y-87027657D01*
X103274759Y-87032556D01*
X103306268Y-87029131D01*
X103321708Y-87018041D01*
X103326023Y-86997308D01*
X103329708Y-86953145D01*
X103332469Y-86891146D01*
X103334012Y-86816909D01*
X103334235Y-86778706D01*
X103334457Y-86558783D01*
X103380166Y-86542849D01*
X103412518Y-86532015D01*
X103430115Y-86526962D01*
X103430623Y-86526914D01*
X103432388Y-86540648D01*
X103434329Y-86578730D01*
X103436282Y-86636482D01*
X103438084Y-86709227D01*
X103439343Y-86777286D01*
X103443314Y-87027657D01*
X103530400Y-87027657D01*
X103534396Y-86799240D01*
X103538392Y-86570822D01*
X103580847Y-86548868D01*
X103612192Y-86533793D01*
X103630744Y-86526951D01*
X103631279Y-86526914D01*
X103633833Y-86540663D01*
X98895115Y-86503962D02*
X98963145Y-86539733D01*
X98963145Y-86539733D02*
X99013351Y-86597301D01*
X99013351Y-86597301D02*
X99031185Y-86634312D01*
X99031185Y-86634312D02*
X99045063Y-86689882D01*
X99045063Y-86689882D02*
X99052167Y-86760096D01*
X99052167Y-86760096D02*
X99052840Y-86836727D01*
X99052840Y-86836727D02*
X99047427Y-86911552D01*
X99047427Y-86911552D02*
X99036270Y-86976342D01*
X99036270Y-86976342D02*
X99019714Y-87022873D01*
X99019714Y-87022873D02*
X99014626Y-87030887D01*
X99014626Y-87030887D02*
X98954355Y-87090707D01*
X98954355Y-87090707D02*
X98882769Y-87126535D01*
X98882769Y-87126535D02*
X98805092Y-87137020D01*
X98805092Y-87137020D02*
X98726548Y-87120810D01*
X98726548Y-87120810D02*
X98704689Y-87111092D01*
X98704689Y-87111092D02*
X98662122Y-87081143D01*
X98662122Y-87081143D02*
X98624763Y-87041433D01*
X98624763Y-87041433D02*
X98621232Y-87036397D01*
X98621232Y-87036397D02*
X98606881Y-87012124D01*
X98606881Y-87012124D02*
X98597394Y-86986178D01*
X98597394Y-86986178D02*
X98591790Y-86952022D01*
X98591790Y-86952022D02*
X98589086Y-86903119D01*
X98589086Y-86903119D02*
X98588299Y-86832935D01*
X98588299Y-86832935D02*
X98588286Y-86817200D01*
X98588286Y-86817200D02*
X98588322Y-86812192D01*
X98588322Y-86812192D02*
X98733429Y-86812192D01*
X98733429Y-86812192D02*
X98734273Y-86878430D01*
X98734273Y-86878430D02*
X98737596Y-86922386D01*
X98737596Y-86922386D02*
X98744583Y-86950779D01*
X98744583Y-86950779D02*
X98756416Y-86970325D01*
X98756416Y-86970325D02*
X98762457Y-86976857D01*
X98762457Y-86976857D02*
X98797186Y-87001680D01*
X98797186Y-87001680D02*
X98830903Y-87000548D01*
X98830903Y-87000548D02*
X98864995Y-86979016D01*
X98864995Y-86979016D02*
X98885329Y-86956029D01*
X98885329Y-86956029D02*
X98897371Y-86922478D01*
X98897371Y-86922478D02*
X98904134Y-86869569D01*
X98904134Y-86869569D02*
X98904598Y-86863399D01*
X98904598Y-86863399D02*
X98905752Y-86767513D01*
X98905752Y-86767513D02*
X98893688Y-86696299D01*
X98893688Y-86696299D02*
X98868570Y-86650194D01*
X98868570Y-86650194D02*
X98830560Y-86629635D01*
X98830560Y-86629635D02*
X98816992Y-86628514D01*
X98816992Y-86628514D02*
X98781364Y-86634152D01*
X98781364Y-86634152D02*
X98756994Y-86653686D01*
X98756994Y-86653686D02*
X98742093Y-86691042D01*
X98742093Y-86691042D02*
X98734875Y-86750150D01*
X98734875Y-86750150D02*
X98733429Y-86812192D01*
X98733429Y-86812192D02*
X98588322Y-86812192D01*
X98588322Y-86812192D02*
X98588826Y-86742413D01*
X98588826Y-86742413D02*
X98591096Y-86690159D01*
X98591096Y-86690159D02*
X98596068Y-86653949D01*
X98596068Y-86653949D02*
X98604713Y-86627299D01*
X98604713Y-86627299D02*
X98618005Y-86603722D01*
X98618005Y-86603722D02*
X98620943Y-86599338D01*
X98620943Y-86599338D02*
X98670313Y-86540249D01*
X98670313Y-86540249D02*
X98724109Y-86505947D01*
X98724109Y-86505947D02*
X98789602Y-86492331D01*
X98789602Y-86492331D02*
X98811842Y-86491665D01*
X98811842Y-86491665D02*
X98895115Y-86503962D01*
X98895115Y-86503962D02*
X98895115Y-86503962D01*
G36*
X98591096Y-86690159D02*
G01*
X98596068Y-86653949D01*
X98604713Y-86627299D01*
X98618005Y-86603722D01*
X98620943Y-86599338D01*
X98670313Y-86540249D01*
X98724109Y-86505947D01*
X98789602Y-86492331D01*
X98811842Y-86491665D01*
X98895115Y-86503962D01*
X98963145Y-86539733D01*
X99013351Y-86597301D01*
X99031185Y-86634312D01*
X99045063Y-86689882D01*
X99052167Y-86760096D01*
X99052840Y-86836727D01*
X99047427Y-86911552D01*
X99036270Y-86976342D01*
X99019714Y-87022873D01*
X99014626Y-87030887D01*
X98954355Y-87090707D01*
X98882769Y-87126535D01*
X98805092Y-87137020D01*
X98726548Y-87120810D01*
X98704689Y-87111092D01*
X98662122Y-87081143D01*
X98624763Y-87041433D01*
X98621232Y-87036397D01*
X98606881Y-87012124D01*
X98597394Y-86986178D01*
X98591790Y-86952022D01*
X98589086Y-86903119D01*
X98588299Y-86832935D01*
X98588286Y-86817200D01*
X98588322Y-86812192D01*
X98733429Y-86812192D01*
X98734273Y-86878430D01*
X98737596Y-86922386D01*
X98744583Y-86950779D01*
X98756416Y-86970325D01*
X98762457Y-86976857D01*
X98797186Y-87001680D01*
X98830903Y-87000548D01*
X98864995Y-86979016D01*
X98885329Y-86956029D01*
X98897371Y-86922478D01*
X98904134Y-86869569D01*
X98904598Y-86863399D01*
X98905752Y-86767513D01*
X98893688Y-86696299D01*
X98868570Y-86650194D01*
X98830560Y-86629635D01*
X98816992Y-86628514D01*
X98781364Y-86634152D01*
X98756994Y-86653686D01*
X98742093Y-86691042D01*
X98734875Y-86750150D01*
X98733429Y-86812192D01*
X98588322Y-86812192D01*
X98588826Y-86742413D01*
X98591096Y-86690159D01*
G37*
X98591096Y-86690159D02*
X98596068Y-86653949D01*
X98604713Y-86627299D01*
X98618005Y-86603722D01*
X98620943Y-86599338D01*
X98670313Y-86540249D01*
X98724109Y-86505947D01*
X98789602Y-86492331D01*
X98811842Y-86491665D01*
X98895115Y-86503962D01*
X98963145Y-86539733D01*
X99013351Y-86597301D01*
X99031185Y-86634312D01*
X99045063Y-86689882D01*
X99052167Y-86760096D01*
X99052840Y-86836727D01*
X99047427Y-86911552D01*
X99036270Y-86976342D01*
X99019714Y-87022873D01*
X99014626Y-87030887D01*
X98954355Y-87090707D01*
X98882769Y-87126535D01*
X98805092Y-87137020D01*
X98726548Y-87120810D01*
X98704689Y-87111092D01*
X98662122Y-87081143D01*
X98624763Y-87041433D01*
X98621232Y-87036397D01*
X98606881Y-87012124D01*
X98597394Y-86986178D01*
X98591790Y-86952022D01*
X98589086Y-86903119D01*
X98588299Y-86832935D01*
X98588286Y-86817200D01*
X98588322Y-86812192D01*
X98733429Y-86812192D01*
X98734273Y-86878430D01*
X98737596Y-86922386D01*
X98744583Y-86950779D01*
X98756416Y-86970325D01*
X98762457Y-86976857D01*
X98797186Y-87001680D01*
X98830903Y-87000548D01*
X98864995Y-86979016D01*
X98885329Y-86956029D01*
X98897371Y-86922478D01*
X98904134Y-86869569D01*
X98904598Y-86863399D01*
X98905752Y-86767513D01*
X98893688Y-86696299D01*
X98868570Y-86650194D01*
X98830560Y-86629635D01*
X98816992Y-86628514D01*
X98781364Y-86634152D01*
X98756994Y-86653686D01*
X98742093Y-86691042D01*
X98734875Y-86750150D01*
X98733429Y-86812192D01*
X98588322Y-86812192D01*
X98588826Y-86742413D01*
X98591096Y-86690159D01*
X105007595Y-86548966D02*
X105065021Y-86586497D01*
X105065021Y-86586497D02*
X105092719Y-86620096D01*
X105092719Y-86620096D02*
X105114662Y-86681064D01*
X105114662Y-86681064D02*
X105116405Y-86729308D01*
X105116405Y-86729308D02*
X105112457Y-86793816D01*
X105112457Y-86793816D02*
X104963686Y-86858934D01*
X104963686Y-86858934D02*
X104891349Y-86892202D01*
X104891349Y-86892202D02*
X104844084Y-86918964D01*
X104844084Y-86918964D02*
X104819507Y-86942144D01*
X104819507Y-86942144D02*
X104815237Y-86964667D01*
X104815237Y-86964667D02*
X104828889Y-86989455D01*
X104828889Y-86989455D02*
X104843943Y-87005886D01*
X104843943Y-87005886D02*
X104887746Y-87032235D01*
X104887746Y-87032235D02*
X104935389Y-87034081D01*
X104935389Y-87034081D02*
X104979145Y-87013546D01*
X104979145Y-87013546D02*
X105011289Y-86972752D01*
X105011289Y-86972752D02*
X105017038Y-86958347D01*
X105017038Y-86958347D02*
X105044576Y-86913356D01*
X105044576Y-86913356D02*
X105076258Y-86894182D01*
X105076258Y-86894182D02*
X105119714Y-86877779D01*
X105119714Y-86877779D02*
X105119714Y-86939966D01*
X105119714Y-86939966D02*
X105115872Y-86982283D01*
X105115872Y-86982283D02*
X105100823Y-87017969D01*
X105100823Y-87017969D02*
X105069280Y-87058943D01*
X105069280Y-87058943D02*
X105064592Y-87064267D01*
X105064592Y-87064267D02*
X105029506Y-87100720D01*
X105029506Y-87100720D02*
X104999347Y-87120283D01*
X104999347Y-87120283D02*
X104961615Y-87129283D01*
X104961615Y-87129283D02*
X104930335Y-87132230D01*
X104930335Y-87132230D02*
X104874385Y-87132965D01*
X104874385Y-87132965D02*
X104834555Y-87123660D01*
X104834555Y-87123660D02*
X104809708Y-87109846D01*
X104809708Y-87109846D02*
X104770656Y-87079467D01*
X104770656Y-87079467D02*
X104743625Y-87046613D01*
X104743625Y-87046613D02*
X104726517Y-87005294D01*
X104726517Y-87005294D02*
X104717238Y-86949521D01*
X104717238Y-86949521D02*
X104713693Y-86873305D01*
X104713693Y-86873305D02*
X104713410Y-86834622D01*
X104713410Y-86834622D02*
X104714372Y-86788247D01*
X104714372Y-86788247D02*
X104802007Y-86788247D01*
X104802007Y-86788247D02*
X104803023Y-86813126D01*
X104803023Y-86813126D02*
X104805556Y-86817200D01*
X104805556Y-86817200D02*
X104822274Y-86811665D01*
X104822274Y-86811665D02*
X104858249Y-86797017D01*
X104858249Y-86797017D02*
X104906331Y-86776190D01*
X104906331Y-86776190D02*
X104916386Y-86771714D01*
X104916386Y-86771714D02*
X104977152Y-86740814D01*
X104977152Y-86740814D02*
X105010632Y-86713657D01*
X105010632Y-86713657D02*
X105017990Y-86688220D01*
X105017990Y-86688220D02*
X105000391Y-86662481D01*
X105000391Y-86662481D02*
X104985856Y-86651109D01*
X104985856Y-86651109D02*
X104933410Y-86628364D01*
X104933410Y-86628364D02*
X104884322Y-86632122D01*
X104884322Y-86632122D02*
X104843227Y-86659884D01*
X104843227Y-86659884D02*
X104814758Y-86709152D01*
X104814758Y-86709152D02*
X104805631Y-86748257D01*
X104805631Y-86748257D02*
X104802007Y-86788247D01*
X104802007Y-86788247D02*
X104714372Y-86788247D01*
X104714372Y-86788247D02*
X104715285Y-86744249D01*
X104715285Y-86744249D02*
X104722196Y-86677384D01*
X104722196Y-86677384D02*
X104735884Y-86628695D01*
X104735884Y-86628695D02*
X104758096Y-86592849D01*
X104758096Y-86592849D02*
X104790574Y-86564513D01*
X104790574Y-86564513D02*
X104804733Y-86555355D01*
X104804733Y-86555355D02*
X104869053Y-86531507D01*
X104869053Y-86531507D02*
X104939473Y-86530006D01*
X104939473Y-86530006D02*
X105007595Y-86548966D01*
X105007595Y-86548966D02*
X105007595Y-86548966D01*
G36*
X104722196Y-86677384D02*
G01*
X104735884Y-86628695D01*
X104758096Y-86592849D01*
X104790574Y-86564513D01*
X104804733Y-86555355D01*
X104869053Y-86531507D01*
X104939473Y-86530006D01*
X105007595Y-86548966D01*
X105065021Y-86586497D01*
X105092719Y-86620096D01*
X105114662Y-86681064D01*
X105116405Y-86729308D01*
X105112457Y-86793816D01*
X104963686Y-86858934D01*
X104891349Y-86892202D01*
X104844084Y-86918964D01*
X104819507Y-86942144D01*
X104815237Y-86964667D01*
X104828889Y-86989455D01*
X104843943Y-87005886D01*
X104887746Y-87032235D01*
X104935389Y-87034081D01*
X104979145Y-87013546D01*
X105011289Y-86972752D01*
X105017038Y-86958347D01*
X105044576Y-86913356D01*
X105076258Y-86894182D01*
X105119714Y-86877779D01*
X105119714Y-86939966D01*
X105115872Y-86982283D01*
X105100823Y-87017969D01*
X105069280Y-87058943D01*
X105064592Y-87064267D01*
X105029506Y-87100720D01*
X104999347Y-87120283D01*
X104961615Y-87129283D01*
X104930335Y-87132230D01*
X104874385Y-87132965D01*
X104834555Y-87123660D01*
X104809708Y-87109846D01*
X104770656Y-87079467D01*
X104743625Y-87046613D01*
X104726517Y-87005294D01*
X104717238Y-86949521D01*
X104713693Y-86873305D01*
X104713410Y-86834622D01*
X104714372Y-86788247D01*
X104802007Y-86788247D01*
X104803023Y-86813126D01*
X104805556Y-86817200D01*
X104822274Y-86811665D01*
X104858249Y-86797017D01*
X104906331Y-86776190D01*
X104916386Y-86771714D01*
X104977152Y-86740814D01*
X105010632Y-86713657D01*
X105017990Y-86688220D01*
X105000391Y-86662481D01*
X104985856Y-86651109D01*
X104933410Y-86628364D01*
X104884322Y-86632122D01*
X104843227Y-86659884D01*
X104814758Y-86709152D01*
X104805631Y-86748257D01*
X104802007Y-86788247D01*
X104714372Y-86788247D01*
X104715285Y-86744249D01*
X104722196Y-86677384D01*
G37*
X104722196Y-86677384D02*
X104735884Y-86628695D01*
X104758096Y-86592849D01*
X104790574Y-86564513D01*
X104804733Y-86555355D01*
X104869053Y-86531507D01*
X104939473Y-86530006D01*
X105007595Y-86548966D01*
X105065021Y-86586497D01*
X105092719Y-86620096D01*
X105114662Y-86681064D01*
X105116405Y-86729308D01*
X105112457Y-86793816D01*
X104963686Y-86858934D01*
X104891349Y-86892202D01*
X104844084Y-86918964D01*
X104819507Y-86942144D01*
X104815237Y-86964667D01*
X104828889Y-86989455D01*
X104843943Y-87005886D01*
X104887746Y-87032235D01*
X104935389Y-87034081D01*
X104979145Y-87013546D01*
X105011289Y-86972752D01*
X105017038Y-86958347D01*
X105044576Y-86913356D01*
X105076258Y-86894182D01*
X105119714Y-86877779D01*
X105119714Y-86939966D01*
X105115872Y-86982283D01*
X105100823Y-87017969D01*
X105069280Y-87058943D01*
X105064592Y-87064267D01*
X105029506Y-87100720D01*
X104999347Y-87120283D01*
X104961615Y-87129283D01*
X104930335Y-87132230D01*
X104874385Y-87132965D01*
X104834555Y-87123660D01*
X104809708Y-87109846D01*
X104770656Y-87079467D01*
X104743625Y-87046613D01*
X104726517Y-87005294D01*
X104717238Y-86949521D01*
X104713693Y-86873305D01*
X104713410Y-86834622D01*
X104714372Y-86788247D01*
X104802007Y-86788247D01*
X104803023Y-86813126D01*
X104805556Y-86817200D01*
X104822274Y-86811665D01*
X104858249Y-86797017D01*
X104906331Y-86776190D01*
X104916386Y-86771714D01*
X104977152Y-86740814D01*
X105010632Y-86713657D01*
X105017990Y-86688220D01*
X105000391Y-86662481D01*
X104985856Y-86651109D01*
X104933410Y-86628364D01*
X104884322Y-86632122D01*
X104843227Y-86659884D01*
X104814758Y-86709152D01*
X104805631Y-86748257D01*
X104802007Y-86788247D01*
X104714372Y-86788247D01*
X104715285Y-86744249D01*
X104722196Y-86677384D01*
X100570093Y-86509780D02*
X100616672Y-86536723D01*
X100616672Y-86536723D02*
X100649057Y-86563466D01*
X100649057Y-86563466D02*
X100672742Y-86591484D01*
X100672742Y-86591484D02*
X100689059Y-86625748D01*
X100689059Y-86625748D02*
X100699339Y-86671227D01*
X100699339Y-86671227D02*
X100704914Y-86732892D01*
X100704914Y-86732892D02*
X100707116Y-86815711D01*
X100707116Y-86815711D02*
X100707371Y-86875246D01*
X100707371Y-86875246D02*
X100707371Y-87094391D01*
X100707371Y-87094391D02*
X100645686Y-87122044D01*
X100645686Y-87122044D02*
X100584000Y-87149697D01*
X100584000Y-87149697D02*
X100576743Y-86909670D01*
X100576743Y-86909670D02*
X100573744Y-86820028D01*
X100573744Y-86820028D02*
X100570598Y-86754962D01*
X100570598Y-86754962D02*
X100566701Y-86710026D01*
X100566701Y-86710026D02*
X100561447Y-86680770D01*
X100561447Y-86680770D02*
X100554231Y-86662748D01*
X100554231Y-86662748D02*
X100544450Y-86651511D01*
X100544450Y-86651511D02*
X100541312Y-86649079D01*
X100541312Y-86649079D02*
X100493761Y-86630083D01*
X100493761Y-86630083D02*
X100445697Y-86637600D01*
X100445697Y-86637600D02*
X100417086Y-86657543D01*
X100417086Y-86657543D02*
X100405447Y-86671675D01*
X100405447Y-86671675D02*
X100397391Y-86690220D01*
X100397391Y-86690220D02*
X100392271Y-86718334D01*
X100392271Y-86718334D02*
X100389441Y-86761173D01*
X100389441Y-86761173D02*
X100388256Y-86823895D01*
X100388256Y-86823895D02*
X100388057Y-86889261D01*
X100388057Y-86889261D02*
X100388018Y-86971268D01*
X100388018Y-86971268D02*
X100386614Y-87029316D01*
X100386614Y-87029316D02*
X100381914Y-87068465D01*
X100381914Y-87068465D02*
X100371987Y-87093780D01*
X100371987Y-87093780D02*
X100354903Y-87110323D01*
X100354903Y-87110323D02*
X100328732Y-87123156D01*
X100328732Y-87123156D02*
X100293775Y-87136491D01*
X100293775Y-87136491D02*
X100255596Y-87151007D01*
X100255596Y-87151007D02*
X100260141Y-86893389D01*
X100260141Y-86893389D02*
X100261971Y-86800519D01*
X100261971Y-86800519D02*
X100264112Y-86731889D01*
X100264112Y-86731889D02*
X100267181Y-86682711D01*
X100267181Y-86682711D02*
X100271794Y-86648198D01*
X100271794Y-86648198D02*
X100278568Y-86623562D01*
X100278568Y-86623562D02*
X100288119Y-86604016D01*
X100288119Y-86604016D02*
X100299634Y-86586770D01*
X100299634Y-86586770D02*
X100355190Y-86531680D01*
X100355190Y-86531680D02*
X100422980Y-86499822D01*
X100422980Y-86499822D02*
X100496713Y-86492191D01*
X100496713Y-86492191D02*
X100570093Y-86509780D01*
X100570093Y-86509780D02*
X100570093Y-86509780D01*
G36*
X100570093Y-86509780D02*
G01*
X100616672Y-86536723D01*
X100649057Y-86563466D01*
X100672742Y-86591484D01*
X100689059Y-86625748D01*
X100699339Y-86671227D01*
X100704914Y-86732892D01*
X100707116Y-86815711D01*
X100707371Y-86875246D01*
X100707371Y-87094391D01*
X100645686Y-87122044D01*
X100584000Y-87149697D01*
X100576743Y-86909670D01*
X100573744Y-86820028D01*
X100570598Y-86754962D01*
X100566701Y-86710026D01*
X100561447Y-86680770D01*
X100554231Y-86662748D01*
X100544450Y-86651511D01*
X100541312Y-86649079D01*
X100493761Y-86630083D01*
X100445697Y-86637600D01*
X100417086Y-86657543D01*
X100405447Y-86671675D01*
X100397391Y-86690220D01*
X100392271Y-86718334D01*
X100389441Y-86761173D01*
X100388256Y-86823895D01*
X100388057Y-86889261D01*
X100388018Y-86971268D01*
X100386614Y-87029316D01*
X100381914Y-87068465D01*
X100371987Y-87093780D01*
X100354903Y-87110323D01*
X100328732Y-87123156D01*
X100293775Y-87136491D01*
X100255596Y-87151007D01*
X100260141Y-86893389D01*
X100261971Y-86800519D01*
X100264112Y-86731889D01*
X100267181Y-86682711D01*
X100271794Y-86648198D01*
X100278568Y-86623562D01*
X100288119Y-86604016D01*
X100299634Y-86586770D01*
X100355190Y-86531680D01*
X100422980Y-86499822D01*
X100496713Y-86492191D01*
X100570093Y-86509780D01*
G37*
X100570093Y-86509780D02*
X100616672Y-86536723D01*
X100649057Y-86563466D01*
X100672742Y-86591484D01*
X100689059Y-86625748D01*
X100699339Y-86671227D01*
X100704914Y-86732892D01*
X100707116Y-86815711D01*
X100707371Y-86875246D01*
X100707371Y-87094391D01*
X100645686Y-87122044D01*
X100584000Y-87149697D01*
X100576743Y-86909670D01*
X100573744Y-86820028D01*
X100570598Y-86754962D01*
X100566701Y-86710026D01*
X100561447Y-86680770D01*
X100554231Y-86662748D01*
X100544450Y-86651511D01*
X100541312Y-86649079D01*
X100493761Y-86630083D01*
X100445697Y-86637600D01*
X100417086Y-86657543D01*
X100405447Y-86671675D01*
X100397391Y-86690220D01*
X100392271Y-86718334D01*
X100389441Y-86761173D01*
X100388256Y-86823895D01*
X100388057Y-86889261D01*
X100388018Y-86971268D01*
X100386614Y-87029316D01*
X100381914Y-87068465D01*
X100371987Y-87093780D01*
X100354903Y-87110323D01*
X100328732Y-87123156D01*
X100293775Y-87136491D01*
X100255596Y-87151007D01*
X100260141Y-86893389D01*
X100261971Y-86800519D01*
X100264112Y-86731889D01*
X100267181Y-86682711D01*
X100271794Y-86648198D01*
X100278568Y-86623562D01*
X100288119Y-86604016D01*
X100299634Y-86586770D01*
X100355190Y-86531680D01*
X100422980Y-86499822D01*
X100496713Y-86492191D01*
X100570093Y-86509780D01*
X104506600Y-86540752D02*
X104523948Y-86548334D01*
X104523948Y-86548334D02*
X104565356Y-86581128D01*
X104565356Y-86581128D02*
X104600765Y-86628547D01*
X104600765Y-86628547D02*
X104622664Y-86679151D01*
X104622664Y-86679151D02*
X104626229Y-86704098D01*
X104626229Y-86704098D02*
X104614279Y-86738927D01*
X104614279Y-86738927D02*
X104588067Y-86757357D01*
X104588067Y-86757357D02*
X104559964Y-86768516D01*
X104559964Y-86768516D02*
X104547095Y-86770572D01*
X104547095Y-86770572D02*
X104540829Y-86755649D01*
X104540829Y-86755649D02*
X104528456Y-86723175D01*
X104528456Y-86723175D02*
X104523028Y-86708502D01*
X104523028Y-86708502D02*
X104492590Y-86657744D01*
X104492590Y-86657744D02*
X104448520Y-86632427D01*
X104448520Y-86632427D02*
X104392010Y-86633206D01*
X104392010Y-86633206D02*
X104387825Y-86634203D01*
X104387825Y-86634203D02*
X104357655Y-86648507D01*
X104357655Y-86648507D02*
X104335476Y-86676393D01*
X104335476Y-86676393D02*
X104320327Y-86721287D01*
X104320327Y-86721287D02*
X104311250Y-86786615D01*
X104311250Y-86786615D02*
X104307286Y-86875804D01*
X104307286Y-86875804D02*
X104306914Y-86923261D01*
X104306914Y-86923261D02*
X104306730Y-86998071D01*
X104306730Y-86998071D02*
X104305522Y-87049069D01*
X104305522Y-87049069D02*
X104302309Y-87081471D01*
X104302309Y-87081471D02*
X104296109Y-87100495D01*
X104296109Y-87100495D02*
X104285940Y-87111356D01*
X104285940Y-87111356D02*
X104270819Y-87119272D01*
X104270819Y-87119272D02*
X104269946Y-87119670D01*
X104269946Y-87119670D02*
X104240828Y-87131981D01*
X104240828Y-87131981D02*
X104226403Y-87136514D01*
X104226403Y-87136514D02*
X104224186Y-87122809D01*
X104224186Y-87122809D02*
X104222289Y-87084925D01*
X104222289Y-87084925D02*
X104220847Y-87027715D01*
X104220847Y-87027715D02*
X104219998Y-86956027D01*
X104219998Y-86956027D02*
X104219829Y-86903565D01*
X104219829Y-86903565D02*
X104220692Y-86802047D01*
X104220692Y-86802047D02*
X104224070Y-86725032D01*
X104224070Y-86725032D02*
X104231142Y-86668023D01*
X104231142Y-86668023D02*
X104243088Y-86626526D01*
X104243088Y-86626526D02*
X104261090Y-86596043D01*
X104261090Y-86596043D02*
X104286327Y-86572080D01*
X104286327Y-86572080D02*
X104311247Y-86555355D01*
X104311247Y-86555355D02*
X104371171Y-86533097D01*
X104371171Y-86533097D02*
X104440911Y-86528076D01*
X104440911Y-86528076D02*
X104506600Y-86540752D01*
X104506600Y-86540752D02*
X104506600Y-86540752D01*
G36*
X104506600Y-86540752D02*
G01*
X104523948Y-86548334D01*
X104565356Y-86581128D01*
X104600765Y-86628547D01*
X104622664Y-86679151D01*
X104626229Y-86704098D01*
X104614279Y-86738927D01*
X104588067Y-86757357D01*
X104559964Y-86768516D01*
X104547095Y-86770572D01*
X104540829Y-86755649D01*
X104528456Y-86723175D01*
X104523028Y-86708502D01*
X104492590Y-86657744D01*
X104448520Y-86632427D01*
X104392010Y-86633206D01*
X104387825Y-86634203D01*
X104357655Y-86648507D01*
X104335476Y-86676393D01*
X104320327Y-86721287D01*
X104311250Y-86786615D01*
X104307286Y-86875804D01*
X104306914Y-86923261D01*
X104306730Y-86998071D01*
X104305522Y-87049069D01*
X104302309Y-87081471D01*
X104296109Y-87100495D01*
X104285940Y-87111356D01*
X104270819Y-87119272D01*
X104269946Y-87119670D01*
X104240828Y-87131981D01*
X104226403Y-87136514D01*
X104224186Y-87122809D01*
X104222289Y-87084925D01*
X104220847Y-87027715D01*
X104219998Y-86956027D01*
X104219829Y-86903565D01*
X104220692Y-86802047D01*
X104224070Y-86725032D01*
X104231142Y-86668023D01*
X104243088Y-86626526D01*
X104261090Y-86596043D01*
X104286327Y-86572080D01*
X104311247Y-86555355D01*
X104371171Y-86533097D01*
X104440911Y-86528076D01*
X104506600Y-86540752D01*
G37*
X104506600Y-86540752D02*
X104523948Y-86548334D01*
X104565356Y-86581128D01*
X104600765Y-86628547D01*
X104622664Y-86679151D01*
X104626229Y-86704098D01*
X104614279Y-86738927D01*
X104588067Y-86757357D01*
X104559964Y-86768516D01*
X104547095Y-86770572D01*
X104540829Y-86755649D01*
X104528456Y-86723175D01*
X104523028Y-86708502D01*
X104492590Y-86657744D01*
X104448520Y-86632427D01*
X104392010Y-86633206D01*
X104387825Y-86634203D01*
X104357655Y-86648507D01*
X104335476Y-86676393D01*
X104320327Y-86721287D01*
X104311250Y-86786615D01*
X104307286Y-86875804D01*
X104306914Y-86923261D01*
X104306730Y-86998071D01*
X104305522Y-87049069D01*
X104302309Y-87081471D01*
X104296109Y-87100495D01*
X104285940Y-87111356D01*
X104270819Y-87119272D01*
X104269946Y-87119670D01*
X104240828Y-87131981D01*
X104226403Y-87136514D01*
X104224186Y-87122809D01*
X104222289Y-87084925D01*
X104220847Y-87027715D01*
X104219998Y-86956027D01*
X104219829Y-86903565D01*
X104220692Y-86802047D01*
X104224070Y-86725032D01*
X104231142Y-86668023D01*
X104243088Y-86626526D01*
X104261090Y-86596043D01*
X104286327Y-86572080D01*
X104311247Y-86555355D01*
X104371171Y-86533097D01*
X104440911Y-86528076D01*
X104506600Y-86540752D01*
X103044117Y-86647358D02*
X103043933Y-86755837D01*
X103043933Y-86755837D02*
X103043219Y-86839287D01*
X103043219Y-86839287D02*
X103041675Y-86901704D01*
X103041675Y-86901704D02*
X103039001Y-86947085D01*
X103039001Y-86947085D02*
X103034894Y-86979429D01*
X103034894Y-86979429D02*
X103029055Y-87002733D01*
X103029055Y-87002733D02*
X103021182Y-87020995D01*
X103021182Y-87020995D02*
X103015221Y-87031418D01*
X103015221Y-87031418D02*
X102965855Y-87087945D01*
X102965855Y-87087945D02*
X102903264Y-87123377D01*
X102903264Y-87123377D02*
X102834013Y-87136090D01*
X102834013Y-87136090D02*
X102764668Y-87124463D01*
X102764668Y-87124463D02*
X102723375Y-87103568D01*
X102723375Y-87103568D02*
X102680025Y-87067422D01*
X102680025Y-87067422D02*
X102650481Y-87023276D01*
X102650481Y-87023276D02*
X102632655Y-86965462D01*
X102632655Y-86965462D02*
X102624463Y-86888313D01*
X102624463Y-86888313D02*
X102623302Y-86831714D01*
X102623302Y-86831714D02*
X102623458Y-86827647D01*
X102623458Y-86827647D02*
X102724857Y-86827647D01*
X102724857Y-86827647D02*
X102725476Y-86892550D01*
X102725476Y-86892550D02*
X102728314Y-86935514D01*
X102728314Y-86935514D02*
X102734840Y-86963622D01*
X102734840Y-86963622D02*
X102746523Y-86983953D01*
X102746523Y-86983953D02*
X102760483Y-86999288D01*
X102760483Y-86999288D02*
X102807365Y-87028890D01*
X102807365Y-87028890D02*
X102857701Y-87031419D01*
X102857701Y-87031419D02*
X102905276Y-87006705D01*
X102905276Y-87006705D02*
X102908979Y-87003356D01*
X102908979Y-87003356D02*
X102924783Y-86985935D01*
X102924783Y-86985935D02*
X102934693Y-86965209D01*
X102934693Y-86965209D02*
X102940058Y-86934362D01*
X102940058Y-86934362D02*
X102942228Y-86886577D01*
X102942228Y-86886577D02*
X102942571Y-86833748D01*
X102942571Y-86833748D02*
X102941827Y-86767381D01*
X102941827Y-86767381D02*
X102938748Y-86723106D01*
X102938748Y-86723106D02*
X102932061Y-86694009D01*
X102932061Y-86694009D02*
X102920496Y-86673173D01*
X102920496Y-86673173D02*
X102911013Y-86662107D01*
X102911013Y-86662107D02*
X102866960Y-86634198D01*
X102866960Y-86634198D02*
X102816224Y-86630843D01*
X102816224Y-86630843D02*
X102767796Y-86652159D01*
X102767796Y-86652159D02*
X102758450Y-86660073D01*
X102758450Y-86660073D02*
X102742540Y-86677647D01*
X102742540Y-86677647D02*
X102732610Y-86698587D01*
X102732610Y-86698587D02*
X102727278Y-86729782D01*
X102727278Y-86729782D02*
X102725163Y-86778122D01*
X102725163Y-86778122D02*
X102724857Y-86827647D01*
X102724857Y-86827647D02*
X102623458Y-86827647D01*
X102623458Y-86827647D02*
X102626810Y-86740568D01*
X102626810Y-86740568D02*
X102638726Y-86672086D01*
X102638726Y-86672086D02*
X102661135Y-86620600D01*
X102661135Y-86620600D02*
X102696124Y-86580443D01*
X102696124Y-86580443D02*
X102723375Y-86559861D01*
X102723375Y-86559861D02*
X102772907Y-86537625D01*
X102772907Y-86537625D02*
X102830316Y-86527304D01*
X102830316Y-86527304D02*
X102883682Y-86530067D01*
X102883682Y-86530067D02*
X102913543Y-86541212D01*
X102913543Y-86541212D02*
X102925261Y-86544383D01*
X102925261Y-86544383D02*
X102933037Y-86532557D01*
X102933037Y-86532557D02*
X102938465Y-86500866D01*
X102938465Y-86500866D02*
X102942571Y-86452593D01*
X102942571Y-86452593D02*
X102947067Y-86398829D01*
X102947067Y-86398829D02*
X102953313Y-86366482D01*
X102953313Y-86366482D02*
X102964676Y-86347985D01*
X102964676Y-86347985D02*
X102984528Y-86335770D01*
X102984528Y-86335770D02*
X102997000Y-86330362D01*
X102997000Y-86330362D02*
X103044171Y-86310601D01*
X103044171Y-86310601D02*
X103044117Y-86647358D01*
X103044117Y-86647358D02*
X103044117Y-86647358D01*
G36*
X102638726Y-86672086D02*
G01*
X102661135Y-86620600D01*
X102696124Y-86580443D01*
X102723375Y-86559861D01*
X102772907Y-86537625D01*
X102830316Y-86527304D01*
X102883682Y-86530067D01*
X102913543Y-86541212D01*
X102925261Y-86544383D01*
X102933037Y-86532557D01*
X102938465Y-86500866D01*
X102942571Y-86452593D01*
X102947067Y-86398829D01*
X102953313Y-86366482D01*
X102964676Y-86347985D01*
X102984528Y-86335770D01*
X102997000Y-86330362D01*
X103044171Y-86310601D01*
X103044117Y-86647358D01*
X103043933Y-86755837D01*
X103043219Y-86839287D01*
X103041675Y-86901704D01*
X103039001Y-86947085D01*
X103034894Y-86979429D01*
X103029055Y-87002733D01*
X103021182Y-87020995D01*
X103015221Y-87031418D01*
X102965855Y-87087945D01*
X102903264Y-87123377D01*
X102834013Y-87136090D01*
X102764668Y-87124463D01*
X102723375Y-87103568D01*
X102680025Y-87067422D01*
X102650481Y-87023276D01*
X102632655Y-86965462D01*
X102624463Y-86888313D01*
X102623302Y-86831714D01*
X102623458Y-86827647D01*
X102724857Y-86827647D01*
X102725476Y-86892550D01*
X102728314Y-86935514D01*
X102734840Y-86963622D01*
X102746523Y-86983953D01*
X102760483Y-86999288D01*
X102807365Y-87028890D01*
X102857701Y-87031419D01*
X102905276Y-87006705D01*
X102908979Y-87003356D01*
X102924783Y-86985935D01*
X102934693Y-86965209D01*
X102940058Y-86934362D01*
X102942228Y-86886577D01*
X102942571Y-86833748D01*
X102941827Y-86767381D01*
X102938748Y-86723106D01*
X102932061Y-86694009D01*
X102920496Y-86673173D01*
X102911013Y-86662107D01*
X102866960Y-86634198D01*
X102816224Y-86630843D01*
X102767796Y-86652159D01*
X102758450Y-86660073D01*
X102742540Y-86677647D01*
X102732610Y-86698587D01*
X102727278Y-86729782D01*
X102725163Y-86778122D01*
X102724857Y-86827647D01*
X102623458Y-86827647D01*
X102626810Y-86740568D01*
X102638726Y-86672086D01*
G37*
X102638726Y-86672086D02*
X102661135Y-86620600D01*
X102696124Y-86580443D01*
X102723375Y-86559861D01*
X102772907Y-86537625D01*
X102830316Y-86527304D01*
X102883682Y-86530067D01*
X102913543Y-86541212D01*
X102925261Y-86544383D01*
X102933037Y-86532557D01*
X102938465Y-86500866D01*
X102942571Y-86452593D01*
X102947067Y-86398829D01*
X102953313Y-86366482D01*
X102964676Y-86347985D01*
X102984528Y-86335770D01*
X102997000Y-86330362D01*
X103044171Y-86310601D01*
X103044117Y-86647358D01*
X103043933Y-86755837D01*
X103043219Y-86839287D01*
X103041675Y-86901704D01*
X103039001Y-86947085D01*
X103034894Y-86979429D01*
X103029055Y-87002733D01*
X103021182Y-87020995D01*
X103015221Y-87031418D01*
X102965855Y-87087945D01*
X102903264Y-87123377D01*
X102834013Y-87136090D01*
X102764668Y-87124463D01*
X102723375Y-87103568D01*
X102680025Y-87067422D01*
X102650481Y-87023276D01*
X102632655Y-86965462D01*
X102624463Y-86888313D01*
X102623302Y-86831714D01*
X102623458Y-86827647D01*
X102724857Y-86827647D01*
X102725476Y-86892550D01*
X102728314Y-86935514D01*
X102734840Y-86963622D01*
X102746523Y-86983953D01*
X102760483Y-86999288D01*
X102807365Y-87028890D01*
X102857701Y-87031419D01*
X102905276Y-87006705D01*
X102908979Y-87003356D01*
X102924783Y-86985935D01*
X102934693Y-86965209D01*
X102940058Y-86934362D01*
X102942228Y-86886577D01*
X102942571Y-86833748D01*
X102941827Y-86767381D01*
X102938748Y-86723106D01*
X102932061Y-86694009D01*
X102920496Y-86673173D01*
X102911013Y-86662107D01*
X102866960Y-86634198D01*
X102816224Y-86630843D01*
X102767796Y-86652159D01*
X102758450Y-86660073D01*
X102742540Y-86677647D01*
X102732610Y-86698587D01*
X102727278Y-86729782D01*
X102725163Y-86778122D01*
X102724857Y-86827647D01*
X102623458Y-86827647D01*
X102626810Y-86740568D01*
X102638726Y-86672086D01*
X101229886Y-86433289D02*
X101234139Y-86492613D01*
X101234139Y-86492613D02*
X101239025Y-86527572D01*
X101239025Y-86527572D02*
X101245795Y-86542820D01*
X101245795Y-86542820D02*
X101255702Y-86543015D01*
X101255702Y-86543015D02*
X101258914Y-86541195D01*
X101258914Y-86541195D02*
X101301644Y-86528015D01*
X101301644Y-86528015D02*
X101357227Y-86528785D01*
X101357227Y-86528785D02*
X101413737Y-86542333D01*
X101413737Y-86542333D02*
X101449082Y-86559861D01*
X101449082Y-86559861D02*
X101485321Y-86587861D01*
X101485321Y-86587861D02*
X101511813Y-86619549D01*
X101511813Y-86619549D02*
X101529999Y-86659813D01*
X101529999Y-86659813D02*
X101541322Y-86713543D01*
X101541322Y-86713543D02*
X101547222Y-86785626D01*
X101547222Y-86785626D02*
X101549143Y-86880951D01*
X101549143Y-86880951D02*
X101549177Y-86899237D01*
X101549177Y-86899237D02*
X101549200Y-87104646D01*
X101549200Y-87104646D02*
X101503491Y-87120580D01*
X101503491Y-87120580D02*
X101471027Y-87131420D01*
X101471027Y-87131420D02*
X101453215Y-87136468D01*
X101453215Y-87136468D02*
X101452691Y-87136514D01*
X101452691Y-87136514D02*
X101450937Y-87122828D01*
X101450937Y-87122828D02*
X101449444Y-87085076D01*
X101449444Y-87085076D02*
X101448326Y-87028224D01*
X101448326Y-87028224D02*
X101447697Y-86957234D01*
X101447697Y-86957234D02*
X101447600Y-86914073D01*
X101447600Y-86914073D02*
X101447398Y-86828973D01*
X101447398Y-86828973D02*
X101446358Y-86767981D01*
X101446358Y-86767981D02*
X101443831Y-86726177D01*
X101443831Y-86726177D02*
X101439164Y-86698642D01*
X101439164Y-86698642D02*
X101431707Y-86680456D01*
X101431707Y-86680456D02*
X101420811Y-86666698D01*
X101420811Y-86666698D02*
X101414007Y-86660073D01*
X101414007Y-86660073D02*
X101367272Y-86633375D01*
X101367272Y-86633375D02*
X101316272Y-86631375D01*
X101316272Y-86631375D02*
X101270001Y-86653955D01*
X101270001Y-86653955D02*
X101261444Y-86662107D01*
X101261444Y-86662107D02*
X101248893Y-86677436D01*
X101248893Y-86677436D02*
X101240188Y-86695618D01*
X101240188Y-86695618D02*
X101234631Y-86721909D01*
X101234631Y-86721909D02*
X101231526Y-86761562D01*
X101231526Y-86761562D02*
X101230176Y-86819832D01*
X101230176Y-86819832D02*
X101229886Y-86900173D01*
X101229886Y-86900173D02*
X101229886Y-87104646D01*
X101229886Y-87104646D02*
X101184177Y-87120580D01*
X101184177Y-87120580D02*
X101151713Y-87131420D01*
X101151713Y-87131420D02*
X101133901Y-87136468D01*
X101133901Y-87136468D02*
X101133377Y-87136514D01*
X101133377Y-87136514D02*
X101132037Y-87122623D01*
X101132037Y-87122623D02*
X101130828Y-87083439D01*
X101130828Y-87083439D02*
X101129801Y-87022700D01*
X101129801Y-87022700D02*
X101129002Y-86944141D01*
X101129002Y-86944141D02*
X101128481Y-86851498D01*
X101128481Y-86851498D02*
X101128286Y-86748509D01*
X101128286Y-86748509D02*
X101128286Y-86351342D01*
X101128286Y-86351342D02*
X101175457Y-86331444D01*
X101175457Y-86331444D02*
X101222629Y-86311547D01*
X101222629Y-86311547D02*
X101229886Y-86433289D01*
X101229886Y-86433289D02*
X101229886Y-86433289D01*
G36*
X101229886Y-86433289D02*
G01*
X101234139Y-86492613D01*
X101239025Y-86527572D01*
X101245795Y-86542820D01*
X101255702Y-86543015D01*
X101258914Y-86541195D01*
X101301644Y-86528015D01*
X101357227Y-86528785D01*
X101413737Y-86542333D01*
X101449082Y-86559861D01*
X101485321Y-86587861D01*
X101511813Y-86619549D01*
X101529999Y-86659813D01*
X101541322Y-86713543D01*
X101547222Y-86785626D01*
X101549143Y-86880951D01*
X101549177Y-86899237D01*
X101549200Y-87104646D01*
X101503491Y-87120580D01*
X101471027Y-87131420D01*
X101453215Y-87136468D01*
X101452691Y-87136514D01*
X101450937Y-87122828D01*
X101449444Y-87085076D01*
X101448326Y-87028224D01*
X101447697Y-86957234D01*
X101447600Y-86914073D01*
X101447398Y-86828973D01*
X101446358Y-86767981D01*
X101443831Y-86726177D01*
X101439164Y-86698642D01*
X101431707Y-86680456D01*
X101420811Y-86666698D01*
X101414007Y-86660073D01*
X101367272Y-86633375D01*
X101316272Y-86631375D01*
X101270001Y-86653955D01*
X101261444Y-86662107D01*
X101248893Y-86677436D01*
X101240188Y-86695618D01*
X101234631Y-86721909D01*
X101231526Y-86761562D01*
X101230176Y-86819832D01*
X101229886Y-86900173D01*
X101229886Y-87104646D01*
X101184177Y-87120580D01*
X101151713Y-87131420D01*
X101133901Y-87136468D01*
X101133377Y-87136514D01*
X101132037Y-87122623D01*
X101130828Y-87083439D01*
X101129801Y-87022700D01*
X101129002Y-86944141D01*
X101128481Y-86851498D01*
X101128286Y-86748509D01*
X101128286Y-86351342D01*
X101175457Y-86331444D01*
X101222629Y-86311547D01*
X101229886Y-86433289D01*
G37*
X101229886Y-86433289D02*
X101234139Y-86492613D01*
X101239025Y-86527572D01*
X101245795Y-86542820D01*
X101255702Y-86543015D01*
X101258914Y-86541195D01*
X101301644Y-86528015D01*
X101357227Y-86528785D01*
X101413737Y-86542333D01*
X101449082Y-86559861D01*
X101485321Y-86587861D01*
X101511813Y-86619549D01*
X101529999Y-86659813D01*
X101541322Y-86713543D01*
X101547222Y-86785626D01*
X101549143Y-86880951D01*
X101549177Y-86899237D01*
X101549200Y-87104646D01*
X101503491Y-87120580D01*
X101471027Y-87131420D01*
X101453215Y-87136468D01*
X101452691Y-87136514D01*
X101450937Y-87122828D01*
X101449444Y-87085076D01*
X101448326Y-87028224D01*
X101447697Y-86957234D01*
X101447600Y-86914073D01*
X101447398Y-86828973D01*
X101446358Y-86767981D01*
X101443831Y-86726177D01*
X101439164Y-86698642D01*
X101431707Y-86680456D01*
X101420811Y-86666698D01*
X101414007Y-86660073D01*
X101367272Y-86633375D01*
X101316272Y-86631375D01*
X101270001Y-86653955D01*
X101261444Y-86662107D01*
X101248893Y-86677436D01*
X101240188Y-86695618D01*
X101234631Y-86721909D01*
X101231526Y-86761562D01*
X101230176Y-86819832D01*
X101229886Y-86900173D01*
X101229886Y-87104646D01*
X101184177Y-87120580D01*
X101151713Y-87131420D01*
X101133901Y-87136468D01*
X101133377Y-87136514D01*
X101132037Y-87122623D01*
X101130828Y-87083439D01*
X101129801Y-87022700D01*
X101129002Y-86944141D01*
X101128481Y-86851498D01*
X101128286Y-86748509D01*
X101128286Y-86351342D01*
X101175457Y-86331444D01*
X101222629Y-86311547D01*
X101229886Y-86433289D01*
X101893744Y-86532968D02*
X101950616Y-86554087D01*
X101950616Y-86554087D02*
X101951267Y-86554493D01*
X101951267Y-86554493D02*
X101986440Y-86580380D01*
X101986440Y-86580380D02*
X102012407Y-86610633D01*
X102012407Y-86610633D02*
X102030670Y-86650058D01*
X102030670Y-86650058D02*
X102042732Y-86703462D01*
X102042732Y-86703462D02*
X102050096Y-86775651D01*
X102050096Y-86775651D02*
X102054264Y-86871432D01*
X102054264Y-86871432D02*
X102054629Y-86885078D01*
X102054629Y-86885078D02*
X102059876Y-87090842D01*
X102059876Y-87090842D02*
X102015716Y-87113678D01*
X102015716Y-87113678D02*
X101983763Y-87129110D01*
X101983763Y-87129110D02*
X101964470Y-87136423D01*
X101964470Y-87136423D02*
X101963578Y-87136514D01*
X101963578Y-87136514D02*
X101960239Y-87123022D01*
X101960239Y-87123022D02*
X101957587Y-87086626D01*
X101957587Y-87086626D02*
X101955956Y-87033452D01*
X101955956Y-87033452D02*
X101955600Y-86990393D01*
X101955600Y-86990393D02*
X101955592Y-86920641D01*
X101955592Y-86920641D02*
X101952403Y-86876837D01*
X101952403Y-86876837D02*
X101941288Y-86855944D01*
X101941288Y-86855944D02*
X101917501Y-86854925D01*
X101917501Y-86854925D02*
X101876296Y-86870741D01*
X101876296Y-86870741D02*
X101814086Y-86899815D01*
X101814086Y-86899815D02*
X101768341Y-86923963D01*
X101768341Y-86923963D02*
X101744813Y-86944913D01*
X101744813Y-86944913D02*
X101737896Y-86967747D01*
X101737896Y-86967747D02*
X101737886Y-86968877D01*
X101737886Y-86968877D02*
X101749299Y-87008212D01*
X101749299Y-87008212D02*
X101783092Y-87029462D01*
X101783092Y-87029462D02*
X101834809Y-87032539D01*
X101834809Y-87032539D02*
X101872061Y-87032006D01*
X101872061Y-87032006D02*
X101891703Y-87042735D01*
X101891703Y-87042735D02*
X101903952Y-87068505D01*
X101903952Y-87068505D02*
X101911002Y-87101337D01*
X101911002Y-87101337D02*
X101900842Y-87119966D01*
X101900842Y-87119966D02*
X101897017Y-87122632D01*
X101897017Y-87122632D02*
X101861001Y-87133340D01*
X101861001Y-87133340D02*
X101810566Y-87134856D01*
X101810566Y-87134856D02*
X101758626Y-87127759D01*
X101758626Y-87127759D02*
X101721822Y-87114788D01*
X101721822Y-87114788D02*
X101670938Y-87071585D01*
X101670938Y-87071585D02*
X101642014Y-87011446D01*
X101642014Y-87011446D02*
X101636286Y-86964462D01*
X101636286Y-86964462D02*
X101640657Y-86922082D01*
X101640657Y-86922082D02*
X101656475Y-86887488D01*
X101656475Y-86887488D02*
X101687797Y-86856763D01*
X101687797Y-86856763D02*
X101738678Y-86825990D01*
X101738678Y-86825990D02*
X101813176Y-86791252D01*
X101813176Y-86791252D02*
X101817714Y-86789288D01*
X101817714Y-86789288D02*
X101884821Y-86758287D01*
X101884821Y-86758287D02*
X101926232Y-86732862D01*
X101926232Y-86732862D02*
X101943981Y-86710014D01*
X101943981Y-86710014D02*
X101940107Y-86686745D01*
X101940107Y-86686745D02*
X101916643Y-86660056D01*
X101916643Y-86660056D02*
X101909627Y-86653914D01*
X101909627Y-86653914D02*
X101862630Y-86630100D01*
X101862630Y-86630100D02*
X101813933Y-86631103D01*
X101813933Y-86631103D02*
X101771522Y-86654451D01*
X101771522Y-86654451D02*
X101743384Y-86697675D01*
X101743384Y-86697675D02*
X101740769Y-86706160D01*
X101740769Y-86706160D02*
X101715308Y-86747308D01*
X101715308Y-86747308D02*
X101683001Y-86767128D01*
X101683001Y-86767128D02*
X101636286Y-86786770D01*
X101636286Y-86786770D02*
X101636286Y-86735950D01*
X101636286Y-86735950D02*
X101650496Y-86662082D01*
X101650496Y-86662082D02*
X101692675Y-86594327D01*
X101692675Y-86594327D02*
X101714624Y-86571661D01*
X101714624Y-86571661D02*
X101764517Y-86542569D01*
X101764517Y-86542569D02*
X101827967Y-86529400D01*
X101827967Y-86529400D02*
X101893744Y-86532968D01*
X101893744Y-86532968D02*
X101893744Y-86532968D01*
G36*
X101893744Y-86532968D02*
G01*
X101950616Y-86554087D01*
X101951267Y-86554493D01*
X101986440Y-86580380D01*
X102012407Y-86610633D01*
X102030670Y-86650058D01*
X102042732Y-86703462D01*
X102050096Y-86775651D01*
X102054264Y-86871432D01*
X102054629Y-86885078D01*
X102059876Y-87090842D01*
X102015716Y-87113678D01*
X101983763Y-87129110D01*
X101964470Y-87136423D01*
X101963578Y-87136514D01*
X101960239Y-87123022D01*
X101957587Y-87086626D01*
X101955956Y-87033452D01*
X101955600Y-86990393D01*
X101955592Y-86920641D01*
X101952403Y-86876837D01*
X101941288Y-86855944D01*
X101917501Y-86854925D01*
X101876296Y-86870741D01*
X101814086Y-86899815D01*
X101768341Y-86923963D01*
X101744813Y-86944913D01*
X101737896Y-86967747D01*
X101737886Y-86968877D01*
X101749299Y-87008212D01*
X101783092Y-87029462D01*
X101834809Y-87032539D01*
X101872061Y-87032006D01*
X101891703Y-87042735D01*
X101903952Y-87068505D01*
X101911002Y-87101337D01*
X101900842Y-87119966D01*
X101897017Y-87122632D01*
X101861001Y-87133340D01*
X101810566Y-87134856D01*
X101758626Y-87127759D01*
X101721822Y-87114788D01*
X101670938Y-87071585D01*
X101642014Y-87011446D01*
X101636286Y-86964462D01*
X101640657Y-86922082D01*
X101656475Y-86887488D01*
X101687797Y-86856763D01*
X101738678Y-86825990D01*
X101813176Y-86791252D01*
X101817714Y-86789288D01*
X101884821Y-86758287D01*
X101926232Y-86732862D01*
X101943981Y-86710014D01*
X101940107Y-86686745D01*
X101916643Y-86660056D01*
X101909627Y-86653914D01*
X101862630Y-86630100D01*
X101813933Y-86631103D01*
X101771522Y-86654451D01*
X101743384Y-86697675D01*
X101740769Y-86706160D01*
X101715308Y-86747308D01*
X101683001Y-86767128D01*
X101636286Y-86786770D01*
X101636286Y-86735950D01*
X101650496Y-86662082D01*
X101692675Y-86594327D01*
X101714624Y-86571661D01*
X101764517Y-86542569D01*
X101827967Y-86529400D01*
X101893744Y-86532968D01*
G37*
X101893744Y-86532968D02*
X101950616Y-86554087D01*
X101951267Y-86554493D01*
X101986440Y-86580380D01*
X102012407Y-86610633D01*
X102030670Y-86650058D01*
X102042732Y-86703462D01*
X102050096Y-86775651D01*
X102054264Y-86871432D01*
X102054629Y-86885078D01*
X102059876Y-87090842D01*
X102015716Y-87113678D01*
X101983763Y-87129110D01*
X101964470Y-87136423D01*
X101963578Y-87136514D01*
X101960239Y-87123022D01*
X101957587Y-87086626D01*
X101955956Y-87033452D01*
X101955600Y-86990393D01*
X101955592Y-86920641D01*
X101952403Y-86876837D01*
X101941288Y-86855944D01*
X101917501Y-86854925D01*
X101876296Y-86870741D01*
X101814086Y-86899815D01*
X101768341Y-86923963D01*
X101744813Y-86944913D01*
X101737896Y-86967747D01*
X101737886Y-86968877D01*
X101749299Y-87008212D01*
X101783092Y-87029462D01*
X101834809Y-87032539D01*
X101872061Y-87032006D01*
X101891703Y-87042735D01*
X101903952Y-87068505D01*
X101911002Y-87101337D01*
X101900842Y-87119966D01*
X101897017Y-87122632D01*
X101861001Y-87133340D01*
X101810566Y-87134856D01*
X101758626Y-87127759D01*
X101721822Y-87114788D01*
X101670938Y-87071585D01*
X101642014Y-87011446D01*
X101636286Y-86964462D01*
X101640657Y-86922082D01*
X101656475Y-86887488D01*
X101687797Y-86856763D01*
X101738678Y-86825990D01*
X101813176Y-86791252D01*
X101817714Y-86789288D01*
X101884821Y-86758287D01*
X101926232Y-86732862D01*
X101943981Y-86710014D01*
X101940107Y-86686745D01*
X101916643Y-86660056D01*
X101909627Y-86653914D01*
X101862630Y-86630100D01*
X101813933Y-86631103D01*
X101771522Y-86654451D01*
X101743384Y-86697675D01*
X101740769Y-86706160D01*
X101715308Y-86747308D01*
X101683001Y-86767128D01*
X101636286Y-86786770D01*
X101636286Y-86735950D01*
X101650496Y-86662082D01*
X101692675Y-86594327D01*
X101714624Y-86571661D01*
X101764517Y-86542569D01*
X101827967Y-86529400D01*
X101893744Y-86532968D01*
X101957910Y-81824348D02*
X102036454Y-81824778D01*
X102036454Y-81824778D02*
X102093298Y-81825942D01*
X102093298Y-81825942D02*
X102132105Y-81828207D01*
X102132105Y-81828207D02*
X102156538Y-81831940D01*
X102156538Y-81831940D02*
X102170262Y-81837506D01*
X102170262Y-81837506D02*
X102176940Y-81845273D01*
X102176940Y-81845273D02*
X102180236Y-81855605D01*
X102180236Y-81855605D02*
X102180556Y-81856943D01*
X102180556Y-81856943D02*
X102185562Y-81881079D01*
X102185562Y-81881079D02*
X102194829Y-81928701D01*
X102194829Y-81928701D02*
X102207392Y-81994741D01*
X102207392Y-81994741D02*
X102222287Y-82074128D01*
X102222287Y-82074128D02*
X102238551Y-82161796D01*
X102238551Y-82161796D02*
X102239119Y-82164875D01*
X102239119Y-82164875D02*
X102255410Y-82250789D01*
X102255410Y-82250789D02*
X102270652Y-82326696D01*
X102270652Y-82326696D02*
X102283861Y-82388045D01*
X102283861Y-82388045D02*
X102294054Y-82430282D01*
X102294054Y-82430282D02*
X102300248Y-82448855D01*
X102300248Y-82448855D02*
X102300543Y-82449184D01*
X102300543Y-82449184D02*
X102318788Y-82458253D01*
X102318788Y-82458253D02*
X102356405Y-82473367D01*
X102356405Y-82473367D02*
X102405271Y-82491262D01*
X102405271Y-82491262D02*
X102405543Y-82491358D01*
X102405543Y-82491358D02*
X102467093Y-82514493D01*
X102467093Y-82514493D02*
X102539657Y-82543965D01*
X102539657Y-82543965D02*
X102608057Y-82573597D01*
X102608057Y-82573597D02*
X102611294Y-82575062D01*
X102611294Y-82575062D02*
X102722702Y-82625626D01*
X102722702Y-82625626D02*
X102969399Y-82457160D01*
X102969399Y-82457160D02*
X103045077Y-82405803D01*
X103045077Y-82405803D02*
X103113631Y-82359889D01*
X103113631Y-82359889D02*
X103171088Y-82322030D01*
X103171088Y-82322030D02*
X103213476Y-82294837D01*
X103213476Y-82294837D02*
X103236825Y-82280921D01*
X103236825Y-82280921D02*
X103239042Y-82279889D01*
X103239042Y-82279889D02*
X103256010Y-82284484D01*
X103256010Y-82284484D02*
X103287701Y-82306655D01*
X103287701Y-82306655D02*
X103335352Y-82347447D01*
X103335352Y-82347447D02*
X103400198Y-82407905D01*
X103400198Y-82407905D02*
X103466397Y-82472227D01*
X103466397Y-82472227D02*
X103530214Y-82535612D01*
X103530214Y-82535612D02*
X103587329Y-82593451D01*
X103587329Y-82593451D02*
X103634305Y-82642175D01*
X103634305Y-82642175D02*
X103667703Y-82678210D01*
X103667703Y-82678210D02*
X103684085Y-82697984D01*
X103684085Y-82697984D02*
X103684694Y-82699002D01*
X103684694Y-82699002D02*
X103686505Y-82712572D01*
X103686505Y-82712572D02*
X103679683Y-82734733D01*
X103679683Y-82734733D02*
X103662540Y-82768478D01*
X103662540Y-82768478D02*
X103633393Y-82816800D01*
X103633393Y-82816800D02*
X103590555Y-82882692D01*
X103590555Y-82882692D02*
X103533448Y-82967517D01*
X103533448Y-82967517D02*
X103482766Y-83042177D01*
X103482766Y-83042177D02*
X103437461Y-83109140D01*
X103437461Y-83109140D02*
X103400150Y-83164516D01*
X103400150Y-83164516D02*
X103373452Y-83204420D01*
X103373452Y-83204420D02*
X103359985Y-83224962D01*
X103359985Y-83224962D02*
X103359137Y-83226356D01*
X103359137Y-83226356D02*
X103360781Y-83246038D01*
X103360781Y-83246038D02*
X103373245Y-83284293D01*
X103373245Y-83284293D02*
X103394048Y-83333889D01*
X103394048Y-83333889D02*
X103401462Y-83349728D01*
X103401462Y-83349728D02*
X103433814Y-83420290D01*
X103433814Y-83420290D02*
X103468328Y-83500353D01*
X103468328Y-83500353D02*
X103496365Y-83569629D01*
X103496365Y-83569629D02*
X103516568Y-83621045D01*
X103516568Y-83621045D02*
X103532615Y-83660119D01*
X103532615Y-83660119D02*
X103541888Y-83680541D01*
X103541888Y-83680541D02*
X103543041Y-83682114D01*
X103543041Y-83682114D02*
X103560096Y-83684721D01*
X103560096Y-83684721D02*
X103600298Y-83691863D01*
X103600298Y-83691863D02*
X103658302Y-83702523D01*
X103658302Y-83702523D02*
X103728763Y-83715685D01*
X103728763Y-83715685D02*
X103806335Y-83730333D01*
X103806335Y-83730333D02*
X103885672Y-83745449D01*
X103885672Y-83745449D02*
X103961431Y-83760018D01*
X103961431Y-83760018D02*
X104028264Y-83773022D01*
X104028264Y-83773022D02*
X104080828Y-83783445D01*
X104080828Y-83783445D02*
X104113776Y-83790270D01*
X104113776Y-83790270D02*
X104121857Y-83792199D01*
X104121857Y-83792199D02*
X104130205Y-83796962D01*
X104130205Y-83796962D02*
X104136506Y-83807718D01*
X104136506Y-83807718D02*
X104141045Y-83828098D01*
X104141045Y-83828098D02*
X104144104Y-83861734D01*
X104144104Y-83861734D02*
X104145967Y-83912255D01*
X104145967Y-83912255D02*
X104146918Y-83983292D01*
X104146918Y-83983292D02*
X104147240Y-84078476D01*
X104147240Y-84078476D02*
X104147257Y-84117492D01*
X104147257Y-84117492D02*
X104147257Y-84434799D01*
X104147257Y-84434799D02*
X104071057Y-84449839D01*
X104071057Y-84449839D02*
X104028663Y-84457995D01*
X104028663Y-84457995D02*
X103965400Y-84469899D01*
X103965400Y-84469899D02*
X103888962Y-84484116D01*
X103888962Y-84484116D02*
X103807043Y-84499210D01*
X103807043Y-84499210D02*
X103784400Y-84503355D01*
X103784400Y-84503355D02*
X103708806Y-84518053D01*
X103708806Y-84518053D02*
X103642953Y-84532505D01*
X103642953Y-84532505D02*
X103592366Y-84545375D01*
X103592366Y-84545375D02*
X103562574Y-84555322D01*
X103562574Y-84555322D02*
X103557612Y-84558287D01*
X103557612Y-84558287D02*
X103545426Y-84579283D01*
X103545426Y-84579283D02*
X103527953Y-84619967D01*
X103527953Y-84619967D02*
X103508577Y-84672322D01*
X103508577Y-84672322D02*
X103504734Y-84683600D01*
X103504734Y-84683600D02*
X103479339Y-84753523D01*
X103479339Y-84753523D02*
X103447817Y-84832418D01*
X103447817Y-84832418D02*
X103416969Y-84903266D01*
X103416969Y-84903266D02*
X103416817Y-84903595D01*
X103416817Y-84903595D02*
X103365447Y-85014733D01*
X103365447Y-85014733D02*
X103534399Y-85263253D01*
X103534399Y-85263253D02*
X103703352Y-85511772D01*
X103703352Y-85511772D02*
X103486429Y-85729058D01*
X103486429Y-85729058D02*
X103420819Y-85793726D01*
X103420819Y-85793726D02*
X103360979Y-85850733D01*
X103360979Y-85850733D02*
X103310267Y-85897033D01*
X103310267Y-85897033D02*
X103272046Y-85929584D01*
X103272046Y-85929584D02*
X103249675Y-85945343D01*
X103249675Y-85945343D02*
X103246466Y-85946343D01*
X103246466Y-85946343D02*
X103227626Y-85938469D01*
X103227626Y-85938469D02*
X103189180Y-85916578D01*
X103189180Y-85916578D02*
X103135330Y-85883267D01*
X103135330Y-85883267D02*
X103070276Y-85841131D01*
X103070276Y-85841131D02*
X102999940Y-85793943D01*
X102999940Y-85793943D02*
X102928555Y-85745810D01*
X102928555Y-85745810D02*
X102864908Y-85703928D01*
X102864908Y-85703928D02*
X102813041Y-85670871D01*
X102813041Y-85670871D02*
X102776995Y-85649218D01*
X102776995Y-85649218D02*
X102760867Y-85641543D01*
X102760867Y-85641543D02*
X102741189Y-85648037D01*
X102741189Y-85648037D02*
X102703875Y-85665150D01*
X102703875Y-85665150D02*
X102656621Y-85689326D01*
X102656621Y-85689326D02*
X102651612Y-85692013D01*
X102651612Y-85692013D02*
X102587977Y-85723927D01*
X102587977Y-85723927D02*
X102544341Y-85739579D01*
X102544341Y-85739579D02*
X102517202Y-85739745D01*
X102517202Y-85739745D02*
X102503057Y-85725204D01*
X102503057Y-85725204D02*
X102502975Y-85725000D01*
X102502975Y-85725000D02*
X102495905Y-85707779D01*
X102495905Y-85707779D02*
X102479042Y-85666899D01*
X102479042Y-85666899D02*
X102453695Y-85605525D01*
X102453695Y-85605525D02*
X102421171Y-85526819D01*
X102421171Y-85526819D02*
X102382778Y-85433947D01*
X102382778Y-85433947D02*
X102339822Y-85330072D01*
X102339822Y-85330072D02*
X102298222Y-85229502D01*
X102298222Y-85229502D02*
X102252504Y-85118516D01*
X102252504Y-85118516D02*
X102210526Y-85015703D01*
X102210526Y-85015703D02*
X102173548Y-84924215D01*
X102173548Y-84924215D02*
X102142827Y-84847201D01*
X102142827Y-84847201D02*
X102119622Y-84787815D01*
X102119622Y-84787815D02*
X102105190Y-84749209D01*
X102105190Y-84749209D02*
X102100743Y-84734800D01*
X102100743Y-84734800D02*
X102111896Y-84718272D01*
X102111896Y-84718272D02*
X102141069Y-84691930D01*
X102141069Y-84691930D02*
X102179971Y-84662887D01*
X102179971Y-84662887D02*
X102290757Y-84571039D01*
X102290757Y-84571039D02*
X102377351Y-84465759D01*
X102377351Y-84465759D02*
X102438716Y-84349266D01*
X102438716Y-84349266D02*
X102473815Y-84223776D01*
X102473815Y-84223776D02*
X102481608Y-84091507D01*
X102481608Y-84091507D02*
X102475943Y-84030457D01*
X102475943Y-84030457D02*
X102445078Y-83903795D01*
X102445078Y-83903795D02*
X102391920Y-83791941D01*
X102391920Y-83791941D02*
X102319767Y-83696001D01*
X102319767Y-83696001D02*
X102231917Y-83617076D01*
X102231917Y-83617076D02*
X102131665Y-83556270D01*
X102131665Y-83556270D02*
X102022310Y-83514687D01*
X102022310Y-83514687D02*
X101907147Y-83493428D01*
X101907147Y-83493428D02*
X101789475Y-83493599D01*
X101789475Y-83493599D02*
X101672590Y-83516301D01*
X101672590Y-83516301D02*
X101559789Y-83562638D01*
X101559789Y-83562638D02*
X101454369Y-83633713D01*
X101454369Y-83633713D02*
X101410368Y-83673911D01*
X101410368Y-83673911D02*
X101325979Y-83777129D01*
X101325979Y-83777129D02*
X101267222Y-83889925D01*
X101267222Y-83889925D02*
X101233704Y-84009010D01*
X101233704Y-84009010D02*
X101225035Y-84131095D01*
X101225035Y-84131095D02*
X101240823Y-84252893D01*
X101240823Y-84252893D02*
X101280678Y-84371116D01*
X101280678Y-84371116D02*
X101344207Y-84482475D01*
X101344207Y-84482475D02*
X101431021Y-84583684D01*
X101431021Y-84583684D02*
X101528029Y-84662887D01*
X101528029Y-84662887D02*
X101568437Y-84693162D01*
X101568437Y-84693162D02*
X101596982Y-84719219D01*
X101596982Y-84719219D02*
X101607257Y-84734825D01*
X101607257Y-84734825D02*
X101601877Y-84751843D01*
X101601877Y-84751843D02*
X101586575Y-84792500D01*
X101586575Y-84792500D02*
X101562612Y-84853642D01*
X101562612Y-84853642D02*
X101531244Y-84932119D01*
X101531244Y-84932119D02*
X101493732Y-85024780D01*
X101493732Y-85024780D02*
X101451333Y-85128472D01*
X101451333Y-85128472D02*
X101409663Y-85229526D01*
X101409663Y-85229526D02*
X101363690Y-85340607D01*
X101363690Y-85340607D02*
X101321107Y-85443541D01*
X101321107Y-85443541D02*
X101283221Y-85535165D01*
X101283221Y-85535165D02*
X101251340Y-85612316D01*
X101251340Y-85612316D02*
X101226771Y-85671831D01*
X101226771Y-85671831D02*
X101210820Y-85710544D01*
X101210820Y-85710544D02*
X101204910Y-85725000D01*
X101204910Y-85725000D02*
X101190948Y-85739685D01*
X101190948Y-85739685D02*
X101163940Y-85739642D01*
X101163940Y-85739642D02*
X101120413Y-85724099D01*
X101120413Y-85724099D02*
X101056890Y-85692284D01*
X101056890Y-85692284D02*
X101056388Y-85692013D01*
X101056388Y-85692013D02*
X101008560Y-85667323D01*
X101008560Y-85667323D02*
X100969897Y-85649338D01*
X100969897Y-85649338D02*
X100948095Y-85641614D01*
X100948095Y-85641614D02*
X100947133Y-85641543D01*
X100947133Y-85641543D02*
X100930721Y-85649378D01*
X100930721Y-85649378D02*
X100894487Y-85671165D01*
X100894487Y-85671165D02*
X100842474Y-85704328D01*
X100842474Y-85704328D02*
X100778725Y-85746291D01*
X100778725Y-85746291D02*
X100708060Y-85793943D01*
X100708060Y-85793943D02*
X100636116Y-85842191D01*
X100636116Y-85842191D02*
X100571274Y-85884151D01*
X100571274Y-85884151D02*
X100517735Y-85917227D01*
X100517735Y-85917227D02*
X100479697Y-85938821D01*
X100479697Y-85938821D02*
X100461533Y-85946343D01*
X100461533Y-85946343D02*
X100444808Y-85936457D01*
X100444808Y-85936457D02*
X100411180Y-85908826D01*
X100411180Y-85908826D02*
X100364010Y-85866495D01*
X100364010Y-85866495D02*
X100306658Y-85812505D01*
X100306658Y-85812505D02*
X100242484Y-85749899D01*
X100242484Y-85749899D02*
X100221497Y-85728983D01*
X100221497Y-85728983D02*
X100004499Y-85511623D01*
X100004499Y-85511623D02*
X100169668Y-85269220D01*
X100169668Y-85269220D02*
X100219864Y-85194781D01*
X100219864Y-85194781D02*
X100263919Y-85127972D01*
X100263919Y-85127972D02*
X100299362Y-85072665D01*
X100299362Y-85072665D02*
X100323719Y-85032729D01*
X100323719Y-85032729D02*
X100334522Y-85012036D01*
X100334522Y-85012036D02*
X100334838Y-85010563D01*
X100334838Y-85010563D02*
X100329143Y-84991058D01*
X100329143Y-84991058D02*
X100313826Y-84951822D01*
X100313826Y-84951822D02*
X100291537Y-84899430D01*
X100291537Y-84899430D02*
X100275893Y-84864355D01*
X100275893Y-84864355D02*
X100246641Y-84797201D01*
X100246641Y-84797201D02*
X100219094Y-84729358D01*
X100219094Y-84729358D02*
X100197737Y-84672034D01*
X100197737Y-84672034D02*
X100191935Y-84654572D01*
X100191935Y-84654572D02*
X100175452Y-84607938D01*
X100175452Y-84607938D02*
X100159340Y-84571905D01*
X100159340Y-84571905D02*
X100150490Y-84558287D01*
X100150490Y-84558287D02*
X100130960Y-84549952D01*
X100130960Y-84549952D02*
X100088334Y-84538137D01*
X100088334Y-84538137D02*
X100028145Y-84524181D01*
X100028145Y-84524181D02*
X99955922Y-84509422D01*
X99955922Y-84509422D02*
X99923600Y-84503355D01*
X99923600Y-84503355D02*
X99841522Y-84488273D01*
X99841522Y-84488273D02*
X99762795Y-84473669D01*
X99762795Y-84473669D02*
X99695109Y-84460980D01*
X99695109Y-84460980D02*
X99646160Y-84451642D01*
X99646160Y-84451642D02*
X99636943Y-84449839D01*
X99636943Y-84449839D02*
X99560743Y-84434799D01*
X99560743Y-84434799D02*
X99560743Y-84117492D01*
X99560743Y-84117492D02*
X99560914Y-84013154D01*
X99560914Y-84013154D02*
X99561616Y-83934213D01*
X99561616Y-83934213D02*
X99563134Y-83877038D01*
X99563134Y-83877038D02*
X99565749Y-83837999D01*
X99565749Y-83837999D02*
X99569746Y-83813465D01*
X99569746Y-83813465D02*
X99575409Y-83799805D01*
X99575409Y-83799805D02*
X99583020Y-83793389D01*
X99583020Y-83793389D02*
X99586143Y-83792199D01*
X99586143Y-83792199D02*
X99604978Y-83787980D01*
X99604978Y-83787980D02*
X99646588Y-83779562D01*
X99646588Y-83779562D02*
X99705630Y-83767961D01*
X99705630Y-83767961D02*
X99776757Y-83754195D01*
X99776757Y-83754195D02*
X99854625Y-83739280D01*
X99854625Y-83739280D02*
X99933887Y-83724232D01*
X99933887Y-83724232D02*
X100009198Y-83710069D01*
X100009198Y-83710069D02*
X100075213Y-83697806D01*
X100075213Y-83697806D02*
X100126587Y-83688461D01*
X100126587Y-83688461D02*
X100157975Y-83683050D01*
X100157975Y-83683050D02*
X100164959Y-83682114D01*
X100164959Y-83682114D02*
X100171285Y-83669596D01*
X100171285Y-83669596D02*
X100185290Y-83636246D01*
X100185290Y-83636246D02*
X100204355Y-83588377D01*
X100204355Y-83588377D02*
X100211634Y-83569629D01*
X100211634Y-83569629D02*
X100240996Y-83497195D01*
X100240996Y-83497195D02*
X100275571Y-83417170D01*
X100275571Y-83417170D02*
X100306537Y-83349728D01*
X100306537Y-83349728D02*
X100329323Y-83298159D01*
X100329323Y-83298159D02*
X100344482Y-83255785D01*
X100344482Y-83255785D02*
X100349542Y-83229834D01*
X100349542Y-83229834D02*
X100348736Y-83226356D01*
X100348736Y-83226356D02*
X100338041Y-83209936D01*
X100338041Y-83209936D02*
X100313620Y-83173417D01*
X100313620Y-83173417D02*
X100278095Y-83120687D01*
X100278095Y-83120687D02*
X100234087Y-83055635D01*
X100234087Y-83055635D02*
X100184217Y-82982151D01*
X100184217Y-82982151D02*
X100174356Y-82967645D01*
X100174356Y-82967645D02*
X100116492Y-82881704D01*
X100116492Y-82881704D02*
X100073956Y-82816261D01*
X100073956Y-82816261D02*
X100045054Y-82768304D01*
X100045054Y-82768304D02*
X100028090Y-82734820D01*
X100028090Y-82734820D02*
X100021367Y-82712795D01*
X100021367Y-82712795D02*
X100023190Y-82699217D01*
X100023190Y-82699217D02*
X100023236Y-82699131D01*
X100023236Y-82699131D02*
X100037586Y-82681297D01*
X100037586Y-82681297D02*
X100069323Y-82646817D01*
X100069323Y-82646817D02*
X100115010Y-82599268D01*
X100115010Y-82599268D02*
X100171204Y-82542222D01*
X100171204Y-82542222D02*
X100234468Y-82479255D01*
X100234468Y-82479255D02*
X100241602Y-82472227D01*
X100241602Y-82472227D02*
X100321330Y-82395020D01*
X100321330Y-82395020D02*
X100382857Y-82338330D01*
X100382857Y-82338330D02*
X100427421Y-82301110D01*
X100427421Y-82301110D02*
X100456257Y-82282315D01*
X100456257Y-82282315D02*
X100468958Y-82279889D01*
X100468958Y-82279889D02*
X100487494Y-82290471D01*
X100487494Y-82290471D02*
X100525961Y-82314916D01*
X100525961Y-82314916D02*
X100580386Y-82350612D01*
X100580386Y-82350612D02*
X100646798Y-82394947D01*
X100646798Y-82394947D02*
X100721225Y-82445311D01*
X100721225Y-82445311D02*
X100738601Y-82457160D01*
X100738601Y-82457160D02*
X100985297Y-82625626D01*
X100985297Y-82625626D02*
X101096706Y-82575062D01*
X101096706Y-82575062D02*
X101164457Y-82545595D01*
X101164457Y-82545595D02*
X101237183Y-82515959D01*
X101237183Y-82515959D02*
X101299703Y-82492330D01*
X101299703Y-82492330D02*
X101302457Y-82491358D01*
X101302457Y-82491358D02*
X101351360Y-82473457D01*
X101351360Y-82473457D02*
X101389057Y-82458320D01*
X101389057Y-82458320D02*
X101407425Y-82449210D01*
X101407425Y-82449210D02*
X101407456Y-82449184D01*
X101407456Y-82449184D02*
X101413285Y-82432717D01*
X101413285Y-82432717D02*
X101423192Y-82392219D01*
X101423192Y-82392219D02*
X101436195Y-82332242D01*
X101436195Y-82332242D02*
X101451309Y-82257340D01*
X101451309Y-82257340D02*
X101467552Y-82172064D01*
X101467552Y-82172064D02*
X101468881Y-82164875D01*
X101468881Y-82164875D02*
X101485175Y-82077014D01*
X101485175Y-82077014D02*
X101500133Y-81997260D01*
X101500133Y-81997260D02*
X101512791Y-81930681D01*
X101512791Y-81930681D02*
X101522186Y-81882347D01*
X101522186Y-81882347D02*
X101527354Y-81857325D01*
X101527354Y-81857325D02*
X101527444Y-81856943D01*
X101527444Y-81856943D02*
X101530589Y-81846299D01*
X101530589Y-81846299D02*
X101536704Y-81838262D01*
X101536704Y-81838262D02*
X101549453Y-81832467D01*
X101549453Y-81832467D02*
X101572500Y-81828547D01*
X101572500Y-81828547D02*
X101609509Y-81826135D01*
X101609509Y-81826135D02*
X101664144Y-81824865D01*
X101664144Y-81824865D02*
X101740067Y-81824371D01*
X101740067Y-81824371D02*
X101840944Y-81824286D01*
X101840944Y-81824286D02*
X101854000Y-81824286D01*
X101854000Y-81824286D02*
X101957910Y-81824348D01*
X101957910Y-81824348D02*
X101957910Y-81824348D01*
G36*
X101957910Y-81824348D02*
G01*
X102036454Y-81824778D01*
X102093298Y-81825942D01*
X102132105Y-81828207D01*
X102156538Y-81831940D01*
X102170262Y-81837506D01*
X102176940Y-81845273D01*
X102180236Y-81855605D01*
X102180556Y-81856943D01*
X102185562Y-81881079D01*
X102194829Y-81928701D01*
X102207392Y-81994741D01*
X102222287Y-82074128D01*
X102238551Y-82161796D01*
X102239119Y-82164875D01*
X102255410Y-82250789D01*
X102270652Y-82326696D01*
X102283861Y-82388045D01*
X102294054Y-82430282D01*
X102300248Y-82448855D01*
X102300543Y-82449184D01*
X102318788Y-82458253D01*
X102356405Y-82473367D01*
X102405271Y-82491262D01*
X102405543Y-82491358D01*
X102467093Y-82514493D01*
X102539657Y-82543965D01*
X102608057Y-82573597D01*
X102611294Y-82575062D01*
X102722702Y-82625626D01*
X102969399Y-82457160D01*
X103045077Y-82405803D01*
X103113631Y-82359889D01*
X103171088Y-82322030D01*
X103213476Y-82294837D01*
X103236825Y-82280921D01*
X103239042Y-82279889D01*
X103256010Y-82284484D01*
X103287701Y-82306655D01*
X103335352Y-82347447D01*
X103400198Y-82407905D01*
X103466397Y-82472227D01*
X103530214Y-82535612D01*
X103587329Y-82593451D01*
X103634305Y-82642175D01*
X103667703Y-82678210D01*
X103684085Y-82697984D01*
X103684694Y-82699002D01*
X103686505Y-82712572D01*
X103679683Y-82734733D01*
X103662540Y-82768478D01*
X103633393Y-82816800D01*
X103590555Y-82882692D01*
X103533448Y-82967517D01*
X103482766Y-83042177D01*
X103437461Y-83109140D01*
X103400150Y-83164516D01*
X103373452Y-83204420D01*
X103359985Y-83224962D01*
X103359137Y-83226356D01*
X103360781Y-83246038D01*
X103373245Y-83284293D01*
X103394048Y-83333889D01*
X103401462Y-83349728D01*
X103433814Y-83420290D01*
X103468328Y-83500353D01*
X103496365Y-83569629D01*
X103516568Y-83621045D01*
X103532615Y-83660119D01*
X103541888Y-83680541D01*
X103543041Y-83682114D01*
X103560096Y-83684721D01*
X103600298Y-83691863D01*
X103658302Y-83702523D01*
X103728763Y-83715685D01*
X103806335Y-83730333D01*
X103885672Y-83745449D01*
X103961431Y-83760018D01*
X104028264Y-83773022D01*
X104080828Y-83783445D01*
X104113776Y-83790270D01*
X104121857Y-83792199D01*
X104130205Y-83796962D01*
X104136506Y-83807718D01*
X104141045Y-83828098D01*
X104144104Y-83861734D01*
X104145967Y-83912255D01*
X104146918Y-83983292D01*
X104147240Y-84078476D01*
X104147257Y-84117492D01*
X104147257Y-84434799D01*
X104071057Y-84449839D01*
X104028663Y-84457995D01*
X103965400Y-84469899D01*
X103888962Y-84484116D01*
X103807043Y-84499210D01*
X103784400Y-84503355D01*
X103708806Y-84518053D01*
X103642953Y-84532505D01*
X103592366Y-84545375D01*
X103562574Y-84555322D01*
X103557612Y-84558287D01*
X103545426Y-84579283D01*
X103527953Y-84619967D01*
X103508577Y-84672322D01*
X103504734Y-84683600D01*
X103479339Y-84753523D01*
X103447817Y-84832418D01*
X103416969Y-84903266D01*
X103416817Y-84903595D01*
X103365447Y-85014733D01*
X103534399Y-85263253D01*
X103703352Y-85511772D01*
X103486429Y-85729058D01*
X103420819Y-85793726D01*
X103360979Y-85850733D01*
X103310267Y-85897033D01*
X103272046Y-85929584D01*
X103249675Y-85945343D01*
X103246466Y-85946343D01*
X103227626Y-85938469D01*
X103189180Y-85916578D01*
X103135330Y-85883267D01*
X103070276Y-85841131D01*
X102999940Y-85793943D01*
X102928555Y-85745810D01*
X102864908Y-85703928D01*
X102813041Y-85670871D01*
X102776995Y-85649218D01*
X102760867Y-85641543D01*
X102741189Y-85648037D01*
X102703875Y-85665150D01*
X102656621Y-85689326D01*
X102651612Y-85692013D01*
X102587977Y-85723927D01*
X102544341Y-85739579D01*
X102517202Y-85739745D01*
X102503057Y-85725204D01*
X102502975Y-85725000D01*
X102495905Y-85707779D01*
X102479042Y-85666899D01*
X102453695Y-85605525D01*
X102421171Y-85526819D01*
X102382778Y-85433947D01*
X102339822Y-85330072D01*
X102298222Y-85229502D01*
X102252504Y-85118516D01*
X102210526Y-85015703D01*
X102173548Y-84924215D01*
X102142827Y-84847201D01*
X102119622Y-84787815D01*
X102105190Y-84749209D01*
X102100743Y-84734800D01*
X102111896Y-84718272D01*
X102141069Y-84691930D01*
X102179971Y-84662887D01*
X102290757Y-84571039D01*
X102377351Y-84465759D01*
X102438716Y-84349266D01*
X102473815Y-84223776D01*
X102481608Y-84091507D01*
X102475943Y-84030457D01*
X102445078Y-83903795D01*
X102391920Y-83791941D01*
X102319767Y-83696001D01*
X102231917Y-83617076D01*
X102131665Y-83556270D01*
X102022310Y-83514687D01*
X101907147Y-83493428D01*
X101789475Y-83493599D01*
X101672590Y-83516301D01*
X101559789Y-83562638D01*
X101454369Y-83633713D01*
X101410368Y-83673911D01*
X101325979Y-83777129D01*
X101267222Y-83889925D01*
X101233704Y-84009010D01*
X101225035Y-84131095D01*
X101240823Y-84252893D01*
X101280678Y-84371116D01*
X101344207Y-84482475D01*
X101431021Y-84583684D01*
X101528029Y-84662887D01*
X101568437Y-84693162D01*
X101596982Y-84719219D01*
X101607257Y-84734825D01*
X101601877Y-84751843D01*
X101586575Y-84792500D01*
X101562612Y-84853642D01*
X101531244Y-84932119D01*
X101493732Y-85024780D01*
X101451333Y-85128472D01*
X101409663Y-85229526D01*
X101363690Y-85340607D01*
X101321107Y-85443541D01*
X101283221Y-85535165D01*
X101251340Y-85612316D01*
X101226771Y-85671831D01*
X101210820Y-85710544D01*
X101204910Y-85725000D01*
X101190948Y-85739685D01*
X101163940Y-85739642D01*
X101120413Y-85724099D01*
X101056890Y-85692284D01*
X101056388Y-85692013D01*
X101008560Y-85667323D01*
X100969897Y-85649338D01*
X100948095Y-85641614D01*
X100947133Y-85641543D01*
X100930721Y-85649378D01*
X100894487Y-85671165D01*
X100842474Y-85704328D01*
X100778725Y-85746291D01*
X100708060Y-85793943D01*
X100636116Y-85842191D01*
X100571274Y-85884151D01*
X100517735Y-85917227D01*
X100479697Y-85938821D01*
X100461533Y-85946343D01*
X100444808Y-85936457D01*
X100411180Y-85908826D01*
X100364010Y-85866495D01*
X100306658Y-85812505D01*
X100242484Y-85749899D01*
X100221497Y-85728983D01*
X100004499Y-85511623D01*
X100169668Y-85269220D01*
X100219864Y-85194781D01*
X100263919Y-85127972D01*
X100299362Y-85072665D01*
X100323719Y-85032729D01*
X100334522Y-85012036D01*
X100334838Y-85010563D01*
X100329143Y-84991058D01*
X100313826Y-84951822D01*
X100291537Y-84899430D01*
X100275893Y-84864355D01*
X100246641Y-84797201D01*
X100219094Y-84729358D01*
X100197737Y-84672034D01*
X100191935Y-84654572D01*
X100175452Y-84607938D01*
X100159340Y-84571905D01*
X100150490Y-84558287D01*
X100130960Y-84549952D01*
X100088334Y-84538137D01*
X100028145Y-84524181D01*
X99955922Y-84509422D01*
X99923600Y-84503355D01*
X99841522Y-84488273D01*
X99762795Y-84473669D01*
X99695109Y-84460980D01*
X99646160Y-84451642D01*
X99636943Y-84449839D01*
X99560743Y-84434799D01*
X99560743Y-84117492D01*
X99560914Y-84013154D01*
X99561616Y-83934213D01*
X99563134Y-83877038D01*
X99565749Y-83837999D01*
X99569746Y-83813465D01*
X99575409Y-83799805D01*
X99583020Y-83793389D01*
X99586143Y-83792199D01*
X99604978Y-83787980D01*
X99646588Y-83779562D01*
X99705630Y-83767961D01*
X99776757Y-83754195D01*
X99854625Y-83739280D01*
X99933887Y-83724232D01*
X100009198Y-83710069D01*
X100075213Y-83697806D01*
X100126587Y-83688461D01*
X100157975Y-83683050D01*
X100164959Y-83682114D01*
X100171285Y-83669596D01*
X100185290Y-83636246D01*
X100204355Y-83588377D01*
X100211634Y-83569629D01*
X100240996Y-83497195D01*
X100275571Y-83417170D01*
X100306537Y-83349728D01*
X100329323Y-83298159D01*
X100344482Y-83255785D01*
X100349542Y-83229834D01*
X100348736Y-83226356D01*
X100338041Y-83209936D01*
X100313620Y-83173417D01*
X100278095Y-83120687D01*
X100234087Y-83055635D01*
X100184217Y-82982151D01*
X100174356Y-82967645D01*
X100116492Y-82881704D01*
X100073956Y-82816261D01*
X100045054Y-82768304D01*
X100028090Y-82734820D01*
X100021367Y-82712795D01*
X100023190Y-82699217D01*
X100023236Y-82699131D01*
X100037586Y-82681297D01*
X100069323Y-82646817D01*
X100115010Y-82599268D01*
X100171204Y-82542222D01*
X100234468Y-82479255D01*
X100241602Y-82472227D01*
X100321330Y-82395020D01*
X100382857Y-82338330D01*
X100427421Y-82301110D01*
X100456257Y-82282315D01*
X100468958Y-82279889D01*
X100487494Y-82290471D01*
X100525961Y-82314916D01*
X100580386Y-82350612D01*
X100646798Y-82394947D01*
X100721225Y-82445311D01*
X100738601Y-82457160D01*
X100985297Y-82625626D01*
X101096706Y-82575062D01*
X101164457Y-82545595D01*
X101237183Y-82515959D01*
X101299703Y-82492330D01*
X101302457Y-82491358D01*
X101351360Y-82473457D01*
X101389057Y-82458320D01*
X101407425Y-82449210D01*
X101407456Y-82449184D01*
X101413285Y-82432717D01*
X101423192Y-82392219D01*
X101436195Y-82332242D01*
X101451309Y-82257340D01*
X101467552Y-82172064D01*
X101468881Y-82164875D01*
X101485175Y-82077014D01*
X101500133Y-81997260D01*
X101512791Y-81930681D01*
X101522186Y-81882347D01*
X101527354Y-81857325D01*
X101527444Y-81856943D01*
X101530589Y-81846299D01*
X101536704Y-81838262D01*
X101549453Y-81832467D01*
X101572500Y-81828547D01*
X101609509Y-81826135D01*
X101664144Y-81824865D01*
X101740067Y-81824371D01*
X101840944Y-81824286D01*
X101854000Y-81824286D01*
X101957910Y-81824348D01*
G37*
X101957910Y-81824348D02*
X102036454Y-81824778D01*
X102093298Y-81825942D01*
X102132105Y-81828207D01*
X102156538Y-81831940D01*
X102170262Y-81837506D01*
X102176940Y-81845273D01*
X102180236Y-81855605D01*
X102180556Y-81856943D01*
X102185562Y-81881079D01*
X102194829Y-81928701D01*
X102207392Y-81994741D01*
X102222287Y-82074128D01*
X102238551Y-82161796D01*
X102239119Y-82164875D01*
X102255410Y-82250789D01*
X102270652Y-82326696D01*
X102283861Y-82388045D01*
X102294054Y-82430282D01*
X102300248Y-82448855D01*
X102300543Y-82449184D01*
X102318788Y-82458253D01*
X102356405Y-82473367D01*
X102405271Y-82491262D01*
X102405543Y-82491358D01*
X102467093Y-82514493D01*
X102539657Y-82543965D01*
X102608057Y-82573597D01*
X102611294Y-82575062D01*
X102722702Y-82625626D01*
X102969399Y-82457160D01*
X103045077Y-82405803D01*
X103113631Y-82359889D01*
X103171088Y-82322030D01*
X103213476Y-82294837D01*
X103236825Y-82280921D01*
X103239042Y-82279889D01*
X103256010Y-82284484D01*
X103287701Y-82306655D01*
X103335352Y-82347447D01*
X103400198Y-82407905D01*
X103466397Y-82472227D01*
X103530214Y-82535612D01*
X103587329Y-82593451D01*
X103634305Y-82642175D01*
X103667703Y-82678210D01*
X103684085Y-82697984D01*
X103684694Y-82699002D01*
X103686505Y-82712572D01*
X103679683Y-82734733D01*
X103662540Y-82768478D01*
X103633393Y-82816800D01*
X103590555Y-82882692D01*
X103533448Y-82967517D01*
X103482766Y-83042177D01*
X103437461Y-83109140D01*
X103400150Y-83164516D01*
X103373452Y-83204420D01*
X103359985Y-83224962D01*
X103359137Y-83226356D01*
X103360781Y-83246038D01*
X103373245Y-83284293D01*
X103394048Y-83333889D01*
X103401462Y-83349728D01*
X103433814Y-83420290D01*
X103468328Y-83500353D01*
X103496365Y-83569629D01*
X103516568Y-83621045D01*
X103532615Y-83660119D01*
X103541888Y-83680541D01*
X103543041Y-83682114D01*
X103560096Y-83684721D01*
X103600298Y-83691863D01*
X103658302Y-83702523D01*
X103728763Y-83715685D01*
X103806335Y-83730333D01*
X103885672Y-83745449D01*
X103961431Y-83760018D01*
X104028264Y-83773022D01*
X104080828Y-83783445D01*
X104113776Y-83790270D01*
X104121857Y-83792199D01*
X104130205Y-83796962D01*
X104136506Y-83807718D01*
X104141045Y-83828098D01*
X104144104Y-83861734D01*
X104145967Y-83912255D01*
X104146918Y-83983292D01*
X104147240Y-84078476D01*
X104147257Y-84117492D01*
X104147257Y-84434799D01*
X104071057Y-84449839D01*
X104028663Y-84457995D01*
X103965400Y-84469899D01*
X103888962Y-84484116D01*
X103807043Y-84499210D01*
X103784400Y-84503355D01*
X103708806Y-84518053D01*
X103642953Y-84532505D01*
X103592366Y-84545375D01*
X103562574Y-84555322D01*
X103557612Y-84558287D01*
X103545426Y-84579283D01*
X103527953Y-84619967D01*
X103508577Y-84672322D01*
X103504734Y-84683600D01*
X103479339Y-84753523D01*
X103447817Y-84832418D01*
X103416969Y-84903266D01*
X103416817Y-84903595D01*
X103365447Y-85014733D01*
X103534399Y-85263253D01*
X103703352Y-85511772D01*
X103486429Y-85729058D01*
X103420819Y-85793726D01*
X103360979Y-85850733D01*
X103310267Y-85897033D01*
X103272046Y-85929584D01*
X103249675Y-85945343D01*
X103246466Y-85946343D01*
X103227626Y-85938469D01*
X103189180Y-85916578D01*
X103135330Y-85883267D01*
X103070276Y-85841131D01*
X102999940Y-85793943D01*
X102928555Y-85745810D01*
X102864908Y-85703928D01*
X102813041Y-85670871D01*
X102776995Y-85649218D01*
X102760867Y-85641543D01*
X102741189Y-85648037D01*
X102703875Y-85665150D01*
X102656621Y-85689326D01*
X102651612Y-85692013D01*
X102587977Y-85723927D01*
X102544341Y-85739579D01*
X102517202Y-85739745D01*
X102503057Y-85725204D01*
X102502975Y-85725000D01*
X102495905Y-85707779D01*
X102479042Y-85666899D01*
X102453695Y-85605525D01*
X102421171Y-85526819D01*
X102382778Y-85433947D01*
X102339822Y-85330072D01*
X102298222Y-85229502D01*
X102252504Y-85118516D01*
X102210526Y-85015703D01*
X102173548Y-84924215D01*
X102142827Y-84847201D01*
X102119622Y-84787815D01*
X102105190Y-84749209D01*
X102100743Y-84734800D01*
X102111896Y-84718272D01*
X102141069Y-84691930D01*
X102179971Y-84662887D01*
X102290757Y-84571039D01*
X102377351Y-84465759D01*
X102438716Y-84349266D01*
X102473815Y-84223776D01*
X102481608Y-84091507D01*
X102475943Y-84030457D01*
X102445078Y-83903795D01*
X102391920Y-83791941D01*
X102319767Y-83696001D01*
X102231917Y-83617076D01*
X102131665Y-83556270D01*
X102022310Y-83514687D01*
X101907147Y-83493428D01*
X101789475Y-83493599D01*
X101672590Y-83516301D01*
X101559789Y-83562638D01*
X101454369Y-83633713D01*
X101410368Y-83673911D01*
X101325979Y-83777129D01*
X101267222Y-83889925D01*
X101233704Y-84009010D01*
X101225035Y-84131095D01*
X101240823Y-84252893D01*
X101280678Y-84371116D01*
X101344207Y-84482475D01*
X101431021Y-84583684D01*
X101528029Y-84662887D01*
X101568437Y-84693162D01*
X101596982Y-84719219D01*
X101607257Y-84734825D01*
X101601877Y-84751843D01*
X101586575Y-84792500D01*
X101562612Y-84853642D01*
X101531244Y-84932119D01*
X101493732Y-85024780D01*
X101451333Y-85128472D01*
X101409663Y-85229526D01*
X101363690Y-85340607D01*
X101321107Y-85443541D01*
X101283221Y-85535165D01*
X101251340Y-85612316D01*
X101226771Y-85671831D01*
X101210820Y-85710544D01*
X101204910Y-85725000D01*
X101190948Y-85739685D01*
X101163940Y-85739642D01*
X101120413Y-85724099D01*
X101056890Y-85692284D01*
X101056388Y-85692013D01*
X101008560Y-85667323D01*
X100969897Y-85649338D01*
X100948095Y-85641614D01*
X100947133Y-85641543D01*
X100930721Y-85649378D01*
X100894487Y-85671165D01*
X100842474Y-85704328D01*
X100778725Y-85746291D01*
X100708060Y-85793943D01*
X100636116Y-85842191D01*
X100571274Y-85884151D01*
X100517735Y-85917227D01*
X100479697Y-85938821D01*
X100461533Y-85946343D01*
X100444808Y-85936457D01*
X100411180Y-85908826D01*
X100364010Y-85866495D01*
X100306658Y-85812505D01*
X100242484Y-85749899D01*
X100221497Y-85728983D01*
X100004499Y-85511623D01*
X100169668Y-85269220D01*
X100219864Y-85194781D01*
X100263919Y-85127972D01*
X100299362Y-85072665D01*
X100323719Y-85032729D01*
X100334522Y-85012036D01*
X100334838Y-85010563D01*
X100329143Y-84991058D01*
X100313826Y-84951822D01*
X100291537Y-84899430D01*
X100275893Y-84864355D01*
X100246641Y-84797201D01*
X100219094Y-84729358D01*
X100197737Y-84672034D01*
X100191935Y-84654572D01*
X100175452Y-84607938D01*
X100159340Y-84571905D01*
X100150490Y-84558287D01*
X100130960Y-84549952D01*
X100088334Y-84538137D01*
X100028145Y-84524181D01*
X99955922Y-84509422D01*
X99923600Y-84503355D01*
X99841522Y-84488273D01*
X99762795Y-84473669D01*
X99695109Y-84460980D01*
X99646160Y-84451642D01*
X99636943Y-84449839D01*
X99560743Y-84434799D01*
X99560743Y-84117492D01*
X99560914Y-84013154D01*
X99561616Y-83934213D01*
X99563134Y-83877038D01*
X99565749Y-83837999D01*
X99569746Y-83813465D01*
X99575409Y-83799805D01*
X99583020Y-83793389D01*
X99586143Y-83792199D01*
X99604978Y-83787980D01*
X99646588Y-83779562D01*
X99705630Y-83767961D01*
X99776757Y-83754195D01*
X99854625Y-83739280D01*
X99933887Y-83724232D01*
X100009198Y-83710069D01*
X100075213Y-83697806D01*
X100126587Y-83688461D01*
X100157975Y-83683050D01*
X100164959Y-83682114D01*
X100171285Y-83669596D01*
X100185290Y-83636246D01*
X100204355Y-83588377D01*
X100211634Y-83569629D01*
X100240996Y-83497195D01*
X100275571Y-83417170D01*
X100306537Y-83349728D01*
X100329323Y-83298159D01*
X100344482Y-83255785D01*
X100349542Y-83229834D01*
X100348736Y-83226356D01*
X100338041Y-83209936D01*
X100313620Y-83173417D01*
X100278095Y-83120687D01*
X100234087Y-83055635D01*
X100184217Y-82982151D01*
X100174356Y-82967645D01*
X100116492Y-82881704D01*
X100073956Y-82816261D01*
X100045054Y-82768304D01*
X100028090Y-82734820D01*
X100021367Y-82712795D01*
X100023190Y-82699217D01*
X100023236Y-82699131D01*
X100037586Y-82681297D01*
X100069323Y-82646817D01*
X100115010Y-82599268D01*
X100171204Y-82542222D01*
X100234468Y-82479255D01*
X100241602Y-82472227D01*
X100321330Y-82395020D01*
X100382857Y-82338330D01*
X100427421Y-82301110D01*
X100456257Y-82282315D01*
X100468958Y-82279889D01*
X100487494Y-82290471D01*
X100525961Y-82314916D01*
X100580386Y-82350612D01*
X100646798Y-82394947D01*
X100721225Y-82445311D01*
X100738601Y-82457160D01*
X100985297Y-82625626D01*
X101096706Y-82575062D01*
X101164457Y-82545595D01*
X101237183Y-82515959D01*
X101299703Y-82492330D01*
X101302457Y-82491358D01*
X101351360Y-82473457D01*
X101389057Y-82458320D01*
X101407425Y-82449210D01*
X101407456Y-82449184D01*
X101413285Y-82432717D01*
X101423192Y-82392219D01*
X101436195Y-82332242D01*
X101451309Y-82257340D01*
X101467552Y-82172064D01*
X101468881Y-82164875D01*
X101485175Y-82077014D01*
X101500133Y-81997260D01*
X101512791Y-81930681D01*
X101522186Y-81882347D01*
X101527354Y-81857325D01*
X101527444Y-81856943D01*
X101530589Y-81846299D01*
X101536704Y-81838262D01*
X101549453Y-81832467D01*
X101572500Y-81828547D01*
X101609509Y-81826135D01*
X101664144Y-81824865D01*
X101740067Y-81824371D01*
X101840944Y-81824286D01*
X101854000Y-81824286D01*
X101957910Y-81824348D01*
X103998876Y-86538335D02*
X104040667Y-86557344D01*
X104040667Y-86557344D02*
X104073469Y-86580378D01*
X104073469Y-86580378D02*
X104097503Y-86606133D01*
X104097503Y-86606133D02*
X104114097Y-86639358D01*
X104114097Y-86639358D02*
X104124577Y-86684800D01*
X104124577Y-86684800D02*
X104130271Y-86747207D01*
X104130271Y-86747207D02*
X104132507Y-86831327D01*
X104132507Y-86831327D02*
X104132743Y-86886721D01*
X104132743Y-86886721D02*
X104132743Y-87102826D01*
X104132743Y-87102826D02*
X104095774Y-87119670D01*
X104095774Y-87119670D02*
X104066656Y-87131981D01*
X104066656Y-87131981D02*
X104052231Y-87136514D01*
X104052231Y-87136514D02*
X104049472Y-87123025D01*
X104049472Y-87123025D02*
X104047282Y-87086653D01*
X104047282Y-87086653D02*
X104045942Y-87033542D01*
X104045942Y-87033542D02*
X104045657Y-86991372D01*
X104045657Y-86991372D02*
X104044434Y-86930447D01*
X104044434Y-86930447D02*
X104041136Y-86882115D01*
X104041136Y-86882115D02*
X104036321Y-86852518D01*
X104036321Y-86852518D02*
X104032496Y-86846229D01*
X104032496Y-86846229D02*
X104006783Y-86852652D01*
X104006783Y-86852652D02*
X103966418Y-86869125D01*
X103966418Y-86869125D02*
X103919679Y-86891458D01*
X103919679Y-86891458D02*
X103874845Y-86915457D01*
X103874845Y-86915457D02*
X103840193Y-86936930D01*
X103840193Y-86936930D02*
X103824002Y-86951685D01*
X103824002Y-86951685D02*
X103823938Y-86951845D01*
X103823938Y-86951845D02*
X103825330Y-86979152D01*
X103825330Y-86979152D02*
X103837818Y-87005219D01*
X103837818Y-87005219D02*
X103859743Y-87026392D01*
X103859743Y-87026392D02*
X103891743Y-87033474D01*
X103891743Y-87033474D02*
X103919092Y-87032649D01*
X103919092Y-87032649D02*
X103957826Y-87032042D01*
X103957826Y-87032042D02*
X103978158Y-87041116D01*
X103978158Y-87041116D02*
X103990369Y-87065092D01*
X103990369Y-87065092D02*
X103991909Y-87069613D01*
X103991909Y-87069613D02*
X103997203Y-87103806D01*
X103997203Y-87103806D02*
X103983047Y-87124568D01*
X103983047Y-87124568D02*
X103946148Y-87134462D01*
X103946148Y-87134462D02*
X103906289Y-87136292D01*
X103906289Y-87136292D02*
X103834562Y-87122727D01*
X103834562Y-87122727D02*
X103797432Y-87103355D01*
X103797432Y-87103355D02*
X103751576Y-87057845D01*
X103751576Y-87057845D02*
X103727256Y-87001983D01*
X103727256Y-87001983D02*
X103725073Y-86942957D01*
X103725073Y-86942957D02*
X103745629Y-86887953D01*
X103745629Y-86887953D02*
X103776549Y-86853486D01*
X103776549Y-86853486D02*
X103807420Y-86834189D01*
X103807420Y-86834189D02*
X103855942Y-86809759D01*
X103855942Y-86809759D02*
X103912485Y-86784985D01*
X103912485Y-86784985D02*
X103921910Y-86781199D01*
X103921910Y-86781199D02*
X103984019Y-86753791D01*
X103984019Y-86753791D02*
X104019822Y-86729634D01*
X104019822Y-86729634D02*
X104031337Y-86705619D01*
X104031337Y-86705619D02*
X104020580Y-86678635D01*
X104020580Y-86678635D02*
X104002114Y-86657543D01*
X104002114Y-86657543D02*
X103958469Y-86631572D01*
X103958469Y-86631572D02*
X103910446Y-86629624D01*
X103910446Y-86629624D02*
X103866406Y-86649637D01*
X103866406Y-86649637D02*
X103834709Y-86689551D01*
X103834709Y-86689551D02*
X103830549Y-86699848D01*
X103830549Y-86699848D02*
X103806327Y-86737724D01*
X103806327Y-86737724D02*
X103770965Y-86765842D01*
X103770965Y-86765842D02*
X103726343Y-86788917D01*
X103726343Y-86788917D02*
X103726343Y-86723485D01*
X103726343Y-86723485D02*
X103728969Y-86683506D01*
X103728969Y-86683506D02*
X103740230Y-86651997D01*
X103740230Y-86651997D02*
X103765199Y-86618378D01*
X103765199Y-86618378D02*
X103789169Y-86592484D01*
X103789169Y-86592484D02*
X103826441Y-86555817D01*
X103826441Y-86555817D02*
X103855401Y-86536121D01*
X103855401Y-86536121D02*
X103886505Y-86528220D01*
X103886505Y-86528220D02*
X103921713Y-86526914D01*
X103921713Y-86526914D02*
X103998876Y-86538335D01*
X103998876Y-86538335D02*
X103998876Y-86538335D01*
G36*
X103998876Y-86538335D02*
G01*
X104040667Y-86557344D01*
X104073469Y-86580378D01*
X104097503Y-86606133D01*
X104114097Y-86639358D01*
X104124577Y-86684800D01*
X104130271Y-86747207D01*
X104132507Y-86831327D01*
X104132743Y-86886721D01*
X104132743Y-87102826D01*
X104095774Y-87119670D01*
X104066656Y-87131981D01*
X104052231Y-87136514D01*
X104049472Y-87123025D01*
X104047282Y-87086653D01*
X104045942Y-87033542D01*
X104045657Y-86991372D01*
X104044434Y-86930447D01*
X104041136Y-86882115D01*
X104036321Y-86852518D01*
X104032496Y-86846229D01*
X104006783Y-86852652D01*
X103966418Y-86869125D01*
X103919679Y-86891458D01*
X103874845Y-86915457D01*
X103840193Y-86936930D01*
X103824002Y-86951685D01*
X103823938Y-86951845D01*
X103825330Y-86979152D01*
X103837818Y-87005219D01*
X103859743Y-87026392D01*
X103891743Y-87033474D01*
X103919092Y-87032649D01*
X103957826Y-87032042D01*
X103978158Y-87041116D01*
X103990369Y-87065092D01*
X103991909Y-87069613D01*
X103997203Y-87103806D01*
X103983047Y-87124568D01*
X103946148Y-87134462D01*
X103906289Y-87136292D01*
X103834562Y-87122727D01*
X103797432Y-87103355D01*
X103751576Y-87057845D01*
X103727256Y-87001983D01*
X103725073Y-86942957D01*
X103745629Y-86887953D01*
X103776549Y-86853486D01*
X103807420Y-86834189D01*
X103855942Y-86809759D01*
X103912485Y-86784985D01*
X103921910Y-86781199D01*
X103984019Y-86753791D01*
X104019822Y-86729634D01*
X104031337Y-86705619D01*
X104020580Y-86678635D01*
X104002114Y-86657543D01*
X103958469Y-86631572D01*
X103910446Y-86629624D01*
X103866406Y-86649637D01*
X103834709Y-86689551D01*
X103830549Y-86699848D01*
X103806327Y-86737724D01*
X103770965Y-86765842D01*
X103726343Y-86788917D01*
X103726343Y-86723485D01*
X103728969Y-86683506D01*
X103740230Y-86651997D01*
X103765199Y-86618378D01*
X103789169Y-86592484D01*
X103826441Y-86555817D01*
X103855401Y-86536121D01*
X103886505Y-86528220D01*
X103921713Y-86526914D01*
X103998876Y-86538335D01*
G37*
X103998876Y-86538335D02*
X104040667Y-86557344D01*
X104073469Y-86580378D01*
X104097503Y-86606133D01*
X104114097Y-86639358D01*
X104124577Y-86684800D01*
X104130271Y-86747207D01*
X104132507Y-86831327D01*
X104132743Y-86886721D01*
X104132743Y-87102826D01*
X104095774Y-87119670D01*
X104066656Y-87131981D01*
X104052231Y-87136514D01*
X104049472Y-87123025D01*
X104047282Y-87086653D01*
X104045942Y-87033542D01*
X104045657Y-86991372D01*
X104044434Y-86930447D01*
X104041136Y-86882115D01*
X104036321Y-86852518D01*
X104032496Y-86846229D01*
X104006783Y-86852652D01*
X103966418Y-86869125D01*
X103919679Y-86891458D01*
X103874845Y-86915457D01*
X103840193Y-86936930D01*
X103824002Y-86951685D01*
X103823938Y-86951845D01*
X103825330Y-86979152D01*
X103837818Y-87005219D01*
X103859743Y-87026392D01*
X103891743Y-87033474D01*
X103919092Y-87032649D01*
X103957826Y-87032042D01*
X103978158Y-87041116D01*
X103990369Y-87065092D01*
X103991909Y-87069613D01*
X103997203Y-87103806D01*
X103983047Y-87124568D01*
X103946148Y-87134462D01*
X103906289Y-87136292D01*
X103834562Y-87122727D01*
X103797432Y-87103355D01*
X103751576Y-87057845D01*
X103727256Y-87001983D01*
X103725073Y-86942957D01*
X103745629Y-86887953D01*
X103776549Y-86853486D01*
X103807420Y-86834189D01*
X103855942Y-86809759D01*
X103912485Y-86784985D01*
X103921910Y-86781199D01*
X103984019Y-86753791D01*
X104019822Y-86729634D01*
X104031337Y-86705619D01*
X104020580Y-86678635D01*
X104002114Y-86657543D01*
X103958469Y-86631572D01*
X103910446Y-86629624D01*
X103866406Y-86649637D01*
X103834709Y-86689551D01*
X103830549Y-86699848D01*
X103806327Y-86737724D01*
X103770965Y-86765842D01*
X103726343Y-86788917D01*
X103726343Y-86723485D01*
X103728969Y-86683506D01*
X103740230Y-86651997D01*
X103765199Y-86618378D01*
X103789169Y-86592484D01*
X103826441Y-86555817D01*
X103855401Y-86536121D01*
X103886505Y-86528220D01*
X103921713Y-86526914D01*
X103998876Y-86538335D01*
X100022303Y-86513239D02*
X100079527Y-86551735D01*
X100079527Y-86551735D02*
X100123749Y-86607335D01*
X100123749Y-86607335D02*
X100150167Y-86678086D01*
X100150167Y-86678086D02*
X100155510Y-86730162D01*
X100155510Y-86730162D02*
X100154903Y-86751893D01*
X100154903Y-86751893D02*
X100149822Y-86768531D01*
X100149822Y-86768531D02*
X100135855Y-86783437D01*
X100135855Y-86783437D02*
X100108589Y-86799973D01*
X100108589Y-86799973D02*
X100063612Y-86821498D01*
X100063612Y-86821498D02*
X99996511Y-86851374D01*
X99996511Y-86851374D02*
X99996171Y-86851524D01*
X99996171Y-86851524D02*
X99934407Y-86879813D01*
X99934407Y-86879813D02*
X99883759Y-86904933D01*
X99883759Y-86904933D02*
X99849404Y-86924179D01*
X99849404Y-86924179D02*
X99836518Y-86934848D01*
X99836518Y-86934848D02*
X99836514Y-86934934D01*
X99836514Y-86934934D02*
X99847872Y-86958166D01*
X99847872Y-86958166D02*
X99874431Y-86983774D01*
X99874431Y-86983774D02*
X99904923Y-87002221D01*
X99904923Y-87002221D02*
X99920370Y-87005886D01*
X99920370Y-87005886D02*
X99962515Y-86993212D01*
X99962515Y-86993212D02*
X99998808Y-86961471D01*
X99998808Y-86961471D02*
X100016517Y-86926572D01*
X100016517Y-86926572D02*
X100033552Y-86900845D01*
X100033552Y-86900845D02*
X100066922Y-86871546D01*
X100066922Y-86871546D02*
X100106149Y-86846235D01*
X100106149Y-86846235D02*
X100140756Y-86832471D01*
X100140756Y-86832471D02*
X100147993Y-86831714D01*
X100147993Y-86831714D02*
X100156139Y-86844160D01*
X100156139Y-86844160D02*
X100156630Y-86875972D01*
X100156630Y-86875972D02*
X100150643Y-86918866D01*
X100150643Y-86918866D02*
X100139357Y-86964558D01*
X100139357Y-86964558D02*
X100123950Y-87004761D01*
X100123950Y-87004761D02*
X100123171Y-87006322D01*
X100123171Y-87006322D02*
X100076804Y-87071062D01*
X100076804Y-87071062D02*
X100016711Y-87115097D01*
X100016711Y-87115097D02*
X99948465Y-87136711D01*
X99948465Y-87136711D02*
X99877638Y-87134185D01*
X99877638Y-87134185D02*
X99809804Y-87105804D01*
X99809804Y-87105804D02*
X99806788Y-87103808D01*
X99806788Y-87103808D02*
X99753427Y-87055448D01*
X99753427Y-87055448D02*
X99718340Y-86992352D01*
X99718340Y-86992352D02*
X99698922Y-86909387D01*
X99698922Y-86909387D02*
X99696316Y-86886078D01*
X99696316Y-86886078D02*
X99691701Y-86776055D01*
X99691701Y-86776055D02*
X99697233Y-86724748D01*
X99697233Y-86724748D02*
X99836514Y-86724748D01*
X99836514Y-86724748D02*
X99838324Y-86756753D01*
X99838324Y-86756753D02*
X99848222Y-86766093D01*
X99848222Y-86766093D02*
X99872898Y-86759105D01*
X99872898Y-86759105D02*
X99911795Y-86742587D01*
X99911795Y-86742587D02*
X99955275Y-86721881D01*
X99955275Y-86721881D02*
X99956356Y-86721333D01*
X99956356Y-86721333D02*
X99993209Y-86701949D01*
X99993209Y-86701949D02*
X100008000Y-86689013D01*
X100008000Y-86689013D02*
X100004353Y-86675451D01*
X100004353Y-86675451D02*
X99988995Y-86657632D01*
X99988995Y-86657632D02*
X99949923Y-86631845D01*
X99949923Y-86631845D02*
X99907846Y-86629950D01*
X99907846Y-86629950D02*
X99870103Y-86648717D01*
X99870103Y-86648717D02*
X99844034Y-86684915D01*
X99844034Y-86684915D02*
X99836514Y-86724748D01*
X99836514Y-86724748D02*
X99697233Y-86724748D01*
X99697233Y-86724748D02*
X99701194Y-86688027D01*
X99701194Y-86688027D02*
X99725550Y-86618212D01*
X99725550Y-86618212D02*
X99759456Y-86569302D01*
X99759456Y-86569302D02*
X99820653Y-86519878D01*
X99820653Y-86519878D02*
X99888063Y-86495359D01*
X99888063Y-86495359D02*
X99956880Y-86493797D01*
X99956880Y-86493797D02*
X100022303Y-86513239D01*
X100022303Y-86513239D02*
X100022303Y-86513239D01*
G36*
X99725550Y-86618212D02*
G01*
X99759456Y-86569302D01*
X99820653Y-86519878D01*
X99888063Y-86495359D01*
X99956880Y-86493797D01*
X100022303Y-86513239D01*
X100079527Y-86551735D01*
X100123749Y-86607335D01*
X100150167Y-86678086D01*
X100155510Y-86730162D01*
X100154903Y-86751893D01*
X100149822Y-86768531D01*
X100135855Y-86783437D01*
X100108589Y-86799973D01*
X100063612Y-86821498D01*
X99996511Y-86851374D01*
X99996171Y-86851524D01*
X99934407Y-86879813D01*
X99883759Y-86904933D01*
X99849404Y-86924179D01*
X99836518Y-86934848D01*
X99836514Y-86934934D01*
X99847872Y-86958166D01*
X99874431Y-86983774D01*
X99904923Y-87002221D01*
X99920370Y-87005886D01*
X99962515Y-86993212D01*
X99998808Y-86961471D01*
X100016517Y-86926572D01*
X100033552Y-86900845D01*
X100066922Y-86871546D01*
X100106149Y-86846235D01*
X100140756Y-86832471D01*
X100147993Y-86831714D01*
X100156139Y-86844160D01*
X100156630Y-86875972D01*
X100150643Y-86918866D01*
X100139357Y-86964558D01*
X100123950Y-87004761D01*
X100123171Y-87006322D01*
X100076804Y-87071062D01*
X100016711Y-87115097D01*
X99948465Y-87136711D01*
X99877638Y-87134185D01*
X99809804Y-87105804D01*
X99806788Y-87103808D01*
X99753427Y-87055448D01*
X99718340Y-86992352D01*
X99698922Y-86909387D01*
X99696316Y-86886078D01*
X99691701Y-86776055D01*
X99697233Y-86724748D01*
X99836514Y-86724748D01*
X99838324Y-86756753D01*
X99848222Y-86766093D01*
X99872898Y-86759105D01*
X99911795Y-86742587D01*
X99955275Y-86721881D01*
X99956356Y-86721333D01*
X99993209Y-86701949D01*
X100008000Y-86689013D01*
X100004353Y-86675451D01*
X99988995Y-86657632D01*
X99949923Y-86631845D01*
X99907846Y-86629950D01*
X99870103Y-86648717D01*
X99844034Y-86684915D01*
X99836514Y-86724748D01*
X99697233Y-86724748D01*
X99701194Y-86688027D01*
X99725550Y-86618212D01*
G37*
X99725550Y-86618212D02*
X99759456Y-86569302D01*
X99820653Y-86519878D01*
X99888063Y-86495359D01*
X99956880Y-86493797D01*
X100022303Y-86513239D01*
X100079527Y-86551735D01*
X100123749Y-86607335D01*
X100150167Y-86678086D01*
X100155510Y-86730162D01*
X100154903Y-86751893D01*
X100149822Y-86768531D01*
X100135855Y-86783437D01*
X100108589Y-86799973D01*
X100063612Y-86821498D01*
X99996511Y-86851374D01*
X99996171Y-86851524D01*
X99934407Y-86879813D01*
X99883759Y-86904933D01*
X99849404Y-86924179D01*
X99836518Y-86934848D01*
X99836514Y-86934934D01*
X99847872Y-86958166D01*
X99874431Y-86983774D01*
X99904923Y-87002221D01*
X99920370Y-87005886D01*
X99962515Y-86993212D01*
X99998808Y-86961471D01*
X100016517Y-86926572D01*
X100033552Y-86900845D01*
X100066922Y-86871546D01*
X100106149Y-86846235D01*
X100140756Y-86832471D01*
X100147993Y-86831714D01*
X100156139Y-86844160D01*
X100156630Y-86875972D01*
X100150643Y-86918866D01*
X100139357Y-86964558D01*
X100123950Y-87004761D01*
X100123171Y-87006322D01*
X100076804Y-87071062D01*
X100016711Y-87115097D01*
X99948465Y-87136711D01*
X99877638Y-87134185D01*
X99809804Y-87105804D01*
X99806788Y-87103808D01*
X99753427Y-87055448D01*
X99718340Y-86992352D01*
X99698922Y-86909387D01*
X99696316Y-86886078D01*
X99691701Y-86776055D01*
X99697233Y-86724748D01*
X99836514Y-86724748D01*
X99838324Y-86756753D01*
X99848222Y-86766093D01*
X99872898Y-86759105D01*
X99911795Y-86742587D01*
X99955275Y-86721881D01*
X99956356Y-86721333D01*
X99993209Y-86701949D01*
X100008000Y-86689013D01*
X100004353Y-86675451D01*
X99988995Y-86657632D01*
X99949923Y-86631845D01*
X99907846Y-86629950D01*
X99870103Y-86648717D01*
X99844034Y-86684915D01*
X99836514Y-86724748D01*
X99697233Y-86724748D01*
X99701194Y-86688027D01*
X99725550Y-86618212D01*
X102383926Y-86531755D02*
X102449858Y-86556084D01*
X102449858Y-86556084D02*
X102503273Y-86599117D01*
X102503273Y-86599117D02*
X102524164Y-86629409D01*
X102524164Y-86629409D02*
X102546939Y-86684994D01*
X102546939Y-86684994D02*
X102546466Y-86725186D01*
X102546466Y-86725186D02*
X102522562Y-86752217D01*
X102522562Y-86752217D02*
X102513717Y-86756813D01*
X102513717Y-86756813D02*
X102475530Y-86771144D01*
X102475530Y-86771144D02*
X102456028Y-86767472D01*
X102456028Y-86767472D02*
X102449422Y-86743407D01*
X102449422Y-86743407D02*
X102449086Y-86730114D01*
X102449086Y-86730114D02*
X102436992Y-86681210D01*
X102436992Y-86681210D02*
X102405471Y-86646999D01*
X102405471Y-86646999D02*
X102361659Y-86630476D01*
X102361659Y-86630476D02*
X102312695Y-86634634D01*
X102312695Y-86634634D02*
X102272894Y-86656227D01*
X102272894Y-86656227D02*
X102259450Y-86668544D01*
X102259450Y-86668544D02*
X102249921Y-86683487D01*
X102249921Y-86683487D02*
X102243485Y-86706075D01*
X102243485Y-86706075D02*
X102239317Y-86741328D01*
X102239317Y-86741328D02*
X102236597Y-86794266D01*
X102236597Y-86794266D02*
X102234502Y-86869907D01*
X102234502Y-86869907D02*
X102233960Y-86893857D01*
X102233960Y-86893857D02*
X102231981Y-86975790D01*
X102231981Y-86975790D02*
X102229731Y-87033455D01*
X102229731Y-87033455D02*
X102226357Y-87071608D01*
X102226357Y-87071608D02*
X102221006Y-87095004D01*
X102221006Y-87095004D02*
X102212824Y-87108398D01*
X102212824Y-87108398D02*
X102200959Y-87116545D01*
X102200959Y-87116545D02*
X102193362Y-87120144D01*
X102193362Y-87120144D02*
X102161102Y-87132452D01*
X102161102Y-87132452D02*
X102142111Y-87136514D01*
X102142111Y-87136514D02*
X102135836Y-87122948D01*
X102135836Y-87122948D02*
X102132006Y-87081934D01*
X102132006Y-87081934D02*
X102130600Y-87012999D01*
X102130600Y-87012999D02*
X102131598Y-86915669D01*
X102131598Y-86915669D02*
X102131908Y-86900657D01*
X102131908Y-86900657D02*
X102134101Y-86811859D01*
X102134101Y-86811859D02*
X102136693Y-86747019D01*
X102136693Y-86747019D02*
X102140382Y-86701067D01*
X102140382Y-86701067D02*
X102145864Y-86668935D01*
X102145864Y-86668935D02*
X102153835Y-86645553D01*
X102153835Y-86645553D02*
X102164993Y-86625852D01*
X102164993Y-86625852D02*
X102170830Y-86617410D01*
X102170830Y-86617410D02*
X102204296Y-86580057D01*
X102204296Y-86580057D02*
X102241727Y-86551003D01*
X102241727Y-86551003D02*
X102246309Y-86548467D01*
X102246309Y-86548467D02*
X102313426Y-86528443D01*
X102313426Y-86528443D02*
X102383926Y-86531755D01*
X102383926Y-86531755D02*
X102383926Y-86531755D01*
G36*
X102383926Y-86531755D02*
G01*
X102449858Y-86556084D01*
X102503273Y-86599117D01*
X102524164Y-86629409D01*
X102546939Y-86684994D01*
X102546466Y-86725186D01*
X102522562Y-86752217D01*
X102513717Y-86756813D01*
X102475530Y-86771144D01*
X102456028Y-86767472D01*
X102449422Y-86743407D01*
X102449086Y-86730114D01*
X102436992Y-86681210D01*
X102405471Y-86646999D01*
X102361659Y-86630476D01*
X102312695Y-86634634D01*
X102272894Y-86656227D01*
X102259450Y-86668544D01*
X102249921Y-86683487D01*
X102243485Y-86706075D01*
X102239317Y-86741328D01*
X102236597Y-86794266D01*
X102234502Y-86869907D01*
X102233960Y-86893857D01*
X102231981Y-86975790D01*
X102229731Y-87033455D01*
X102226357Y-87071608D01*
X102221006Y-87095004D01*
X102212824Y-87108398D01*
X102200959Y-87116545D01*
X102193362Y-87120144D01*
X102161102Y-87132452D01*
X102142111Y-87136514D01*
X102135836Y-87122948D01*
X102132006Y-87081934D01*
X102130600Y-87012999D01*
X102131598Y-86915669D01*
X102131908Y-86900657D01*
X102134101Y-86811859D01*
X102136693Y-86747019D01*
X102140382Y-86701067D01*
X102145864Y-86668935D01*
X102153835Y-86645553D01*
X102164993Y-86625852D01*
X102170830Y-86617410D01*
X102204296Y-86580057D01*
X102241727Y-86551003D01*
X102246309Y-86548467D01*
X102313426Y-86528443D01*
X102383926Y-86531755D01*
G37*
X102383926Y-86531755D02*
X102449858Y-86556084D01*
X102503273Y-86599117D01*
X102524164Y-86629409D01*
X102546939Y-86684994D01*
X102546466Y-86725186D01*
X102522562Y-86752217D01*
X102513717Y-86756813D01*
X102475530Y-86771144D01*
X102456028Y-86767472D01*
X102449422Y-86743407D01*
X102449086Y-86730114D01*
X102436992Y-86681210D01*
X102405471Y-86646999D01*
X102361659Y-86630476D01*
X102312695Y-86634634D01*
X102272894Y-86656227D01*
X102259450Y-86668544D01*
X102249921Y-86683487D01*
X102243485Y-86706075D01*
X102239317Y-86741328D01*
X102236597Y-86794266D01*
X102234502Y-86869907D01*
X102233960Y-86893857D01*
X102231981Y-86975790D01*
X102229731Y-87033455D01*
X102226357Y-87071608D01*
X102221006Y-87095004D01*
X102212824Y-87108398D01*
X102200959Y-87116545D01*
X102193362Y-87120144D01*
X102161102Y-87132452D01*
X102142111Y-87136514D01*
X102135836Y-87122948D01*
X102132006Y-87081934D01*
X102130600Y-87012999D01*
X102131598Y-86915669D01*
X102131908Y-86900657D01*
X102134101Y-86811859D01*
X102136693Y-86747019D01*
X102140382Y-86701067D01*
X102145864Y-86668935D01*
X102153835Y-86645553D01*
X102164993Y-86625852D01*
X102170830Y-86617410D01*
X102204296Y-86580057D01*
X102241727Y-86551003D01*
X102246309Y-86548467D01*
X102313426Y-86528443D01*
X102383926Y-86531755D01*
X99453744Y-86501918D02*
X99509201Y-86529568D01*
X99509201Y-86529568D02*
X99558148Y-86580480D01*
X99558148Y-86580480D02*
X99571629Y-86599338D01*
X99571629Y-86599338D02*
X99586314Y-86624015D01*
X99586314Y-86624015D02*
X99595842Y-86650816D01*
X99595842Y-86650816D02*
X99601293Y-86686587D01*
X99601293Y-86686587D02*
X99603747Y-86738169D01*
X99603747Y-86738169D02*
X99604286Y-86806267D01*
X99604286Y-86806267D02*
X99601852Y-86899588D01*
X99601852Y-86899588D02*
X99593394Y-86969657D01*
X99593394Y-86969657D02*
X99577174Y-87021931D01*
X99577174Y-87021931D02*
X99551454Y-87061869D01*
X99551454Y-87061869D02*
X99514497Y-87094929D01*
X99514497Y-87094929D02*
X99511782Y-87096886D01*
X99511782Y-87096886D02*
X99475360Y-87116908D01*
X99475360Y-87116908D02*
X99431502Y-87126815D01*
X99431502Y-87126815D02*
X99375724Y-87129257D01*
X99375724Y-87129257D02*
X99285048Y-87129257D01*
X99285048Y-87129257D02*
X99285010Y-87217283D01*
X99285010Y-87217283D02*
X99284166Y-87266308D01*
X99284166Y-87266308D02*
X99279024Y-87295065D01*
X99279024Y-87295065D02*
X99265587Y-87312311D01*
X99265587Y-87312311D02*
X99239858Y-87326808D01*
X99239858Y-87326808D02*
X99233679Y-87329769D01*
X99233679Y-87329769D02*
X99204764Y-87343648D01*
X99204764Y-87343648D02*
X99182376Y-87352414D01*
X99182376Y-87352414D02*
X99165729Y-87353171D01*
X99165729Y-87353171D02*
X99154036Y-87343023D01*
X99154036Y-87343023D02*
X99146510Y-87319073D01*
X99146510Y-87319073D02*
X99142366Y-87278426D01*
X99142366Y-87278426D02*
X99140815Y-87218186D01*
X99140815Y-87218186D02*
X99141071Y-87135455D01*
X99141071Y-87135455D02*
X99142349Y-87027339D01*
X99142349Y-87027339D02*
X99142748Y-86995000D01*
X99142748Y-86995000D02*
X99144185Y-86883524D01*
X99144185Y-86883524D02*
X99145472Y-86810603D01*
X99145472Y-86810603D02*
X99284971Y-86810603D01*
X99284971Y-86810603D02*
X99285755Y-86872499D01*
X99285755Y-86872499D02*
X99289240Y-86912997D01*
X99289240Y-86912997D02*
X99297124Y-86939708D01*
X99297124Y-86939708D02*
X99311105Y-86960244D01*
X99311105Y-86960244D02*
X99320597Y-86970260D01*
X99320597Y-86970260D02*
X99359404Y-86999567D01*
X99359404Y-86999567D02*
X99393763Y-87001952D01*
X99393763Y-87001952D02*
X99429216Y-86977750D01*
X99429216Y-86977750D02*
X99430114Y-86976857D01*
X99430114Y-86976857D02*
X99444539Y-86958153D01*
X99444539Y-86958153D02*
X99453313Y-86932732D01*
X99453313Y-86932732D02*
X99457739Y-86893584D01*
X99457739Y-86893584D02*
X99459118Y-86833697D01*
X99459118Y-86833697D02*
X99459143Y-86820430D01*
X99459143Y-86820430D02*
X99455812Y-86737901D01*
X99455812Y-86737901D02*
X99444969Y-86680691D01*
X99444969Y-86680691D02*
X99425340Y-86645766D01*
X99425340Y-86645766D02*
X99395650Y-86630094D01*
X99395650Y-86630094D02*
X99378491Y-86628514D01*
X99378491Y-86628514D02*
X99337766Y-86635926D01*
X99337766Y-86635926D02*
X99309832Y-86660330D01*
X99309832Y-86660330D02*
X99293017Y-86704980D01*
X99293017Y-86704980D02*
X99285650Y-86773130D01*
X99285650Y-86773130D02*
X99284971Y-86810603D01*
X99284971Y-86810603D02*
X99145472Y-86810603D01*
X99145472Y-86810603D02*
X99145708Y-86797245D01*
X99145708Y-86797245D02*
X99147677Y-86732333D01*
X99147677Y-86732333D02*
X99150450Y-86684958D01*
X99150450Y-86684958D02*
X99154388Y-86651290D01*
X99154388Y-86651290D02*
X99159849Y-86627498D01*
X99159849Y-86627498D02*
X99167192Y-86609753D01*
X99167192Y-86609753D02*
X99176777Y-86594224D01*
X99176777Y-86594224D02*
X99180887Y-86588381D01*
X99180887Y-86588381D02*
X99235405Y-86533185D01*
X99235405Y-86533185D02*
X99304336Y-86501890D01*
X99304336Y-86501890D02*
X99384072Y-86493165D01*
X99384072Y-86493165D02*
X99453744Y-86501918D01*
X99453744Y-86501918D02*
X99453744Y-86501918D01*
G36*
X99147677Y-86732333D02*
G01*
X99150450Y-86684958D01*
X99154388Y-86651290D01*
X99159849Y-86627498D01*
X99167192Y-86609753D01*
X99176777Y-86594224D01*
X99180887Y-86588381D01*
X99235405Y-86533185D01*
X99304336Y-86501890D01*
X99384072Y-86493165D01*
X99453744Y-86501918D01*
X99509201Y-86529568D01*
X99558148Y-86580480D01*
X99571629Y-86599338D01*
X99586314Y-86624015D01*
X99595842Y-86650816D01*
X99601293Y-86686587D01*
X99603747Y-86738169D01*
X99604286Y-86806267D01*
X99601852Y-86899588D01*
X99593394Y-86969657D01*
X99577174Y-87021931D01*
X99551454Y-87061869D01*
X99514497Y-87094929D01*
X99511782Y-87096886D01*
X99475360Y-87116908D01*
X99431502Y-87126815D01*
X99375724Y-87129257D01*
X99285048Y-87129257D01*
X99285010Y-87217283D01*
X99284166Y-87266308D01*
X99279024Y-87295065D01*
X99265587Y-87312311D01*
X99239858Y-87326808D01*
X99233679Y-87329769D01*
X99204764Y-87343648D01*
X99182376Y-87352414D01*
X99165729Y-87353171D01*
X99154036Y-87343023D01*
X99146510Y-87319073D01*
X99142366Y-87278426D01*
X99140815Y-87218186D01*
X99141071Y-87135455D01*
X99142349Y-87027339D01*
X99142748Y-86995000D01*
X99144185Y-86883524D01*
X99145472Y-86810603D01*
X99284971Y-86810603D01*
X99285755Y-86872499D01*
X99289240Y-86912997D01*
X99297124Y-86939708D01*
X99311105Y-86960244D01*
X99320597Y-86970260D01*
X99359404Y-86999567D01*
X99393763Y-87001952D01*
X99429216Y-86977750D01*
X99430114Y-86976857D01*
X99444539Y-86958153D01*
X99453313Y-86932732D01*
X99457739Y-86893584D01*
X99459118Y-86833697D01*
X99459143Y-86820430D01*
X99455812Y-86737901D01*
X99444969Y-86680691D01*
X99425340Y-86645766D01*
X99395650Y-86630094D01*
X99378491Y-86628514D01*
X99337766Y-86635926D01*
X99309832Y-86660330D01*
X99293017Y-86704980D01*
X99285650Y-86773130D01*
X99284971Y-86810603D01*
X99145472Y-86810603D01*
X99145708Y-86797245D01*
X99147677Y-86732333D01*
G37*
X99147677Y-86732333D02*
X99150450Y-86684958D01*
X99154388Y-86651290D01*
X99159849Y-86627498D01*
X99167192Y-86609753D01*
X99176777Y-86594224D01*
X99180887Y-86588381D01*
X99235405Y-86533185D01*
X99304336Y-86501890D01*
X99384072Y-86493165D01*
X99453744Y-86501918D01*
X99509201Y-86529568D01*
X99558148Y-86580480D01*
X99571629Y-86599338D01*
X99586314Y-86624015D01*
X99595842Y-86650816D01*
X99601293Y-86686587D01*
X99603747Y-86738169D01*
X99604286Y-86806267D01*
X99601852Y-86899588D01*
X99593394Y-86969657D01*
X99577174Y-87021931D01*
X99551454Y-87061869D01*
X99514497Y-87094929D01*
X99511782Y-87096886D01*
X99475360Y-87116908D01*
X99431502Y-87126815D01*
X99375724Y-87129257D01*
X99285048Y-87129257D01*
X99285010Y-87217283D01*
X99284166Y-87266308D01*
X99279024Y-87295065D01*
X99265587Y-87312311D01*
X99239858Y-87326808D01*
X99233679Y-87329769D01*
X99204764Y-87343648D01*
X99182376Y-87352414D01*
X99165729Y-87353171D01*
X99154036Y-87343023D01*
X99146510Y-87319073D01*
X99142366Y-87278426D01*
X99140815Y-87218186D01*
X99141071Y-87135455D01*
X99142349Y-87027339D01*
X99142748Y-86995000D01*
X99144185Y-86883524D01*
X99145472Y-86810603D01*
X99284971Y-86810603D01*
X99285755Y-86872499D01*
X99289240Y-86912997D01*
X99297124Y-86939708D01*
X99311105Y-86960244D01*
X99320597Y-86970260D01*
X99359404Y-86999567D01*
X99393763Y-87001952D01*
X99429216Y-86977750D01*
X99430114Y-86976857D01*
X99444539Y-86958153D01*
X99453313Y-86932732D01*
X99457739Y-86893584D01*
X99459118Y-86833697D01*
X99459143Y-86820430D01*
X99455812Y-86737901D01*
X99444969Y-86680691D01*
X99425340Y-86645766D01*
X99395650Y-86630094D01*
X99378491Y-86628514D01*
X99337766Y-86635926D01*
X99309832Y-86660330D01*
X99293017Y-86704980D01*
X99285650Y-86773130D01*
X99284971Y-86810603D01*
X99145472Y-86810603D01*
X99145708Y-86797245D01*
X99147677Y-86732333D01*
D13*
%TO.C,R1*%
X134644000Y-70358000D02*
X135414000Y-70358000D01*
X135414000Y-68988000D02*
X135414000Y-71728000D01*
X142724000Y-70358000D02*
X141954000Y-70358000D01*
X141954000Y-68988000D02*
X135414000Y-68988000D01*
X135414000Y-71728000D02*
X141954000Y-71728000D01*
X141954000Y-71728000D02*
X141954000Y-68988000D01*
%TO.C,D1*%
X70638000Y-87394000D02*
X70638000Y-83794000D01*
X92938000Y-83794000D02*
X92938000Y-87394000D01*
X73838000Y-87394000D02*
X73838000Y-86894000D01*
X85838000Y-83794000D02*
X87838000Y-83794000D01*
X80838000Y-83794000D02*
X82738000Y-83794000D01*
X76138000Y-83794000D02*
X77638000Y-83794000D01*
X90938000Y-83794000D02*
X92938000Y-83794000D01*
X92938000Y-87394000D02*
X70638000Y-87394000D01*
X70638000Y-83794000D02*
X72138000Y-83794000D01*
%TO.C,F1*%
X64526000Y-48966000D02*
X64526000Y-90226000D01*
X49266000Y-90226000D02*
X54896000Y-90226000D01*
X58896000Y-48966000D02*
X64526000Y-48966000D01*
X58896000Y-90226000D02*
X64526000Y-90226000D01*
X49266000Y-48966000D02*
X54896000Y-48966000D01*
X49266000Y-90226000D02*
X49266000Y-48966000D01*
%TO.C,R3*%
X142208000Y-56234000D02*
X142208000Y-53494000D01*
X142208000Y-53494000D02*
X135668000Y-53494000D01*
X142978000Y-54864000D02*
X142208000Y-54864000D01*
X134898000Y-54864000D02*
X135668000Y-54864000D01*
X135668000Y-53494000D02*
X135668000Y-56234000D01*
X135668000Y-56234000D02*
X142208000Y-56234000D01*
%TO.C,C1*%
X98285220Y-60484000D02*
X98285220Y-78200000D01*
X101925220Y-62215000D02*
X101925220Y-76469000D01*
X103165220Y-63395000D02*
X103165220Y-75289000D01*
X100965220Y-61554000D02*
X100965220Y-67902000D01*
X104285220Y-65003000D02*
X104285220Y-73681000D01*
X103245220Y-63488000D02*
X103245220Y-75196000D01*
X97485220Y-60341000D02*
X97485220Y-78343000D01*
X100645220Y-61371000D02*
X100645220Y-67902000D01*
X98325220Y-60493000D02*
X98325220Y-78191000D01*
X98485220Y-60531000D02*
X98485220Y-78153000D01*
X101205220Y-61702000D02*
X101205220Y-67902000D01*
X102885220Y-63088000D02*
X102885220Y-75596000D01*
X96364220Y-60262000D02*
X96364220Y-78422000D01*
X102285220Y-62513000D02*
X102285220Y-76171000D01*
X99365220Y-60797000D02*
X99365220Y-67902000D01*
X100365220Y-61225000D02*
X100365220Y-67902000D01*
X101325220Y-70782000D02*
X101325220Y-76903000D01*
X101285220Y-70782000D02*
X101285220Y-76930000D01*
X103525220Y-63836000D02*
X103525220Y-74848000D01*
X104564220Y-65558000D02*
X104564220Y-73126000D01*
X100805220Y-70782000D02*
X100805220Y-77224000D01*
X104604220Y-65646000D02*
X104604220Y-73038000D01*
X105044220Y-66844000D02*
X105044220Y-71840000D01*
X100405220Y-61245000D02*
X100405220Y-67902000D01*
X96644220Y-60269000D02*
X96644220Y-78415000D01*
X105324220Y-68176000D02*
X105324220Y-70508000D01*
X96444220Y-60263000D02*
X96444220Y-78421000D01*
X98365220Y-60502000D02*
X98365220Y-78182000D01*
X102405220Y-62620000D02*
X102405220Y-76064000D01*
X103285220Y-63536000D02*
X103285220Y-75148000D01*
X98645220Y-60572000D02*
X98645220Y-67902000D01*
X101365220Y-70782000D02*
X101365220Y-76877000D01*
X97885220Y-60403000D02*
X97885220Y-78281000D01*
X97405220Y-60331000D02*
X97405220Y-78353000D01*
X97645220Y-60363000D02*
X97645220Y-78321000D01*
X104005220Y-64526000D02*
X104005220Y-74158000D01*
X103405220Y-63682000D02*
X103405220Y-75002000D01*
X103565220Y-63888000D02*
X103565220Y-74796000D01*
X101485220Y-61889000D02*
X101485220Y-76795000D01*
X98565220Y-60551000D02*
X98565220Y-78133000D01*
X102565220Y-62768000D02*
X102565220Y-75916000D01*
X99645220Y-70782000D02*
X99645220Y-77781000D01*
X104684220Y-65830000D02*
X104684220Y-72854000D01*
X100005220Y-70782000D02*
X100005220Y-77629000D01*
X103965220Y-64463000D02*
X103965220Y-74221000D01*
X99765220Y-70782000D02*
X99765220Y-77732000D01*
X103485220Y-63784000D02*
X103485220Y-74900000D01*
X100965220Y-70782000D02*
X100965220Y-77130000D01*
X98245220Y-60475000D02*
X98245220Y-78209000D01*
X98885220Y-60640000D02*
X98885220Y-67902000D01*
X101405220Y-70782000D02*
X101405220Y-76850000D01*
X98685220Y-70782000D02*
X98685220Y-78101000D01*
X98885220Y-70782000D02*
X98885220Y-78044000D01*
X102685220Y-62884000D02*
X102685220Y-75800000D01*
X99965220Y-61037000D02*
X99965220Y-67902000D01*
X101565220Y-61945000D02*
X101565220Y-76739000D01*
X105164220Y-67303000D02*
X105164220Y-71381000D01*
X97605220Y-60358000D02*
X97605220Y-78326000D01*
X100165220Y-70782000D02*
X100165220Y-77556000D01*
X101245220Y-61728000D02*
X101245220Y-67902000D01*
X98925220Y-60652000D02*
X98925220Y-67902000D01*
X96284220Y-60261000D02*
X96284220Y-78423000D01*
X99645220Y-60903000D02*
X99645220Y-67902000D01*
X101445220Y-70782000D02*
X101445220Y-76822000D01*
X100045220Y-70782000D02*
X100045220Y-77611000D01*
X96844220Y-60279000D02*
X96844220Y-78405000D01*
X99325220Y-70782000D02*
X99325220Y-77901000D01*
X96964220Y-60287000D02*
X96964220Y-78397000D01*
X104405220Y-65229000D02*
X104405220Y-73455000D01*
X102485220Y-62693000D02*
X102485220Y-75991000D01*
X99405220Y-60812000D02*
X99405220Y-67902000D01*
X97565220Y-60352000D02*
X97565220Y-78332000D01*
X100885220Y-70782000D02*
X100885220Y-77177000D01*
X99725220Y-60935000D02*
X99725220Y-67902000D01*
X102925220Y-63130000D02*
X102925220Y-75554000D01*
X99245220Y-70782000D02*
X99245220Y-77929000D01*
X104844220Y-66235000D02*
X104844220Y-72449000D01*
X103045220Y-63260000D02*
X103045220Y-75424000D01*
X103205220Y-63441000D02*
X103205220Y-75243000D01*
X104085220Y-64656000D02*
X104085220Y-74028000D01*
X99005220Y-70782000D02*
X99005220Y-78007000D01*
X101765220Y-62092000D02*
X101765220Y-76592000D01*
X87424780Y-63327000D02*
X87424780Y-65127000D01*
X86524780Y-64227000D02*
X88324780Y-64227000D01*
X100485220Y-61286000D02*
X100485220Y-67902000D01*
X104125220Y-64722000D02*
X104125220Y-73962000D01*
X100005220Y-61055000D02*
X100005220Y-67902000D01*
X100845220Y-70782000D02*
X100845220Y-77201000D01*
X99525220Y-70782000D02*
X99525220Y-77828000D01*
X96804220Y-60276000D02*
X96804220Y-78408000D01*
X99565220Y-70782000D02*
X99565220Y-77812000D01*
X97445220Y-60336000D02*
X97445220Y-78348000D01*
X100925220Y-61530000D02*
X100925220Y-67902000D01*
X102605220Y-62806000D02*
X102605220Y-75878000D01*
X101165220Y-61677000D02*
X101165220Y-67902000D01*
X98805220Y-60617000D02*
X98805220Y-67902000D01*
X102445220Y-62656000D02*
X102445220Y-76028000D01*
X104964220Y-66583000D02*
X104964220Y-72101000D01*
X100725220Y-61415000D02*
X100725220Y-67902000D01*
X97525220Y-60346000D02*
X97525220Y-78338000D01*
X99725220Y-70782000D02*
X99725220Y-77749000D01*
X100685220Y-61393000D02*
X100685220Y-67902000D01*
X96604220Y-60267000D02*
X96604220Y-78417000D01*
X100085220Y-61091000D02*
X100085220Y-67902000D01*
X100365220Y-70782000D02*
X100365220Y-77459000D01*
X100285220Y-61186000D02*
X100285220Y-67902000D01*
X97845220Y-60396000D02*
X97845220Y-78288000D01*
X102845220Y-63046000D02*
X102845220Y-75638000D01*
X104165220Y-64790000D02*
X104165220Y-73894000D01*
X99445220Y-70782000D02*
X99445220Y-77858000D01*
X101685220Y-62032000D02*
X101685220Y-76652000D01*
X96404220Y-60262000D02*
X96404220Y-78422000D01*
X97965220Y-60418000D02*
X97965220Y-78266000D01*
X101125220Y-61652000D02*
X101125220Y-67902000D01*
X99165220Y-70782000D02*
X99165220Y-77956000D01*
X100645220Y-70782000D02*
X100645220Y-77313000D01*
X99285220Y-70782000D02*
X99285220Y-77915000D01*
X98205220Y-60466000D02*
X98205220Y-78218000D01*
X99965220Y-70782000D02*
X99965220Y-77647000D01*
X99205220Y-70782000D02*
X99205220Y-77942000D01*
X100725220Y-70782000D02*
X100725220Y-77269000D01*
X99845220Y-60985000D02*
X99845220Y-67902000D01*
X97725220Y-60376000D02*
X97725220Y-78308000D01*
X103885220Y-64340000D02*
X103885220Y-74344000D01*
X104445220Y-65309000D02*
X104445220Y-73375000D01*
X100685220Y-70782000D02*
X100685220Y-77291000D01*
X98965220Y-60664000D02*
X98965220Y-67902000D01*
X98925220Y-70782000D02*
X98925220Y-78032000D01*
X100925220Y-70782000D02*
X100925220Y-77154000D01*
X100605220Y-70782000D02*
X100605220Y-77334000D01*
X98845220Y-60628000D02*
X98845220Y-67902000D01*
X104924220Y-66462000D02*
X104924220Y-72222000D01*
X101725220Y-62062000D02*
X101725220Y-76622000D01*
X100445220Y-61266000D02*
X100445220Y-67902000D01*
X98685220Y-60583000D02*
X98685220Y-67902000D01*
X101125220Y-70782000D02*
X101125220Y-77032000D01*
X99085220Y-60702000D02*
X99085220Y-67902000D01*
X97085220Y-60297000D02*
X97085220Y-78387000D01*
X99405220Y-70782000D02*
X99405220Y-77872000D01*
X103725220Y-64107000D02*
X103725220Y-74577000D01*
X101885220Y-62183000D02*
X101885220Y-76501000D01*
X105124220Y-67139000D02*
X105124220Y-71545000D01*
X104484220Y-65390000D02*
X104484220Y-73294000D01*
X105004220Y-66710000D02*
X105004220Y-71974000D01*
X100845220Y-61483000D02*
X100845220Y-67902000D01*
X99565220Y-60872000D02*
X99565220Y-67902000D01*
X103365220Y-63633000D02*
X103365220Y-75051000D01*
X101525220Y-61917000D02*
X101525220Y-76767000D01*
X98525220Y-60541000D02*
X98525220Y-78143000D01*
X104884220Y-66346000D02*
X104884220Y-72338000D01*
X98965220Y-70782000D02*
X98965220Y-78020000D01*
X101205220Y-70782000D02*
X101205220Y-76982000D01*
X100805220Y-61460000D02*
X100805220Y-67902000D01*
X100765220Y-61438000D02*
X100765220Y-67902000D01*
X100285220Y-70782000D02*
X100285220Y-77498000D01*
X104804220Y-66128000D02*
X104804220Y-72556000D01*
X100525220Y-61307000D02*
X100525220Y-67902000D01*
X96324220Y-60262000D02*
X96324220Y-78422000D01*
X103005220Y-63216000D02*
X103005220Y-75468000D01*
X96724220Y-60272000D02*
X96724220Y-78412000D01*
X101005220Y-61578000D02*
X101005220Y-67902000D01*
X100205220Y-61147000D02*
X100205220Y-67902000D01*
X105204220Y-67482000D02*
X105204220Y-71202000D01*
X102085220Y-62343000D02*
X102085220Y-76341000D01*
X103645220Y-63996000D02*
X103645220Y-74688000D01*
X101325220Y-61781000D02*
X101325220Y-67902000D01*
X100325220Y-70782000D02*
X100325220Y-77479000D01*
X99845220Y-70782000D02*
X99845220Y-77699000D01*
X101365220Y-61807000D02*
X101365220Y-67902000D01*
X102245220Y-62478000D02*
X102245220Y-76206000D01*
X104724220Y-65926000D02*
X104724220Y-72758000D01*
X98165220Y-60457000D02*
X98165220Y-78227000D01*
X101965220Y-62246000D02*
X101965220Y-76438000D01*
X97005220Y-60290000D02*
X97005220Y-78394000D01*
X98125220Y-60449000D02*
X98125220Y-78235000D01*
X98845220Y-70782000D02*
X98845220Y-78056000D01*
X103125220Y-63349000D02*
X103125220Y-75335000D01*
X100445220Y-70782000D02*
X100445220Y-77418000D01*
X96924220Y-60284000D02*
X96924220Y-78400000D01*
X104205220Y-64860000D02*
X104205220Y-73824000D01*
X105244220Y-67681000D02*
X105244220Y-71003000D01*
X102645220Y-62845000D02*
X102645220Y-75839000D01*
X97325220Y-60321000D02*
X97325220Y-78363000D01*
X102365220Y-62584000D02*
X102365220Y-76100000D01*
X104045220Y-64590000D02*
X104045220Y-74094000D01*
X104245220Y-64930000D02*
X104245220Y-73754000D01*
X98085220Y-60441000D02*
X98085220Y-78243000D01*
X98405220Y-60511000D02*
X98405220Y-78173000D01*
X102725220Y-62924000D02*
X102725220Y-75760000D01*
X98445220Y-60521000D02*
X98445220Y-78163000D01*
X104365220Y-65152000D02*
X104365220Y-73532000D01*
X101045220Y-61602000D02*
X101045220Y-67902000D01*
X99325220Y-60783000D02*
X99325220Y-67902000D01*
X102325220Y-62548000D02*
X102325220Y-76136000D01*
X99205220Y-60742000D02*
X99205220Y-67902000D01*
X98605220Y-60562000D02*
X98605220Y-67902000D01*
X102205220Y-62444000D02*
X102205220Y-76240000D01*
X105364220Y-68528000D02*
X105364220Y-70156000D01*
X103685220Y-64051000D02*
X103685220Y-74633000D01*
X103605220Y-63942000D02*
X103605220Y-74742000D01*
X99045220Y-60689000D02*
X99045220Y-67902000D01*
X97365220Y-60326000D02*
X97365220Y-78358000D01*
X101805220Y-62122000D02*
X101805220Y-76562000D01*
X105084220Y-66987000D02*
X105084220Y-71697000D01*
X101645220Y-62003000D02*
X101645220Y-76681000D01*
X97245220Y-60312000D02*
X97245220Y-78372000D01*
X101245220Y-70782000D02*
X101245220Y-76956000D01*
X97805220Y-60389000D02*
X97805220Y-78295000D01*
X100045220Y-61073000D02*
X100045220Y-67902000D01*
X102125220Y-62377000D02*
X102125220Y-76307000D01*
X104764220Y-66025000D02*
X104764220Y-72659000D01*
X102965220Y-63172000D02*
X102965220Y-75512000D01*
X97925220Y-60410000D02*
X97925220Y-78274000D01*
X100245220Y-61166000D02*
X100245220Y-67902000D01*
X98765220Y-70782000D02*
X98765220Y-78079000D01*
X98725220Y-70782000D02*
X98725220Y-78090000D01*
X97685220Y-60370000D02*
X97685220Y-78314000D01*
X100485220Y-70782000D02*
X100485220Y-77398000D01*
X99445220Y-60826000D02*
X99445220Y-67902000D01*
X98805220Y-70782000D02*
X98805220Y-78067000D01*
X100245220Y-70782000D02*
X100245220Y-77518000D01*
X100325220Y-61205000D02*
X100325220Y-67902000D01*
X103445220Y-63733000D02*
X103445220Y-74951000D01*
X101285220Y-61754000D02*
X101285220Y-67902000D01*
X103085220Y-63304000D02*
X103085220Y-75380000D01*
X100125220Y-70782000D02*
X100125220Y-77575000D01*
X99485220Y-70782000D02*
X99485220Y-77843000D01*
X104325220Y-65077000D02*
X104325220Y-73607000D01*
X105404220Y-69302000D02*
X105404220Y-69382000D01*
X105284220Y-67907000D02*
X105284220Y-70777000D01*
X102765220Y-62964000D02*
X102765220Y-75720000D01*
X96684220Y-60270000D02*
X96684220Y-78414000D01*
X102045220Y-62311000D02*
X102045220Y-76373000D01*
X96564220Y-60266000D02*
X96564220Y-78418000D01*
X103925220Y-64401000D02*
X103925220Y-74283000D01*
X101165220Y-70782000D02*
X101165220Y-77007000D01*
X99525220Y-60856000D02*
X99525220Y-67902000D01*
X99085220Y-70782000D02*
X99085220Y-77982000D01*
X97045220Y-60293000D02*
X97045220Y-78391000D01*
X100165220Y-61128000D02*
X100165220Y-67902000D01*
X99005220Y-60677000D02*
X99005220Y-67902000D01*
X99885220Y-70782000D02*
X99885220Y-77682000D01*
X103325220Y-63584000D02*
X103325220Y-75100000D01*
X98645220Y-70782000D02*
X98645220Y-78112000D01*
X98765220Y-60605000D02*
X98765220Y-67902000D01*
X97285220Y-60316000D02*
X97285220Y-78368000D01*
X100525220Y-70782000D02*
X100525220Y-77377000D01*
X100605220Y-61350000D02*
X100605220Y-67902000D01*
X99685220Y-60919000D02*
X99685220Y-67902000D01*
X104644220Y-65737000D02*
X104644220Y-72947000D01*
X98045220Y-60433000D02*
X98045220Y-78251000D01*
X101405220Y-61834000D02*
X101405220Y-67902000D01*
X101085220Y-61627000D02*
X101085220Y-67902000D01*
X101445220Y-61862000D02*
X101445220Y-67902000D01*
X101845220Y-62152000D02*
X101845220Y-76532000D01*
X103805220Y-64222000D02*
X103805220Y-74462000D01*
X96884220Y-60281000D02*
X96884220Y-78403000D01*
X99245220Y-60755000D02*
X99245220Y-67902000D01*
X99885220Y-61002000D02*
X99885220Y-67902000D01*
X97765220Y-60382000D02*
X97765220Y-78302000D01*
X99925220Y-61019000D02*
X99925220Y-67902000D01*
X99485220Y-60841000D02*
X99485220Y-67902000D01*
X103845220Y-64280000D02*
X103845220Y-74404000D01*
X96764220Y-60274000D02*
X96764220Y-78410000D01*
X100405220Y-70782000D02*
X100405220Y-77439000D01*
X100125220Y-61109000D02*
X100125220Y-67902000D01*
X100085220Y-70782000D02*
X100085220Y-77593000D01*
X98605220Y-70782000D02*
X98605220Y-78122000D01*
X100565220Y-61328000D02*
X100565220Y-67902000D01*
X101045220Y-70782000D02*
X101045220Y-77082000D01*
X99605220Y-60887000D02*
X99605220Y-67902000D01*
X98725220Y-60594000D02*
X98725220Y-67902000D01*
X97125220Y-60300000D02*
X97125220Y-78384000D01*
X99805220Y-60968000D02*
X99805220Y-67902000D01*
X99365220Y-70782000D02*
X99365220Y-77887000D01*
X102165220Y-62410000D02*
X102165220Y-76274000D01*
X101605220Y-61974000D02*
X101605220Y-76710000D01*
X99125220Y-70782000D02*
X99125220Y-77969000D01*
X100765220Y-70782000D02*
X100765220Y-77246000D01*
X99125220Y-60715000D02*
X99125220Y-67902000D01*
X96524220Y-60265000D02*
X96524220Y-78419000D01*
X100565220Y-70782000D02*
X100565220Y-77356000D01*
X99605220Y-70782000D02*
X99605220Y-77797000D01*
X96484220Y-60264000D02*
X96484220Y-78420000D01*
X97165220Y-60304000D02*
X97165220Y-78380000D01*
X99925220Y-70782000D02*
X99925220Y-77665000D01*
X99765220Y-60952000D02*
X99765220Y-67902000D01*
X99045220Y-70782000D02*
X99045220Y-77995000D01*
X104524220Y-65473000D02*
X104524220Y-73211000D01*
X99805220Y-70782000D02*
X99805220Y-77716000D01*
X102525220Y-62730000D02*
X102525220Y-75954000D01*
X102805220Y-63005000D02*
X102805220Y-75679000D01*
X102005220Y-62278000D02*
X102005220Y-76406000D01*
X103765220Y-64164000D02*
X103765220Y-74520000D01*
X101085220Y-70782000D02*
X101085220Y-77057000D01*
X98005220Y-60425000D02*
X98005220Y-78259000D01*
X99165220Y-60728000D02*
X99165220Y-67902000D01*
X100205220Y-70782000D02*
X100205220Y-77537000D01*
X101005220Y-70782000D02*
X101005220Y-77106000D01*
X99685220Y-70782000D02*
X99685220Y-77765000D01*
X100885220Y-61507000D02*
X100885220Y-67902000D01*
X99285220Y-60769000D02*
X99285220Y-67902000D01*
X97205220Y-60308000D02*
X97205220Y-78376000D01*
X105404220Y-69342000D02*
G75*
G03*
X105404220Y-69342000I-9120000J0D01*
G01*
%TO.C,Q1*%
X115136000Y-62350000D02*
X113636000Y-62350000D01*
X115136000Y-51950000D02*
X113636000Y-51950000D01*
X113636000Y-62350000D02*
X113636000Y-60540000D01*
X113636000Y-60540000D02*
X112536000Y-60540000D01*
X113636000Y-51950000D02*
X113636000Y-53760000D01*
X113636000Y-53760000D02*
X108511000Y-53760000D01*
%TO.C,R4*%
X125052000Y-45466000D02*
X123672000Y-45466000D01*
X73432000Y-40846000D02*
X73432000Y-50086000D01*
X123672000Y-40846000D02*
X73432000Y-40846000D01*
X123672000Y-50086000D02*
X123672000Y-40846000D01*
X73432000Y-50086000D02*
X123672000Y-50086000D01*
X72052000Y-45466000D02*
X73432000Y-45466000D01*
%TO.C,J3*%
X130594000Y-98676000D02*
X128994000Y-98676000D01*
X134874000Y-94256000D02*
X134624000Y-94786000D01*
X136544000Y-98246000D02*
X136544000Y-94246000D01*
X129794000Y-94256000D02*
X129794000Y-93256000D01*
X134074000Y-98676000D02*
X134074000Y-99276000D01*
X128414000Y-99276000D02*
X136254000Y-99276000D01*
X136254000Y-99276000D02*
X136254000Y-93256000D01*
X134874000Y-94256000D02*
X129794000Y-94256000D01*
X130044000Y-94786000D02*
X129794000Y-94256000D01*
X130594000Y-99276000D02*
X130594000Y-98676000D01*
X134874000Y-93256000D02*
X134874000Y-94256000D01*
X136254000Y-93256000D02*
X128414000Y-93256000D01*
X128994000Y-98676000D02*
X128994000Y-99276000D01*
X128414000Y-93256000D02*
X128414000Y-99276000D01*
X133134000Y-98676000D02*
X131534000Y-98676000D01*
X135674000Y-99276000D02*
X135674000Y-98676000D01*
X134624000Y-93256000D02*
X134624000Y-94256000D01*
X130044000Y-93256000D02*
X130044000Y-94256000D01*
X133134000Y-99276000D02*
X133134000Y-98676000D01*
X134624000Y-94786000D02*
X130044000Y-94786000D01*
X131534000Y-98676000D02*
X131534000Y-99276000D01*
X135674000Y-98676000D02*
X134074000Y-98676000D01*
%TO.C,J1*%
X90517000Y-90378000D02*
X90517000Y-89373000D01*
X108782000Y-96383000D02*
X108782000Y-92383000D01*
X101712000Y-99003000D02*
X101712000Y-99603000D01*
X97752000Y-99003000D02*
X97752000Y-99603000D01*
X106587000Y-90378000D02*
X108492000Y-90378000D01*
X93792000Y-99003000D02*
X93792000Y-99603000D01*
X106472000Y-90373000D02*
X90632000Y-90373000D01*
X107272000Y-99603000D02*
X107272000Y-99003000D01*
X103312000Y-99003000D02*
X101712000Y-99003000D01*
X108492000Y-90378000D02*
X108492000Y-99603000D01*
X91432000Y-99603000D02*
X91432000Y-99003000D01*
X95392000Y-99003000D02*
X93792000Y-99003000D01*
X105672000Y-99003000D02*
X105672000Y-99603000D01*
X90632000Y-92043000D02*
X90632000Y-90373000D01*
X99352000Y-99603000D02*
X99352000Y-99003000D01*
X90517000Y-89373000D02*
X106587000Y-89373000D01*
X103312000Y-99603000D02*
X103312000Y-99003000D01*
X108492000Y-99603000D02*
X88612000Y-99603000D01*
X106472000Y-89373000D02*
X106472000Y-90373000D01*
X90632000Y-90373000D02*
X90632000Y-89373000D01*
X91432000Y-99003000D02*
X89832000Y-99003000D01*
X95392000Y-99603000D02*
X95392000Y-99003000D01*
X106472000Y-92043000D02*
X90632000Y-92043000D01*
X107272000Y-99003000D02*
X105672000Y-99003000D01*
X99352000Y-99003000D02*
X97752000Y-99003000D01*
X106587000Y-89373000D02*
X106587000Y-90378000D01*
X88612000Y-99603000D02*
X88612000Y-90378000D01*
X106472000Y-90373000D02*
X106472000Y-92043000D01*
X89832000Y-99003000D02*
X89832000Y-99603000D01*
X88612000Y-90378000D02*
X90517000Y-90378000D01*
%TO.C,U2*%
X139894000Y-65896000D02*
X145094000Y-65896000D01*
X139894000Y-64246000D02*
X139894000Y-65896000D01*
X145094000Y-65896000D02*
X145094000Y-60596000D01*
X139894000Y-60596000D02*
X139894000Y-62246000D01*
X145094000Y-60596000D02*
X139894000Y-60596000D01*
X139894000Y-64246000D02*
G75*
G03*
X139894000Y-62246000I0J1000000D01*
G01*
%TO.C,R2*%
X142208000Y-51916000D02*
X142208000Y-49176000D01*
X134898000Y-50546000D02*
X135668000Y-50546000D01*
X142208000Y-49176000D02*
X135668000Y-49176000D01*
X142978000Y-50546000D02*
X142208000Y-50546000D01*
X135668000Y-51916000D02*
X142208000Y-51916000D01*
X135668000Y-49176000D02*
X135668000Y-51916000D01*
%TO.C,JP1*%
X135437000Y-89976000D02*
X135437000Y-87316000D01*
X131567000Y-89976000D02*
X130237000Y-89976000D01*
X130237000Y-89976000D02*
X130237000Y-88646000D01*
X132837000Y-89976000D02*
X135437000Y-89976000D01*
X132837000Y-89976000D02*
X132837000Y-87316000D01*
X132837000Y-87316000D02*
X135437000Y-87316000D01*
%TO.C,J2*%
X85636000Y-99003000D02*
X84036000Y-99003000D01*
X84836000Y-92043000D02*
X68996000Y-92043000D01*
X69796000Y-99603000D02*
X69796000Y-99003000D01*
X77716000Y-99603000D02*
X77716000Y-99003000D01*
X72156000Y-99003000D02*
X72156000Y-99603000D01*
X81676000Y-99003000D02*
X80076000Y-99003000D01*
X66976000Y-90378000D02*
X68881000Y-90378000D01*
X85636000Y-99603000D02*
X85636000Y-99003000D01*
X68881000Y-90378000D02*
X68881000Y-89373000D01*
X84836000Y-90373000D02*
X84836000Y-92043000D01*
X69796000Y-99003000D02*
X68196000Y-99003000D01*
X84951000Y-90378000D02*
X86856000Y-90378000D01*
X66976000Y-99603000D02*
X66976000Y-90378000D01*
X81676000Y-99603000D02*
X81676000Y-99003000D01*
X84036000Y-99003000D02*
X84036000Y-99603000D01*
X84836000Y-89373000D02*
X84836000Y-90373000D01*
X73756000Y-99603000D02*
X73756000Y-99003000D01*
X68881000Y-89373000D02*
X84951000Y-89373000D01*
X77716000Y-99003000D02*
X76116000Y-99003000D01*
X84951000Y-89373000D02*
X84951000Y-90378000D01*
X68996000Y-92043000D02*
X68996000Y-90373000D01*
X68996000Y-90373000D02*
X68996000Y-89373000D01*
X80076000Y-99003000D02*
X80076000Y-99603000D01*
X84836000Y-90373000D02*
X68996000Y-90373000D01*
X87146000Y-96383000D02*
X87146000Y-92383000D01*
X73756000Y-99003000D02*
X72156000Y-99003000D01*
X76116000Y-99003000D02*
X76116000Y-99603000D01*
X68196000Y-99003000D02*
X68196000Y-99603000D01*
X86856000Y-99603000D02*
X66976000Y-99603000D01*
X86856000Y-90378000D02*
X86856000Y-99603000D01*
%TO.C,J4*%
X121868000Y-92043000D02*
X117908000Y-92043000D01*
X118708000Y-99603000D02*
X118708000Y-99003000D01*
X118708000Y-99003000D02*
X117108000Y-99003000D01*
X117108000Y-99003000D02*
X117108000Y-99603000D01*
X115888000Y-99603000D02*
X115888000Y-90378000D01*
X122668000Y-99003000D02*
X121068000Y-99003000D01*
X121983000Y-90378000D02*
X123888000Y-90378000D01*
X124178000Y-96383000D02*
X124178000Y-92383000D01*
X121983000Y-89373000D02*
X121983000Y-90378000D01*
X123888000Y-90378000D02*
X123888000Y-99603000D01*
X123888000Y-99603000D02*
X115888000Y-99603000D01*
X121868000Y-89373000D02*
X121868000Y-90373000D01*
X117908000Y-90373000D02*
X117908000Y-89373000D01*
X122668000Y-99603000D02*
X122668000Y-99003000D01*
X121868000Y-90373000D02*
X121868000Y-92043000D01*
X117793000Y-89373000D02*
X121983000Y-89373000D01*
X115888000Y-90378000D02*
X117793000Y-90378000D01*
X121068000Y-99003000D02*
X121068000Y-99603000D01*
X117908000Y-92043000D02*
X117908000Y-90373000D01*
X117793000Y-90378000D02*
X117793000Y-89373000D01*
X121868000Y-90373000D02*
X117908000Y-90373000D01*
%TO.C,L1*%
X128956000Y-64794005D02*
X106956000Y-64794005D01*
X106956000Y-64794005D02*
X106956000Y-87794005D01*
X106956000Y-87794005D02*
X128956000Y-87794005D01*
X128956000Y-87794005D02*
X128956000Y-64794005D01*
%TO.C,C2*%
X80647000Y-70782000D02*
X80647000Y-77082000D01*
X77807000Y-60466000D02*
X77807000Y-78218000D01*
X82447000Y-63046000D02*
X82447000Y-75638000D01*
X84806000Y-67482000D02*
X84806000Y-71202000D01*
X84486000Y-66346000D02*
X84486000Y-72338000D01*
X77287000Y-60370000D02*
X77287000Y-78314000D01*
X79607000Y-61055000D02*
X79607000Y-67902000D01*
X78727000Y-70782000D02*
X78727000Y-77969000D01*
X82367000Y-62964000D02*
X82367000Y-75720000D01*
X81447000Y-62152000D02*
X81447000Y-76532000D01*
X79767000Y-70782000D02*
X79767000Y-77556000D01*
X78127000Y-60541000D02*
X78127000Y-78143000D01*
X78367000Y-60605000D02*
X78367000Y-67902000D01*
X79927000Y-61205000D02*
X79927000Y-67902000D01*
X79167000Y-60872000D02*
X79167000Y-67902000D01*
X77767000Y-60457000D02*
X77767000Y-78227000D01*
X83687000Y-64656000D02*
X83687000Y-74028000D01*
X84047000Y-65309000D02*
X84047000Y-73375000D01*
X78487000Y-60640000D02*
X78487000Y-67902000D01*
X79887000Y-61186000D02*
X79887000Y-67902000D01*
X78607000Y-70782000D02*
X78607000Y-78007000D01*
X81527000Y-62215000D02*
X81527000Y-76469000D01*
X77887000Y-60484000D02*
X77887000Y-78200000D01*
X77447000Y-60396000D02*
X77447000Y-78288000D01*
X77367000Y-60382000D02*
X77367000Y-78302000D01*
X76927000Y-60321000D02*
X76927000Y-78363000D01*
X79887000Y-70782000D02*
X79887000Y-77498000D01*
X80167000Y-61328000D02*
X80167000Y-67902000D01*
X78887000Y-60769000D02*
X78887000Y-67902000D01*
X77007000Y-60331000D02*
X77007000Y-78353000D01*
X81847000Y-62478000D02*
X81847000Y-76206000D01*
X78687000Y-60702000D02*
X78687000Y-67902000D01*
X83007000Y-63682000D02*
X83007000Y-75002000D01*
X76286000Y-60270000D02*
X76286000Y-78414000D01*
X81167000Y-61945000D02*
X81167000Y-76739000D01*
X83927000Y-65077000D02*
X83927000Y-73607000D01*
X82847000Y-63488000D02*
X82847000Y-75196000D01*
X82087000Y-62693000D02*
X82087000Y-75991000D01*
X81807000Y-62444000D02*
X81807000Y-76240000D01*
X76206000Y-60267000D02*
X76206000Y-78417000D01*
X78567000Y-60664000D02*
X78567000Y-67902000D01*
X81407000Y-62122000D02*
X81407000Y-76562000D01*
X79287000Y-70782000D02*
X79287000Y-77765000D01*
X78647000Y-60689000D02*
X78647000Y-67902000D01*
X77527000Y-60410000D02*
X77527000Y-78274000D01*
X78687000Y-70782000D02*
X78687000Y-77982000D01*
X75886000Y-60261000D02*
X75886000Y-78423000D01*
X81927000Y-62548000D02*
X81927000Y-76136000D01*
X83207000Y-63942000D02*
X83207000Y-74742000D01*
X76166000Y-60266000D02*
X76166000Y-78418000D01*
X78567000Y-70782000D02*
X78567000Y-78020000D01*
X82247000Y-62845000D02*
X82247000Y-75839000D01*
X83887000Y-65003000D02*
X83887000Y-73681000D01*
X78767000Y-60728000D02*
X78767000Y-67902000D01*
X80927000Y-70782000D02*
X80927000Y-76903000D01*
X80927000Y-61781000D02*
X80927000Y-67902000D01*
X78047000Y-60521000D02*
X78047000Y-78163000D01*
X82727000Y-63349000D02*
X82727000Y-75335000D01*
X80847000Y-61728000D02*
X80847000Y-67902000D01*
X78447000Y-70782000D02*
X78447000Y-78056000D01*
X83247000Y-63996000D02*
X83247000Y-74688000D01*
X79327000Y-70782000D02*
X79327000Y-77749000D01*
X80407000Y-70782000D02*
X80407000Y-77224000D01*
X78967000Y-70782000D02*
X78967000Y-77887000D01*
X81047000Y-70782000D02*
X81047000Y-76822000D01*
X79407000Y-60968000D02*
X79407000Y-67902000D01*
X84766000Y-67303000D02*
X84766000Y-71381000D01*
X77167000Y-60352000D02*
X77167000Y-78332000D01*
X76406000Y-60276000D02*
X76406000Y-78408000D01*
X78407000Y-60617000D02*
X78407000Y-67902000D01*
X80087000Y-70782000D02*
X80087000Y-77398000D01*
X76647000Y-60293000D02*
X76647000Y-78391000D01*
X82527000Y-63130000D02*
X82527000Y-75554000D01*
X77927000Y-60493000D02*
X77927000Y-78191000D01*
X80127000Y-61307000D02*
X80127000Y-67902000D01*
X78207000Y-70782000D02*
X78207000Y-78122000D01*
X81607000Y-62278000D02*
X81607000Y-76406000D01*
X77727000Y-60449000D02*
X77727000Y-78235000D01*
X80327000Y-61415000D02*
X80327000Y-67902000D01*
X79687000Y-70782000D02*
X79687000Y-77593000D01*
X77207000Y-60358000D02*
X77207000Y-78326000D01*
X82887000Y-63536000D02*
X82887000Y-75148000D01*
X80727000Y-70782000D02*
X80727000Y-77032000D01*
X80207000Y-70782000D02*
X80207000Y-77334000D01*
X78527000Y-60652000D02*
X78527000Y-67902000D01*
X81007000Y-61834000D02*
X81007000Y-67902000D01*
X79487000Y-70782000D02*
X79487000Y-77682000D01*
X76687000Y-60297000D02*
X76687000Y-78387000D01*
X79647000Y-61073000D02*
X79647000Y-67902000D01*
X81087000Y-61889000D02*
X81087000Y-76795000D01*
X83527000Y-64401000D02*
X83527000Y-74283000D01*
X80367000Y-70782000D02*
X80367000Y-77246000D01*
X80087000Y-61286000D02*
X80087000Y-67902000D01*
X83847000Y-64930000D02*
X83847000Y-73754000D01*
X77047000Y-60336000D02*
X77047000Y-78348000D01*
X81767000Y-62410000D02*
X81767000Y-76274000D01*
X84007000Y-65229000D02*
X84007000Y-73455000D01*
X76607000Y-60290000D02*
X76607000Y-78394000D01*
X82487000Y-63088000D02*
X82487000Y-75596000D01*
X77687000Y-60441000D02*
X77687000Y-78243000D01*
X79727000Y-70782000D02*
X79727000Y-77575000D01*
X82687000Y-63304000D02*
X82687000Y-75380000D01*
X77967000Y-60502000D02*
X77967000Y-78182000D01*
X77847000Y-60475000D02*
X77847000Y-78209000D01*
X78847000Y-60755000D02*
X78847000Y-67902000D01*
X80367000Y-61438000D02*
X80367000Y-67902000D01*
X79967000Y-61225000D02*
X79967000Y-67902000D01*
X83047000Y-63733000D02*
X83047000Y-74951000D01*
X84726000Y-67139000D02*
X84726000Y-71545000D01*
X76807000Y-60308000D02*
X76807000Y-78376000D01*
X79127000Y-70782000D02*
X79127000Y-77828000D01*
X79007000Y-60812000D02*
X79007000Y-67902000D01*
X83127000Y-63836000D02*
X83127000Y-74848000D01*
X79607000Y-70782000D02*
X79607000Y-77629000D01*
X84526000Y-66462000D02*
X84526000Y-72222000D01*
X84206000Y-65646000D02*
X84206000Y-73038000D01*
X80327000Y-70782000D02*
X80327000Y-77269000D01*
X66126560Y-64227000D02*
X67926560Y-64227000D01*
X79447000Y-60985000D02*
X79447000Y-67902000D01*
X78287000Y-70782000D02*
X78287000Y-78101000D01*
X79527000Y-61019000D02*
X79527000Y-67902000D01*
X79247000Y-70782000D02*
X79247000Y-77781000D01*
X84086000Y-65390000D02*
X84086000Y-73294000D01*
X82287000Y-62884000D02*
X82287000Y-75800000D01*
X78327000Y-60594000D02*
X78327000Y-67902000D01*
X80807000Y-70782000D02*
X80807000Y-76982000D01*
X80967000Y-61807000D02*
X80967000Y-67902000D01*
X82567000Y-63172000D02*
X82567000Y-75512000D01*
X76006000Y-60262000D02*
X76006000Y-78422000D01*
X76526000Y-60284000D02*
X76526000Y-78400000D01*
X78647000Y-70782000D02*
X78647000Y-77995000D01*
X80887000Y-61754000D02*
X80887000Y-67902000D01*
X82167000Y-62768000D02*
X82167000Y-75916000D01*
X80487000Y-70782000D02*
X80487000Y-77177000D01*
X77607000Y-60425000D02*
X77607000Y-78259000D01*
X84326000Y-65926000D02*
X84326000Y-72758000D01*
X79807000Y-70782000D02*
X79807000Y-77537000D01*
X81887000Y-62513000D02*
X81887000Y-76171000D01*
X77247000Y-60363000D02*
X77247000Y-78321000D01*
X84246000Y-65737000D02*
X84246000Y-72947000D01*
X81047000Y-61862000D02*
X81047000Y-67902000D01*
X76326000Y-60272000D02*
X76326000Y-78412000D01*
X83407000Y-64222000D02*
X83407000Y-74462000D01*
X83767000Y-64790000D02*
X83767000Y-73894000D01*
X84886000Y-67907000D02*
X84886000Y-70777000D01*
X80287000Y-70782000D02*
X80287000Y-77291000D01*
X78767000Y-70782000D02*
X78767000Y-77956000D01*
X79167000Y-70782000D02*
X79167000Y-77812000D01*
X81367000Y-62092000D02*
X81367000Y-76592000D01*
X82807000Y-63441000D02*
X82807000Y-75243000D01*
X79687000Y-61091000D02*
X79687000Y-67902000D01*
X84446000Y-66235000D02*
X84446000Y-72449000D01*
X78527000Y-70782000D02*
X78527000Y-78032000D01*
X84686000Y-66987000D02*
X84686000Y-71697000D01*
X82207000Y-62806000D02*
X82207000Y-75878000D01*
X80127000Y-70782000D02*
X80127000Y-77377000D01*
X79127000Y-60856000D02*
X79127000Y-67902000D01*
X80287000Y-61393000D02*
X80287000Y-67902000D01*
X80807000Y-61702000D02*
X80807000Y-67902000D01*
X81207000Y-61974000D02*
X81207000Y-76710000D01*
X76446000Y-60279000D02*
X76446000Y-78405000D01*
X84966000Y-68528000D02*
X84966000Y-70156000D01*
X76126000Y-60265000D02*
X76126000Y-78419000D01*
X79727000Y-61109000D02*
X79727000Y-67902000D01*
X67026560Y-63327000D02*
X67026560Y-65127000D01*
X78927000Y-70782000D02*
X78927000Y-77901000D01*
X82127000Y-62730000D02*
X82127000Y-75954000D01*
X79407000Y-70782000D02*
X79407000Y-77716000D01*
X80767000Y-61677000D02*
X80767000Y-67902000D01*
X83807000Y-64860000D02*
X83807000Y-73824000D01*
X79847000Y-70782000D02*
X79847000Y-77518000D01*
X84366000Y-66025000D02*
X84366000Y-72659000D01*
X80007000Y-70782000D02*
X80007000Y-77439000D01*
X80687000Y-61627000D02*
X80687000Y-67902000D01*
X79847000Y-61166000D02*
X79847000Y-67902000D01*
X80167000Y-70782000D02*
X80167000Y-77356000D01*
X80567000Y-70782000D02*
X80567000Y-77130000D01*
X81967000Y-62584000D02*
X81967000Y-76100000D01*
X80967000Y-70782000D02*
X80967000Y-76877000D01*
X84646000Y-66844000D02*
X84646000Y-71840000D01*
X79367000Y-60952000D02*
X79367000Y-67902000D01*
X80047000Y-70782000D02*
X80047000Y-77418000D01*
X80447000Y-61483000D02*
X80447000Y-67902000D01*
X83327000Y-64107000D02*
X83327000Y-74577000D01*
X78247000Y-60572000D02*
X78247000Y-67902000D01*
X78447000Y-60628000D02*
X78447000Y-67902000D01*
X79007000Y-70782000D02*
X79007000Y-77872000D01*
X75926000Y-60262000D02*
X75926000Y-78422000D01*
X78487000Y-70782000D02*
X78487000Y-78044000D01*
X78607000Y-60677000D02*
X78607000Y-67902000D01*
X81327000Y-62062000D02*
X81327000Y-76622000D01*
X83727000Y-64722000D02*
X83727000Y-73962000D01*
X77567000Y-60418000D02*
X77567000Y-78266000D01*
X80487000Y-61507000D02*
X80487000Y-67902000D01*
X80447000Y-70782000D02*
X80447000Y-77201000D01*
X78367000Y-70782000D02*
X78367000Y-78079000D01*
X83087000Y-63784000D02*
X83087000Y-74900000D01*
X82767000Y-63395000D02*
X82767000Y-75289000D01*
X83967000Y-65152000D02*
X83967000Y-73532000D01*
X80527000Y-61530000D02*
X80527000Y-67902000D01*
X80767000Y-70782000D02*
X80767000Y-77007000D01*
X80887000Y-70782000D02*
X80887000Y-76930000D01*
X76727000Y-60300000D02*
X76727000Y-78384000D01*
X78287000Y-60583000D02*
X78287000Y-67902000D01*
X81687000Y-62343000D02*
X81687000Y-76341000D01*
X82327000Y-62924000D02*
X82327000Y-75760000D01*
X82007000Y-62620000D02*
X82007000Y-76064000D01*
X80247000Y-70782000D02*
X80247000Y-77313000D01*
X83447000Y-64280000D02*
X83447000Y-74404000D01*
X76086000Y-60264000D02*
X76086000Y-78420000D01*
X80527000Y-70782000D02*
X80527000Y-77154000D01*
X84926000Y-68176000D02*
X84926000Y-70508000D01*
X84166000Y-65558000D02*
X84166000Y-73126000D01*
X84406000Y-66128000D02*
X84406000Y-72556000D01*
X83567000Y-64463000D02*
X83567000Y-74221000D01*
X80607000Y-61578000D02*
X80607000Y-67902000D01*
X81127000Y-61917000D02*
X81127000Y-76767000D01*
X76486000Y-60281000D02*
X76486000Y-78403000D01*
X78087000Y-60531000D02*
X78087000Y-78153000D01*
X79647000Y-70782000D02*
X79647000Y-77611000D01*
X78247000Y-70782000D02*
X78247000Y-78112000D01*
X82967000Y-63633000D02*
X82967000Y-75051000D01*
X82407000Y-63005000D02*
X82407000Y-75679000D01*
X81567000Y-62246000D02*
X81567000Y-76438000D01*
X76046000Y-60263000D02*
X76046000Y-78421000D01*
X79567000Y-70782000D02*
X79567000Y-77647000D01*
X79807000Y-61147000D02*
X79807000Y-67902000D01*
X78207000Y-60562000D02*
X78207000Y-67902000D01*
X82607000Y-63216000D02*
X82607000Y-75468000D01*
X82047000Y-62656000D02*
X82047000Y-76028000D01*
X79927000Y-70782000D02*
X79927000Y-77479000D01*
X78407000Y-70782000D02*
X78407000Y-78067000D01*
X78847000Y-70782000D02*
X78847000Y-77929000D01*
X84606000Y-66710000D02*
X84606000Y-71974000D01*
X83487000Y-64340000D02*
X83487000Y-74344000D01*
X83647000Y-64590000D02*
X83647000Y-74094000D01*
X79367000Y-70782000D02*
X79367000Y-77732000D01*
X76887000Y-60316000D02*
X76887000Y-78368000D01*
X77487000Y-60403000D02*
X77487000Y-78281000D01*
X76566000Y-60287000D02*
X76566000Y-78397000D01*
X80607000Y-70782000D02*
X80607000Y-77106000D01*
X77327000Y-60376000D02*
X77327000Y-78308000D01*
X78327000Y-70782000D02*
X78327000Y-78090000D01*
X80847000Y-70782000D02*
X80847000Y-76956000D01*
X79047000Y-70782000D02*
X79047000Y-77858000D01*
X79207000Y-70782000D02*
X79207000Y-77797000D01*
X79447000Y-70782000D02*
X79447000Y-77699000D01*
X83287000Y-64051000D02*
X83287000Y-74633000D01*
X78007000Y-60511000D02*
X78007000Y-78173000D01*
X77087000Y-60341000D02*
X77087000Y-78343000D01*
X80727000Y-61652000D02*
X80727000Y-67902000D01*
X80687000Y-70782000D02*
X80687000Y-77057000D01*
X79087000Y-60841000D02*
X79087000Y-67902000D01*
X83167000Y-63888000D02*
X83167000Y-74796000D01*
X85006000Y-69302000D02*
X85006000Y-69382000D01*
X79087000Y-70782000D02*
X79087000Y-77843000D01*
X79967000Y-70782000D02*
X79967000Y-77459000D01*
X80247000Y-61371000D02*
X80247000Y-67902000D01*
X76967000Y-60326000D02*
X76967000Y-78358000D01*
X80047000Y-61266000D02*
X80047000Y-67902000D01*
X79567000Y-61037000D02*
X79567000Y-67902000D01*
X79207000Y-60887000D02*
X79207000Y-67902000D01*
X77127000Y-60346000D02*
X77127000Y-78338000D01*
X78967000Y-60797000D02*
X78967000Y-67902000D01*
X78167000Y-60551000D02*
X78167000Y-78133000D01*
X78887000Y-70782000D02*
X78887000Y-77915000D01*
X81487000Y-62183000D02*
X81487000Y-76501000D01*
X78807000Y-70782000D02*
X78807000Y-77942000D01*
X79527000Y-70782000D02*
X79527000Y-77665000D01*
X81287000Y-62032000D02*
X81287000Y-76652000D01*
X76767000Y-60304000D02*
X76767000Y-78380000D01*
X80207000Y-61350000D02*
X80207000Y-67902000D01*
X81727000Y-62377000D02*
X81727000Y-76307000D01*
X76847000Y-60312000D02*
X76847000Y-78372000D01*
X78807000Y-60742000D02*
X78807000Y-67902000D01*
X80567000Y-61554000D02*
X80567000Y-67902000D01*
X75966000Y-60262000D02*
X75966000Y-78422000D01*
X79327000Y-60935000D02*
X79327000Y-67902000D01*
X80007000Y-61245000D02*
X80007000Y-67902000D01*
X79767000Y-61128000D02*
X79767000Y-67902000D01*
X78727000Y-60715000D02*
X78727000Y-67902000D01*
X80647000Y-61602000D02*
X80647000Y-67902000D01*
X79047000Y-60826000D02*
X79047000Y-67902000D01*
X84566000Y-66583000D02*
X84566000Y-72101000D01*
X82647000Y-63260000D02*
X82647000Y-75424000D01*
X83607000Y-64526000D02*
X83607000Y-74158000D01*
X82927000Y-63584000D02*
X82927000Y-75100000D01*
X79487000Y-61002000D02*
X79487000Y-67902000D01*
X84846000Y-67681000D02*
X84846000Y-71003000D01*
X81647000Y-62311000D02*
X81647000Y-76373000D01*
X80407000Y-61460000D02*
X80407000Y-67902000D01*
X79287000Y-60919000D02*
X79287000Y-67902000D01*
X84126000Y-65473000D02*
X84126000Y-73211000D01*
X84286000Y-65830000D02*
X84286000Y-72854000D01*
X77647000Y-60433000D02*
X77647000Y-78251000D01*
X76366000Y-60274000D02*
X76366000Y-78410000D01*
X78927000Y-60783000D02*
X78927000Y-67902000D01*
X81247000Y-62003000D02*
X81247000Y-76681000D01*
X83367000Y-64164000D02*
X83367000Y-74520000D01*
X77407000Y-60389000D02*
X77407000Y-78295000D01*
X76246000Y-60269000D02*
X76246000Y-78415000D01*
X81007000Y-70782000D02*
X81007000Y-76850000D01*
X79247000Y-60903000D02*
X79247000Y-67902000D01*
X85006000Y-69342000D02*
G75*
G03*
X85006000Y-69342000I-9120000J0D01*
G01*
%TO.C,U1*%
X134718000Y-83940000D02*
X134718000Y-82130000D01*
X136218000Y-73540000D02*
X134718000Y-73540000D01*
X134718000Y-82130000D02*
X133618000Y-82130000D01*
X134718000Y-73540000D02*
X134718000Y-75350000D01*
X136218000Y-83940000D02*
X134718000Y-83940000D01*
X134718000Y-75350000D02*
X129593000Y-75350000D01*
%TD*%
M02*
