%TF.GenerationSoftware,KiCad,Pcbnew,(6.0.1)*%
%TF.CreationDate,2022-01-30T10:49:48+01:00*%
%TF.ProjectId,board_shakercontrol,626f6172-645f-4736-9861-6b6572636f6e,rev?*%
%TF.SameCoordinates,Original*%
%TF.FileFunction,Copper,L1,Top*%
%TF.FilePolarity,Positive*%
%FSLAX46Y46*%
G04 Gerber Fmt 4.6, Leading zero omitted, Abs format (unit mm)*
G04 Created by KiCad (PCBNEW (6.0.1)) date 2022-01-30 10:49:48*
%MOMM*%
%LPD*%
G01*
G04 APERTURE LIST*
G04 Aperture macros list*
%AMRoundRect*
0 Rectangle with rounded corners*
0 $1 Rounding radius*
0 $2 $3 $4 $5 $6 $7 $8 $9 X,Y pos of 4 corners*
0 Add a 4 corners polygon primitive as box body*
4,1,4,$2,$3,$4,$5,$6,$7,$8,$9,$2,$3,0*
0 Add four circle primitives for the rounded corners*
1,1,$1+$1,$2,$3*
1,1,$1+$1,$4,$5*
1,1,$1+$1,$6,$7*
1,1,$1+$1,$8,$9*
0 Add four rect primitives between the rounded corners*
20,1,$1+$1,$2,$3,$4,$5,0*
20,1,$1+$1,$4,$5,$6,$7,0*
20,1,$1+$1,$6,$7,$8,$9,0*
20,1,$1+$1,$8,$9,$2,$3,0*%
G04 Aperture macros list end*
%TA.AperFunction,ComponentPad*%
%ADD10C,1.600000*%
%TD*%
%TA.AperFunction,ComponentPad*%
%ADD11O,1.600000X1.600000*%
%TD*%
%TA.AperFunction,ComponentPad*%
%ADD12R,3.200000X3.200000*%
%TD*%
%TA.AperFunction,ComponentPad*%
%ADD13C,3.200000*%
%TD*%
%TA.AperFunction,ComponentPad*%
%ADD14O,6.000000X3.250000*%
%TD*%
%TA.AperFunction,ComponentPad*%
%ADD15R,2.400000X2.400000*%
%TD*%
%TA.AperFunction,ComponentPad*%
%ADD16C,2.400000*%
%TD*%
%TA.AperFunction,SMDPad,CuDef*%
%ADD17R,4.600000X1.100000*%
%TD*%
%TA.AperFunction,SMDPad,CuDef*%
%ADD18R,9.400000X10.800000*%
%TD*%
%TA.AperFunction,ComponentPad*%
%ADD19O,2.400000X2.400000*%
%TD*%
%TA.AperFunction,ComponentPad*%
%ADD20RoundRect,0.250000X0.620000X0.845000X-0.620000X0.845000X-0.620000X-0.845000X0.620000X-0.845000X0*%
%TD*%
%TA.AperFunction,ComponentPad*%
%ADD21O,1.740000X2.190000*%
%TD*%
%TA.AperFunction,ComponentPad*%
%ADD22RoundRect,0.250000X1.330000X1.800000X-1.330000X1.800000X-1.330000X-1.800000X1.330000X-1.800000X0*%
%TD*%
%TA.AperFunction,ComponentPad*%
%ADD23O,3.160000X4.100000*%
%TD*%
%TA.AperFunction,ComponentPad*%
%ADD24R,1.600000X1.600000*%
%TD*%
%TA.AperFunction,ComponentPad*%
%ADD25R,1.700000X1.700000*%
%TD*%
%TA.AperFunction,ComponentPad*%
%ADD26O,1.700000X1.700000*%
%TD*%
%TA.AperFunction,ComponentPad*%
%ADD27C,2.000000*%
%TD*%
%TA.AperFunction,ViaPad*%
%ADD28C,0.800000*%
%TD*%
%TA.AperFunction,Conductor*%
%ADD29C,0.508000*%
%TD*%
%TA.AperFunction,Conductor*%
%ADD30C,0.250000*%
%TD*%
%TA.AperFunction,Conductor*%
%ADD31C,0.254000*%
%TD*%
%TA.AperFunction,Conductor*%
%ADD32C,1.016000*%
%TD*%
%TA.AperFunction,Conductor*%
%ADD33C,0.762000*%
%TD*%
G04 APERTURE END LIST*
D10*
%TO.P,R1,1*%
%TO.N,GND*%
X133604000Y-70358000D03*
D11*
%TO.P,R1,2*%
%TO.N,Net-(R1-Pad2)*%
X143764000Y-70358000D03*
%TD*%
D12*
%TO.P,D1,1,-*%
%TO.N,GND*%
X74138000Y-84994000D03*
D13*
%TO.P,D1,2*%
%TO.N,/16VAC2*%
X79218000Y-84994000D03*
%TO.P,D1,3*%
%TO.N,/16VAC1*%
X84298000Y-84994000D03*
%TO.P,D1,4,+*%
%TO.N,/VIN*%
X89378000Y-84994000D03*
%TD*%
D14*
%TO.P,F1,1*%
%TO.N,/VIN*%
X56896000Y-88346000D03*
%TO.P,F1,2*%
%TO.N,VCC*%
X56896000Y-50846000D03*
%TD*%
D10*
%TO.P,R3,1*%
%TO.N,Net-(Q1-Pad1)*%
X133858000Y-54864000D03*
D11*
%TO.P,R3,2*%
%TO.N,GND*%
X144018000Y-54864000D03*
%TD*%
D15*
%TO.P,C1,1*%
%TO.N,/VIN*%
X92534220Y-69342000D03*
D16*
%TO.P,C1,2*%
%TO.N,GND*%
X100034220Y-69342000D03*
%TD*%
D17*
%TO.P,Q1,1,G*%
%TO.N,Net-(Q1-Pad1)*%
X110811000Y-54610000D03*
D18*
%TO.P,Q1,2,D*%
%TO.N,Net-(L1-Pad2)*%
X119961000Y-57150000D03*
D17*
%TO.P,Q1,3,S*%
%TO.N,GND*%
X110811000Y-59690000D03*
%TD*%
D16*
%TO.P,R4,1*%
%TO.N,VCC*%
X70612000Y-45466000D03*
D19*
%TO.P,R4,2*%
%TO.N,Net-(L1-Pad1)*%
X126492000Y-45466000D03*
%TD*%
D20*
%TO.P,J3,1,Pin_1*%
%TO.N,GND*%
X134874000Y-96246000D03*
D21*
%TO.P,J3,2,Pin_2*%
%TO.N,Net-(J3-Pad2)*%
X132334000Y-96246000D03*
%TO.P,J3,3,Pin_3*%
%TO.N,Net-(J3-Pad3)*%
X129794000Y-96246000D03*
%TD*%
D22*
%TO.P,J1,1,Pin_1*%
%TO.N,Net-(J1-Pad1)*%
X106472000Y-94383000D03*
D23*
%TO.P,J1,2,Pin_2*%
%TO.N,Net-(J1-Pad2)*%
X102512000Y-94383000D03*
%TO.P,J1,3,Pin_3*%
%TO.N,Net-(J1-Pad3)*%
X98552000Y-94383000D03*
%TO.P,J1,4,Pin_4*%
%TO.N,/16VAC1*%
X94592000Y-94383000D03*
%TO.P,J1,5,Pin_5*%
%TO.N,/16VAC2*%
X90632000Y-94383000D03*
%TD*%
D24*
%TO.P,U2,1*%
%TO.N,Net-(J3-Pad2)*%
X141224000Y-67056000D03*
D11*
%TO.P,U2,2*%
%TO.N,Net-(R1-Pad2)*%
X143764000Y-67056000D03*
%TO.P,U2,3*%
%TO.N,GND*%
X143764000Y-59436000D03*
%TO.P,U2,4*%
%TO.N,Net-(Q1-Pad1)*%
X141224000Y-59436000D03*
%TD*%
D10*
%TO.P,R2,1*%
%TO.N,VCC*%
X133858000Y-50546000D03*
D11*
%TO.P,R2,2*%
%TO.N,Net-(Q1-Pad1)*%
X144018000Y-50546000D03*
%TD*%
D25*
%TO.P,JP1,1,A*%
%TO.N,Net-(J3-Pad3)*%
X131567000Y-88646000D03*
D26*
%TO.P,JP1,2,B*%
%TO.N,+5V*%
X134107000Y-88646000D03*
%TD*%
D22*
%TO.P,J2,1,Pin_1*%
%TO.N,Net-(J1-Pad1)*%
X84836000Y-94383000D03*
D23*
%TO.P,J2,2,Pin_2*%
%TO.N,Net-(J1-Pad2)*%
X80876000Y-94383000D03*
%TO.P,J2,3,Pin_3*%
%TO.N,Net-(J1-Pad3)*%
X76916000Y-94383000D03*
%TO.P,J2,4,Pin_4*%
%TO.N,/16VAC1*%
X72956000Y-94383000D03*
%TO.P,J2,5,Pin_5*%
%TO.N,/16VAC2*%
X68996000Y-94383000D03*
%TD*%
D22*
%TO.P,J4,1,Pin_1*%
%TO.N,Net-(J4-Pad1)*%
X121868000Y-94383000D03*
D23*
%TO.P,J4,2,Pin_2*%
%TO.N,Net-(J4-Pad2)*%
X117908000Y-94383000D03*
%TD*%
D27*
%TO.P,L1,1,1*%
%TO.N,Net-(L1-Pad1)*%
X124206000Y-66294005D03*
%TO.P,L1,2,2*%
%TO.N,Net-(L1-Pad2)*%
X111706000Y-66294005D03*
%TO.P,L1,3,3*%
%TO.N,Net-(J4-Pad2)*%
X111706000Y-86294005D03*
%TO.P,L1,4,4*%
%TO.N,Net-(J4-Pad1)*%
X124206000Y-86294005D03*
%TD*%
D15*
%TO.P,C2,1*%
%TO.N,/VIN*%
X72136000Y-69342000D03*
D16*
%TO.P,C2,2*%
%TO.N,GND*%
X79636000Y-69342000D03*
%TD*%
D17*
%TO.P,U1,1,IN*%
%TO.N,VCC*%
X131893000Y-76200000D03*
D18*
%TO.P,U1,2,GND*%
%TO.N,GND*%
X141043000Y-78740000D03*
D17*
X131893000Y-78740000D03*
%TO.P,U1,3,OUT*%
%TO.N,+5V*%
X131893000Y-81280000D03*
%TD*%
D28*
%TO.N,Net-(Q1-Pad1)*%
X126238000Y-50800000D03*
%TD*%
D29*
%TO.N,+5V*%
X134112000Y-88641000D02*
X134112000Y-87630000D01*
X134107000Y-88646000D02*
X134112000Y-88641000D01*
X134112000Y-87630000D02*
X131893000Y-85411000D01*
X131893000Y-85411000D02*
X131893000Y-81280000D01*
D30*
%TO.N,Net-(J3-Pad3)*%
X129794000Y-96246000D02*
X129794000Y-90419000D01*
X129794000Y-90419000D02*
X131567000Y-88646000D01*
%TO.N,Net-(J3-Pad2)*%
X142494000Y-65786000D02*
X141224000Y-67056000D01*
X146067511Y-67769211D02*
X144084300Y-65786000D01*
X144115489Y-84464511D02*
X146067511Y-84464511D01*
X144084300Y-65786000D02*
X142494000Y-65786000D01*
X132334000Y-96246000D02*
X144115489Y-84464511D01*
X146067511Y-84464511D02*
X146067511Y-67769211D01*
D31*
%TO.N,VCC*%
X135195000Y-73411520D02*
X132406520Y-76200000D01*
X135195000Y-57794128D02*
X135195000Y-73411520D01*
D32*
%TO.N,GND*%
X109686220Y-59690000D02*
X100034220Y-69342000D01*
X110811000Y-59690000D02*
X109686220Y-59690000D01*
D33*
%TO.N,Net-(J1-Pad1)*%
X87466520Y-97013520D02*
X103841480Y-97013520D01*
X103841480Y-97013520D02*
X106472000Y-94383000D01*
X84836000Y-94383000D02*
X87466520Y-97013520D01*
D31*
%TO.N,Net-(R1-Pad2)*%
X143764000Y-70358000D02*
X143764000Y-67056000D01*
D33*
%TO.N,Net-(J4-Pad2)*%
X117908000Y-94383000D02*
X117908000Y-92496000D01*
X117908000Y-92496000D02*
X111706000Y-86294000D01*
D31*
%TO.N,Net-(Q1-Pad1)*%
X113030000Y-50800000D02*
X125730000Y-50800000D01*
X110811000Y-53019000D02*
X113030000Y-50800000D01*
X125730000Y-50800000D02*
X126238000Y-50800000D01*
X110811000Y-54610000D02*
X110811000Y-53019000D01*
X133858000Y-54864000D02*
X136652000Y-54864000D01*
X144018000Y-50546000D02*
X141224000Y-53340000D01*
X136652000Y-54864000D02*
X141224000Y-59436000D01*
X141224000Y-53340000D02*
X141224000Y-59436000D01*
%TO.N,VCC*%
X132588000Y-55187128D02*
X132588000Y-51816000D01*
X133858000Y-47752000D02*
X129286000Y-43180000D01*
D32*
X65232000Y-50846000D02*
X70612000Y-45466000D01*
D31*
X135195000Y-57794128D02*
X132588000Y-55187128D01*
D32*
X56896000Y-50846000D02*
X65232000Y-50846000D01*
D31*
X129286000Y-43180000D02*
X72898000Y-43180000D01*
X133858000Y-50546000D02*
X133858000Y-47752000D01*
X132588000Y-51816000D02*
X133858000Y-50546000D01*
X72898000Y-43180000D02*
X70612000Y-45466000D01*
D33*
%TO.N,Net-(J1-Pad3)*%
X95921480Y-91752480D02*
X98552000Y-94383000D01*
X76916000Y-94383000D02*
X79546520Y-91752480D01*
X79546520Y-91752480D02*
X95921480Y-91752480D01*
%TO.N,/16VAC1*%
X79709000Y-87630000D02*
X81662000Y-87630000D01*
X81662000Y-87630000D02*
X84298000Y-84994000D01*
X72956000Y-94383000D02*
X79709000Y-87630000D01*
%TO.N,/16VAC2*%
X78385000Y-84994000D02*
X79218000Y-84994000D01*
X68996000Y-94383000D02*
X78385000Y-84994000D01*
D32*
%TO.N,Net-(J4-Pad1)*%
X121868000Y-94383000D02*
X121868000Y-88632000D01*
X121868000Y-88632000D02*
X124206000Y-86294000D01*
D33*
%TO.N,Net-(L1-Pad1)*%
X126492000Y-45466000D02*
X127692000Y-46666000D01*
X127692000Y-46666000D02*
X127692000Y-62808000D01*
X127692000Y-62808000D02*
X124206000Y-66294000D01*
%TO.N,Net-(L1-Pad2)*%
X111706000Y-66294000D02*
X119961000Y-58039000D01*
X119961000Y-58039000D02*
X119961000Y-57150000D01*
%TD*%
%TA.AperFunction,Conductor*%
%TO.N,GND*%
G36*
X143734057Y-36577500D02*
G01*
X143748858Y-36579805D01*
X143748861Y-36579805D01*
X143757730Y-36581186D01*
X143777626Y-36578584D01*
X143799784Y-36577654D01*
X144133160Y-36593067D01*
X144144749Y-36594141D01*
X144504994Y-36644394D01*
X144516434Y-36646533D01*
X144870505Y-36729809D01*
X144881681Y-36732989D01*
X145054126Y-36790787D01*
X145226562Y-36848582D01*
X145237414Y-36852786D01*
X145570155Y-36999706D01*
X145580560Y-37004886D01*
X145898343Y-37181890D01*
X145908220Y-37188006D01*
X146208301Y-37393567D01*
X146217588Y-37400581D01*
X146497423Y-37632952D01*
X146506024Y-37640793D01*
X146763207Y-37897976D01*
X146771048Y-37906577D01*
X147003419Y-38186412D01*
X147010433Y-38195699D01*
X147215994Y-38495780D01*
X147222110Y-38505657D01*
X147399114Y-38823440D01*
X147404294Y-38833845D01*
X147551214Y-39166586D01*
X147555418Y-39177438D01*
X147641510Y-39434299D01*
X147671008Y-39522310D01*
X147674191Y-39533495D01*
X147753820Y-39872060D01*
X147757467Y-39887566D01*
X147759606Y-39899006D01*
X147809859Y-40259251D01*
X147810933Y-40270840D01*
X147826003Y-40596816D01*
X147824638Y-40622015D01*
X147822814Y-40633730D01*
X147823978Y-40642632D01*
X147823978Y-40642635D01*
X147826936Y-40665251D01*
X147828000Y-40681589D01*
X147828000Y-97994672D01*
X147826500Y-98014056D01*
X147822814Y-98037730D01*
X147824454Y-98050270D01*
X147825416Y-98057626D01*
X147826346Y-98079784D01*
X147810933Y-98413160D01*
X147809859Y-98424749D01*
X147759606Y-98784994D01*
X147757467Y-98796434D01*
X147698946Y-99045254D01*
X147674193Y-99150496D01*
X147671011Y-99161681D01*
X147640328Y-99253227D01*
X147555418Y-99506562D01*
X147551214Y-99517414D01*
X147404294Y-99850155D01*
X147399114Y-99860560D01*
X147222110Y-100178343D01*
X147215994Y-100188220D01*
X147010433Y-100488301D01*
X147003419Y-100497588D01*
X146771048Y-100777423D01*
X146763207Y-100786024D01*
X146506024Y-101043207D01*
X146497423Y-101051048D01*
X146217588Y-101283419D01*
X146208301Y-101290433D01*
X145908220Y-101495994D01*
X145898343Y-101502110D01*
X145580560Y-101679114D01*
X145570155Y-101684294D01*
X145237414Y-101831214D01*
X145226562Y-101835418D01*
X145054126Y-101893213D01*
X144881681Y-101951011D01*
X144870505Y-101954191D01*
X144531940Y-102033820D01*
X144516434Y-102037467D01*
X144504994Y-102039606D01*
X144144749Y-102089859D01*
X144133161Y-102090933D01*
X144110742Y-102091969D01*
X143807184Y-102106003D01*
X143781985Y-102104638D01*
X143779142Y-102104195D01*
X143779140Y-102104195D01*
X143770270Y-102102814D01*
X143761368Y-102103978D01*
X143761365Y-102103978D01*
X143738749Y-102106936D01*
X143722411Y-102108000D01*
X53389328Y-102108000D01*
X53369943Y-102106500D01*
X53355142Y-102104195D01*
X53355139Y-102104195D01*
X53346270Y-102102814D01*
X53327105Y-102105320D01*
X53326374Y-102105416D01*
X53304216Y-102106346D01*
X52970840Y-102090933D01*
X52959251Y-102089859D01*
X52599006Y-102039607D01*
X52587566Y-102037468D01*
X52584019Y-102036634D01*
X52233496Y-101954191D01*
X52222319Y-101951011D01*
X52049874Y-101893213D01*
X51877438Y-101835418D01*
X51866586Y-101831214D01*
X51533845Y-101684294D01*
X51523440Y-101679114D01*
X51205657Y-101502110D01*
X51195780Y-101495994D01*
X50895699Y-101290434D01*
X50886411Y-101283420D01*
X50606576Y-101051048D01*
X50597976Y-101043207D01*
X50340793Y-100786024D01*
X50332952Y-100777424D01*
X50100580Y-100497589D01*
X50093566Y-100488301D01*
X49888006Y-100188220D01*
X49881890Y-100178343D01*
X49704886Y-99860560D01*
X49699706Y-99850155D01*
X49552786Y-99517414D01*
X49548582Y-99506562D01*
X49463672Y-99253227D01*
X49432989Y-99161681D01*
X49429807Y-99150496D01*
X49346532Y-98796434D01*
X49344393Y-98784994D01*
X49294141Y-98424749D01*
X49293067Y-98413160D01*
X49278150Y-98090485D01*
X50676854Y-98090485D01*
X50677156Y-98094320D01*
X50695108Y-98322417D01*
X50702370Y-98414695D01*
X50767206Y-98733378D01*
X50870398Y-99041784D01*
X51010405Y-99335316D01*
X51185141Y-99609597D01*
X51187584Y-99612560D01*
X51187585Y-99612562D01*
X51387832Y-99855480D01*
X51392001Y-99860538D01*
X51627902Y-100084399D01*
X51889326Y-100277843D01*
X52030851Y-100357914D01*
X52169019Y-100436086D01*
X52169023Y-100436088D01*
X52172376Y-100437985D01*
X52175937Y-100439460D01*
X52175939Y-100439461D01*
X52234892Y-100463880D01*
X52472832Y-100562438D01*
X52576288Y-100591129D01*
X52782500Y-100648317D01*
X52782508Y-100648319D01*
X52786216Y-100649347D01*
X53107856Y-100697416D01*
X53111154Y-100697560D01*
X53222918Y-100702440D01*
X53222922Y-100702440D01*
X53224294Y-100702500D01*
X53422598Y-100702500D01*
X53664605Y-100687698D01*
X53668388Y-100686997D01*
X53668395Y-100686996D01*
X53868459Y-100649916D01*
X53984372Y-100628433D01*
X54193682Y-100562438D01*
X54290860Y-100531798D01*
X54290863Y-100531797D01*
X54294532Y-100530640D01*
X54298029Y-100529046D01*
X54298035Y-100529044D01*
X54586954Y-100397376D01*
X54586958Y-100397374D01*
X54590462Y-100395777D01*
X54867751Y-100225854D01*
X54870755Y-100223464D01*
X54870760Y-100223461D01*
X54995007Y-100124630D01*
X55122264Y-100023405D01*
X55124958Y-100020664D01*
X55124962Y-100020660D01*
X55347513Y-99794190D01*
X55347517Y-99794185D01*
X55350208Y-99791447D01*
X55548185Y-99533439D01*
X55713242Y-99253227D01*
X55842920Y-98954988D01*
X55935285Y-98643169D01*
X55988961Y-98322417D01*
X55999087Y-98090485D01*
X141100854Y-98090485D01*
X141101156Y-98094320D01*
X141119108Y-98322417D01*
X141126370Y-98414695D01*
X141191206Y-98733378D01*
X141294398Y-99041784D01*
X141434405Y-99335316D01*
X141609141Y-99609597D01*
X141611584Y-99612560D01*
X141611585Y-99612562D01*
X141811832Y-99855480D01*
X141816001Y-99860538D01*
X142051902Y-100084399D01*
X142313326Y-100277843D01*
X142454851Y-100357914D01*
X142593019Y-100436086D01*
X142593023Y-100436088D01*
X142596376Y-100437985D01*
X142599937Y-100439460D01*
X142599939Y-100439461D01*
X142658892Y-100463880D01*
X142896832Y-100562438D01*
X143000288Y-100591129D01*
X143206500Y-100648317D01*
X143206508Y-100648319D01*
X143210216Y-100649347D01*
X143531856Y-100697416D01*
X143535154Y-100697560D01*
X143646918Y-100702440D01*
X143646922Y-100702440D01*
X143648294Y-100702500D01*
X143846598Y-100702500D01*
X144088605Y-100687698D01*
X144092388Y-100686997D01*
X144092395Y-100686996D01*
X144292459Y-100649916D01*
X144408372Y-100628433D01*
X144617682Y-100562438D01*
X144714860Y-100531798D01*
X144714863Y-100531797D01*
X144718532Y-100530640D01*
X144722029Y-100529046D01*
X144722035Y-100529044D01*
X145010954Y-100397376D01*
X145010958Y-100397374D01*
X145014462Y-100395777D01*
X145291751Y-100225854D01*
X145294755Y-100223464D01*
X145294760Y-100223461D01*
X145419007Y-100124630D01*
X145546264Y-100023405D01*
X145548958Y-100020664D01*
X145548962Y-100020660D01*
X145771513Y-99794190D01*
X145771517Y-99794185D01*
X145774208Y-99791447D01*
X145972185Y-99533439D01*
X146137242Y-99253227D01*
X146266920Y-98954988D01*
X146359285Y-98643169D01*
X146412961Y-98322417D01*
X146427146Y-97997515D01*
X146409889Y-97778239D01*
X146401932Y-97677140D01*
X146401932Y-97677137D01*
X146401630Y-97673305D01*
X146336794Y-97354622D01*
X146233602Y-97046216D01*
X146183495Y-96941163D01*
X146113374Y-96794152D01*
X146093595Y-96752684D01*
X146083198Y-96736363D01*
X145990509Y-96590871D01*
X145918859Y-96478403D01*
X145916415Y-96475438D01*
X145714442Y-96230425D01*
X145714438Y-96230420D01*
X145711999Y-96227462D01*
X145476098Y-96003601D01*
X145214674Y-95810157D01*
X145028004Y-95704544D01*
X144934981Y-95651914D01*
X144934977Y-95651912D01*
X144931624Y-95650015D01*
X144631168Y-95525562D01*
X144473966Y-95481966D01*
X144321500Y-95439683D01*
X144321492Y-95439681D01*
X144317784Y-95438653D01*
X143996144Y-95390584D01*
X143992846Y-95390440D01*
X143881082Y-95385560D01*
X143881078Y-95385560D01*
X143879706Y-95385500D01*
X143681402Y-95385500D01*
X143439395Y-95400302D01*
X143435612Y-95401003D01*
X143435605Y-95401004D01*
X143301938Y-95425778D01*
X143119628Y-95459567D01*
X142935058Y-95517762D01*
X142813140Y-95556202D01*
X142813137Y-95556203D01*
X142809468Y-95557360D01*
X142805971Y-95558954D01*
X142805965Y-95558956D01*
X142517046Y-95690624D01*
X142517042Y-95690626D01*
X142513538Y-95692223D01*
X142510259Y-95694233D01*
X142510256Y-95694234D01*
X142355704Y-95788944D01*
X142236249Y-95862146D01*
X142233245Y-95864536D01*
X142233240Y-95864539D01*
X142200222Y-95890803D01*
X141981736Y-96064595D01*
X141979042Y-96067336D01*
X141979038Y-96067340D01*
X141756487Y-96293810D01*
X141756483Y-96293815D01*
X141753792Y-96296553D01*
X141716077Y-96345704D01*
X141572830Y-96532387D01*
X141555815Y-96554561D01*
X141448726Y-96736363D01*
X141414686Y-96794152D01*
X141390758Y-96834773D01*
X141261080Y-97133012D01*
X141259986Y-97136706D01*
X141259984Y-97136711D01*
X141256560Y-97148271D01*
X141168715Y-97444831D01*
X141115039Y-97765583D01*
X141100854Y-98090485D01*
X55999087Y-98090485D01*
X56003146Y-97997515D01*
X55985889Y-97778239D01*
X55977932Y-97677140D01*
X55977932Y-97677137D01*
X55977630Y-97673305D01*
X55912794Y-97354622D01*
X55809602Y-97046216D01*
X55759495Y-96941163D01*
X55689374Y-96794152D01*
X55669595Y-96752684D01*
X55659198Y-96736363D01*
X55566509Y-96590871D01*
X55494859Y-96478403D01*
X55492415Y-96475438D01*
X55290442Y-96230425D01*
X55290438Y-96230420D01*
X55287999Y-96227462D01*
X55052098Y-96003601D01*
X54790674Y-95810157D01*
X54604004Y-95704544D01*
X54510981Y-95651914D01*
X54510977Y-95651912D01*
X54507624Y-95650015D01*
X54207168Y-95525562D01*
X54049966Y-95481966D01*
X53897500Y-95439683D01*
X53897492Y-95439681D01*
X53893784Y-95438653D01*
X53572144Y-95390584D01*
X53568846Y-95390440D01*
X53457082Y-95385560D01*
X53457078Y-95385560D01*
X53455706Y-95385500D01*
X53257402Y-95385500D01*
X53015395Y-95400302D01*
X53011612Y-95401003D01*
X53011605Y-95401004D01*
X52877938Y-95425778D01*
X52695628Y-95459567D01*
X52511058Y-95517762D01*
X52389140Y-95556202D01*
X52389137Y-95556203D01*
X52385468Y-95557360D01*
X52381971Y-95558954D01*
X52381965Y-95558956D01*
X52093046Y-95690624D01*
X52093042Y-95690626D01*
X52089538Y-95692223D01*
X52086259Y-95694233D01*
X52086256Y-95694234D01*
X51931704Y-95788944D01*
X51812249Y-95862146D01*
X51809245Y-95864536D01*
X51809240Y-95864539D01*
X51776222Y-95890803D01*
X51557736Y-96064595D01*
X51555042Y-96067336D01*
X51555038Y-96067340D01*
X51332487Y-96293810D01*
X51332483Y-96293815D01*
X51329792Y-96296553D01*
X51292077Y-96345704D01*
X51148830Y-96532387D01*
X51131815Y-96554561D01*
X51024726Y-96736363D01*
X50990686Y-96794152D01*
X50966758Y-96834773D01*
X50837080Y-97133012D01*
X50835986Y-97136706D01*
X50835984Y-97136711D01*
X50832560Y-97148271D01*
X50744715Y-97444831D01*
X50691039Y-97765583D01*
X50676854Y-98090485D01*
X49278150Y-98090485D01*
X49277997Y-98087184D01*
X49279362Y-98061985D01*
X49279805Y-98059142D01*
X49279805Y-98059140D01*
X49281186Y-98050270D01*
X49279547Y-98037730D01*
X49277064Y-98018749D01*
X49276000Y-98002411D01*
X49276000Y-94925933D01*
X66907500Y-94925933D01*
X66907653Y-94928119D01*
X66907653Y-94928123D01*
X66911619Y-94984832D01*
X66922775Y-95144373D01*
X66983503Y-95430074D01*
X66985006Y-95434203D01*
X66985007Y-95434207D01*
X67079649Y-95694234D01*
X67083401Y-95704544D01*
X67220527Y-95962439D01*
X67223113Y-95965998D01*
X67223114Y-95966000D01*
X67323390Y-96104018D01*
X67392209Y-96198740D01*
X67395265Y-96201904D01*
X67395267Y-96201907D01*
X67534131Y-96345704D01*
X67595108Y-96408848D01*
X67825274Y-96588673D01*
X68078226Y-96734715D01*
X68349042Y-96844132D01*
X68632450Y-96914794D01*
X68636818Y-96915253D01*
X68636823Y-96915254D01*
X68918565Y-96944866D01*
X68918568Y-96944866D01*
X68922934Y-96945325D01*
X68927322Y-96945172D01*
X68927328Y-96945172D01*
X69210443Y-96935285D01*
X69210449Y-96935284D01*
X69214841Y-96935131D01*
X69502488Y-96884411D01*
X69506659Y-96883056D01*
X69506666Y-96883054D01*
X69776087Y-96795513D01*
X69776086Y-96795513D01*
X69780276Y-96794152D01*
X69784229Y-96792224D01*
X69784234Y-96792222D01*
X70038849Y-96668038D01*
X70042800Y-96666111D01*
X70046439Y-96663657D01*
X70046445Y-96663653D01*
X70281303Y-96505239D01*
X70281310Y-96505234D01*
X70284949Y-96502779D01*
X70312022Y-96478403D01*
X70498736Y-96310285D01*
X70498737Y-96310284D01*
X70502010Y-96307337D01*
X70590476Y-96201907D01*
X70686930Y-96086958D01*
X70686934Y-96086953D01*
X70689758Y-96083587D01*
X70844539Y-95835886D01*
X70854974Y-95812450D01*
X70861919Y-95796850D01*
X70907898Y-95742754D01*
X70975825Y-95722104D01*
X71044134Y-95741456D01*
X71088277Y-95788944D01*
X71100776Y-95812450D01*
X71180527Y-95962439D01*
X71183113Y-95965998D01*
X71183114Y-95966000D01*
X71283390Y-96104018D01*
X71352209Y-96198740D01*
X71355265Y-96201904D01*
X71355267Y-96201907D01*
X71494131Y-96345704D01*
X71555108Y-96408848D01*
X71785274Y-96588673D01*
X72038226Y-96734715D01*
X72309042Y-96844132D01*
X72592450Y-96914794D01*
X72596818Y-96915253D01*
X72596823Y-96915254D01*
X72878565Y-96944866D01*
X72878568Y-96944866D01*
X72882934Y-96945325D01*
X72887322Y-96945172D01*
X72887328Y-96945172D01*
X73170443Y-96935285D01*
X73170449Y-96935284D01*
X73174841Y-96935131D01*
X73462488Y-96884411D01*
X73466659Y-96883056D01*
X73466666Y-96883054D01*
X73736087Y-96795513D01*
X73736086Y-96795513D01*
X73740276Y-96794152D01*
X73744229Y-96792224D01*
X73744234Y-96792222D01*
X73998849Y-96668038D01*
X74002800Y-96666111D01*
X74006439Y-96663657D01*
X74006445Y-96663653D01*
X74241303Y-96505239D01*
X74241310Y-96505234D01*
X74244949Y-96502779D01*
X74272022Y-96478403D01*
X74458736Y-96310285D01*
X74458737Y-96310284D01*
X74462010Y-96307337D01*
X74550476Y-96201907D01*
X74646930Y-96086958D01*
X74646934Y-96086953D01*
X74649758Y-96083587D01*
X74804539Y-95835886D01*
X74814974Y-95812450D01*
X74821919Y-95796850D01*
X74867898Y-95742754D01*
X74935825Y-95722104D01*
X75004134Y-95741456D01*
X75048277Y-95788944D01*
X75060776Y-95812450D01*
X75140527Y-95962439D01*
X75143113Y-95965998D01*
X75143114Y-95966000D01*
X75243390Y-96104018D01*
X75312209Y-96198740D01*
X75315265Y-96201904D01*
X75315267Y-96201907D01*
X75454131Y-96345704D01*
X75515108Y-96408848D01*
X75745274Y-96588673D01*
X75998226Y-96734715D01*
X76269042Y-96844132D01*
X76552450Y-96914794D01*
X76556818Y-96915253D01*
X76556823Y-96915254D01*
X76838565Y-96944866D01*
X76838568Y-96944866D01*
X76842934Y-96945325D01*
X76847322Y-96945172D01*
X76847328Y-96945172D01*
X77130443Y-96935285D01*
X77130449Y-96935284D01*
X77134841Y-96935131D01*
X77422488Y-96884411D01*
X77426659Y-96883056D01*
X77426666Y-96883054D01*
X77696087Y-96795513D01*
X77696086Y-96795513D01*
X77700276Y-96794152D01*
X77704229Y-96792224D01*
X77704234Y-96792222D01*
X77958849Y-96668038D01*
X77962800Y-96666111D01*
X77966439Y-96663657D01*
X77966445Y-96663653D01*
X78201303Y-96505239D01*
X78201310Y-96505234D01*
X78204949Y-96502779D01*
X78232022Y-96478403D01*
X78418736Y-96310285D01*
X78418737Y-96310284D01*
X78422010Y-96307337D01*
X78510476Y-96201907D01*
X78606930Y-96086958D01*
X78606934Y-96086953D01*
X78609758Y-96083587D01*
X78764539Y-95835886D01*
X78774974Y-95812450D01*
X78781919Y-95796850D01*
X78827898Y-95742754D01*
X78895825Y-95722104D01*
X78964134Y-95741456D01*
X79008277Y-95788944D01*
X79020776Y-95812450D01*
X79100527Y-95962439D01*
X79103113Y-95965998D01*
X79103114Y-95966000D01*
X79203390Y-96104018D01*
X79272209Y-96198740D01*
X79275265Y-96201904D01*
X79275267Y-96201907D01*
X79414131Y-96345704D01*
X79475108Y-96408848D01*
X79705274Y-96588673D01*
X79958226Y-96734715D01*
X80229042Y-96844132D01*
X80512450Y-96914794D01*
X80516818Y-96915253D01*
X80516823Y-96915254D01*
X80798565Y-96944866D01*
X80798568Y-96944866D01*
X80802934Y-96945325D01*
X80807322Y-96945172D01*
X80807328Y-96945172D01*
X81090443Y-96935285D01*
X81090449Y-96935284D01*
X81094841Y-96935131D01*
X81382488Y-96884411D01*
X81386659Y-96883056D01*
X81386666Y-96883054D01*
X81656087Y-96795513D01*
X81656086Y-96795513D01*
X81660276Y-96794152D01*
X81664229Y-96792224D01*
X81664234Y-96792222D01*
X81918849Y-96668038D01*
X81922800Y-96666111D01*
X81926439Y-96663657D01*
X81926445Y-96663653D01*
X82161303Y-96505239D01*
X82161310Y-96505234D01*
X82164949Y-96502779D01*
X82192022Y-96478403D01*
X82378736Y-96310285D01*
X82378737Y-96310284D01*
X82382010Y-96307337D01*
X82524978Y-96136954D01*
X82584088Y-96097627D01*
X82655076Y-96096501D01*
X82715403Y-96133932D01*
X82745917Y-96198037D01*
X82747500Y-96217945D01*
X82747500Y-96233400D01*
X82747837Y-96236646D01*
X82747837Y-96236650D01*
X82755172Y-96307337D01*
X82758474Y-96339166D01*
X82760655Y-96345702D01*
X82760655Y-96345704D01*
X82803938Y-96475438D01*
X82814450Y-96506946D01*
X82907522Y-96657348D01*
X83032697Y-96782305D01*
X83038927Y-96786145D01*
X83038928Y-96786146D01*
X83176090Y-96870694D01*
X83183262Y-96875115D01*
X83263005Y-96901564D01*
X83344611Y-96928632D01*
X83344613Y-96928632D01*
X83351139Y-96930797D01*
X83357975Y-96931497D01*
X83357978Y-96931498D01*
X83396152Y-96935409D01*
X83455600Y-96941500D01*
X86084367Y-96941500D01*
X86152488Y-96961502D01*
X86173462Y-96978405D01*
X86781031Y-97585974D01*
X86793868Y-97601002D01*
X86801851Y-97611990D01*
X86806753Y-97616403D01*
X86806754Y-97616405D01*
X86851583Y-97656769D01*
X86856367Y-97661310D01*
X86870514Y-97675457D01*
X86873079Y-97677534D01*
X86886074Y-97688057D01*
X86891095Y-97692345D01*
X86935901Y-97732690D01*
X86935905Y-97732693D01*
X86940805Y-97737105D01*
X86946515Y-97740401D01*
X86946518Y-97740404D01*
X86952565Y-97743895D01*
X86968850Y-97755088D01*
X86979395Y-97763627D01*
X87021270Y-97784963D01*
X87039000Y-97793997D01*
X87044796Y-97797144D01*
X87102735Y-97830595D01*
X87115645Y-97834790D01*
X87133904Y-97842353D01*
X87145996Y-97848514D01*
X87210658Y-97865840D01*
X87216906Y-97867692D01*
X87280564Y-97888375D01*
X87294046Y-97889792D01*
X87294056Y-97889793D01*
X87313500Y-97893397D01*
X87320225Y-97895199D01*
X87320230Y-97895200D01*
X87326605Y-97896908D01*
X87333195Y-97897253D01*
X87333199Y-97897254D01*
X87393400Y-97900409D01*
X87399975Y-97900926D01*
X87419900Y-97903020D01*
X87439934Y-97903020D01*
X87446528Y-97903193D01*
X87506738Y-97906349D01*
X87506743Y-97906349D01*
X87513330Y-97906694D01*
X87519845Y-97905662D01*
X87519847Y-97905662D01*
X87526734Y-97904571D01*
X87546445Y-97903020D01*
X103761555Y-97903020D01*
X103781266Y-97904571D01*
X103788153Y-97905662D01*
X103788155Y-97905662D01*
X103794670Y-97906694D01*
X103801258Y-97906349D01*
X103801262Y-97906349D01*
X103861479Y-97903193D01*
X103868073Y-97903020D01*
X103888100Y-97903020D01*
X103891371Y-97902676D01*
X103891375Y-97902676D01*
X103908019Y-97900927D01*
X103914593Y-97900410D01*
X103974796Y-97897255D01*
X103974798Y-97897255D01*
X103981395Y-97896909D01*
X103987777Y-97895199D01*
X103989241Y-97894806D01*
X103994508Y-97893395D01*
X104013950Y-97889792D01*
X104015192Y-97889662D01*
X104020865Y-97889066D01*
X104020869Y-97889065D01*
X104027436Y-97888375D01*
X104091065Y-97867701D01*
X104097386Y-97865829D01*
X104104839Y-97863832D01*
X104162004Y-97848514D01*
X104174096Y-97842353D01*
X104192355Y-97834790D01*
X104205265Y-97830595D01*
X104263204Y-97797144D01*
X104269000Y-97793997D01*
X104286730Y-97784963D01*
X104328605Y-97763627D01*
X104339150Y-97755088D01*
X104355435Y-97743895D01*
X104361482Y-97740404D01*
X104361485Y-97740401D01*
X104367195Y-97737105D01*
X104372095Y-97732693D01*
X104372099Y-97732690D01*
X104416905Y-97692345D01*
X104421926Y-97688057D01*
X104434921Y-97677534D01*
X104437486Y-97675457D01*
X104451633Y-97661310D01*
X104456417Y-97656769D01*
X104501246Y-97616405D01*
X104501247Y-97616403D01*
X104506149Y-97611990D01*
X104514132Y-97601002D01*
X104526969Y-97585974D01*
X105134538Y-96978405D01*
X105196850Y-96944379D01*
X105223633Y-96941500D01*
X107852400Y-96941500D01*
X107855646Y-96941163D01*
X107855650Y-96941163D01*
X107951308Y-96931238D01*
X107951312Y-96931237D01*
X107958166Y-96930526D01*
X107964702Y-96928345D01*
X107964704Y-96928345D01*
X108100456Y-96883054D01*
X108125946Y-96874550D01*
X108276348Y-96781478D01*
X108401305Y-96656303D01*
X108450383Y-96576684D01*
X108490275Y-96511968D01*
X108490276Y-96511966D01*
X108494115Y-96505738D01*
X108549797Y-96337861D01*
X108552623Y-96310285D01*
X108560172Y-96236598D01*
X108560500Y-96233400D01*
X108560500Y-92532600D01*
X108560163Y-92529350D01*
X108550238Y-92433692D01*
X108550237Y-92433688D01*
X108549526Y-92426834D01*
X108525375Y-92354443D01*
X108495868Y-92266002D01*
X108493550Y-92259054D01*
X108400478Y-92108652D01*
X108275303Y-91983695D01*
X108253873Y-91970485D01*
X108130968Y-91894725D01*
X108130966Y-91894724D01*
X108124738Y-91890885D01*
X107964254Y-91837655D01*
X107963389Y-91837368D01*
X107963387Y-91837368D01*
X107956861Y-91835203D01*
X107950025Y-91834503D01*
X107950022Y-91834502D01*
X107906969Y-91830091D01*
X107852400Y-91824500D01*
X105091600Y-91824500D01*
X105088354Y-91824837D01*
X105088350Y-91824837D01*
X104992692Y-91834762D01*
X104992688Y-91834763D01*
X104985834Y-91835474D01*
X104979298Y-91837655D01*
X104979296Y-91837655D01*
X104935487Y-91852271D01*
X104818054Y-91891450D01*
X104667652Y-91984522D01*
X104542695Y-92109697D01*
X104449885Y-92260262D01*
X104394203Y-92428139D01*
X104393503Y-92434975D01*
X104393502Y-92434978D01*
X104390730Y-92462035D01*
X104383500Y-92532600D01*
X104383500Y-92547942D01*
X104363498Y-92616063D01*
X104309842Y-92662556D01*
X104239568Y-92672660D01*
X104174988Y-92643166D01*
X104155564Y-92622003D01*
X104118380Y-92570823D01*
X104118377Y-92570820D01*
X104115791Y-92567260D01*
X104097136Y-92547942D01*
X103915946Y-92360314D01*
X103915942Y-92360311D01*
X103912892Y-92357152D01*
X103682726Y-92177327D01*
X103429774Y-92031285D01*
X103158958Y-91921868D01*
X103153492Y-91920505D01*
X102879821Y-91852271D01*
X102879823Y-91852271D01*
X102875550Y-91851206D01*
X102871182Y-91850747D01*
X102871177Y-91850746D01*
X102589435Y-91821134D01*
X102589432Y-91821134D01*
X102585066Y-91820675D01*
X102580678Y-91820828D01*
X102580672Y-91820828D01*
X102297557Y-91830715D01*
X102297551Y-91830716D01*
X102293159Y-91830869D01*
X102005512Y-91881589D01*
X102001341Y-91882944D01*
X102001334Y-91882946D01*
X101816986Y-91942845D01*
X101727724Y-91971848D01*
X101723771Y-91973776D01*
X101723766Y-91973778D01*
X101560519Y-92053399D01*
X101465200Y-92099889D01*
X101461561Y-92102343D01*
X101461555Y-92102347D01*
X101226697Y-92260761D01*
X101226690Y-92260766D01*
X101223051Y-92263221D01*
X101219782Y-92266165D01*
X101219780Y-92266166D01*
X101041340Y-92426834D01*
X101005990Y-92458663D01*
X101003161Y-92462035D01*
X100821070Y-92679042D01*
X100821066Y-92679047D01*
X100818242Y-92682413D01*
X100663461Y-92930114D01*
X100661676Y-92934124D01*
X100661673Y-92934129D01*
X100646081Y-92969150D01*
X100600102Y-93023246D01*
X100532175Y-93043896D01*
X100463866Y-93024544D01*
X100419723Y-92977056D01*
X100356994Y-92859082D01*
X100327473Y-92803561D01*
X100324886Y-92800000D01*
X100158380Y-92570823D01*
X100158377Y-92570820D01*
X100155791Y-92567260D01*
X100137136Y-92547942D01*
X99955946Y-92360314D01*
X99955942Y-92360311D01*
X99952892Y-92357152D01*
X99722726Y-92177327D01*
X99469774Y-92031285D01*
X99198958Y-91921868D01*
X99193492Y-91920505D01*
X98919821Y-91852271D01*
X98919823Y-91852271D01*
X98915550Y-91851206D01*
X98911182Y-91850747D01*
X98911177Y-91850746D01*
X98629435Y-91821134D01*
X98629432Y-91821134D01*
X98625066Y-91820675D01*
X98620678Y-91820828D01*
X98620672Y-91820828D01*
X98337557Y-91830715D01*
X98337551Y-91830716D01*
X98333159Y-91830869D01*
X98045512Y-91881589D01*
X98041341Y-91882944D01*
X98041334Y-91882946D01*
X97771917Y-91970485D01*
X97771909Y-91970488D01*
X97767724Y-91971848D01*
X97763767Y-91973778D01*
X97763760Y-91973781D01*
X97600518Y-92053399D01*
X97530523Y-92065283D01*
X97465215Y-92037439D01*
X97456189Y-92029246D01*
X96606969Y-91180026D01*
X96594132Y-91164998D01*
X96586149Y-91154010D01*
X96536417Y-91109231D01*
X96531633Y-91104690D01*
X96517486Y-91090543D01*
X96501926Y-91077943D01*
X96496905Y-91073655D01*
X96452099Y-91033310D01*
X96452095Y-91033307D01*
X96447195Y-91028895D01*
X96441485Y-91025599D01*
X96441482Y-91025596D01*
X96435435Y-91022105D01*
X96419150Y-91010912D01*
X96408605Y-91002373D01*
X96349000Y-90972003D01*
X96343204Y-90968856D01*
X96337455Y-90965537D01*
X96285265Y-90935405D01*
X96272355Y-90931210D01*
X96254096Y-90923647D01*
X96242004Y-90917486D01*
X96177386Y-90900171D01*
X96171062Y-90898298D01*
X96162461Y-90895503D01*
X96107436Y-90877625D01*
X96100869Y-90876935D01*
X96100865Y-90876934D01*
X96095192Y-90876338D01*
X96093950Y-90876208D01*
X96074508Y-90872605D01*
X96069241Y-90871194D01*
X96067773Y-90870800D01*
X96067772Y-90870800D01*
X96061395Y-90869091D01*
X96054798Y-90868745D01*
X96054796Y-90868745D01*
X95994593Y-90865590D01*
X95988019Y-90865073D01*
X95971375Y-90863324D01*
X95971371Y-90863324D01*
X95968100Y-90862980D01*
X95948073Y-90862980D01*
X95941479Y-90862807D01*
X95881262Y-90859651D01*
X95881258Y-90859651D01*
X95874670Y-90859306D01*
X95868155Y-90860338D01*
X95868153Y-90860338D01*
X95861266Y-90861429D01*
X95841555Y-90862980D01*
X79626445Y-90862980D01*
X79606734Y-90861429D01*
X79599847Y-90860338D01*
X79599845Y-90860338D01*
X79593330Y-90859306D01*
X79586743Y-90859651D01*
X79586738Y-90859651D01*
X79526528Y-90862807D01*
X79519934Y-90862980D01*
X79499900Y-90862980D01*
X79496626Y-90863324D01*
X79496627Y-90863324D01*
X79479974Y-90865074D01*
X79473400Y-90865591D01*
X79413199Y-90868746D01*
X79413195Y-90868747D01*
X79406605Y-90869092D01*
X79400230Y-90870800D01*
X79400225Y-90870801D01*
X79393500Y-90872603D01*
X79374057Y-90876207D01*
X79360564Y-90877625D01*
X79296906Y-90898308D01*
X79290658Y-90900160D01*
X79225996Y-90917486D01*
X79213904Y-90923647D01*
X79195645Y-90931210D01*
X79182735Y-90935405D01*
X79130545Y-90965537D01*
X79124796Y-90968856D01*
X79119000Y-90972003D01*
X79059395Y-91002373D01*
X79048850Y-91010912D01*
X79032565Y-91022105D01*
X79026518Y-91025596D01*
X79026515Y-91025599D01*
X79020805Y-91028895D01*
X79015905Y-91033307D01*
X79015901Y-91033310D01*
X78971095Y-91073655D01*
X78966074Y-91077943D01*
X78950514Y-91090543D01*
X78936367Y-91104690D01*
X78931583Y-91109231D01*
X78881851Y-91154010D01*
X78873868Y-91164998D01*
X78861031Y-91180026D01*
X78013718Y-92027339D01*
X77951406Y-92061365D01*
X77880591Y-92056300D01*
X77861625Y-92047364D01*
X77837589Y-92033487D01*
X77837582Y-92033484D01*
X77833774Y-92031285D01*
X77562958Y-91921868D01*
X77557492Y-91920505D01*
X77283821Y-91852271D01*
X77283823Y-91852271D01*
X77279550Y-91851206D01*
X77275177Y-91850746D01*
X77275175Y-91850746D01*
X77137100Y-91836234D01*
X77059224Y-91828049D01*
X76993567Y-91801036D01*
X76952937Y-91742814D01*
X76950234Y-91671869D01*
X76983299Y-91613644D01*
X80040538Y-88556405D01*
X80102850Y-88522379D01*
X80129633Y-88519500D01*
X81582075Y-88519500D01*
X81601786Y-88521051D01*
X81608673Y-88522142D01*
X81608675Y-88522142D01*
X81615190Y-88523174D01*
X81621778Y-88522829D01*
X81621782Y-88522829D01*
X81681999Y-88519673D01*
X81688593Y-88519500D01*
X81708620Y-88519500D01*
X81711891Y-88519156D01*
X81711895Y-88519156D01*
X81728539Y-88517407D01*
X81735113Y-88516890D01*
X81795316Y-88513735D01*
X81795318Y-88513735D01*
X81801915Y-88513389D01*
X81815028Y-88509875D01*
X81834470Y-88506272D01*
X81835712Y-88506142D01*
X81841385Y-88505546D01*
X81841389Y-88505545D01*
X81847956Y-88504855D01*
X81911581Y-88484182D01*
X81917906Y-88482309D01*
X81941484Y-88475991D01*
X81982524Y-88464994D01*
X81994616Y-88458833D01*
X82012875Y-88451270D01*
X82025785Y-88447075D01*
X82083724Y-88413624D01*
X82089520Y-88410477D01*
X82149125Y-88380107D01*
X82159670Y-88371568D01*
X82175955Y-88360375D01*
X82182002Y-88356884D01*
X82182005Y-88356881D01*
X82187715Y-88353585D01*
X82192615Y-88349173D01*
X82192619Y-88349170D01*
X82237425Y-88308825D01*
X82242446Y-88304537D01*
X82255441Y-88294014D01*
X82258006Y-88291937D01*
X82272153Y-88277790D01*
X82276937Y-88273249D01*
X82321766Y-88232885D01*
X82321767Y-88232883D01*
X82326669Y-88228470D01*
X82334652Y-88217482D01*
X82347489Y-88202454D01*
X83518918Y-87031025D01*
X83581230Y-86996999D01*
X83643798Y-86999309D01*
X83733272Y-87025812D01*
X83832857Y-87055311D01*
X83832861Y-87055312D01*
X83836970Y-87056529D01*
X83841204Y-87057177D01*
X83841209Y-87057178D01*
X84069016Y-87092037D01*
X84121153Y-87100015D01*
X84267485Y-87102314D01*
X84404317Y-87104464D01*
X84404323Y-87104464D01*
X84408608Y-87104531D01*
X84412860Y-87104016D01*
X84412868Y-87104016D01*
X84689756Y-87070508D01*
X84689761Y-87070507D01*
X84694017Y-87069992D01*
X84842550Y-87031025D01*
X84967954Y-86998126D01*
X84967955Y-86998126D01*
X84972097Y-86997039D01*
X85237704Y-86887021D01*
X85485922Y-86741974D01*
X85712159Y-86564582D01*
X85740314Y-86535529D01*
X85885836Y-86385361D01*
X85912227Y-86358128D01*
X85914760Y-86354680D01*
X85914764Y-86354675D01*
X86079887Y-86129886D01*
X86082425Y-86126431D01*
X86115241Y-86065991D01*
X86217554Y-85877555D01*
X86217555Y-85877553D01*
X86219604Y-85873779D01*
X86300399Y-85659962D01*
X86319707Y-85608866D01*
X86319708Y-85608862D01*
X86321225Y-85604848D01*
X86385407Y-85324613D01*
X86391036Y-85261548D01*
X86410743Y-85040726D01*
X86410743Y-85040724D01*
X86410963Y-85038260D01*
X86411427Y-84994000D01*
X86409918Y-84971869D01*
X87264689Y-84971869D01*
X87281238Y-85258883D01*
X87282063Y-85263088D01*
X87282064Y-85263096D01*
X87301581Y-85362574D01*
X87336586Y-85540995D01*
X87337973Y-85545045D01*
X87337974Y-85545050D01*
X87428321Y-85808930D01*
X87429710Y-85812986D01*
X87468963Y-85891031D01*
X87555066Y-86062228D01*
X87558885Y-86069822D01*
X87721721Y-86306750D01*
X87724608Y-86309923D01*
X87724609Y-86309924D01*
X87872718Y-86472694D01*
X87915206Y-86519388D01*
X87918501Y-86522143D01*
X87918502Y-86522144D01*
X88126854Y-86696352D01*
X88135759Y-86703798D01*
X88379298Y-86856571D01*
X88641318Y-86974877D01*
X88661881Y-86980968D01*
X88912857Y-87055311D01*
X88912862Y-87055312D01*
X88916970Y-87056529D01*
X88921204Y-87057177D01*
X88921209Y-87057178D01*
X89149016Y-87092037D01*
X89201153Y-87100015D01*
X89347485Y-87102314D01*
X89484317Y-87104464D01*
X89484323Y-87104464D01*
X89488608Y-87104531D01*
X89492860Y-87104016D01*
X89492868Y-87104016D01*
X89769756Y-87070508D01*
X89769761Y-87070507D01*
X89774017Y-87069992D01*
X89922550Y-87031025D01*
X90047954Y-86998126D01*
X90047955Y-86998126D01*
X90052097Y-86997039D01*
X90317704Y-86887021D01*
X90565922Y-86741974D01*
X90792159Y-86564582D01*
X90820314Y-86535529D01*
X90965836Y-86385361D01*
X90992227Y-86358128D01*
X90994760Y-86354680D01*
X90994764Y-86354675D01*
X91039330Y-86294005D01*
X110192835Y-86294005D01*
X110211465Y-86530716D01*
X110212619Y-86535523D01*
X110212620Y-86535529D01*
X110237382Y-86638669D01*
X110266895Y-86761599D01*
X110268788Y-86766170D01*
X110268789Y-86766172D01*
X110317950Y-86884857D01*
X110357760Y-86980968D01*
X110360346Y-86985188D01*
X110479241Y-87179207D01*
X110479245Y-87179213D01*
X110481824Y-87183421D01*
X110636031Y-87363974D01*
X110816584Y-87518181D01*
X110820792Y-87520760D01*
X110820798Y-87520764D01*
X111013376Y-87638776D01*
X111019037Y-87642245D01*
X111023607Y-87644138D01*
X111023611Y-87644140D01*
X111233833Y-87731216D01*
X111238406Y-87733110D01*
X111314102Y-87751283D01*
X111464476Y-87787385D01*
X111464482Y-87787386D01*
X111469289Y-87788540D01*
X111706000Y-87807170D01*
X111710930Y-87806782D01*
X111884699Y-87793106D01*
X111954179Y-87807702D01*
X111983680Y-87829623D01*
X116418990Y-92264933D01*
X116453016Y-92327245D01*
X116447951Y-92398060D01*
X116414208Y-92447662D01*
X116401990Y-92458663D01*
X116399161Y-92462035D01*
X116217070Y-92679042D01*
X116217066Y-92679047D01*
X116214242Y-92682413D01*
X116059461Y-92930114D01*
X115940660Y-93196947D01*
X115860150Y-93477716D01*
X115819500Y-93766958D01*
X115819500Y-94925933D01*
X115819653Y-94928119D01*
X115819653Y-94928123D01*
X115823619Y-94984832D01*
X115834775Y-95144373D01*
X115895503Y-95430074D01*
X115897006Y-95434203D01*
X115897007Y-95434207D01*
X115991649Y-95694234D01*
X115995401Y-95704544D01*
X116132527Y-95962439D01*
X116135113Y-95965998D01*
X116135114Y-95966000D01*
X116235390Y-96104018D01*
X116304209Y-96198740D01*
X116307265Y-96201904D01*
X116307267Y-96201907D01*
X116446131Y-96345704D01*
X116507108Y-96408848D01*
X116737274Y-96588673D01*
X116990226Y-96734715D01*
X117261042Y-96844132D01*
X117544450Y-96914794D01*
X117548818Y-96915253D01*
X117548823Y-96915254D01*
X117830565Y-96944866D01*
X117830568Y-96944866D01*
X117834934Y-96945325D01*
X117839322Y-96945172D01*
X117839328Y-96945172D01*
X118122443Y-96935285D01*
X118122449Y-96935284D01*
X118126841Y-96935131D01*
X118414488Y-96884411D01*
X118418659Y-96883056D01*
X118418666Y-96883054D01*
X118688087Y-96795513D01*
X118688086Y-96795513D01*
X118692276Y-96794152D01*
X118696229Y-96792224D01*
X118696234Y-96792222D01*
X118950849Y-96668038D01*
X118954800Y-96666111D01*
X118958439Y-96663657D01*
X118958445Y-96663653D01*
X119193303Y-96505239D01*
X119193310Y-96505234D01*
X119196949Y-96502779D01*
X119224022Y-96478403D01*
X119410736Y-96310285D01*
X119410737Y-96310284D01*
X119414010Y-96307337D01*
X119556978Y-96136954D01*
X119616088Y-96097627D01*
X119687076Y-96096501D01*
X119747403Y-96133932D01*
X119777917Y-96198037D01*
X119779500Y-96217945D01*
X119779500Y-96233400D01*
X119779837Y-96236646D01*
X119779837Y-96236650D01*
X119787172Y-96307337D01*
X119790474Y-96339166D01*
X119792655Y-96345702D01*
X119792655Y-96345704D01*
X119835938Y-96475438D01*
X119846450Y-96506946D01*
X119939522Y-96657348D01*
X120064697Y-96782305D01*
X120070927Y-96786145D01*
X120070928Y-96786146D01*
X120208090Y-96870694D01*
X120215262Y-96875115D01*
X120295005Y-96901564D01*
X120376611Y-96928632D01*
X120376613Y-96928632D01*
X120383139Y-96930797D01*
X120389975Y-96931497D01*
X120389978Y-96931498D01*
X120428152Y-96935409D01*
X120487600Y-96941500D01*
X123248400Y-96941500D01*
X123251646Y-96941163D01*
X123251650Y-96941163D01*
X123347308Y-96931238D01*
X123347312Y-96931237D01*
X123354166Y-96930526D01*
X123360702Y-96928345D01*
X123360704Y-96928345D01*
X123496456Y-96883054D01*
X123521946Y-96874550D01*
X123672348Y-96781478D01*
X123797305Y-96656303D01*
X123846383Y-96576684D01*
X123875321Y-96529738D01*
X128415500Y-96529738D01*
X128430295Y-96704102D01*
X128431633Y-96709259D01*
X128431634Y-96709262D01*
X128485100Y-96915254D01*
X128489067Y-96930540D01*
X128491259Y-96935406D01*
X128491260Y-96935409D01*
X128557864Y-97083264D01*
X128585150Y-97143837D01*
X128588134Y-97148270D01*
X128588135Y-97148271D01*
X128601537Y-97168178D01*
X128715798Y-97337896D01*
X128877276Y-97507168D01*
X129064965Y-97646813D01*
X129069716Y-97649229D01*
X129069720Y-97649231D01*
X129249044Y-97740404D01*
X129273500Y-97752838D01*
X129496917Y-97822210D01*
X129502204Y-97822911D01*
X129502205Y-97822911D01*
X129723545Y-97852248D01*
X129723549Y-97852248D01*
X129728829Y-97852948D01*
X129734158Y-97852748D01*
X129734160Y-97852748D01*
X129846942Y-97848514D01*
X129962604Y-97844172D01*
X130074813Y-97820628D01*
X130186332Y-97797229D01*
X130186335Y-97797228D01*
X130191559Y-97796132D01*
X130409146Y-97710203D01*
X130469952Y-97673305D01*
X130604583Y-97591609D01*
X130604586Y-97591607D01*
X130609144Y-97588841D01*
X130785834Y-97435517D01*
X130934165Y-97254614D01*
X130936801Y-97249984D01*
X130936804Y-97249979D01*
X130955301Y-97217484D01*
X131006384Y-97168178D01*
X131076015Y-97154317D01*
X131142085Y-97180301D01*
X131169323Y-97209450D01*
X131196049Y-97249148D01*
X131255798Y-97337896D01*
X131417276Y-97507168D01*
X131604965Y-97646813D01*
X131609716Y-97649229D01*
X131609720Y-97649231D01*
X131789044Y-97740404D01*
X131813500Y-97752838D01*
X132036917Y-97822210D01*
X132042204Y-97822911D01*
X132042205Y-97822911D01*
X132263545Y-97852248D01*
X132263549Y-97852248D01*
X132268829Y-97852948D01*
X132274158Y-97852748D01*
X132274160Y-97852748D01*
X132386942Y-97848514D01*
X132502604Y-97844172D01*
X132614813Y-97820628D01*
X132726332Y-97797229D01*
X132726335Y-97797228D01*
X132731559Y-97796132D01*
X132949146Y-97710203D01*
X133009952Y-97673305D01*
X133144583Y-97591609D01*
X133144586Y-97591607D01*
X133149144Y-97588841D01*
X133325834Y-97435517D01*
X133356761Y-97397799D01*
X133415421Y-97357804D01*
X133486391Y-97355873D01*
X133547139Y-97392617D01*
X133562220Y-97415157D01*
X133562906Y-97414732D01*
X133652063Y-97558807D01*
X133661099Y-97570208D01*
X133775829Y-97684739D01*
X133787240Y-97693751D01*
X133925243Y-97778816D01*
X133938424Y-97784963D01*
X134092710Y-97836138D01*
X134106086Y-97839005D01*
X134200438Y-97848672D01*
X134206854Y-97849000D01*
X134601885Y-97849000D01*
X134617124Y-97844525D01*
X134618329Y-97843135D01*
X134620000Y-97835452D01*
X134620000Y-97830884D01*
X135128000Y-97830884D01*
X135132475Y-97846123D01*
X135133865Y-97847328D01*
X135141548Y-97848999D01*
X135541095Y-97848999D01*
X135547614Y-97848662D01*
X135643206Y-97838743D01*
X135656600Y-97835851D01*
X135810784Y-97784412D01*
X135823962Y-97778239D01*
X135961807Y-97692937D01*
X135973208Y-97683901D01*
X136087739Y-97569171D01*
X136096751Y-97557760D01*
X136181816Y-97419757D01*
X136187963Y-97406576D01*
X136239138Y-97252290D01*
X136242005Y-97238914D01*
X136251672Y-97144562D01*
X136252000Y-97138146D01*
X136252000Y-96518115D01*
X136247525Y-96502876D01*
X136246135Y-96501671D01*
X136238452Y-96500000D01*
X135146115Y-96500000D01*
X135130876Y-96504475D01*
X135129671Y-96505865D01*
X135128000Y-96513548D01*
X135128000Y-97830884D01*
X134620000Y-97830884D01*
X134620000Y-96118000D01*
X134640002Y-96049879D01*
X134693658Y-96003386D01*
X134746000Y-95992000D01*
X136233884Y-95992000D01*
X136249123Y-95987525D01*
X136250328Y-95986135D01*
X136251999Y-95978452D01*
X136251999Y-95353905D01*
X136251662Y-95347386D01*
X136241743Y-95251794D01*
X136238851Y-95238400D01*
X136187412Y-95084216D01*
X136181239Y-95071038D01*
X136095937Y-94933193D01*
X136086901Y-94921792D01*
X135972171Y-94807261D01*
X135960760Y-94798249D01*
X135822757Y-94713184D01*
X135809576Y-94707037D01*
X135655290Y-94655862D01*
X135641914Y-94652995D01*
X135547562Y-94643328D01*
X135541146Y-94643000D01*
X135137093Y-94643001D01*
X135068973Y-94622999D01*
X135022479Y-94569344D01*
X135012375Y-94499070D01*
X135041868Y-94434489D01*
X135047998Y-94427906D01*
X144340988Y-85134916D01*
X144403300Y-85100890D01*
X144430083Y-85098011D01*
X145995718Y-85098011D01*
X146019327Y-85100243D01*
X146019630Y-85100301D01*
X146019634Y-85100301D01*
X146027417Y-85101786D01*
X146083462Y-85098260D01*
X146091373Y-85098011D01*
X146107367Y-85098011D01*
X146123241Y-85096005D01*
X146131101Y-85095263D01*
X146158560Y-85093535D01*
X146179248Y-85092234D01*
X146179249Y-85092234D01*
X146187161Y-85091736D01*
X146194702Y-85089286D01*
X146194998Y-85089190D01*
X146218142Y-85084017D01*
X146218446Y-85083979D01*
X146218451Y-85083978D01*
X146226308Y-85082985D01*
X146233673Y-85080069D01*
X146233677Y-85080068D01*
X146278522Y-85062312D01*
X146285941Y-85059640D01*
X146339386Y-85042275D01*
X146346083Y-85038025D01*
X146346342Y-85037861D01*
X146367469Y-85027096D01*
X146367757Y-85026982D01*
X146367762Y-85026979D01*
X146375128Y-85024063D01*
X146381536Y-85019407D01*
X146381542Y-85019404D01*
X146420563Y-84991053D01*
X146427100Y-84986610D01*
X146474529Y-84956511D01*
X146480170Y-84950504D01*
X146497957Y-84934823D01*
X146498202Y-84934645D01*
X146498204Y-84934643D01*
X146504618Y-84929983D01*
X146509673Y-84923873D01*
X146540414Y-84886715D01*
X146545645Y-84880781D01*
X146578669Y-84845613D01*
X146578671Y-84845610D01*
X146584097Y-84839832D01*
X146588069Y-84832608D01*
X146601392Y-84813005D01*
X146601591Y-84812765D01*
X146601595Y-84812758D01*
X146606644Y-84806655D01*
X146630558Y-84755835D01*
X146634140Y-84748803D01*
X146661206Y-84699571D01*
X146663176Y-84691896D01*
X146663179Y-84691890D01*
X146663255Y-84691592D01*
X146671287Y-84669283D01*
X146671417Y-84669008D01*
X146671420Y-84669000D01*
X146674794Y-84661829D01*
X146685317Y-84606662D01*
X146687043Y-84598940D01*
X146690678Y-84584786D01*
X146701011Y-84544541D01*
X146701011Y-84536304D01*
X146703243Y-84512695D01*
X146703301Y-84512392D01*
X146703301Y-84512388D01*
X146704786Y-84504605D01*
X146701260Y-84448560D01*
X146701011Y-84440649D01*
X146701011Y-67847978D01*
X146701538Y-67836795D01*
X146703213Y-67829302D01*
X146702518Y-67807170D01*
X146701073Y-67761212D01*
X146701011Y-67757254D01*
X146701011Y-67729355D01*
X146700507Y-67725364D01*
X146699574Y-67713522D01*
X146698879Y-67691385D01*
X146698185Y-67669322D01*
X146695973Y-67661708D01*
X146695972Y-67661703D01*
X146692534Y-67649870D01*
X146688523Y-67630506D01*
X146686978Y-67618275D01*
X146685985Y-67610414D01*
X146683068Y-67603047D01*
X146683067Y-67603042D01*
X146669709Y-67569303D01*
X146665865Y-67558076D01*
X146655741Y-67523233D01*
X146653529Y-67515618D01*
X146643218Y-67498183D01*
X146634523Y-67480435D01*
X146627063Y-67461594D01*
X146601075Y-67425824D01*
X146594559Y-67415904D01*
X146576091Y-67384676D01*
X146576089Y-67384673D01*
X146572053Y-67377849D01*
X146557732Y-67363528D01*
X146544891Y-67348494D01*
X146537642Y-67338517D01*
X146532983Y-67332104D01*
X146498906Y-67303913D01*
X146490127Y-67295923D01*
X144587952Y-65393747D01*
X144580412Y-65385461D01*
X144576300Y-65378982D01*
X144526648Y-65332356D01*
X144523807Y-65329602D01*
X144504070Y-65309865D01*
X144500873Y-65307385D01*
X144491851Y-65299680D01*
X144478416Y-65287064D01*
X144459621Y-65269414D01*
X144452675Y-65265595D01*
X144452672Y-65265593D01*
X144441866Y-65259652D01*
X144425347Y-65248801D01*
X144424883Y-65248441D01*
X144409341Y-65236386D01*
X144402072Y-65233241D01*
X144402068Y-65233238D01*
X144368763Y-65218826D01*
X144358113Y-65213609D01*
X144319360Y-65192305D01*
X144299737Y-65187267D01*
X144281034Y-65180863D01*
X144269720Y-65175967D01*
X144269719Y-65175967D01*
X144262445Y-65172819D01*
X144254622Y-65171580D01*
X144254612Y-65171577D01*
X144218776Y-65165901D01*
X144207156Y-65163495D01*
X144172011Y-65154472D01*
X144172010Y-65154472D01*
X144164330Y-65152500D01*
X144144076Y-65152500D01*
X144124365Y-65150949D01*
X144112186Y-65149020D01*
X144104357Y-65147780D01*
X144075086Y-65150547D01*
X144060339Y-65151941D01*
X144048481Y-65152500D01*
X142572767Y-65152500D01*
X142561584Y-65151973D01*
X142554091Y-65150298D01*
X142546165Y-65150547D01*
X142546164Y-65150547D01*
X142486014Y-65152438D01*
X142482055Y-65152500D01*
X142454144Y-65152500D01*
X142450210Y-65152997D01*
X142450209Y-65152997D01*
X142450144Y-65153005D01*
X142438307Y-65153938D01*
X142406490Y-65154938D01*
X142402029Y-65155078D01*
X142394110Y-65155327D01*
X142376454Y-65160456D01*
X142374658Y-65160978D01*
X142355306Y-65164986D01*
X142348235Y-65165880D01*
X142335203Y-65167526D01*
X142327834Y-65170443D01*
X142327832Y-65170444D01*
X142294097Y-65183800D01*
X142282869Y-65187645D01*
X142240407Y-65199982D01*
X142233585Y-65204016D01*
X142233579Y-65204019D01*
X142222968Y-65210294D01*
X142205218Y-65218990D01*
X142193756Y-65223528D01*
X142193751Y-65223531D01*
X142186383Y-65226448D01*
X142168970Y-65239099D01*
X142150625Y-65252427D01*
X142140707Y-65258943D01*
X142129463Y-65265593D01*
X142102637Y-65281458D01*
X142088313Y-65295782D01*
X142073281Y-65308621D01*
X142056893Y-65320528D01*
X142028712Y-65354593D01*
X142020722Y-65363373D01*
X141673500Y-65710595D01*
X141611188Y-65744621D01*
X141584405Y-65747500D01*
X140375866Y-65747500D01*
X140313684Y-65754255D01*
X140177295Y-65805385D01*
X140060739Y-65892739D01*
X139973385Y-66009295D01*
X139922255Y-66145684D01*
X139915500Y-66207866D01*
X139915500Y-67904134D01*
X139922255Y-67966316D01*
X139973385Y-68102705D01*
X140060739Y-68219261D01*
X140177295Y-68306615D01*
X140313684Y-68357745D01*
X140375866Y-68364500D01*
X142072134Y-68364500D01*
X142134316Y-68357745D01*
X142270705Y-68306615D01*
X142387261Y-68219261D01*
X142474615Y-68102705D01*
X142525745Y-67966316D01*
X142526917Y-67955526D01*
X142527803Y-67953394D01*
X142528425Y-67950778D01*
X142528848Y-67950879D01*
X142554155Y-67889965D01*
X142612517Y-67849537D01*
X142683471Y-67847078D01*
X142744490Y-67883371D01*
X142751489Y-67892031D01*
X142754643Y-67895789D01*
X142757802Y-67900300D01*
X142919700Y-68062198D01*
X142924208Y-68065355D01*
X142924211Y-68065357D01*
X142950559Y-68083806D01*
X143062982Y-68162525D01*
X143074771Y-68170780D01*
X143119099Y-68226237D01*
X143128500Y-68273993D01*
X143128500Y-69140007D01*
X143108498Y-69208128D01*
X143074771Y-69243220D01*
X142924211Y-69348643D01*
X142924208Y-69348645D01*
X142919700Y-69351802D01*
X142757802Y-69513700D01*
X142626477Y-69701251D01*
X142624154Y-69706233D01*
X142624151Y-69706238D01*
X142532039Y-69903775D01*
X142529716Y-69908757D01*
X142528294Y-69914065D01*
X142528293Y-69914067D01*
X142502728Y-70009478D01*
X142470457Y-70129913D01*
X142450502Y-70358000D01*
X142470457Y-70586087D01*
X142471881Y-70591400D01*
X142471881Y-70591402D01*
X142527368Y-70798479D01*
X142529716Y-70807243D01*
X142532039Y-70812224D01*
X142532039Y-70812225D01*
X142624151Y-71009762D01*
X142624154Y-71009767D01*
X142626477Y-71014749D01*
X142757802Y-71202300D01*
X142919700Y-71364198D01*
X142924208Y-71367355D01*
X142924211Y-71367357D01*
X142959671Y-71392186D01*
X143107251Y-71495523D01*
X143112233Y-71497846D01*
X143112238Y-71497849D01*
X143308765Y-71589490D01*
X143314757Y-71592284D01*
X143320065Y-71593706D01*
X143320067Y-71593707D01*
X143530598Y-71650119D01*
X143530600Y-71650119D01*
X143535913Y-71651543D01*
X143764000Y-71671498D01*
X143992087Y-71651543D01*
X143997400Y-71650119D01*
X143997402Y-71650119D01*
X144207933Y-71593707D01*
X144207935Y-71593706D01*
X144213243Y-71592284D01*
X144219235Y-71589490D01*
X144415762Y-71497849D01*
X144415767Y-71497846D01*
X144420749Y-71495523D01*
X144568329Y-71392186D01*
X144603789Y-71367357D01*
X144603792Y-71367355D01*
X144608300Y-71364198D01*
X144770198Y-71202300D01*
X144901523Y-71014749D01*
X144903846Y-71009767D01*
X144903849Y-71009762D01*
X144995961Y-70812225D01*
X144995961Y-70812224D01*
X144998284Y-70807243D01*
X145000633Y-70798479D01*
X145056119Y-70591402D01*
X145056119Y-70591400D01*
X145057543Y-70586087D01*
X145077498Y-70358000D01*
X145057543Y-70129913D01*
X145025272Y-70009478D01*
X144999707Y-69914067D01*
X144999706Y-69914065D01*
X144998284Y-69908757D01*
X144995961Y-69903775D01*
X144903849Y-69706238D01*
X144903846Y-69706233D01*
X144901523Y-69701251D01*
X144770198Y-69513700D01*
X144608300Y-69351802D01*
X144603792Y-69348645D01*
X144603789Y-69348643D01*
X144453229Y-69243220D01*
X144408901Y-69187763D01*
X144399500Y-69140007D01*
X144399500Y-68273993D01*
X144419502Y-68205872D01*
X144453229Y-68170780D01*
X144465019Y-68162525D01*
X144577441Y-68083806D01*
X144603789Y-68065357D01*
X144603792Y-68065355D01*
X144608300Y-68062198D01*
X144770198Y-67900300D01*
X144778735Y-67888109D01*
X144901523Y-67712749D01*
X144902951Y-67713749D01*
X144948638Y-67670183D01*
X145018351Y-67656744D01*
X145084263Y-67683128D01*
X145095474Y-67693079D01*
X145397106Y-67994711D01*
X145431132Y-68057023D01*
X145434011Y-68083806D01*
X145434011Y-72706000D01*
X145414009Y-72774121D01*
X145360353Y-72820614D01*
X145308011Y-72832000D01*
X141315115Y-72832000D01*
X141299876Y-72836475D01*
X141298671Y-72837865D01*
X141297000Y-72845548D01*
X141297000Y-84629884D01*
X141301475Y-84645123D01*
X141302865Y-84646328D01*
X141310548Y-84647999D01*
X142731907Y-84647999D01*
X142800028Y-84668001D01*
X142846521Y-84721657D01*
X142856625Y-84791931D01*
X142827131Y-84856511D01*
X142821003Y-84863093D01*
X137893964Y-89790131D01*
X132977305Y-94706790D01*
X132914993Y-94740816D01*
X132850848Y-94738028D01*
X132631083Y-94669790D01*
X132625796Y-94669089D01*
X132625795Y-94669089D01*
X132404455Y-94639752D01*
X132404451Y-94639752D01*
X132399171Y-94639052D01*
X132393842Y-94639252D01*
X132393840Y-94639252D01*
X132285267Y-94643328D01*
X132165396Y-94647828D01*
X132127107Y-94655862D01*
X131941668Y-94694771D01*
X131941665Y-94694772D01*
X131936441Y-94695868D01*
X131718854Y-94781797D01*
X131714290Y-94784566D01*
X131714291Y-94784566D01*
X131523417Y-94900391D01*
X131523414Y-94900393D01*
X131518856Y-94903159D01*
X131342166Y-95056483D01*
X131193835Y-95237386D01*
X131191199Y-95242016D01*
X131191196Y-95242021D01*
X131172699Y-95274516D01*
X131121616Y-95323822D01*
X131051985Y-95337683D01*
X130985915Y-95311699D01*
X130958677Y-95282550D01*
X130895123Y-95188150D01*
X130872202Y-95154104D01*
X130867017Y-95148668D01*
X130714403Y-94988689D01*
X130710724Y-94984832D01*
X130628611Y-94923738D01*
X130527323Y-94848377D01*
X130527320Y-94848375D01*
X130523035Y-94845187D01*
X130496392Y-94831641D01*
X130444736Y-94782938D01*
X130427500Y-94719326D01*
X130427500Y-90733594D01*
X130447502Y-90665473D01*
X130464405Y-90644499D01*
X131067499Y-90041405D01*
X131129811Y-90007379D01*
X131156594Y-90004500D01*
X132465134Y-90004500D01*
X132527316Y-89997745D01*
X132663705Y-89946615D01*
X132780261Y-89859261D01*
X132867615Y-89742705D01*
X132889799Y-89683529D01*
X132911598Y-89625382D01*
X132954240Y-89568618D01*
X133020802Y-89543918D01*
X133090150Y-89559126D01*
X133124817Y-89587114D01*
X133153250Y-89619938D01*
X133325126Y-89762632D01*
X133518000Y-89875338D01*
X133726692Y-89955030D01*
X133731760Y-89956061D01*
X133731763Y-89956062D01*
X133832962Y-89976651D01*
X133945597Y-89999567D01*
X133950772Y-89999757D01*
X133950774Y-89999757D01*
X134163673Y-90007564D01*
X134163677Y-90007564D01*
X134168837Y-90007753D01*
X134173957Y-90007097D01*
X134173959Y-90007097D01*
X134385288Y-89980025D01*
X134385289Y-89980025D01*
X134390416Y-89979368D01*
X134399472Y-89976651D01*
X134599429Y-89916661D01*
X134599434Y-89916659D01*
X134604384Y-89915174D01*
X134804994Y-89816896D01*
X134986860Y-89687173D01*
X135145096Y-89529489D01*
X135275453Y-89348077D01*
X135290886Y-89316852D01*
X135372136Y-89152453D01*
X135372137Y-89152451D01*
X135374430Y-89147811D01*
X135439370Y-88934069D01*
X135468529Y-88712590D01*
X135470156Y-88646000D01*
X135451852Y-88423361D01*
X135397431Y-88206702D01*
X135308354Y-88001840D01*
X135187014Y-87814277D01*
X135036670Y-87649051D01*
X134908168Y-87547565D01*
X134867108Y-87489650D01*
X134864993Y-87481830D01*
X134864809Y-87479574D01*
X134862551Y-87472604D01*
X134861351Y-87466595D01*
X134859948Y-87460662D01*
X134859101Y-87453393D01*
X134856603Y-87446511D01*
X134856602Y-87446507D01*
X134834055Y-87384393D01*
X134832645Y-87380289D01*
X134810013Y-87310425D01*
X134806213Y-87304162D01*
X134803675Y-87298620D01*
X134800933Y-87293144D01*
X134798434Y-87286259D01*
X134758185Y-87224868D01*
X134755870Y-87221200D01*
X134717773Y-87158419D01*
X134710333Y-87149995D01*
X134710362Y-87149969D01*
X134707762Y-87147038D01*
X134704958Y-87143684D01*
X134700946Y-87137565D01*
X134644413Y-87084011D01*
X134641972Y-87081634D01*
X132692405Y-85132067D01*
X132658379Y-85069755D01*
X132655500Y-85042972D01*
X132655500Y-84184669D01*
X135835001Y-84184669D01*
X135835371Y-84191490D01*
X135840895Y-84242352D01*
X135844521Y-84257604D01*
X135889676Y-84378054D01*
X135898214Y-84393649D01*
X135974715Y-84495724D01*
X135987276Y-84508285D01*
X136089351Y-84584786D01*
X136104946Y-84593324D01*
X136225394Y-84638478D01*
X136240649Y-84642105D01*
X136291514Y-84647631D01*
X136298328Y-84648000D01*
X140770885Y-84648000D01*
X140786124Y-84643525D01*
X140787329Y-84642135D01*
X140789000Y-84634452D01*
X140789000Y-79012115D01*
X140784525Y-78996876D01*
X140783135Y-78995671D01*
X140775452Y-78994000D01*
X135853116Y-78994000D01*
X135837877Y-78998475D01*
X135836672Y-78999865D01*
X135835001Y-79007548D01*
X135835001Y-84184669D01*
X132655500Y-84184669D01*
X132655500Y-82464500D01*
X132675502Y-82396379D01*
X132729158Y-82349886D01*
X132781500Y-82338500D01*
X134241134Y-82338500D01*
X134303316Y-82331745D01*
X134439705Y-82280615D01*
X134556261Y-82193261D01*
X134643615Y-82076705D01*
X134694745Y-81940316D01*
X134701500Y-81878134D01*
X134701500Y-80681866D01*
X134694745Y-80619684D01*
X134643615Y-80483295D01*
X134556261Y-80366739D01*
X134439705Y-80279385D01*
X134303316Y-80228255D01*
X134241134Y-80221500D01*
X129544866Y-80221500D01*
X129482684Y-80228255D01*
X129346295Y-80279385D01*
X129229739Y-80366739D01*
X129142385Y-80483295D01*
X129091255Y-80619684D01*
X129084500Y-80681866D01*
X129084500Y-81878134D01*
X129091255Y-81940316D01*
X129142385Y-82076705D01*
X129229739Y-82193261D01*
X129346295Y-82280615D01*
X129482684Y-82331745D01*
X129544866Y-82338500D01*
X131004500Y-82338500D01*
X131072621Y-82358502D01*
X131119114Y-82412158D01*
X131130500Y-82464500D01*
X131130500Y-85343624D01*
X131129067Y-85362574D01*
X131126876Y-85376973D01*
X131126876Y-85376979D01*
X131125776Y-85384208D01*
X131126369Y-85391500D01*
X131126369Y-85391503D01*
X131130085Y-85437183D01*
X131130500Y-85447398D01*
X131130500Y-85455525D01*
X131133811Y-85483924D01*
X131134238Y-85488244D01*
X131140191Y-85561426D01*
X131142447Y-85568388D01*
X131143643Y-85574376D01*
X131145051Y-85580333D01*
X131145899Y-85587607D01*
X131148397Y-85594489D01*
X131148398Y-85594493D01*
X131170945Y-85656607D01*
X131172355Y-85660711D01*
X131194987Y-85730575D01*
X131198787Y-85736838D01*
X131201325Y-85742380D01*
X131204067Y-85747856D01*
X131206566Y-85754741D01*
X131210581Y-85760865D01*
X131246815Y-85816132D01*
X131249130Y-85819800D01*
X131287227Y-85882581D01*
X131290941Y-85886786D01*
X131290943Y-85886789D01*
X131294667Y-85891005D01*
X131294638Y-85891031D01*
X131297238Y-85893962D01*
X131300042Y-85897316D01*
X131304054Y-85903435D01*
X131309366Y-85908467D01*
X131360586Y-85956988D01*
X131363028Y-85959366D01*
X132476067Y-87072405D01*
X132510093Y-87134717D01*
X132505028Y-87205532D01*
X132462481Y-87262368D01*
X132395961Y-87287179D01*
X132386972Y-87287500D01*
X130668866Y-87287500D01*
X130606684Y-87294255D01*
X130470295Y-87345385D01*
X130353739Y-87432739D01*
X130266385Y-87549295D01*
X130215255Y-87685684D01*
X130208500Y-87747866D01*
X130208500Y-89056405D01*
X130188498Y-89124526D01*
X130171595Y-89145500D01*
X129401747Y-89915348D01*
X129393461Y-89922888D01*
X129386982Y-89927000D01*
X129381557Y-89932777D01*
X129340357Y-89976651D01*
X129337602Y-89979493D01*
X129317865Y-89999230D01*
X129315385Y-90002427D01*
X129307682Y-90011447D01*
X129277414Y-90043679D01*
X129273595Y-90050625D01*
X129273593Y-90050628D01*
X129267652Y-90061434D01*
X129256801Y-90077953D01*
X129244386Y-90093959D01*
X129241241Y-90101228D01*
X129241238Y-90101232D01*
X129226826Y-90134537D01*
X129221609Y-90145187D01*
X129200305Y-90183940D01*
X129198334Y-90191615D01*
X129198334Y-90191616D01*
X129195267Y-90203562D01*
X129188863Y-90222266D01*
X129180819Y-90240855D01*
X129179580Y-90248678D01*
X129179577Y-90248688D01*
X129173901Y-90284524D01*
X129171495Y-90296144D01*
X129162472Y-90331289D01*
X129160500Y-90338970D01*
X129160500Y-90359224D01*
X129158949Y-90378934D01*
X129155780Y-90398943D01*
X129156526Y-90406835D01*
X129159941Y-90442961D01*
X129160500Y-90454819D01*
X129160500Y-94722010D01*
X129140498Y-94790131D01*
X129099865Y-94829729D01*
X128983420Y-94900389D01*
X128983416Y-94900392D01*
X128978856Y-94903159D01*
X128802166Y-95056483D01*
X128653835Y-95237386D01*
X128596742Y-95337683D01*
X128560698Y-95401004D01*
X128538104Y-95440695D01*
X128458284Y-95660596D01*
X128416656Y-95890803D01*
X128415500Y-95915316D01*
X128415500Y-96529738D01*
X123875321Y-96529738D01*
X123886275Y-96511968D01*
X123886276Y-96511966D01*
X123890115Y-96505738D01*
X123945797Y-96337861D01*
X123948623Y-96310285D01*
X123956172Y-96236598D01*
X123956500Y-96233400D01*
X123956500Y-92532600D01*
X123956163Y-92529350D01*
X123946238Y-92433692D01*
X123946237Y-92433688D01*
X123945526Y-92426834D01*
X123921375Y-92354443D01*
X123891868Y-92266002D01*
X123889550Y-92259054D01*
X123796478Y-92108652D01*
X123671303Y-91983695D01*
X123649873Y-91970485D01*
X123526968Y-91894725D01*
X123526966Y-91894724D01*
X123520738Y-91890885D01*
X123360254Y-91837655D01*
X123359389Y-91837368D01*
X123359387Y-91837368D01*
X123352861Y-91835203D01*
X123346025Y-91834503D01*
X123346022Y-91834502D01*
X123302969Y-91830091D01*
X123248400Y-91824500D01*
X123010500Y-91824500D01*
X122942379Y-91804498D01*
X122895886Y-91750842D01*
X122884500Y-91698500D01*
X122884500Y-89105238D01*
X122904502Y-89037117D01*
X122921405Y-89016143D01*
X124094821Y-87842727D01*
X124157133Y-87808701D01*
X124193801Y-87806210D01*
X124206000Y-87807170D01*
X124442711Y-87788540D01*
X124447518Y-87787386D01*
X124447524Y-87787385D01*
X124597898Y-87751283D01*
X124673594Y-87733110D01*
X124678167Y-87731216D01*
X124888389Y-87644140D01*
X124888393Y-87644138D01*
X124892963Y-87642245D01*
X124898624Y-87638776D01*
X125091202Y-87520764D01*
X125091208Y-87520760D01*
X125095416Y-87518181D01*
X125275969Y-87363974D01*
X125430176Y-87183421D01*
X125432755Y-87179213D01*
X125432759Y-87179207D01*
X125551654Y-86985188D01*
X125554240Y-86980968D01*
X125594051Y-86884857D01*
X125643211Y-86766172D01*
X125643212Y-86766170D01*
X125645105Y-86761599D01*
X125674618Y-86638669D01*
X125699380Y-86535529D01*
X125699381Y-86535523D01*
X125700535Y-86530716D01*
X125719165Y-86294005D01*
X125700535Y-86057294D01*
X125645105Y-85826411D01*
X125641131Y-85816817D01*
X125556135Y-85611616D01*
X125556133Y-85611612D01*
X125554240Y-85607042D01*
X125511188Y-85536788D01*
X125432759Y-85408803D01*
X125432755Y-85408797D01*
X125430176Y-85404589D01*
X125275969Y-85224036D01*
X125095416Y-85069829D01*
X125091208Y-85067250D01*
X125091202Y-85067246D01*
X124897183Y-84948351D01*
X124892963Y-84945765D01*
X124888393Y-84943872D01*
X124888389Y-84943870D01*
X124678167Y-84856794D01*
X124678165Y-84856793D01*
X124673594Y-84854900D01*
X124580758Y-84832612D01*
X124447524Y-84800625D01*
X124447518Y-84800624D01*
X124442711Y-84799470D01*
X124206000Y-84780840D01*
X123969289Y-84799470D01*
X123964482Y-84800624D01*
X123964476Y-84800625D01*
X123831242Y-84832612D01*
X123738406Y-84854900D01*
X123733835Y-84856793D01*
X123733833Y-84856794D01*
X123523611Y-84943870D01*
X123523607Y-84943872D01*
X123519037Y-84945765D01*
X123514817Y-84948351D01*
X123320798Y-85067246D01*
X123320792Y-85067250D01*
X123316584Y-85069829D01*
X123136031Y-85224036D01*
X122981824Y-85404589D01*
X122979245Y-85408797D01*
X122979241Y-85408803D01*
X122900812Y-85536788D01*
X122857760Y-85607042D01*
X122855867Y-85611612D01*
X122855865Y-85611616D01*
X122770869Y-85816817D01*
X122766895Y-85826411D01*
X122711465Y-86057294D01*
X122692835Y-86294005D01*
X122693223Y-86298935D01*
X122693223Y-86298939D01*
X122693794Y-86306196D01*
X122679197Y-86375676D01*
X122657277Y-86405175D01*
X121193267Y-87869185D01*
X121183125Y-87878286D01*
X121153351Y-87902225D01*
X121120813Y-87941002D01*
X121117649Y-87944629D01*
X121115954Y-87946498D01*
X121113760Y-87948692D01*
X121086188Y-87982258D01*
X121085526Y-87983055D01*
X121025214Y-88054933D01*
X121022627Y-88059639D01*
X121019218Y-88063789D01*
X121016310Y-88069213D01*
X121016303Y-88069223D01*
X120974939Y-88146368D01*
X120974310Y-88147528D01*
X120929179Y-88229621D01*
X120927555Y-88234741D01*
X120925017Y-88239474D01*
X120903814Y-88308825D01*
X120897648Y-88328993D01*
X120897256Y-88330252D01*
X120870765Y-88413761D01*
X120868902Y-88419635D01*
X120868303Y-88424973D01*
X120866733Y-88430109D01*
X120857361Y-88522379D01*
X120857263Y-88523343D01*
X120857134Y-88524551D01*
X120851500Y-88574784D01*
X120851500Y-88578289D01*
X120851438Y-88579397D01*
X120850990Y-88585092D01*
X120847210Y-88622305D01*
X120847210Y-88622312D01*
X120846588Y-88628435D01*
X120850941Y-88674485D01*
X120851500Y-88686343D01*
X120851500Y-91698500D01*
X120831498Y-91766621D01*
X120777842Y-91813114D01*
X120725500Y-91824500D01*
X120487600Y-91824500D01*
X120484354Y-91824837D01*
X120484350Y-91824837D01*
X120388692Y-91834762D01*
X120388688Y-91834763D01*
X120381834Y-91835474D01*
X120375298Y-91837655D01*
X120375296Y-91837655D01*
X120331487Y-91852271D01*
X120214054Y-91891450D01*
X120063652Y-91984522D01*
X119938695Y-92109697D01*
X119845885Y-92260262D01*
X119790203Y-92428139D01*
X119789503Y-92434975D01*
X119789502Y-92434978D01*
X119786730Y-92462035D01*
X119779500Y-92532600D01*
X119779500Y-92547942D01*
X119759498Y-92616063D01*
X119705842Y-92662556D01*
X119635568Y-92672660D01*
X119570988Y-92643166D01*
X119551564Y-92622003D01*
X119514380Y-92570823D01*
X119514377Y-92570820D01*
X119511791Y-92567260D01*
X119493136Y-92547942D01*
X119311946Y-92360314D01*
X119311942Y-92360311D01*
X119308892Y-92357152D01*
X119078726Y-92177327D01*
X118825774Y-92031285D01*
X118821701Y-92029640D01*
X118821690Y-92029634D01*
X118633849Y-91953742D01*
X118587351Y-91921159D01*
X118586763Y-91920505D01*
X118582541Y-91915558D01*
X118572014Y-91902558D01*
X118572006Y-91902549D01*
X118569937Y-91899994D01*
X118555790Y-91885847D01*
X118551249Y-91881063D01*
X118510885Y-91836234D01*
X118510883Y-91836233D01*
X118506470Y-91831331D01*
X118495482Y-91823348D01*
X118480454Y-91810511D01*
X113241618Y-86571675D01*
X113207592Y-86509363D01*
X113205101Y-86472694D01*
X113210416Y-86405175D01*
X113219165Y-86294005D01*
X113200535Y-86057294D01*
X113145105Y-85826411D01*
X113141131Y-85816817D01*
X113056135Y-85611616D01*
X113056133Y-85611612D01*
X113054240Y-85607042D01*
X113011188Y-85536788D01*
X112932759Y-85408803D01*
X112932755Y-85408797D01*
X112930176Y-85404589D01*
X112775969Y-85224036D01*
X112595416Y-85069829D01*
X112591208Y-85067250D01*
X112591202Y-85067246D01*
X112397183Y-84948351D01*
X112392963Y-84945765D01*
X112388393Y-84943872D01*
X112388389Y-84943870D01*
X112178167Y-84856794D01*
X112178165Y-84856793D01*
X112173594Y-84854900D01*
X112080758Y-84832612D01*
X111947524Y-84800625D01*
X111947518Y-84800624D01*
X111942711Y-84799470D01*
X111706000Y-84780840D01*
X111469289Y-84799470D01*
X111464482Y-84800624D01*
X111464476Y-84800625D01*
X111331242Y-84832612D01*
X111238406Y-84854900D01*
X111233835Y-84856793D01*
X111233833Y-84856794D01*
X111023611Y-84943870D01*
X111023607Y-84943872D01*
X111019037Y-84945765D01*
X111014817Y-84948351D01*
X110820798Y-85067246D01*
X110820792Y-85067250D01*
X110816584Y-85069829D01*
X110636031Y-85224036D01*
X110481824Y-85404589D01*
X110479245Y-85408797D01*
X110479241Y-85408803D01*
X110400812Y-85536788D01*
X110357760Y-85607042D01*
X110355867Y-85611612D01*
X110355865Y-85611616D01*
X110270869Y-85816817D01*
X110266895Y-85826411D01*
X110211465Y-86057294D01*
X110192835Y-86294005D01*
X91039330Y-86294005D01*
X91159887Y-86129886D01*
X91162425Y-86126431D01*
X91195241Y-86065991D01*
X91297554Y-85877555D01*
X91297555Y-85877553D01*
X91299604Y-85873779D01*
X91380399Y-85659962D01*
X91399707Y-85608866D01*
X91399708Y-85608862D01*
X91401225Y-85604848D01*
X91465407Y-85324613D01*
X91471036Y-85261548D01*
X91490743Y-85040726D01*
X91490743Y-85040724D01*
X91490963Y-85038260D01*
X91491427Y-84994000D01*
X91488139Y-84945765D01*
X91472165Y-84711452D01*
X91472164Y-84711446D01*
X91471873Y-84707175D01*
X91467336Y-84685264D01*
X91414443Y-84429855D01*
X91413574Y-84425658D01*
X91317607Y-84154657D01*
X91185750Y-83899188D01*
X91172488Y-83880317D01*
X91022904Y-83667482D01*
X91020441Y-83663977D01*
X90824740Y-83453378D01*
X90602268Y-83271287D01*
X90357142Y-83121073D01*
X90339048Y-83113130D01*
X90097830Y-83007243D01*
X90093898Y-83005517D01*
X90067963Y-82998129D01*
X89821534Y-82927932D01*
X89821535Y-82927932D01*
X89817406Y-82926756D01*
X89572245Y-82891865D01*
X89537036Y-82886854D01*
X89537034Y-82886854D01*
X89532784Y-82886249D01*
X89528495Y-82886227D01*
X89528488Y-82886226D01*
X89249583Y-82884765D01*
X89249576Y-82884765D01*
X89245297Y-82884743D01*
X89241053Y-82885302D01*
X89241049Y-82885302D01*
X89115660Y-82901810D01*
X88960266Y-82922268D01*
X88956126Y-82923401D01*
X88956124Y-82923401D01*
X88892977Y-82940676D01*
X88682964Y-82998129D01*
X88679016Y-82999813D01*
X88422476Y-83109237D01*
X88422472Y-83109239D01*
X88418524Y-83110923D01*
X88343296Y-83155946D01*
X88175521Y-83256357D01*
X88175517Y-83256360D01*
X88171839Y-83258561D01*
X87947472Y-83438313D01*
X87749577Y-83646851D01*
X87581814Y-83880317D01*
X87447288Y-84134392D01*
X87348489Y-84404373D01*
X87287245Y-84685264D01*
X87283399Y-84734135D01*
X87265564Y-84960756D01*
X87264689Y-84971869D01*
X86409918Y-84971869D01*
X86408139Y-84945765D01*
X86392165Y-84711452D01*
X86392164Y-84711446D01*
X86391873Y-84707175D01*
X86387336Y-84685264D01*
X86334443Y-84429855D01*
X86333574Y-84425658D01*
X86237607Y-84154657D01*
X86105750Y-83899188D01*
X86092488Y-83880317D01*
X85942904Y-83667482D01*
X85940441Y-83663977D01*
X85744740Y-83453378D01*
X85522268Y-83271287D01*
X85277142Y-83121073D01*
X85259048Y-83113130D01*
X85017830Y-83007243D01*
X85013898Y-83005517D01*
X84987963Y-82998129D01*
X84741534Y-82927932D01*
X84741535Y-82927932D01*
X84737406Y-82926756D01*
X84492245Y-82891865D01*
X84457036Y-82886854D01*
X84457034Y-82886854D01*
X84452784Y-82886249D01*
X84448495Y-82886227D01*
X84448488Y-82886226D01*
X84169583Y-82884765D01*
X84169576Y-82884765D01*
X84165297Y-82884743D01*
X84161053Y-82885302D01*
X84161049Y-82885302D01*
X84035660Y-82901810D01*
X83880266Y-82922268D01*
X83876126Y-82923401D01*
X83876124Y-82923401D01*
X83812977Y-82940676D01*
X83602964Y-82998129D01*
X83599016Y-82999813D01*
X83342476Y-83109237D01*
X83342472Y-83109239D01*
X83338524Y-83110923D01*
X83263296Y-83155946D01*
X83095521Y-83256357D01*
X83095517Y-83256360D01*
X83091839Y-83258561D01*
X82867472Y-83438313D01*
X82669577Y-83646851D01*
X82501814Y-83880317D01*
X82367288Y-84134392D01*
X82268489Y-84404373D01*
X82207245Y-84685264D01*
X82203399Y-84734135D01*
X82185564Y-84960756D01*
X82184689Y-84971869D01*
X82201238Y-85258883D01*
X82202063Y-85263088D01*
X82202064Y-85263096D01*
X82221581Y-85362574D01*
X82256586Y-85540995D01*
X82257976Y-85545054D01*
X82257976Y-85545055D01*
X82291446Y-85642815D01*
X82294587Y-85713742D01*
X82261334Y-85772723D01*
X81330462Y-86703595D01*
X81268150Y-86737621D01*
X81241367Y-86740500D01*
X80759242Y-86740500D01*
X80691121Y-86720498D01*
X80644628Y-86666842D01*
X80634524Y-86596568D01*
X80668758Y-86526815D01*
X80805836Y-86385361D01*
X80832227Y-86358128D01*
X80834760Y-86354680D01*
X80834764Y-86354675D01*
X80999887Y-86129886D01*
X81002425Y-86126431D01*
X81035241Y-86065991D01*
X81137554Y-85877555D01*
X81137555Y-85877553D01*
X81139604Y-85873779D01*
X81220399Y-85659962D01*
X81239707Y-85608866D01*
X81239708Y-85608862D01*
X81241225Y-85604848D01*
X81305407Y-85324613D01*
X81311036Y-85261548D01*
X81330743Y-85040726D01*
X81330743Y-85040724D01*
X81330963Y-85038260D01*
X81331427Y-84994000D01*
X81328139Y-84945765D01*
X81312165Y-84711452D01*
X81312164Y-84711446D01*
X81311873Y-84707175D01*
X81307336Y-84685264D01*
X81254443Y-84429855D01*
X81253574Y-84425658D01*
X81157607Y-84154657D01*
X81025750Y-83899188D01*
X81012488Y-83880317D01*
X80862904Y-83667482D01*
X80860441Y-83663977D01*
X80664740Y-83453378D01*
X80442268Y-83271287D01*
X80197142Y-83121073D01*
X80179048Y-83113130D01*
X79937830Y-83007243D01*
X79933898Y-83005517D01*
X79907963Y-82998129D01*
X79661534Y-82927932D01*
X79661535Y-82927932D01*
X79657406Y-82926756D01*
X79412245Y-82891865D01*
X79377036Y-82886854D01*
X79377034Y-82886854D01*
X79372784Y-82886249D01*
X79368495Y-82886227D01*
X79368488Y-82886226D01*
X79089583Y-82884765D01*
X79089576Y-82884765D01*
X79085297Y-82884743D01*
X79081053Y-82885302D01*
X79081049Y-82885302D01*
X78955660Y-82901810D01*
X78800266Y-82922268D01*
X78796126Y-82923401D01*
X78796124Y-82923401D01*
X78732977Y-82940676D01*
X78522964Y-82998129D01*
X78519016Y-82999813D01*
X78262476Y-83109237D01*
X78262472Y-83109239D01*
X78258524Y-83110923D01*
X78183296Y-83155946D01*
X78015521Y-83256357D01*
X78015517Y-83256360D01*
X78011839Y-83258561D01*
X77787472Y-83438313D01*
X77589577Y-83646851D01*
X77421814Y-83880317D01*
X77287288Y-84134392D01*
X77188489Y-84404373D01*
X77127245Y-84685264D01*
X77104689Y-84971869D01*
X77103033Y-84971739D01*
X77084341Y-85033029D01*
X77068153Y-85052904D01*
X76461095Y-85659962D01*
X76398783Y-85693988D01*
X76327968Y-85688923D01*
X76271132Y-85646376D01*
X76246321Y-85579856D01*
X76246000Y-85570867D01*
X76246000Y-85266115D01*
X76241525Y-85250876D01*
X76240135Y-85249671D01*
X76232452Y-85248000D01*
X74410115Y-85248000D01*
X74394876Y-85252475D01*
X74393671Y-85253865D01*
X74392000Y-85261548D01*
X74392000Y-87083884D01*
X74396475Y-87099123D01*
X74397865Y-87100328D01*
X74405548Y-87101999D01*
X74714868Y-87101999D01*
X74782989Y-87122001D01*
X74829482Y-87175657D01*
X74839586Y-87245931D01*
X74810092Y-87310511D01*
X74803963Y-87317094D01*
X70093718Y-92027339D01*
X70031406Y-92061365D01*
X69960591Y-92056300D01*
X69941625Y-92047364D01*
X69917589Y-92033487D01*
X69917582Y-92033484D01*
X69913774Y-92031285D01*
X69642958Y-91921868D01*
X69637492Y-91920505D01*
X69363821Y-91852271D01*
X69363823Y-91852271D01*
X69359550Y-91851206D01*
X69355182Y-91850747D01*
X69355177Y-91850746D01*
X69073435Y-91821134D01*
X69073432Y-91821134D01*
X69069066Y-91820675D01*
X69064678Y-91820828D01*
X69064672Y-91820828D01*
X68781557Y-91830715D01*
X68781551Y-91830716D01*
X68777159Y-91830869D01*
X68489512Y-91881589D01*
X68485341Y-91882944D01*
X68485334Y-91882946D01*
X68300986Y-91942845D01*
X68211724Y-91971848D01*
X68207771Y-91973776D01*
X68207766Y-91973778D01*
X68044519Y-92053399D01*
X67949200Y-92099889D01*
X67945561Y-92102343D01*
X67945555Y-92102347D01*
X67710697Y-92260761D01*
X67710690Y-92260766D01*
X67707051Y-92263221D01*
X67703782Y-92266165D01*
X67703780Y-92266166D01*
X67525340Y-92426834D01*
X67489990Y-92458663D01*
X67487161Y-92462035D01*
X67305070Y-92679042D01*
X67305066Y-92679047D01*
X67302242Y-92682413D01*
X67147461Y-92930114D01*
X67028660Y-93196947D01*
X66948150Y-93477716D01*
X66907500Y-93766958D01*
X66907500Y-94925933D01*
X49276000Y-94925933D01*
X49276000Y-88480277D01*
X53386735Y-88480277D01*
X53387294Y-88484521D01*
X53387294Y-88484525D01*
X53392405Y-88523343D01*
X53424705Y-88768687D01*
X53501465Y-89049276D01*
X53615596Y-89316852D01*
X53764985Y-89566462D01*
X53767669Y-89569813D01*
X53767671Y-89569815D01*
X53854907Y-89678703D01*
X53946867Y-89793489D01*
X54083698Y-89923337D01*
X54142743Y-89979368D01*
X54157878Y-89993731D01*
X54394113Y-90163483D01*
X54419640Y-90176999D01*
X54622721Y-90284524D01*
X54651200Y-90299603D01*
X54655223Y-90301075D01*
X54655227Y-90301077D01*
X54901264Y-90391114D01*
X54924382Y-90399574D01*
X55208604Y-90461544D01*
X55237650Y-90463830D01*
X55434297Y-90479307D01*
X55434304Y-90479307D01*
X55436753Y-90479500D01*
X58344121Y-90479500D01*
X58346257Y-90479354D01*
X58346268Y-90479354D01*
X58556949Y-90464991D01*
X58556955Y-90464990D01*
X58561226Y-90464699D01*
X58565421Y-90463830D01*
X58565423Y-90463830D01*
X58703654Y-90435204D01*
X58846081Y-90405709D01*
X59120295Y-90308605D01*
X59265653Y-90233580D01*
X59374986Y-90177149D01*
X59374987Y-90177149D01*
X59378793Y-90175184D01*
X59382294Y-90172723D01*
X59382298Y-90172721D01*
X59540642Y-90061434D01*
X59616792Y-90007915D01*
X59759462Y-89875338D01*
X59826745Y-89812815D01*
X59826748Y-89812812D01*
X59829888Y-89809894D01*
X59840895Y-89796447D01*
X60011423Y-89588102D01*
X60014139Y-89584784D01*
X60166133Y-89336752D01*
X60174869Y-89316852D01*
X60250086Y-89145500D01*
X60283059Y-89070386D01*
X60289073Y-89049276D01*
X60323351Y-88928939D01*
X60362754Y-88790616D01*
X60365286Y-88772829D01*
X60403137Y-88506870D01*
X60403742Y-88502619D01*
X60404919Y-88277790D01*
X60405243Y-88216009D01*
X60405243Y-88216003D01*
X60405265Y-88211723D01*
X60367295Y-87923313D01*
X60362817Y-87906942D01*
X60330428Y-87788548D01*
X60290535Y-87642724D01*
X60250684Y-87549295D01*
X60178090Y-87379100D01*
X60178088Y-87379096D01*
X60176404Y-87375148D01*
X60027015Y-87125538D01*
X60024182Y-87122001D01*
X59924036Y-86996999D01*
X59845133Y-86898511D01*
X59682458Y-86744138D01*
X59637231Y-86701219D01*
X59637228Y-86701217D01*
X59634122Y-86698269D01*
X59551180Y-86638669D01*
X72030001Y-86638669D01*
X72030371Y-86645490D01*
X72035895Y-86696352D01*
X72039521Y-86711604D01*
X72084676Y-86832054D01*
X72093214Y-86847649D01*
X72169715Y-86949724D01*
X72182276Y-86962285D01*
X72284351Y-87038786D01*
X72299946Y-87047324D01*
X72420394Y-87092478D01*
X72435649Y-87096105D01*
X72486514Y-87101631D01*
X72493328Y-87102000D01*
X73865885Y-87102000D01*
X73881124Y-87097525D01*
X73882329Y-87096135D01*
X73884000Y-87088452D01*
X73884000Y-85266115D01*
X73879525Y-85250876D01*
X73878135Y-85249671D01*
X73870452Y-85248000D01*
X72048116Y-85248000D01*
X72032877Y-85252475D01*
X72031672Y-85253865D01*
X72030001Y-85261548D01*
X72030001Y-86638669D01*
X59551180Y-86638669D01*
X59397887Y-86528517D01*
X59140800Y-86392397D01*
X59136777Y-86390925D01*
X59136773Y-86390923D01*
X58871649Y-86293901D01*
X58871647Y-86293900D01*
X58867618Y-86292426D01*
X58583396Y-86230456D01*
X58539598Y-86227009D01*
X58357703Y-86212693D01*
X58357696Y-86212693D01*
X58355247Y-86212500D01*
X55447879Y-86212500D01*
X55445743Y-86212646D01*
X55445732Y-86212646D01*
X55235051Y-86227009D01*
X55235045Y-86227010D01*
X55230774Y-86227301D01*
X55226579Y-86228170D01*
X55226577Y-86228170D01*
X55211130Y-86231369D01*
X54945919Y-86286291D01*
X54671705Y-86383395D01*
X54413207Y-86516816D01*
X54409706Y-86519277D01*
X54409702Y-86519279D01*
X54396558Y-86528517D01*
X54175208Y-86684085D01*
X54156770Y-86701219D01*
X53992048Y-86854288D01*
X53962112Y-86882106D01*
X53959398Y-86885422D01*
X53959395Y-86885425D01*
X53885181Y-86976097D01*
X53777861Y-87107216D01*
X53625867Y-87355248D01*
X53624148Y-87359165D01*
X53624146Y-87359168D01*
X53576989Y-87466595D01*
X53508941Y-87621614D01*
X53507765Y-87625742D01*
X53507764Y-87625745D01*
X53501125Y-87649051D01*
X53429246Y-87901384D01*
X53428642Y-87905626D01*
X53428641Y-87905632D01*
X53388863Y-88185130D01*
X53388258Y-88189381D01*
X53387455Y-88342768D01*
X53386831Y-88461996D01*
X53386735Y-88480277D01*
X49276000Y-88480277D01*
X49276000Y-84721885D01*
X72030000Y-84721885D01*
X72034475Y-84737124D01*
X72035865Y-84738329D01*
X72043548Y-84740000D01*
X73865885Y-84740000D01*
X73881124Y-84735525D01*
X73882329Y-84734135D01*
X73884000Y-84726452D01*
X73884000Y-84721885D01*
X74392000Y-84721885D01*
X74396475Y-84737124D01*
X74397865Y-84738329D01*
X74405548Y-84740000D01*
X76227884Y-84740000D01*
X76243123Y-84735525D01*
X76244328Y-84734135D01*
X76245999Y-84726452D01*
X76245999Y-83349331D01*
X76245629Y-83342510D01*
X76240105Y-83291648D01*
X76236479Y-83276396D01*
X76191324Y-83155946D01*
X76182786Y-83140351D01*
X76106285Y-83038276D01*
X76093724Y-83025715D01*
X75991649Y-82949214D01*
X75976054Y-82940676D01*
X75855606Y-82895522D01*
X75840351Y-82891895D01*
X75789486Y-82886369D01*
X75782672Y-82886000D01*
X74410115Y-82886000D01*
X74394876Y-82890475D01*
X74393671Y-82891865D01*
X74392000Y-82899548D01*
X74392000Y-84721885D01*
X73884000Y-84721885D01*
X73884000Y-82904116D01*
X73879525Y-82888877D01*
X73878135Y-82887672D01*
X73870452Y-82886001D01*
X72493331Y-82886001D01*
X72486510Y-82886371D01*
X72435648Y-82891895D01*
X72420396Y-82895521D01*
X72299946Y-82940676D01*
X72284351Y-82949214D01*
X72182276Y-83025715D01*
X72169715Y-83038276D01*
X72093214Y-83140351D01*
X72084676Y-83155946D01*
X72039522Y-83276394D01*
X72035895Y-83291649D01*
X72030369Y-83342514D01*
X72030000Y-83349328D01*
X72030000Y-84721885D01*
X49276000Y-84721885D01*
X49276000Y-79334669D01*
X129085001Y-79334669D01*
X129085371Y-79341490D01*
X129090895Y-79392352D01*
X129094521Y-79407604D01*
X129139676Y-79528054D01*
X129148214Y-79543649D01*
X129224715Y-79645724D01*
X129237276Y-79658285D01*
X129339351Y-79734786D01*
X129354946Y-79743324D01*
X129475394Y-79788478D01*
X129490649Y-79792105D01*
X129541514Y-79797631D01*
X129548328Y-79798000D01*
X131620885Y-79798000D01*
X131636124Y-79793525D01*
X131637329Y-79792135D01*
X131639000Y-79784452D01*
X131639000Y-79779884D01*
X132147000Y-79779884D01*
X132151475Y-79795123D01*
X132152865Y-79796328D01*
X132160548Y-79797999D01*
X134237669Y-79797999D01*
X134244490Y-79797629D01*
X134295352Y-79792105D01*
X134310604Y-79788479D01*
X134431054Y-79743324D01*
X134446649Y-79734786D01*
X134548724Y-79658285D01*
X134561285Y-79645724D01*
X134637786Y-79543649D01*
X134646324Y-79528054D01*
X134691478Y-79407606D01*
X134695105Y-79392351D01*
X134700631Y-79341486D01*
X134701000Y-79334672D01*
X134701000Y-79012115D01*
X134696525Y-78996876D01*
X134695135Y-78995671D01*
X134687452Y-78994000D01*
X132165115Y-78994000D01*
X132149876Y-78998475D01*
X132148671Y-78999865D01*
X132147000Y-79007548D01*
X132147000Y-79779884D01*
X131639000Y-79779884D01*
X131639000Y-79012115D01*
X131634525Y-78996876D01*
X131633135Y-78995671D01*
X131625452Y-78994000D01*
X129103116Y-78994000D01*
X129087877Y-78998475D01*
X129086672Y-78999865D01*
X129085001Y-79007548D01*
X129085001Y-79334669D01*
X49276000Y-79334669D01*
X49276000Y-78467885D01*
X129085000Y-78467885D01*
X129089475Y-78483124D01*
X129090865Y-78484329D01*
X129098548Y-78486000D01*
X131620885Y-78486000D01*
X131636124Y-78481525D01*
X131637329Y-78480135D01*
X131639000Y-78472452D01*
X131639000Y-78467885D01*
X132147000Y-78467885D01*
X132151475Y-78483124D01*
X132152865Y-78484329D01*
X132160548Y-78486000D01*
X134682884Y-78486000D01*
X134698123Y-78481525D01*
X134699328Y-78480135D01*
X134700999Y-78472452D01*
X134700999Y-78145331D01*
X134700629Y-78138510D01*
X134695105Y-78087648D01*
X134691479Y-78072396D01*
X134646324Y-77951946D01*
X134637786Y-77936351D01*
X134561285Y-77834276D01*
X134548724Y-77821715D01*
X134446649Y-77745214D01*
X134431054Y-77736676D01*
X134310606Y-77691522D01*
X134295351Y-77687895D01*
X134244486Y-77682369D01*
X134237672Y-77682000D01*
X132165115Y-77682000D01*
X132149876Y-77686475D01*
X132148671Y-77687865D01*
X132147000Y-77695548D01*
X132147000Y-78467885D01*
X131639000Y-78467885D01*
X131639000Y-77700116D01*
X131634525Y-77684877D01*
X131633135Y-77683672D01*
X131625452Y-77682001D01*
X129548331Y-77682001D01*
X129541510Y-77682371D01*
X129490648Y-77687895D01*
X129475396Y-77691521D01*
X129354946Y-77736676D01*
X129339351Y-77745214D01*
X129237276Y-77821715D01*
X129224715Y-77834276D01*
X129148214Y-77936351D01*
X129139676Y-77951946D01*
X129094522Y-78072394D01*
X129090895Y-78087649D01*
X129085369Y-78138514D01*
X129085000Y-78145328D01*
X129085000Y-78467885D01*
X49276000Y-78467885D01*
X49276000Y-69728703D01*
X54786743Y-69728703D01*
X54787302Y-69732947D01*
X54787302Y-69732951D01*
X54803810Y-69858340D01*
X54824268Y-70013734D01*
X54825401Y-70017874D01*
X54825401Y-70017876D01*
X54846415Y-70094689D01*
X54900129Y-70291036D01*
X54901813Y-70294984D01*
X54924606Y-70348420D01*
X55012923Y-70555476D01*
X55066179Y-70644460D01*
X55152508Y-70788705D01*
X55160561Y-70802161D01*
X55340313Y-71026528D01*
X55388606Y-71072356D01*
X55520785Y-71197789D01*
X55548851Y-71224423D01*
X55782317Y-71392186D01*
X55786112Y-71394195D01*
X55786113Y-71394196D01*
X55807869Y-71405715D01*
X56036392Y-71526712D01*
X56306373Y-71625511D01*
X56587264Y-71686755D01*
X56615841Y-71689004D01*
X56810282Y-71704307D01*
X56810291Y-71704307D01*
X56812739Y-71704500D01*
X56968271Y-71704500D01*
X56970407Y-71704354D01*
X56970418Y-71704354D01*
X57178548Y-71690165D01*
X57178554Y-71690164D01*
X57182825Y-71689873D01*
X57187020Y-71689004D01*
X57187022Y-71689004D01*
X57323583Y-71660724D01*
X57464342Y-71631574D01*
X57735343Y-71535607D01*
X57912709Y-71444062D01*
X57987005Y-71405715D01*
X57987006Y-71405715D01*
X57990812Y-71403750D01*
X57994313Y-71401289D01*
X57994317Y-71401287D01*
X58108418Y-71321095D01*
X58226023Y-71238441D01*
X58304403Y-71165606D01*
X58433479Y-71045661D01*
X58433481Y-71045658D01*
X58436622Y-71042740D01*
X58618713Y-70820268D01*
X58759740Y-70590134D01*
X70427500Y-70590134D01*
X70434255Y-70652316D01*
X70485385Y-70788705D01*
X70572739Y-70905261D01*
X70689295Y-70992615D01*
X70825684Y-71043745D01*
X70887866Y-71050500D01*
X73384134Y-71050500D01*
X73446316Y-71043745D01*
X73582705Y-70992615D01*
X73699261Y-70905261D01*
X73786615Y-70788705D01*
X73814111Y-70715359D01*
X78627386Y-70715359D01*
X78636099Y-70726879D01*
X78724586Y-70791760D01*
X78732505Y-70796708D01*
X78948877Y-70910547D01*
X78957451Y-70914275D01*
X79188282Y-70994885D01*
X79197291Y-70997299D01*
X79437518Y-71042908D01*
X79446775Y-71043962D01*
X79691107Y-71053563D01*
X79700420Y-71053237D01*
X79943478Y-71026618D01*
X79952655Y-71024917D01*
X80189107Y-70962665D01*
X80197926Y-70959628D01*
X80422584Y-70863107D01*
X80430856Y-70858800D01*
X80638777Y-70730135D01*
X80640620Y-70728796D01*
X80648038Y-70717541D01*
X80641974Y-70707184D01*
X80524924Y-70590134D01*
X90825720Y-70590134D01*
X90832475Y-70652316D01*
X90883605Y-70788705D01*
X90970959Y-70905261D01*
X91087515Y-70992615D01*
X91223904Y-71043745D01*
X91286086Y-71050500D01*
X93782354Y-71050500D01*
X93844536Y-71043745D01*
X93980925Y-70992615D01*
X94097481Y-70905261D01*
X94184835Y-70788705D01*
X94212331Y-70715359D01*
X99025606Y-70715359D01*
X99034319Y-70726879D01*
X99122806Y-70791760D01*
X99130725Y-70796708D01*
X99347097Y-70910547D01*
X99355671Y-70914275D01*
X99586502Y-70994885D01*
X99595511Y-70997299D01*
X99835738Y-71042908D01*
X99844995Y-71043962D01*
X100089327Y-71053563D01*
X100098640Y-71053237D01*
X100341698Y-71026618D01*
X100350875Y-71024917D01*
X100587327Y-70962665D01*
X100596146Y-70959628D01*
X100820804Y-70863107D01*
X100829076Y-70858800D01*
X101036997Y-70730135D01*
X101038840Y-70728796D01*
X101046258Y-70717541D01*
X101040194Y-70707184D01*
X100696485Y-70363475D01*
X132291483Y-70363475D01*
X132310472Y-70580519D01*
X132312375Y-70591312D01*
X132368764Y-70801761D01*
X132372510Y-70812053D01*
X132464586Y-71009511D01*
X132470069Y-71019006D01*
X132506509Y-71071048D01*
X132516988Y-71079424D01*
X132530434Y-71072356D01*
X133231978Y-70370812D01*
X133239592Y-70356868D01*
X133239461Y-70355035D01*
X133235210Y-70348420D01*
X132529713Y-69642923D01*
X132517938Y-69636493D01*
X132505923Y-69645789D01*
X132470069Y-69696994D01*
X132464586Y-69706489D01*
X132372510Y-69903947D01*
X132368764Y-69914239D01*
X132312375Y-70124688D01*
X132310472Y-70135481D01*
X132291483Y-70352525D01*
X132291483Y-70363475D01*
X100696485Y-70363475D01*
X100047032Y-69714022D01*
X100033088Y-69706408D01*
X100031255Y-69706539D01*
X100024640Y-69710790D01*
X99032264Y-70703166D01*
X99025606Y-70715359D01*
X94212331Y-70715359D01*
X94235965Y-70652316D01*
X94242720Y-70590134D01*
X94242720Y-69301835D01*
X98322242Y-69301835D01*
X98333974Y-69546064D01*
X98335111Y-69555324D01*
X98382813Y-69795143D01*
X98385302Y-69804118D01*
X98467928Y-70034250D01*
X98471725Y-70042778D01*
X98587454Y-70258160D01*
X98592465Y-70266027D01*
X98649393Y-70342263D01*
X98660651Y-70350712D01*
X98673070Y-70343940D01*
X99662198Y-69354812D01*
X99668576Y-69343132D01*
X100398628Y-69343132D01*
X100398759Y-69344965D01*
X100403010Y-69351580D01*
X101397952Y-70346522D01*
X101410332Y-70353282D01*
X101418673Y-70347038D01*
X101536920Y-70163202D01*
X101541367Y-70155011D01*
X101641792Y-69932076D01*
X101644987Y-69923298D01*
X101711355Y-69687973D01*
X101713213Y-69678844D01*
X101744264Y-69434770D01*
X101744745Y-69428483D01*
X101746926Y-69345160D01*
X101746775Y-69338851D01*
X101728541Y-69093486D01*
X101727164Y-69084280D01*
X101673199Y-68845786D01*
X101670475Y-68836875D01*
X101581853Y-68608983D01*
X101577839Y-68600567D01*
X101456504Y-68388276D01*
X101451294Y-68380553D01*
X101420007Y-68340865D01*
X101408083Y-68332395D01*
X101396548Y-68338882D01*
X100406242Y-69329188D01*
X100398628Y-69343132D01*
X99668576Y-69343132D01*
X99669812Y-69340868D01*
X99669681Y-69339035D01*
X99665430Y-69332420D01*
X98671048Y-68338038D01*
X98657740Y-68330771D01*
X98647701Y-68337893D01*
X98642801Y-68343784D01*
X98637388Y-68351373D01*
X98510542Y-68560409D01*
X98506304Y-68568726D01*
X98411749Y-68794214D01*
X98408792Y-68803052D01*
X98348604Y-69040042D01*
X98346983Y-69049232D01*
X98322487Y-69292510D01*
X98322242Y-69301835D01*
X94242720Y-69301835D01*
X94242720Y-68093866D01*
X94235965Y-68031684D01*
X94211685Y-67966917D01*
X99023550Y-67966917D01*
X99028123Y-67976693D01*
X100021408Y-68969978D01*
X100035352Y-68977592D01*
X100037185Y-68977461D01*
X100043800Y-68973210D01*
X101036708Y-67980302D01*
X101043092Y-67968612D01*
X101033680Y-67956502D01*
X100907364Y-67868873D01*
X100899336Y-67864145D01*
X100680030Y-67755995D01*
X100671397Y-67752507D01*
X100438508Y-67677958D01*
X100429458Y-67675785D01*
X100188111Y-67636480D01*
X100178822Y-67635668D01*
X99934334Y-67632467D01*
X99925023Y-67633037D01*
X99682742Y-67666010D01*
X99673623Y-67667948D01*
X99438888Y-67736367D01*
X99430135Y-67739639D01*
X99208089Y-67842004D01*
X99199934Y-67846524D01*
X99032688Y-67956175D01*
X99023550Y-67966917D01*
X94211685Y-67966917D01*
X94184835Y-67895295D01*
X94097481Y-67778739D01*
X93980925Y-67691385D01*
X93844536Y-67640255D01*
X93782354Y-67633500D01*
X91286086Y-67633500D01*
X91223904Y-67640255D01*
X91087515Y-67691385D01*
X90970959Y-67778739D01*
X90883605Y-67895295D01*
X90832475Y-68031684D01*
X90825720Y-68093866D01*
X90825720Y-70590134D01*
X80524924Y-70590134D01*
X79648812Y-69714022D01*
X79634868Y-69706408D01*
X79633035Y-69706539D01*
X79626420Y-69710790D01*
X78634044Y-70703166D01*
X78627386Y-70715359D01*
X73814111Y-70715359D01*
X73837745Y-70652316D01*
X73844500Y-70590134D01*
X73844500Y-69301835D01*
X77924022Y-69301835D01*
X77935754Y-69546064D01*
X77936891Y-69555324D01*
X77984593Y-69795143D01*
X77987082Y-69804118D01*
X78069708Y-70034250D01*
X78073505Y-70042778D01*
X78189234Y-70258160D01*
X78194245Y-70266027D01*
X78251173Y-70342263D01*
X78262431Y-70350712D01*
X78274850Y-70343940D01*
X79263978Y-69354812D01*
X79270356Y-69343132D01*
X80000408Y-69343132D01*
X80000539Y-69344965D01*
X80004790Y-69351580D01*
X80999732Y-70346522D01*
X81012112Y-70353282D01*
X81020453Y-70347038D01*
X81138700Y-70163202D01*
X81143147Y-70155011D01*
X81243572Y-69932076D01*
X81246767Y-69923298D01*
X81313135Y-69687973D01*
X81314993Y-69678844D01*
X81346044Y-69434770D01*
X81346525Y-69428483D01*
X81348706Y-69345160D01*
X81348555Y-69338851D01*
X81330321Y-69093486D01*
X81328944Y-69084280D01*
X81274979Y-68845786D01*
X81272255Y-68836875D01*
X81183633Y-68608983D01*
X81179619Y-68600567D01*
X81058284Y-68388276D01*
X81053074Y-68380553D01*
X81021787Y-68340865D01*
X81009863Y-68332395D01*
X80998328Y-68338882D01*
X80008022Y-69329188D01*
X80000408Y-69343132D01*
X79270356Y-69343132D01*
X79271592Y-69340868D01*
X79271461Y-69339035D01*
X79267210Y-69332420D01*
X78272828Y-68338038D01*
X78259520Y-68330771D01*
X78249481Y-68337893D01*
X78244581Y-68343784D01*
X78239168Y-68351373D01*
X78112322Y-68560409D01*
X78108084Y-68568726D01*
X78013529Y-68794214D01*
X78010572Y-68803052D01*
X77950384Y-69040042D01*
X77948763Y-69049232D01*
X77924267Y-69292510D01*
X77924022Y-69301835D01*
X73844500Y-69301835D01*
X73844500Y-68093866D01*
X73837745Y-68031684D01*
X73813465Y-67966917D01*
X78625330Y-67966917D01*
X78629903Y-67976693D01*
X79623188Y-68969978D01*
X79637132Y-68977592D01*
X79638965Y-68977461D01*
X79645580Y-68973210D01*
X80638488Y-67980302D01*
X80644872Y-67968612D01*
X80635460Y-67956502D01*
X80509144Y-67868873D01*
X80501116Y-67864145D01*
X80281810Y-67755995D01*
X80273177Y-67752507D01*
X80040288Y-67677958D01*
X80031238Y-67675785D01*
X79789891Y-67636480D01*
X79780602Y-67635668D01*
X79536114Y-67632467D01*
X79526803Y-67633037D01*
X79284522Y-67666010D01*
X79275403Y-67667948D01*
X79040668Y-67736367D01*
X79031915Y-67739639D01*
X78809869Y-67842004D01*
X78801714Y-67846524D01*
X78634468Y-67956175D01*
X78625330Y-67966917D01*
X73813465Y-67966917D01*
X73786615Y-67895295D01*
X73699261Y-67778739D01*
X73582705Y-67691385D01*
X73446316Y-67640255D01*
X73384134Y-67633500D01*
X70887866Y-67633500D01*
X70825684Y-67640255D01*
X70689295Y-67691385D01*
X70572739Y-67778739D01*
X70485385Y-67895295D01*
X70434255Y-68031684D01*
X70427500Y-68093866D01*
X70427500Y-70590134D01*
X58759740Y-70590134D01*
X58768927Y-70575142D01*
X58884483Y-70311898D01*
X58963244Y-70035406D01*
X59003751Y-69750784D01*
X59003845Y-69732951D01*
X59005235Y-69467583D01*
X59005235Y-69467576D01*
X59005257Y-69463297D01*
X59001502Y-69434770D01*
X58973040Y-69218586D01*
X58967732Y-69178266D01*
X58891871Y-68900964D01*
X58779077Y-68636524D01*
X58631439Y-68389839D01*
X58451687Y-68165472D01*
X58302907Y-68024285D01*
X58246258Y-67970527D01*
X58246255Y-67970525D01*
X58243149Y-67967577D01*
X58009683Y-67799814D01*
X57987843Y-67788250D01*
X57959716Y-67773358D01*
X57755608Y-67665288D01*
X57485627Y-67566489D01*
X57204736Y-67505245D01*
X57173685Y-67502801D01*
X56981718Y-67487693D01*
X56981709Y-67487693D01*
X56979261Y-67487500D01*
X56823729Y-67487500D01*
X56821593Y-67487646D01*
X56821582Y-67487646D01*
X56613452Y-67501835D01*
X56613446Y-67501836D01*
X56609175Y-67502127D01*
X56604980Y-67502996D01*
X56604978Y-67502996D01*
X56507257Y-67523233D01*
X56327658Y-67560426D01*
X56056657Y-67656393D01*
X55801188Y-67788250D01*
X55797687Y-67790711D01*
X55797683Y-67790713D01*
X55713985Y-67849537D01*
X55565977Y-67953559D01*
X55552249Y-67966316D01*
X55418645Y-68090469D01*
X55355378Y-68149260D01*
X55173287Y-68371732D01*
X55023073Y-68616858D01*
X54907517Y-68880102D01*
X54828756Y-69156594D01*
X54788249Y-69441216D01*
X54788227Y-69445505D01*
X54788226Y-69445512D01*
X54786765Y-69724417D01*
X54786743Y-69728703D01*
X49276000Y-69728703D01*
X49276000Y-60284669D01*
X108003001Y-60284669D01*
X108003371Y-60291490D01*
X108008895Y-60342352D01*
X108012521Y-60357604D01*
X108057676Y-60478054D01*
X108066214Y-60493649D01*
X108142715Y-60595724D01*
X108155276Y-60608285D01*
X108257351Y-60684786D01*
X108272946Y-60693324D01*
X108393394Y-60738478D01*
X108408649Y-60742105D01*
X108459514Y-60747631D01*
X108466328Y-60748000D01*
X110538885Y-60748000D01*
X110554124Y-60743525D01*
X110555329Y-60742135D01*
X110557000Y-60734452D01*
X110557000Y-60729884D01*
X111065000Y-60729884D01*
X111069475Y-60745123D01*
X111070865Y-60746328D01*
X111078548Y-60747999D01*
X113155669Y-60747999D01*
X113162490Y-60747629D01*
X113213352Y-60742105D01*
X113228604Y-60738479D01*
X113349054Y-60693324D01*
X113364649Y-60684786D01*
X113466724Y-60608285D01*
X113479285Y-60595724D01*
X113555786Y-60493649D01*
X113564324Y-60478054D01*
X113609478Y-60357606D01*
X113613105Y-60342351D01*
X113618631Y-60291486D01*
X113619000Y-60284672D01*
X113619000Y-59962115D01*
X113614525Y-59946876D01*
X113613135Y-59945671D01*
X113605452Y-59944000D01*
X111083115Y-59944000D01*
X111067876Y-59948475D01*
X111066671Y-59949865D01*
X111065000Y-59957548D01*
X111065000Y-60729884D01*
X110557000Y-60729884D01*
X110557000Y-59962115D01*
X110552525Y-59946876D01*
X110551135Y-59945671D01*
X110543452Y-59944000D01*
X108021116Y-59944000D01*
X108005877Y-59948475D01*
X108004672Y-59949865D01*
X108003001Y-59957548D01*
X108003001Y-60284669D01*
X49276000Y-60284669D01*
X49276000Y-59417885D01*
X108003000Y-59417885D01*
X108007475Y-59433124D01*
X108008865Y-59434329D01*
X108016548Y-59436000D01*
X110538885Y-59436000D01*
X110554124Y-59431525D01*
X110555329Y-59430135D01*
X110557000Y-59422452D01*
X110557000Y-59417885D01*
X111065000Y-59417885D01*
X111069475Y-59433124D01*
X111070865Y-59434329D01*
X111078548Y-59436000D01*
X113600884Y-59436000D01*
X113616123Y-59431525D01*
X113617328Y-59430135D01*
X113618999Y-59422452D01*
X113618999Y-59095331D01*
X113618629Y-59088510D01*
X113613105Y-59037648D01*
X113609479Y-59022396D01*
X113564324Y-58901946D01*
X113555786Y-58886351D01*
X113479285Y-58784276D01*
X113466724Y-58771715D01*
X113364649Y-58695214D01*
X113349054Y-58686676D01*
X113228606Y-58641522D01*
X113213351Y-58637895D01*
X113162486Y-58632369D01*
X113155672Y-58632000D01*
X111083115Y-58632000D01*
X111067876Y-58636475D01*
X111066671Y-58637865D01*
X111065000Y-58645548D01*
X111065000Y-59417885D01*
X110557000Y-59417885D01*
X110557000Y-58650116D01*
X110552525Y-58634877D01*
X110551135Y-58633672D01*
X110543452Y-58632001D01*
X108466331Y-58632001D01*
X108459510Y-58632371D01*
X108408648Y-58637895D01*
X108393396Y-58641521D01*
X108272946Y-58686676D01*
X108257351Y-58695214D01*
X108155276Y-58771715D01*
X108142715Y-58784276D01*
X108066214Y-58886351D01*
X108057676Y-58901946D01*
X108012522Y-59022394D01*
X108008895Y-59037649D01*
X108003369Y-59088514D01*
X108003000Y-59095328D01*
X108003000Y-59417885D01*
X49276000Y-59417885D01*
X49276000Y-50980277D01*
X53386735Y-50980277D01*
X53424705Y-51268687D01*
X53501465Y-51549276D01*
X53503149Y-51553224D01*
X53606742Y-51796093D01*
X53615596Y-51816852D01*
X53764985Y-52066462D01*
X53767669Y-52069813D01*
X53767671Y-52069815D01*
X53854907Y-52178703D01*
X53946867Y-52293489D01*
X54157878Y-52493731D01*
X54394113Y-52663483D01*
X54651200Y-52799603D01*
X54655223Y-52801075D01*
X54655227Y-52801077D01*
X54919242Y-52897693D01*
X54924382Y-52899574D01*
X55208604Y-52961544D01*
X55233381Y-52963494D01*
X55434297Y-52979307D01*
X55434304Y-52979307D01*
X55436753Y-52979500D01*
X58344121Y-52979500D01*
X58346257Y-52979354D01*
X58346268Y-52979354D01*
X58556949Y-52964991D01*
X58556955Y-52964990D01*
X58561226Y-52964699D01*
X58565421Y-52963830D01*
X58565423Y-52963830D01*
X58723225Y-52931151D01*
X58846081Y-52905709D01*
X59120295Y-52808605D01*
X59254935Y-52739112D01*
X59374986Y-52677149D01*
X59374987Y-52677149D01*
X59378793Y-52675184D01*
X59382294Y-52672723D01*
X59382298Y-52672721D01*
X59520963Y-52575265D01*
X59616792Y-52507915D01*
X59829888Y-52309894D01*
X59840895Y-52296447D01*
X60011423Y-52088102D01*
X60014139Y-52084784D01*
X60113486Y-51922665D01*
X60166134Y-51875034D01*
X60220919Y-51862500D01*
X65169724Y-51862500D01*
X65183332Y-51863237D01*
X65215179Y-51866697D01*
X65215183Y-51866697D01*
X65221304Y-51867362D01*
X65258172Y-51864137D01*
X65271690Y-51862954D01*
X65276518Y-51862625D01*
X65279073Y-51862500D01*
X65282157Y-51862500D01*
X65297531Y-51860992D01*
X65325219Y-51858278D01*
X65326532Y-51858156D01*
X65366629Y-51854648D01*
X65419892Y-51849988D01*
X65425052Y-51848489D01*
X65430394Y-51847965D01*
X65520096Y-51820883D01*
X65521256Y-51820539D01*
X65611322Y-51794372D01*
X65616090Y-51791900D01*
X65621232Y-51790348D01*
X65626677Y-51787453D01*
X65626684Y-51787450D01*
X65703950Y-51746367D01*
X65705054Y-51745787D01*
X65788304Y-51702634D01*
X65792503Y-51699282D01*
X65797244Y-51696761D01*
X65817346Y-51680366D01*
X65869829Y-51637562D01*
X65870855Y-51636734D01*
X65907564Y-51607429D01*
X65907565Y-51607428D01*
X65910316Y-51605232D01*
X65912811Y-51602737D01*
X65913605Y-51602027D01*
X65917960Y-51598307D01*
X65946951Y-51574663D01*
X65946954Y-51574660D01*
X65951726Y-51570768D01*
X65970313Y-51548301D01*
X65981211Y-51535127D01*
X65989200Y-51526348D01*
X70311848Y-47203700D01*
X70374160Y-47169674D01*
X70414653Y-47167633D01*
X70418050Y-47168278D01*
X70422727Y-47168462D01*
X70422729Y-47168462D01*
X70667125Y-47178064D01*
X70667130Y-47178064D01*
X70671793Y-47178247D01*
X70770774Y-47167407D01*
X70919569Y-47151112D01*
X70919575Y-47151111D01*
X70924222Y-47150602D01*
X71033680Y-47121784D01*
X71165273Y-47087138D01*
X71169793Y-47085948D01*
X71288353Y-47035011D01*
X71398807Y-46987557D01*
X71398810Y-46987555D01*
X71403110Y-46985708D01*
X71407090Y-46983245D01*
X71407094Y-46983243D01*
X71615064Y-46854547D01*
X71615066Y-46854545D01*
X71619047Y-46852082D01*
X71717428Y-46768797D01*
X71809289Y-46691031D01*
X71809291Y-46691029D01*
X71812862Y-46688006D01*
X71980295Y-46497084D01*
X71991256Y-46480044D01*
X72115141Y-46287442D01*
X72117669Y-46283512D01*
X72221967Y-46051980D01*
X72290896Y-45807575D01*
X72322943Y-45555667D01*
X72325291Y-45466000D01*
X72306472Y-45212759D01*
X72250428Y-44965082D01*
X72248735Y-44960728D01*
X72248733Y-44960721D01*
X72213370Y-44869786D01*
X72207323Y-44799047D01*
X72241708Y-44735024D01*
X73124327Y-43852405D01*
X73186639Y-43818379D01*
X73213422Y-43815500D01*
X125471266Y-43815500D01*
X125539387Y-43835502D01*
X125585880Y-43889158D01*
X125595984Y-43959432D01*
X125566490Y-44024012D01*
X125540351Y-44046872D01*
X125452928Y-44104189D01*
X125452923Y-44104193D01*
X125449015Y-44106755D01*
X125259562Y-44275848D01*
X125097183Y-44471087D01*
X124965447Y-44688182D01*
X124963638Y-44692496D01*
X124963637Y-44692498D01*
X124921426Y-44793161D01*
X124867246Y-44922365D01*
X124804738Y-45168490D01*
X124779296Y-45421151D01*
X124791480Y-45674798D01*
X124792393Y-45679386D01*
X124828081Y-45858801D01*
X124841021Y-45923857D01*
X124842600Y-45928255D01*
X124842602Y-45928262D01*
X124899996Y-46088116D01*
X124926831Y-46162858D01*
X124929048Y-46166984D01*
X124967465Y-46238481D01*
X125047025Y-46386551D01*
X125049820Y-46390294D01*
X125049822Y-46390297D01*
X125196171Y-46586282D01*
X125196176Y-46586288D01*
X125198963Y-46590020D01*
X125202272Y-46593300D01*
X125202277Y-46593306D01*
X125375990Y-46765509D01*
X125379307Y-46768797D01*
X125383069Y-46771555D01*
X125383072Y-46771558D01*
X125488764Y-46849054D01*
X125584094Y-46918953D01*
X125588229Y-46921129D01*
X125588233Y-46921131D01*
X125706289Y-46983243D01*
X125808827Y-47037191D01*
X126048568Y-47120912D01*
X126298050Y-47168278D01*
X126418532Y-47173011D01*
X126547125Y-47178064D01*
X126547130Y-47178064D01*
X126551793Y-47178247D01*
X126662783Y-47166092D01*
X126732677Y-47178559D01*
X126784734Y-47226835D01*
X126802500Y-47291343D01*
X126802500Y-49862831D01*
X126782498Y-49930952D01*
X126728842Y-49977445D01*
X126658568Y-49987549D01*
X126625252Y-49977938D01*
X126526323Y-49933892D01*
X126526315Y-49933889D01*
X126520288Y-49931206D01*
X126426888Y-49911353D01*
X126339944Y-49892872D01*
X126339939Y-49892872D01*
X126333487Y-49891500D01*
X126142513Y-49891500D01*
X126136061Y-49892872D01*
X126136056Y-49892872D01*
X126049112Y-49911353D01*
X125955712Y-49931206D01*
X125949682Y-49933891D01*
X125949681Y-49933891D01*
X125787278Y-50006197D01*
X125787276Y-50006198D01*
X125781248Y-50008882D01*
X125626747Y-50121134D01*
X125622332Y-50126037D01*
X125617420Y-50130460D01*
X125615779Y-50128638D01*
X125564790Y-50160050D01*
X125531601Y-50164500D01*
X113109032Y-50164500D01*
X113097793Y-50163970D01*
X113090281Y-50162291D01*
X113082356Y-50162540D01*
X113082355Y-50162540D01*
X113021970Y-50164438D01*
X113018012Y-50164500D01*
X112990017Y-50164500D01*
X112986083Y-50164997D01*
X112986081Y-50164997D01*
X112985994Y-50165008D01*
X112974160Y-50165940D01*
X112929795Y-50167335D01*
X112922182Y-50169547D01*
X112922181Y-50169547D01*
X112910252Y-50173013D01*
X112890888Y-50177023D01*
X112878560Y-50178580D01*
X112878558Y-50178580D01*
X112870701Y-50179573D01*
X112863337Y-50182489D01*
X112863332Y-50182490D01*
X112829444Y-50195907D01*
X112818215Y-50199752D01*
X112801535Y-50204598D01*
X112775607Y-50212131D01*
X112768780Y-50216169D01*
X112768777Y-50216170D01*
X112758094Y-50222488D01*
X112740336Y-50231188D01*
X112728785Y-50235761D01*
X112728779Y-50235765D01*
X112721412Y-50238681D01*
X112715001Y-50243339D01*
X112714999Y-50243340D01*
X112685512Y-50264764D01*
X112675590Y-50271281D01*
X112644232Y-50289826D01*
X112644228Y-50289829D01*
X112637402Y-50293866D01*
X112623018Y-50308250D01*
X112607984Y-50321091D01*
X112591513Y-50333058D01*
X112586460Y-50339166D01*
X112563223Y-50367255D01*
X112555233Y-50376035D01*
X110417517Y-52513750D01*
X110409191Y-52521326D01*
X110402697Y-52525447D01*
X110397274Y-52531222D01*
X110355915Y-52575265D01*
X110353160Y-52578107D01*
X110333361Y-52597906D01*
X110330937Y-52601031D01*
X110330929Y-52601040D01*
X110330863Y-52601126D01*
X110323155Y-52610151D01*
X110292783Y-52642494D01*
X110288965Y-52649438D01*
X110288964Y-52649440D01*
X110282978Y-52660329D01*
X110272127Y-52676847D01*
X110259650Y-52692933D01*
X110242024Y-52733666D01*
X110236807Y-52744314D01*
X110215431Y-52783197D01*
X110213460Y-52790872D01*
X110213458Y-52790878D01*
X110210369Y-52802911D01*
X110203966Y-52821613D01*
X110195883Y-52840292D01*
X110190524Y-52874128D01*
X110188940Y-52884127D01*
X110186535Y-52895740D01*
X110175500Y-52938718D01*
X110175500Y-52959065D01*
X110173949Y-52978776D01*
X110173834Y-52979500D01*
X110170765Y-52998879D01*
X110171511Y-53006771D01*
X110174941Y-53043056D01*
X110175500Y-53054914D01*
X110175500Y-53425500D01*
X110155498Y-53493621D01*
X110101842Y-53540114D01*
X110049500Y-53551500D01*
X108462866Y-53551500D01*
X108400684Y-53558255D01*
X108264295Y-53609385D01*
X108147739Y-53696739D01*
X108060385Y-53813295D01*
X108009255Y-53949684D01*
X108002500Y-54011866D01*
X108002500Y-55208134D01*
X108009255Y-55270316D01*
X108060385Y-55406705D01*
X108147739Y-55523261D01*
X108264295Y-55610615D01*
X108400684Y-55661745D01*
X108462866Y-55668500D01*
X113159134Y-55668500D01*
X113221316Y-55661745D01*
X113357705Y-55610615D01*
X113474261Y-55523261D01*
X113561615Y-55406705D01*
X113612745Y-55270316D01*
X113619500Y-55208134D01*
X113619500Y-54011866D01*
X113612745Y-53949684D01*
X113561615Y-53813295D01*
X113474261Y-53696739D01*
X113357705Y-53609385D01*
X113221316Y-53558255D01*
X113159134Y-53551500D01*
X111572500Y-53551500D01*
X111504379Y-53531498D01*
X111457886Y-53477842D01*
X111446500Y-53425500D01*
X111446500Y-53334422D01*
X111466502Y-53266301D01*
X111483405Y-53245327D01*
X113256328Y-51472405D01*
X113318640Y-51438379D01*
X113345423Y-51435500D01*
X114654002Y-51435500D01*
X114722123Y-51455502D01*
X114768616Y-51509158D01*
X114778720Y-51579432D01*
X114771984Y-51605728D01*
X114759255Y-51639684D01*
X114752500Y-51701866D01*
X114752500Y-61937367D01*
X114732498Y-62005488D01*
X114715595Y-62026462D01*
X111983670Y-64758387D01*
X111921358Y-64792413D01*
X111884692Y-64794904D01*
X111706000Y-64780840D01*
X111469289Y-64799470D01*
X111464482Y-64800624D01*
X111464476Y-64800625D01*
X111318609Y-64835645D01*
X111238406Y-64854900D01*
X111233835Y-64856793D01*
X111233833Y-64856794D01*
X111023611Y-64943870D01*
X111023607Y-64943872D01*
X111019037Y-64945765D01*
X111014817Y-64948351D01*
X110820798Y-65067246D01*
X110820792Y-65067250D01*
X110816584Y-65069829D01*
X110706624Y-65163744D01*
X110646212Y-65215341D01*
X110636031Y-65224036D01*
X110481824Y-65404589D01*
X110479245Y-65408797D01*
X110479241Y-65408803D01*
X110360346Y-65602822D01*
X110357760Y-65607042D01*
X110266895Y-65826411D01*
X110265740Y-65831223D01*
X110221301Y-66016325D01*
X110211465Y-66057294D01*
X110192835Y-66294005D01*
X110211465Y-66530716D01*
X110266895Y-66761599D01*
X110357760Y-66980968D01*
X110360346Y-66985188D01*
X110479241Y-67179207D01*
X110479245Y-67179213D01*
X110481824Y-67183421D01*
X110584734Y-67303913D01*
X110629660Y-67356514D01*
X110636031Y-67363974D01*
X110639787Y-67367182D01*
X110660270Y-67384676D01*
X110816584Y-67518181D01*
X110820792Y-67520760D01*
X110820798Y-67520764D01*
X111005369Y-67633869D01*
X111019037Y-67642245D01*
X111023607Y-67644138D01*
X111023611Y-67644140D01*
X111233833Y-67731216D01*
X111238406Y-67733110D01*
X111318609Y-67752365D01*
X111464476Y-67787385D01*
X111464482Y-67787386D01*
X111469289Y-67788540D01*
X111706000Y-67807170D01*
X111942711Y-67788540D01*
X111947518Y-67787386D01*
X111947524Y-67787385D01*
X112093391Y-67752365D01*
X112173594Y-67733110D01*
X112178167Y-67731216D01*
X112388389Y-67644140D01*
X112388393Y-67644138D01*
X112392963Y-67642245D01*
X112406631Y-67633869D01*
X112591202Y-67520764D01*
X112591208Y-67520760D01*
X112595416Y-67518181D01*
X112751730Y-67384676D01*
X112772213Y-67367182D01*
X112775969Y-67363974D01*
X112782341Y-67356514D01*
X112827266Y-67303913D01*
X112930176Y-67183421D01*
X112932755Y-67179213D01*
X112932759Y-67179207D01*
X113051654Y-66985188D01*
X113054240Y-66980968D01*
X113145105Y-66761599D01*
X113200535Y-66530716D01*
X113219165Y-66294005D01*
X113218777Y-66289075D01*
X113205101Y-66115306D01*
X113219697Y-66045826D01*
X113241618Y-66016325D01*
X116162538Y-63095405D01*
X116224850Y-63061379D01*
X116251633Y-63058500D01*
X124709134Y-63058500D01*
X124771316Y-63051745D01*
X124907705Y-63000615D01*
X125024261Y-62913261D01*
X125111615Y-62796705D01*
X125162745Y-62660316D01*
X125169500Y-62598134D01*
X125169500Y-51701866D01*
X125162745Y-51639684D01*
X125150016Y-51605729D01*
X125144833Y-51534923D01*
X125178753Y-51472554D01*
X125241009Y-51438425D01*
X125267998Y-51435500D01*
X125531601Y-51435500D01*
X125599722Y-51455502D01*
X125616908Y-51470109D01*
X125617420Y-51469540D01*
X125622332Y-51473963D01*
X125626747Y-51478866D01*
X125632086Y-51482745D01*
X125766217Y-51580197D01*
X125781248Y-51591118D01*
X125787276Y-51593802D01*
X125787278Y-51593803D01*
X125949679Y-51666108D01*
X125955712Y-51668794D01*
X126035949Y-51685849D01*
X126136056Y-51707128D01*
X126136061Y-51707128D01*
X126142513Y-51708500D01*
X126333487Y-51708500D01*
X126339939Y-51707128D01*
X126339944Y-51707128D01*
X126440051Y-51685849D01*
X126520288Y-51668794D01*
X126526315Y-51666111D01*
X126526323Y-51666108D01*
X126625252Y-51622062D01*
X126695619Y-51612628D01*
X126759916Y-51642735D01*
X126797729Y-51702824D01*
X126802500Y-51737169D01*
X126802500Y-62387367D01*
X126782498Y-62455488D01*
X126765595Y-62476462D01*
X124483670Y-64758387D01*
X124421358Y-64792413D01*
X124384692Y-64794904D01*
X124206000Y-64780840D01*
X123969289Y-64799470D01*
X123964482Y-64800624D01*
X123964476Y-64800625D01*
X123818609Y-64835645D01*
X123738406Y-64854900D01*
X123733835Y-64856793D01*
X123733833Y-64856794D01*
X123523611Y-64943870D01*
X123523607Y-64943872D01*
X123519037Y-64945765D01*
X123514817Y-64948351D01*
X123320798Y-65067246D01*
X123320792Y-65067250D01*
X123316584Y-65069829D01*
X123206624Y-65163744D01*
X123146212Y-65215341D01*
X123136031Y-65224036D01*
X122981824Y-65404589D01*
X122979245Y-65408797D01*
X122979241Y-65408803D01*
X122860346Y-65602822D01*
X122857760Y-65607042D01*
X122766895Y-65826411D01*
X122765740Y-65831223D01*
X122721301Y-66016325D01*
X122711465Y-66057294D01*
X122692835Y-66294005D01*
X122711465Y-66530716D01*
X122766895Y-66761599D01*
X122857760Y-66980968D01*
X122860346Y-66985188D01*
X122979241Y-67179207D01*
X122979245Y-67179213D01*
X122981824Y-67183421D01*
X123084734Y-67303913D01*
X123129660Y-67356514D01*
X123136031Y-67363974D01*
X123139787Y-67367182D01*
X123160270Y-67384676D01*
X123316584Y-67518181D01*
X123320792Y-67520760D01*
X123320798Y-67520764D01*
X123505369Y-67633869D01*
X123519037Y-67642245D01*
X123523607Y-67644138D01*
X123523611Y-67644140D01*
X123733833Y-67731216D01*
X123738406Y-67733110D01*
X123818609Y-67752365D01*
X123964476Y-67787385D01*
X123964482Y-67787386D01*
X123969289Y-67788540D01*
X124206000Y-67807170D01*
X124442711Y-67788540D01*
X124447518Y-67787386D01*
X124447524Y-67787385D01*
X124593391Y-67752365D01*
X124673594Y-67733110D01*
X124678167Y-67731216D01*
X124888389Y-67644140D01*
X124888393Y-67644138D01*
X124892963Y-67642245D01*
X124906631Y-67633869D01*
X125091202Y-67520764D01*
X125091208Y-67520760D01*
X125095416Y-67518181D01*
X125251730Y-67384676D01*
X125272213Y-67367182D01*
X125275969Y-67363974D01*
X125282341Y-67356514D01*
X125327266Y-67303913D01*
X125430176Y-67183421D01*
X125432755Y-67179213D01*
X125432759Y-67179207D01*
X125551654Y-66985188D01*
X125554240Y-66980968D01*
X125645105Y-66761599D01*
X125700535Y-66530716D01*
X125719165Y-66294005D01*
X125718777Y-66289075D01*
X125705101Y-66115306D01*
X125719697Y-66045826D01*
X125741618Y-66016325D01*
X128264454Y-63493489D01*
X128279482Y-63480652D01*
X128290470Y-63472669D01*
X128335249Y-63422937D01*
X128339790Y-63418153D01*
X128353936Y-63404007D01*
X128366543Y-63388439D01*
X128370827Y-63383424D01*
X128411166Y-63338623D01*
X128411167Y-63338622D01*
X128415585Y-63333715D01*
X128422374Y-63321956D01*
X128433567Y-63305671D01*
X128437948Y-63300260D01*
X128437949Y-63300259D01*
X128442106Y-63295125D01*
X128445106Y-63289238D01*
X128472478Y-63235519D01*
X128475624Y-63229724D01*
X128478026Y-63225564D01*
X128509075Y-63171785D01*
X128511117Y-63165501D01*
X128511119Y-63165496D01*
X128513269Y-63158879D01*
X128520834Y-63140615D01*
X128523996Y-63134410D01*
X128523998Y-63134405D01*
X128526994Y-63128525D01*
X128544313Y-63063889D01*
X128546180Y-63057588D01*
X128566855Y-62993956D01*
X128567545Y-62987391D01*
X128567547Y-62987382D01*
X128568275Y-62980457D01*
X128571876Y-62961024D01*
X128573679Y-62954294D01*
X128575388Y-62947916D01*
X128576923Y-62918642D01*
X128578889Y-62881119D01*
X128579406Y-62874545D01*
X128581156Y-62857892D01*
X128581500Y-62854620D01*
X128581500Y-62834587D01*
X128581673Y-62827993D01*
X128584829Y-62767783D01*
X128584829Y-62767778D01*
X128585174Y-62761191D01*
X128583051Y-62747786D01*
X128581500Y-62728076D01*
X128581500Y-46745925D01*
X128583051Y-46726214D01*
X128584142Y-46719327D01*
X128584142Y-46719325D01*
X128585174Y-46712810D01*
X128581673Y-46646008D01*
X128581500Y-46639414D01*
X128581500Y-46619380D01*
X128579406Y-46599454D01*
X128578889Y-46592880D01*
X128575734Y-46532681D01*
X128575734Y-46532678D01*
X128575388Y-46526085D01*
X128571876Y-46512977D01*
X128568275Y-46493544D01*
X128567546Y-46486614D01*
X128567545Y-46486610D01*
X128566855Y-46480044D01*
X128546178Y-46416408D01*
X128544307Y-46410091D01*
X128526994Y-46345475D01*
X128520834Y-46333385D01*
X128513269Y-46315121D01*
X128511119Y-46308504D01*
X128511117Y-46308499D01*
X128509075Y-46302215D01*
X128475624Y-46244276D01*
X128472478Y-46238481D01*
X128445106Y-46184762D01*
X128445104Y-46184759D01*
X128442106Y-46178875D01*
X128437948Y-46173740D01*
X128433567Y-46168329D01*
X128422372Y-46152041D01*
X128415585Y-46140285D01*
X128370827Y-46090576D01*
X128366543Y-46085561D01*
X128356012Y-46072556D01*
X128356009Y-46072552D01*
X128353937Y-46069994D01*
X128339790Y-46055847D01*
X128335249Y-46051063D01*
X128294885Y-46006234D01*
X128294883Y-46006233D01*
X128290470Y-46001331D01*
X128279482Y-45993348D01*
X128264454Y-45980511D01*
X128205056Y-45921113D01*
X128171030Y-45858801D01*
X128170690Y-45808304D01*
X128170896Y-45807575D01*
X128202943Y-45555667D01*
X128205291Y-45466000D01*
X128186472Y-45212759D01*
X128130428Y-44965082D01*
X128112138Y-44918050D01*
X128040084Y-44732762D01*
X128040083Y-44732760D01*
X128038391Y-44728409D01*
X128017866Y-44692498D01*
X127914702Y-44511997D01*
X127914700Y-44511995D01*
X127912383Y-44507940D01*
X127755171Y-44308517D01*
X127570209Y-44134523D01*
X127566377Y-44131865D01*
X127566370Y-44131859D01*
X127441203Y-44045028D01*
X127396632Y-43989764D01*
X127389015Y-43919178D01*
X127420769Y-43855678D01*
X127481813Y-43819426D01*
X127513022Y-43815500D01*
X128970578Y-43815500D01*
X129038699Y-43835502D01*
X129059673Y-43852405D01*
X133185595Y-47978327D01*
X133219621Y-48040639D01*
X133222500Y-48067422D01*
X133222500Y-49328007D01*
X133202498Y-49396128D01*
X133168771Y-49431220D01*
X133018211Y-49536643D01*
X133018208Y-49536645D01*
X133013700Y-49539802D01*
X132851802Y-49701700D01*
X132720477Y-49889251D01*
X132718154Y-49894233D01*
X132718151Y-49894238D01*
X132628188Y-50087166D01*
X132623716Y-50096757D01*
X132622294Y-50102065D01*
X132622293Y-50102067D01*
X132596118Y-50199752D01*
X132564457Y-50317913D01*
X132544502Y-50546000D01*
X132564457Y-50774087D01*
X132565880Y-50779398D01*
X132565882Y-50779409D01*
X132580861Y-50835310D01*
X132579172Y-50906287D01*
X132548250Y-50957017D01*
X132194517Y-51310750D01*
X132186191Y-51318326D01*
X132179697Y-51322447D01*
X132174274Y-51328222D01*
X132132915Y-51372265D01*
X132130160Y-51375107D01*
X132110361Y-51394906D01*
X132107937Y-51398031D01*
X132107929Y-51398040D01*
X132107863Y-51398126D01*
X132100155Y-51407151D01*
X132069783Y-51439494D01*
X132065965Y-51446438D01*
X132065964Y-51446440D01*
X132059978Y-51457329D01*
X132049127Y-51473847D01*
X132036650Y-51489933D01*
X132019024Y-51530666D01*
X132013807Y-51541314D01*
X131992431Y-51580197D01*
X131990460Y-51587872D01*
X131990458Y-51587878D01*
X131987369Y-51599911D01*
X131980966Y-51618613D01*
X131972883Y-51637292D01*
X131971644Y-51645117D01*
X131965940Y-51681127D01*
X131963535Y-51692740D01*
X131952500Y-51735718D01*
X131952500Y-51756065D01*
X131950949Y-51775776D01*
X131947765Y-51795879D01*
X131948511Y-51803771D01*
X131951941Y-51840056D01*
X131952500Y-51851914D01*
X131952500Y-55108108D01*
X131951970Y-55119342D01*
X131950292Y-55126847D01*
X131950541Y-55134766D01*
X131952438Y-55195140D01*
X131952500Y-55199097D01*
X131952500Y-55227111D01*
X131952996Y-55231036D01*
X131952996Y-55231037D01*
X131953008Y-55231132D01*
X131953941Y-55242977D01*
X131955335Y-55287333D01*
X131957547Y-55294945D01*
X131961013Y-55306876D01*
X131965023Y-55326240D01*
X131967573Y-55346427D01*
X131970489Y-55353791D01*
X131970490Y-55353796D01*
X131983907Y-55387684D01*
X131987752Y-55398913D01*
X132000131Y-55441521D01*
X132004169Y-55448348D01*
X132004170Y-55448351D01*
X132010488Y-55459034D01*
X132019188Y-55476792D01*
X132023761Y-55488343D01*
X132023765Y-55488349D01*
X132026681Y-55495716D01*
X132044869Y-55520749D01*
X132052764Y-55531616D01*
X132059281Y-55541538D01*
X132077826Y-55572896D01*
X132077829Y-55572900D01*
X132081866Y-55579726D01*
X132096250Y-55594110D01*
X132109091Y-55609144D01*
X132121058Y-55625615D01*
X132127166Y-55630668D01*
X132155255Y-55653905D01*
X132164035Y-55661895D01*
X134522595Y-58020456D01*
X134556621Y-58082768D01*
X134559500Y-58109551D01*
X134559500Y-69188232D01*
X134539498Y-69256353D01*
X134485842Y-69302846D01*
X134415568Y-69312950D01*
X134361229Y-69291445D01*
X134265006Y-69224069D01*
X134255511Y-69218586D01*
X134058053Y-69126510D01*
X134047761Y-69122764D01*
X133837312Y-69066375D01*
X133826519Y-69064472D01*
X133609475Y-69045483D01*
X133598525Y-69045483D01*
X133381481Y-69064472D01*
X133370688Y-69066375D01*
X133160239Y-69122764D01*
X133149947Y-69126510D01*
X132952489Y-69218586D01*
X132942994Y-69224069D01*
X132890952Y-69260509D01*
X132882576Y-69270988D01*
X132889644Y-69284434D01*
X133874115Y-70268905D01*
X133908141Y-70331217D01*
X133903076Y-70402032D01*
X133874115Y-70447095D01*
X132888923Y-71432287D01*
X132882493Y-71444062D01*
X132891789Y-71456077D01*
X132942994Y-71491931D01*
X132952489Y-71497414D01*
X133149947Y-71589490D01*
X133160239Y-71593236D01*
X133370688Y-71649625D01*
X133381481Y-71651528D01*
X133598525Y-71670517D01*
X133609475Y-71670517D01*
X133826519Y-71651528D01*
X133837312Y-71649625D01*
X134047761Y-71593236D01*
X134058053Y-71589490D01*
X134255511Y-71497414D01*
X134265006Y-71491931D01*
X134361229Y-71424555D01*
X134428503Y-71401867D01*
X134497363Y-71419152D01*
X134545948Y-71470921D01*
X134559500Y-71527768D01*
X134559500Y-73096097D01*
X134539498Y-73164218D01*
X134522595Y-73185192D01*
X132603192Y-75104595D01*
X132540880Y-75138621D01*
X132514097Y-75141500D01*
X129544866Y-75141500D01*
X129482684Y-75148255D01*
X129346295Y-75199385D01*
X129229739Y-75286739D01*
X129142385Y-75403295D01*
X129091255Y-75539684D01*
X129084500Y-75601866D01*
X129084500Y-76798134D01*
X129091255Y-76860316D01*
X129142385Y-76996705D01*
X129229739Y-77113261D01*
X129346295Y-77200615D01*
X129482684Y-77251745D01*
X129544866Y-77258500D01*
X134241134Y-77258500D01*
X134303316Y-77251745D01*
X134439705Y-77200615D01*
X134556261Y-77113261D01*
X134643615Y-76996705D01*
X134694745Y-76860316D01*
X134701500Y-76798134D01*
X134701500Y-75601866D01*
X134694745Y-75539684D01*
X134643615Y-75403295D01*
X134556261Y-75286739D01*
X134479496Y-75229206D01*
X134436981Y-75172348D01*
X134431955Y-75101530D01*
X134465966Y-75039286D01*
X135588477Y-73916775D01*
X135596803Y-73909198D01*
X135603303Y-73905073D01*
X135617150Y-73890327D01*
X135678361Y-73854362D01*
X135749301Y-73857199D01*
X135807445Y-73897938D01*
X135834334Y-73963646D01*
X135835000Y-73976580D01*
X135835000Y-78467885D01*
X135839475Y-78483124D01*
X135840865Y-78484329D01*
X135848548Y-78486000D01*
X140770885Y-78486000D01*
X140786124Y-78481525D01*
X140787329Y-78480135D01*
X140789000Y-78472452D01*
X140789000Y-72850116D01*
X140784525Y-72834877D01*
X140783135Y-72833672D01*
X140775452Y-72832001D01*
X136298331Y-72832001D01*
X136291510Y-72832371D01*
X136240648Y-72837895D01*
X136225396Y-72841521D01*
X136104946Y-72886676D01*
X136089352Y-72895214D01*
X136032065Y-72938148D01*
X135965559Y-72962996D01*
X135896176Y-72947943D01*
X135845946Y-72897769D01*
X135830500Y-72837322D01*
X135830500Y-57873160D01*
X135831030Y-57861921D01*
X135832709Y-57854409D01*
X135830562Y-57786097D01*
X135830500Y-57782140D01*
X135830500Y-57754145D01*
X135829992Y-57750122D01*
X135829059Y-57738280D01*
X135827914Y-57701848D01*
X135827665Y-57693923D01*
X135821987Y-57674379D01*
X135817977Y-57655016D01*
X135816420Y-57642688D01*
X135816420Y-57642686D01*
X135815427Y-57634829D01*
X135812511Y-57627465D01*
X135812510Y-57627460D01*
X135799093Y-57593572D01*
X135795248Y-57582343D01*
X135785081Y-57547350D01*
X135782869Y-57539735D01*
X135778830Y-57532905D01*
X135772512Y-57522222D01*
X135763812Y-57504464D01*
X135759239Y-57492913D01*
X135759235Y-57492907D01*
X135756319Y-57485540D01*
X135730234Y-57449637D01*
X135723719Y-57439718D01*
X135705174Y-57408360D01*
X135705171Y-57408356D01*
X135701134Y-57401530D01*
X135686750Y-57387146D01*
X135673909Y-57372112D01*
X135666602Y-57362055D01*
X135661942Y-57355641D01*
X135627744Y-57327350D01*
X135618965Y-57319361D01*
X134495078Y-56195474D01*
X134461052Y-56133162D01*
X134466117Y-56062347D01*
X134508664Y-56005511D01*
X134514619Y-56001583D01*
X134514749Y-56001523D01*
X134594628Y-55945591D01*
X134697789Y-55873357D01*
X134697792Y-55873355D01*
X134702300Y-55870198D01*
X134864198Y-55708300D01*
X134892067Y-55668500D01*
X134972780Y-55553229D01*
X135028237Y-55508901D01*
X135075993Y-55499500D01*
X136336578Y-55499500D01*
X136404699Y-55519502D01*
X136425673Y-55536405D01*
X139914250Y-59024982D01*
X139948276Y-59087294D01*
X139946862Y-59146688D01*
X139938465Y-59178027D01*
X139930457Y-59207913D01*
X139910502Y-59436000D01*
X139930457Y-59664087D01*
X139931881Y-59669400D01*
X139931881Y-59669402D01*
X139941031Y-59703548D01*
X139989716Y-59885243D01*
X139992039Y-59890224D01*
X139992039Y-59890225D01*
X140084151Y-60087762D01*
X140084154Y-60087767D01*
X140086477Y-60092749D01*
X140217802Y-60280300D01*
X140379700Y-60442198D01*
X140384208Y-60445355D01*
X140384211Y-60445357D01*
X140453179Y-60493649D01*
X140567251Y-60573523D01*
X140572233Y-60575846D01*
X140572238Y-60575849D01*
X140768765Y-60667490D01*
X140774757Y-60670284D01*
X140780065Y-60671706D01*
X140780067Y-60671707D01*
X140990598Y-60728119D01*
X140990600Y-60728119D01*
X140995913Y-60729543D01*
X141224000Y-60749498D01*
X141452087Y-60729543D01*
X141457400Y-60728119D01*
X141457402Y-60728119D01*
X141667933Y-60671707D01*
X141667935Y-60671706D01*
X141673243Y-60670284D01*
X141679235Y-60667490D01*
X141875762Y-60575849D01*
X141875767Y-60575846D01*
X141880749Y-60573523D01*
X141994821Y-60493649D01*
X142063789Y-60445357D01*
X142063792Y-60445355D01*
X142068300Y-60442198D01*
X142230198Y-60280300D01*
X142361523Y-60092749D01*
X142363846Y-60087767D01*
X142363849Y-60087762D01*
X142380081Y-60052951D01*
X142426998Y-59999666D01*
X142495275Y-59980205D01*
X142563235Y-60000747D01*
X142608471Y-60052951D01*
X142624586Y-60087511D01*
X142630069Y-60097007D01*
X142755028Y-60275467D01*
X142762084Y-60283875D01*
X142916125Y-60437916D01*
X142924533Y-60444972D01*
X143102993Y-60569931D01*
X143112489Y-60575414D01*
X143309947Y-60667490D01*
X143320239Y-60671236D01*
X143492503Y-60717394D01*
X143506599Y-60717058D01*
X143510000Y-60709116D01*
X143510000Y-60703967D01*
X144018000Y-60703967D01*
X144021973Y-60717498D01*
X144030522Y-60718727D01*
X144207761Y-60671236D01*
X144218053Y-60667490D01*
X144415511Y-60575414D01*
X144425007Y-60569931D01*
X144603467Y-60444972D01*
X144611875Y-60437916D01*
X144765916Y-60283875D01*
X144772972Y-60275467D01*
X144897931Y-60097007D01*
X144903414Y-60087511D01*
X144995490Y-59890053D01*
X144999236Y-59879761D01*
X145045394Y-59707497D01*
X145045058Y-59693401D01*
X145037116Y-59690000D01*
X144036115Y-59690000D01*
X144020876Y-59694475D01*
X144019671Y-59695865D01*
X144018000Y-59703548D01*
X144018000Y-60703967D01*
X143510000Y-60703967D01*
X143510000Y-59163885D01*
X144018000Y-59163885D01*
X144022475Y-59179124D01*
X144023865Y-59180329D01*
X144031548Y-59182000D01*
X145031967Y-59182000D01*
X145045498Y-59178027D01*
X145046727Y-59169478D01*
X144999236Y-58992239D01*
X144995490Y-58981947D01*
X144903414Y-58784489D01*
X144897931Y-58774993D01*
X144772972Y-58596533D01*
X144765916Y-58588125D01*
X144611875Y-58434084D01*
X144603467Y-58427028D01*
X144425007Y-58302069D01*
X144415511Y-58296586D01*
X144218053Y-58204510D01*
X144207761Y-58200764D01*
X144035497Y-58154606D01*
X144021401Y-58154942D01*
X144018000Y-58162884D01*
X144018000Y-59163885D01*
X143510000Y-59163885D01*
X143510000Y-58168033D01*
X143506027Y-58154502D01*
X143497478Y-58153273D01*
X143320239Y-58200764D01*
X143309947Y-58204510D01*
X143112489Y-58296586D01*
X143102993Y-58302069D01*
X142924533Y-58427028D01*
X142916125Y-58434084D01*
X142762084Y-58588125D01*
X142755028Y-58596533D01*
X142630069Y-58774993D01*
X142624586Y-58784489D01*
X142608471Y-58819049D01*
X142561554Y-58872334D01*
X142493277Y-58891795D01*
X142425317Y-58871253D01*
X142380081Y-58819049D01*
X142363849Y-58784238D01*
X142363846Y-58784233D01*
X142361523Y-58779251D01*
X142288098Y-58674389D01*
X142233357Y-58596211D01*
X142233355Y-58596208D01*
X142230198Y-58591700D01*
X142068300Y-58429802D01*
X142063792Y-58426645D01*
X142063789Y-58426643D01*
X141913229Y-58321220D01*
X141868901Y-58265763D01*
X141859500Y-58218007D01*
X141859500Y-55130522D01*
X142735273Y-55130522D01*
X142782764Y-55307761D01*
X142786510Y-55318053D01*
X142878586Y-55515511D01*
X142884069Y-55525007D01*
X143009028Y-55703467D01*
X143016084Y-55711875D01*
X143170125Y-55865916D01*
X143178533Y-55872972D01*
X143356993Y-55997931D01*
X143366489Y-56003414D01*
X143563947Y-56095490D01*
X143574239Y-56099236D01*
X143746503Y-56145394D01*
X143760599Y-56145058D01*
X143764000Y-56137116D01*
X143764000Y-56131967D01*
X144272000Y-56131967D01*
X144275973Y-56145498D01*
X144284522Y-56146727D01*
X144461761Y-56099236D01*
X144472053Y-56095490D01*
X144669511Y-56003414D01*
X144679007Y-55997931D01*
X144857467Y-55872972D01*
X144865875Y-55865916D01*
X145019916Y-55711875D01*
X145026972Y-55703467D01*
X145151931Y-55525007D01*
X145157414Y-55515511D01*
X145249490Y-55318053D01*
X145253236Y-55307761D01*
X145299394Y-55135497D01*
X145299058Y-55121401D01*
X145291116Y-55118000D01*
X144290115Y-55118000D01*
X144274876Y-55122475D01*
X144273671Y-55123865D01*
X144272000Y-55131548D01*
X144272000Y-56131967D01*
X143764000Y-56131967D01*
X143764000Y-55136115D01*
X143759525Y-55120876D01*
X143758135Y-55119671D01*
X143750452Y-55118000D01*
X142750033Y-55118000D01*
X142736502Y-55121973D01*
X142735273Y-55130522D01*
X141859500Y-55130522D01*
X141859500Y-54592503D01*
X142736606Y-54592503D01*
X142736942Y-54606599D01*
X142744884Y-54610000D01*
X143745885Y-54610000D01*
X143761124Y-54605525D01*
X143762329Y-54604135D01*
X143764000Y-54596452D01*
X143764000Y-54591885D01*
X144272000Y-54591885D01*
X144276475Y-54607124D01*
X144277865Y-54608329D01*
X144285548Y-54610000D01*
X145285967Y-54610000D01*
X145299498Y-54606027D01*
X145300727Y-54597478D01*
X145253236Y-54420239D01*
X145249490Y-54409947D01*
X145157414Y-54212489D01*
X145151931Y-54202993D01*
X145026972Y-54024533D01*
X145019916Y-54016125D01*
X144865875Y-53862084D01*
X144857467Y-53855028D01*
X144679007Y-53730069D01*
X144669511Y-53724586D01*
X144472053Y-53632510D01*
X144461761Y-53628764D01*
X144289497Y-53582606D01*
X144275401Y-53582942D01*
X144272000Y-53590884D01*
X144272000Y-54591885D01*
X143764000Y-54591885D01*
X143764000Y-53596033D01*
X143760027Y-53582502D01*
X143751478Y-53581273D01*
X143574239Y-53628764D01*
X143563947Y-53632510D01*
X143366489Y-53724586D01*
X143356993Y-53730069D01*
X143178533Y-53855028D01*
X143170125Y-53862084D01*
X143016084Y-54016125D01*
X143009028Y-54024533D01*
X142884069Y-54202993D01*
X142878586Y-54212489D01*
X142786510Y-54409947D01*
X142782764Y-54420239D01*
X142736606Y-54592503D01*
X141859500Y-54592503D01*
X141859500Y-53655422D01*
X141879502Y-53587301D01*
X141896405Y-53566327D01*
X143606983Y-51855750D01*
X143669295Y-51821724D01*
X143728690Y-51823139D01*
X143784591Y-51838118D01*
X143784602Y-51838120D01*
X143789913Y-51839543D01*
X144018000Y-51859498D01*
X144246087Y-51839543D01*
X144251400Y-51838119D01*
X144251402Y-51838119D01*
X144461933Y-51781707D01*
X144461935Y-51781706D01*
X144467243Y-51780284D01*
X144497910Y-51765984D01*
X144669762Y-51685849D01*
X144669767Y-51685846D01*
X144674749Y-51683523D01*
X144812259Y-51587237D01*
X144857789Y-51555357D01*
X144857792Y-51555355D01*
X144862300Y-51552198D01*
X145024198Y-51390300D01*
X145034837Y-51375107D01*
X145106452Y-51272829D01*
X145155523Y-51202749D01*
X145157846Y-51197767D01*
X145157849Y-51197762D01*
X145249961Y-51000225D01*
X145249961Y-51000224D01*
X145252284Y-50995243D01*
X145311543Y-50774087D01*
X145331498Y-50546000D01*
X145311543Y-50317913D01*
X145279882Y-50199752D01*
X145253707Y-50102067D01*
X145253706Y-50102065D01*
X145252284Y-50096757D01*
X145247812Y-50087166D01*
X145157849Y-49894238D01*
X145157846Y-49894233D01*
X145155523Y-49889251D01*
X145024198Y-49701700D01*
X144862300Y-49539802D01*
X144857792Y-49536645D01*
X144857789Y-49536643D01*
X144707229Y-49431220D01*
X144674749Y-49408477D01*
X144669767Y-49406154D01*
X144669762Y-49406151D01*
X144472225Y-49314039D01*
X144472224Y-49314039D01*
X144467243Y-49311716D01*
X144461935Y-49310294D01*
X144461933Y-49310293D01*
X144251402Y-49253881D01*
X144251400Y-49253881D01*
X144246087Y-49252457D01*
X144018000Y-49232502D01*
X143789913Y-49252457D01*
X143784600Y-49253881D01*
X143784598Y-49253881D01*
X143574067Y-49310293D01*
X143574065Y-49310294D01*
X143568757Y-49311716D01*
X143563776Y-49314039D01*
X143563775Y-49314039D01*
X143366238Y-49406151D01*
X143366233Y-49406154D01*
X143361251Y-49408477D01*
X143328771Y-49431220D01*
X143178211Y-49536643D01*
X143178208Y-49536645D01*
X143173700Y-49539802D01*
X143011802Y-49701700D01*
X142880477Y-49889251D01*
X142878154Y-49894233D01*
X142878151Y-49894238D01*
X142788188Y-50087166D01*
X142783716Y-50096757D01*
X142782294Y-50102065D01*
X142782293Y-50102067D01*
X142756118Y-50199752D01*
X142724457Y-50317913D01*
X142704502Y-50546000D01*
X142724457Y-50774087D01*
X142725880Y-50779398D01*
X142725882Y-50779409D01*
X142740861Y-50835310D01*
X142739172Y-50906287D01*
X142708250Y-50957017D01*
X140830517Y-52834750D01*
X140822191Y-52842326D01*
X140815697Y-52846447D01*
X140810274Y-52852222D01*
X140768915Y-52896265D01*
X140766160Y-52899107D01*
X140746361Y-52918906D01*
X140743937Y-52922031D01*
X140743929Y-52922040D01*
X140743863Y-52922126D01*
X140736155Y-52931151D01*
X140705783Y-52963494D01*
X140697090Y-52979307D01*
X140695978Y-52981329D01*
X140685127Y-52997847D01*
X140672650Y-53013933D01*
X140655024Y-53054666D01*
X140649807Y-53065314D01*
X140628431Y-53104197D01*
X140626460Y-53111872D01*
X140626458Y-53111878D01*
X140623369Y-53123911D01*
X140616966Y-53142613D01*
X140608883Y-53161292D01*
X140607644Y-53169117D01*
X140601940Y-53205127D01*
X140599535Y-53216740D01*
X140588500Y-53259718D01*
X140588500Y-53280065D01*
X140586949Y-53299776D01*
X140583765Y-53319879D01*
X140584511Y-53327771D01*
X140587941Y-53364056D01*
X140588500Y-53375914D01*
X140588500Y-57597577D01*
X140568498Y-57665698D01*
X140514842Y-57712191D01*
X140444568Y-57722295D01*
X140379988Y-57692801D01*
X140373405Y-57686672D01*
X137157250Y-54470517D01*
X137149674Y-54462191D01*
X137145553Y-54455697D01*
X137095734Y-54408914D01*
X137092893Y-54406160D01*
X137073094Y-54386361D01*
X137069969Y-54383937D01*
X137069960Y-54383929D01*
X137069874Y-54383863D01*
X137060849Y-54376155D01*
X137034285Y-54351210D01*
X137028506Y-54345783D01*
X137010669Y-54335977D01*
X136994153Y-54325127D01*
X136978067Y-54312650D01*
X136937334Y-54295024D01*
X136926686Y-54289807D01*
X136915058Y-54283415D01*
X136887803Y-54268431D01*
X136880128Y-54266460D01*
X136880122Y-54266458D01*
X136868089Y-54263369D01*
X136849387Y-54256966D01*
X136830708Y-54248883D01*
X136796872Y-54243524D01*
X136786873Y-54241940D01*
X136775260Y-54239535D01*
X136732282Y-54228500D01*
X136711935Y-54228500D01*
X136692224Y-54226949D01*
X136679950Y-54225005D01*
X136672121Y-54223765D01*
X136664229Y-54224511D01*
X136627944Y-54227941D01*
X136616086Y-54228500D01*
X135075993Y-54228500D01*
X135007872Y-54208498D01*
X134972780Y-54174771D01*
X134867357Y-54024211D01*
X134867355Y-54024208D01*
X134864198Y-54019700D01*
X134702300Y-53857802D01*
X134697792Y-53854645D01*
X134697789Y-53854643D01*
X134619611Y-53799902D01*
X134514749Y-53726477D01*
X134509767Y-53724154D01*
X134509762Y-53724151D01*
X134312225Y-53632039D01*
X134312224Y-53632039D01*
X134307243Y-53629716D01*
X134301935Y-53628294D01*
X134301933Y-53628293D01*
X134091402Y-53571881D01*
X134091400Y-53571881D01*
X134086087Y-53570457D01*
X133858000Y-53550502D01*
X133629913Y-53570457D01*
X133624600Y-53571881D01*
X133624598Y-53571881D01*
X133414067Y-53628293D01*
X133414065Y-53628294D01*
X133408757Y-53629716D01*
X133403780Y-53632037D01*
X133403774Y-53632039D01*
X133402748Y-53632518D01*
X133402253Y-53632593D01*
X133398602Y-53633922D01*
X133398335Y-53633188D01*
X133332556Y-53643178D01*
X133267744Y-53614197D01*
X133228889Y-53554776D01*
X133223500Y-53518322D01*
X133223500Y-52131422D01*
X133243502Y-52063301D01*
X133260405Y-52042327D01*
X133446982Y-51855750D01*
X133509294Y-51821724D01*
X133568688Y-51823138D01*
X133624598Y-51838119D01*
X133624600Y-51838119D01*
X133629913Y-51839543D01*
X133858000Y-51859498D01*
X134086087Y-51839543D01*
X134091400Y-51838119D01*
X134091402Y-51838119D01*
X134301933Y-51781707D01*
X134301935Y-51781706D01*
X134307243Y-51780284D01*
X134337910Y-51765984D01*
X134509762Y-51685849D01*
X134509767Y-51685846D01*
X134514749Y-51683523D01*
X134652259Y-51587237D01*
X134697789Y-51555357D01*
X134697792Y-51555355D01*
X134702300Y-51552198D01*
X134864198Y-51390300D01*
X134874837Y-51375107D01*
X134946452Y-51272829D01*
X134995523Y-51202749D01*
X134997846Y-51197767D01*
X134997849Y-51197762D01*
X135089961Y-51000225D01*
X135089961Y-51000224D01*
X135092284Y-50995243D01*
X135151543Y-50774087D01*
X135171498Y-50546000D01*
X135151543Y-50317913D01*
X135119882Y-50199752D01*
X135093707Y-50102067D01*
X135093706Y-50102065D01*
X135092284Y-50096757D01*
X135087812Y-50087166D01*
X134997849Y-49894238D01*
X134997846Y-49894233D01*
X134995523Y-49889251D01*
X134864198Y-49701700D01*
X134702300Y-49539802D01*
X134697792Y-49536645D01*
X134697789Y-49536643D01*
X134547229Y-49431220D01*
X134502901Y-49375763D01*
X134493500Y-49328007D01*
X134493500Y-47831020D01*
X134494029Y-47819791D01*
X134495708Y-47812281D01*
X134493562Y-47744001D01*
X134493500Y-47740044D01*
X134493500Y-47712017D01*
X134492989Y-47707971D01*
X134492057Y-47696136D01*
X134490913Y-47659720D01*
X134490664Y-47651795D01*
X134484987Y-47632253D01*
X134480978Y-47612894D01*
X134480819Y-47611633D01*
X134478427Y-47592701D01*
X134475511Y-47585337D01*
X134475510Y-47585332D01*
X134462088Y-47551435D01*
X134458249Y-47540224D01*
X134445868Y-47497607D01*
X134435511Y-47480093D01*
X134426815Y-47462343D01*
X134422239Y-47450785D01*
X134422236Y-47450780D01*
X134419319Y-47443412D01*
X134393233Y-47407507D01*
X134386716Y-47397585D01*
X134368172Y-47366228D01*
X134368170Y-47366225D01*
X134364134Y-47359401D01*
X134349747Y-47345014D01*
X134336906Y-47329980D01*
X134329602Y-47319927D01*
X134324942Y-47313513D01*
X134290750Y-47285227D01*
X134281971Y-47277238D01*
X129791250Y-42786517D01*
X129783674Y-42778191D01*
X129779553Y-42771697D01*
X129729734Y-42724914D01*
X129726893Y-42722160D01*
X129707094Y-42702361D01*
X129703969Y-42699937D01*
X129703960Y-42699929D01*
X129703874Y-42699863D01*
X129694849Y-42692155D01*
X129668285Y-42667210D01*
X129662506Y-42661783D01*
X129644669Y-42651977D01*
X129628153Y-42641127D01*
X129612067Y-42628650D01*
X129571334Y-42611024D01*
X129560686Y-42605807D01*
X129531787Y-42589920D01*
X129521803Y-42584431D01*
X129514128Y-42582460D01*
X129514122Y-42582458D01*
X129502089Y-42579369D01*
X129483387Y-42572966D01*
X129464708Y-42564883D01*
X129424913Y-42558580D01*
X129420873Y-42557940D01*
X129409260Y-42555535D01*
X129366282Y-42544500D01*
X129345935Y-42544500D01*
X129326224Y-42542949D01*
X129313950Y-42541005D01*
X129306121Y-42539765D01*
X129298229Y-42540511D01*
X129261944Y-42543941D01*
X129250086Y-42544500D01*
X72977020Y-42544500D01*
X72965786Y-42543970D01*
X72958281Y-42542292D01*
X72890571Y-42544420D01*
X72889988Y-42544438D01*
X72886031Y-42544500D01*
X72858017Y-42544500D01*
X72854092Y-42544996D01*
X72854091Y-42544996D01*
X72853996Y-42545008D01*
X72842151Y-42545941D01*
X72812330Y-42546878D01*
X72805718Y-42547086D01*
X72805717Y-42547086D01*
X72797795Y-42547335D01*
X72778252Y-42553013D01*
X72758888Y-42557023D01*
X72746560Y-42558580D01*
X72746558Y-42558580D01*
X72738701Y-42559573D01*
X72731337Y-42562489D01*
X72731332Y-42562490D01*
X72697444Y-42575907D01*
X72686215Y-42579752D01*
X72676902Y-42582458D01*
X72643607Y-42592131D01*
X72636781Y-42596168D01*
X72626091Y-42602490D01*
X72608341Y-42611187D01*
X72589412Y-42618681D01*
X72582996Y-42623342D01*
X72582995Y-42623343D01*
X72553519Y-42644759D01*
X72543595Y-42651278D01*
X72512224Y-42669830D01*
X72512219Y-42669834D01*
X72505401Y-42673866D01*
X72491014Y-42688253D01*
X72475980Y-42701094D01*
X72459513Y-42713058D01*
X72454460Y-42719166D01*
X72431228Y-42747249D01*
X72423238Y-42756029D01*
X71344497Y-43834770D01*
X71282185Y-43868796D01*
X71216989Y-43865677D01*
X71016405Y-43801470D01*
X71016407Y-43801470D01*
X71011960Y-43800047D01*
X71007355Y-43799297D01*
X70765935Y-43759980D01*
X70765934Y-43759980D01*
X70761323Y-43759229D01*
X70634364Y-43757567D01*
X70512083Y-43755966D01*
X70512080Y-43755966D01*
X70507406Y-43755905D01*
X70255787Y-43790149D01*
X70011993Y-43861208D01*
X69781380Y-43967522D01*
X69777471Y-43970085D01*
X69572928Y-44104189D01*
X69572923Y-44104193D01*
X69569015Y-44106755D01*
X69379562Y-44275848D01*
X69217183Y-44471087D01*
X69085447Y-44688182D01*
X69083638Y-44692496D01*
X69083637Y-44692498D01*
X69041426Y-44793161D01*
X68987246Y-44922365D01*
X68924738Y-45168490D01*
X68899296Y-45421151D01*
X68899520Y-45425817D01*
X68899520Y-45425822D01*
X68911287Y-45670785D01*
X68894576Y-45739787D01*
X68874527Y-45765925D01*
X64847857Y-49792595D01*
X64785545Y-49826621D01*
X64758762Y-49829500D01*
X60220516Y-49829500D01*
X60152395Y-49809498D01*
X60112400Y-49768206D01*
X60072597Y-49701700D01*
X60027015Y-49625538D01*
X60012337Y-49607216D01*
X59847823Y-49401869D01*
X59845133Y-49398511D01*
X59634122Y-49198269D01*
X59397887Y-49028517D01*
X59140800Y-48892397D01*
X59136777Y-48890925D01*
X59136773Y-48890923D01*
X58871649Y-48793901D01*
X58871647Y-48793900D01*
X58867618Y-48792426D01*
X58583396Y-48730456D01*
X58539598Y-48727009D01*
X58357703Y-48712693D01*
X58357696Y-48712693D01*
X58355247Y-48712500D01*
X55447879Y-48712500D01*
X55445743Y-48712646D01*
X55445732Y-48712646D01*
X55235051Y-48727009D01*
X55235045Y-48727010D01*
X55230774Y-48727301D01*
X55226579Y-48728170D01*
X55226577Y-48728170D01*
X55211130Y-48731369D01*
X54945919Y-48786291D01*
X54671705Y-48883395D01*
X54413207Y-49016816D01*
X54409706Y-49019277D01*
X54409702Y-49019279D01*
X54396558Y-49028517D01*
X54175208Y-49184085D01*
X53962112Y-49382106D01*
X53959398Y-49385422D01*
X53959395Y-49385425D01*
X53845426Y-49524668D01*
X53777861Y-49607216D01*
X53625867Y-49855248D01*
X53624148Y-49859165D01*
X53624146Y-49859168D01*
X53593126Y-49929834D01*
X53508941Y-50121614D01*
X53507765Y-50125742D01*
X53507764Y-50125745D01*
X53493511Y-50175780D01*
X53429246Y-50401384D01*
X53388258Y-50689381D01*
X53388236Y-50693677D01*
X53386857Y-50957017D01*
X53386735Y-50980277D01*
X49276000Y-50980277D01*
X49276000Y-40689328D01*
X49276220Y-40686485D01*
X50676854Y-40686485D01*
X50677156Y-40690320D01*
X50695108Y-40918417D01*
X50702370Y-41010695D01*
X50767206Y-41329378D01*
X50870398Y-41637784D01*
X51010405Y-41931316D01*
X51185141Y-42205597D01*
X51187584Y-42208560D01*
X51187585Y-42208562D01*
X51337308Y-42390190D01*
X51392001Y-42456538D01*
X51627902Y-42680399D01*
X51889326Y-42873843D01*
X52030851Y-42953914D01*
X52169019Y-43032086D01*
X52169023Y-43032088D01*
X52172376Y-43033985D01*
X52472832Y-43158438D01*
X52576288Y-43187129D01*
X52782500Y-43244317D01*
X52782508Y-43244319D01*
X52786216Y-43245347D01*
X53107856Y-43293416D01*
X53111154Y-43293560D01*
X53222918Y-43298440D01*
X53222922Y-43298440D01*
X53224294Y-43298500D01*
X53422598Y-43298500D01*
X53664605Y-43283698D01*
X53668388Y-43282997D01*
X53668395Y-43282996D01*
X53868459Y-43245916D01*
X53984372Y-43224433D01*
X54193682Y-43158438D01*
X54290860Y-43127798D01*
X54290863Y-43127797D01*
X54294532Y-43126640D01*
X54298029Y-43125046D01*
X54298035Y-43125044D01*
X54586954Y-42993376D01*
X54586958Y-42993374D01*
X54590462Y-42991777D01*
X54867751Y-42821854D01*
X54870755Y-42819464D01*
X54870760Y-42819461D01*
X55010385Y-42708398D01*
X55122264Y-42619405D01*
X55124958Y-42616664D01*
X55124962Y-42616660D01*
X55347513Y-42390190D01*
X55347517Y-42390185D01*
X55350208Y-42387447D01*
X55548185Y-42129439D01*
X55713242Y-41849227D01*
X55842920Y-41550988D01*
X55935285Y-41239169D01*
X55988961Y-40918417D01*
X55999087Y-40686485D01*
X141100854Y-40686485D01*
X141101156Y-40690320D01*
X141119108Y-40918417D01*
X141126370Y-41010695D01*
X141191206Y-41329378D01*
X141294398Y-41637784D01*
X141434405Y-41931316D01*
X141609141Y-42205597D01*
X141611584Y-42208560D01*
X141611585Y-42208562D01*
X141761308Y-42390190D01*
X141816001Y-42456538D01*
X142051902Y-42680399D01*
X142313326Y-42873843D01*
X142454851Y-42953914D01*
X142593019Y-43032086D01*
X142593023Y-43032088D01*
X142596376Y-43033985D01*
X142896832Y-43158438D01*
X143000288Y-43187129D01*
X143206500Y-43244317D01*
X143206508Y-43244319D01*
X143210216Y-43245347D01*
X143531856Y-43293416D01*
X143535154Y-43293560D01*
X143646918Y-43298440D01*
X143646922Y-43298440D01*
X143648294Y-43298500D01*
X143846598Y-43298500D01*
X144088605Y-43283698D01*
X144092388Y-43282997D01*
X144092395Y-43282996D01*
X144292459Y-43245916D01*
X144408372Y-43224433D01*
X144617682Y-43158438D01*
X144714860Y-43127798D01*
X144714863Y-43127797D01*
X144718532Y-43126640D01*
X144722029Y-43125046D01*
X144722035Y-43125044D01*
X145010954Y-42993376D01*
X145010958Y-42993374D01*
X145014462Y-42991777D01*
X145291751Y-42821854D01*
X145294755Y-42819464D01*
X145294760Y-42819461D01*
X145434385Y-42708398D01*
X145546264Y-42619405D01*
X145548958Y-42616664D01*
X145548962Y-42616660D01*
X145771513Y-42390190D01*
X145771517Y-42390185D01*
X145774208Y-42387447D01*
X145972185Y-42129439D01*
X146137242Y-41849227D01*
X146266920Y-41550988D01*
X146359285Y-41239169D01*
X146412961Y-40918417D01*
X146427146Y-40593515D01*
X146414388Y-40431410D01*
X146401932Y-40273140D01*
X146401932Y-40273137D01*
X146401630Y-40269305D01*
X146336794Y-39950622D01*
X146233602Y-39642216D01*
X146093595Y-39348684D01*
X145918859Y-39074403D01*
X145771470Y-38895606D01*
X145714442Y-38826425D01*
X145714438Y-38826420D01*
X145711999Y-38823462D01*
X145476098Y-38599601D01*
X145214674Y-38406157D01*
X145009781Y-38290234D01*
X144934981Y-38247914D01*
X144934977Y-38247912D01*
X144931624Y-38246015D01*
X144869111Y-38220121D01*
X144705139Y-38152202D01*
X144631168Y-38121562D01*
X144527712Y-38092871D01*
X144321500Y-38035683D01*
X144321492Y-38035681D01*
X144317784Y-38034653D01*
X143996144Y-37986584D01*
X143992846Y-37986440D01*
X143881082Y-37981560D01*
X143881078Y-37981560D01*
X143879706Y-37981500D01*
X143681402Y-37981500D01*
X143439395Y-37996302D01*
X143435612Y-37997003D01*
X143435605Y-37997004D01*
X143279511Y-38025935D01*
X143119628Y-38055567D01*
X142935058Y-38113762D01*
X142813140Y-38152202D01*
X142813137Y-38152203D01*
X142809468Y-38153360D01*
X142805971Y-38154954D01*
X142805965Y-38154956D01*
X142517046Y-38286624D01*
X142517042Y-38286626D01*
X142513538Y-38288223D01*
X142236249Y-38458146D01*
X142233245Y-38460536D01*
X142233240Y-38460539D01*
X142182902Y-38500580D01*
X141981736Y-38660595D01*
X141979042Y-38663336D01*
X141979038Y-38663340D01*
X141756487Y-38889810D01*
X141756483Y-38889815D01*
X141753792Y-38892553D01*
X141555815Y-39150561D01*
X141390758Y-39430773D01*
X141261080Y-39729012D01*
X141168715Y-40040831D01*
X141115039Y-40361583D01*
X141100854Y-40686485D01*
X55999087Y-40686485D01*
X56003146Y-40593515D01*
X55990388Y-40431410D01*
X55977932Y-40273140D01*
X55977932Y-40273137D01*
X55977630Y-40269305D01*
X55912794Y-39950622D01*
X55809602Y-39642216D01*
X55669595Y-39348684D01*
X55494859Y-39074403D01*
X55347470Y-38895606D01*
X55290442Y-38826425D01*
X55290438Y-38826420D01*
X55287999Y-38823462D01*
X55052098Y-38599601D01*
X54790674Y-38406157D01*
X54585781Y-38290234D01*
X54510981Y-38247914D01*
X54510977Y-38247912D01*
X54507624Y-38246015D01*
X54445111Y-38220121D01*
X54281139Y-38152202D01*
X54207168Y-38121562D01*
X54103712Y-38092871D01*
X53897500Y-38035683D01*
X53897492Y-38035681D01*
X53893784Y-38034653D01*
X53572144Y-37986584D01*
X53568846Y-37986440D01*
X53457082Y-37981560D01*
X53457078Y-37981560D01*
X53455706Y-37981500D01*
X53257402Y-37981500D01*
X53015395Y-37996302D01*
X53011612Y-37997003D01*
X53011605Y-37997004D01*
X52855512Y-38025934D01*
X52695628Y-38055567D01*
X52511058Y-38113762D01*
X52389140Y-38152202D01*
X52389137Y-38152203D01*
X52385468Y-38153360D01*
X52381971Y-38154954D01*
X52381965Y-38154956D01*
X52093046Y-38286624D01*
X52093042Y-38286626D01*
X52089538Y-38288223D01*
X51812249Y-38458146D01*
X51809245Y-38460536D01*
X51809240Y-38460539D01*
X51758902Y-38500580D01*
X51557736Y-38660595D01*
X51555042Y-38663336D01*
X51555038Y-38663340D01*
X51332487Y-38889810D01*
X51332483Y-38889815D01*
X51329792Y-38892553D01*
X51131815Y-39150561D01*
X50966758Y-39430773D01*
X50837080Y-39729012D01*
X50744715Y-40040831D01*
X50691039Y-40361583D01*
X50676854Y-40686485D01*
X49276220Y-40686485D01*
X49277500Y-40669943D01*
X49279805Y-40655142D01*
X49279805Y-40655139D01*
X49281186Y-40646270D01*
X49278584Y-40626374D01*
X49277654Y-40604216D01*
X49293067Y-40270840D01*
X49294141Y-40259251D01*
X49344393Y-39899006D01*
X49346532Y-39887566D01*
X49429807Y-39533504D01*
X49432992Y-39522310D01*
X49462491Y-39434299D01*
X49548582Y-39177438D01*
X49552786Y-39166586D01*
X49699706Y-38833845D01*
X49704886Y-38823440D01*
X49881890Y-38505657D01*
X49888006Y-38495780D01*
X50093566Y-38195699D01*
X50100580Y-38186411D01*
X50332952Y-37906576D01*
X50340793Y-37897976D01*
X50597976Y-37640793D01*
X50606576Y-37632952D01*
X50886411Y-37400580D01*
X50895699Y-37393566D01*
X51195780Y-37188006D01*
X51205657Y-37181890D01*
X51523440Y-37004886D01*
X51533845Y-36999706D01*
X51866586Y-36852786D01*
X51877438Y-36848582D01*
X52049874Y-36790787D01*
X52222319Y-36732989D01*
X52233496Y-36729809D01*
X52587566Y-36646532D01*
X52599006Y-36644393D01*
X52959251Y-36594141D01*
X52970839Y-36593067D01*
X52993258Y-36592031D01*
X53296816Y-36577997D01*
X53322015Y-36579362D01*
X53324858Y-36579805D01*
X53324860Y-36579805D01*
X53333730Y-36581186D01*
X53342632Y-36580022D01*
X53342635Y-36580022D01*
X53365251Y-36577064D01*
X53381589Y-36576000D01*
X143714672Y-36576000D01*
X143734057Y-36577500D01*
G37*
%TD.AperFunction*%
%TD*%
M02*
