%TF.GenerationSoftware,KiCad,Pcbnew,(6.0.1)*%
%TF.CreationDate,2022-01-30T10:49:48+01:00*%
%TF.ProjectId,board_shakercontrol,626f6172-645f-4736-9861-6b6572636f6e,rev?*%
%TF.SameCoordinates,Original*%
%TF.FileFunction,Soldermask,Top*%
%TF.FilePolarity,Negative*%
%FSLAX46Y46*%
G04 Gerber Fmt 4.6, Leading zero omitted, Abs format (unit mm)*
G04 Created by KiCad (PCBNEW (6.0.1)) date 2022-01-30 10:49:48*
%MOMM*%
%LPD*%
G01*
G04 APERTURE LIST*
G04 Aperture macros list*
%AMRoundRect*
0 Rectangle with rounded corners*
0 $1 Rounding radius*
0 $2 $3 $4 $5 $6 $7 $8 $9 X,Y pos of 4 corners*
0 Add a 4 corners polygon primitive as box body*
4,1,4,$2,$3,$4,$5,$6,$7,$8,$9,$2,$3,0*
0 Add four circle primitives for the rounded corners*
1,1,$1+$1,$2,$3*
1,1,$1+$1,$4,$5*
1,1,$1+$1,$6,$7*
1,1,$1+$1,$8,$9*
0 Add four rect primitives between the rounded corners*
20,1,$1+$1,$2,$3,$4,$5,0*
20,1,$1+$1,$4,$5,$6,$7,0*
20,1,$1+$1,$6,$7,$8,$9,0*
20,1,$1+$1,$8,$9,$2,$3,0*%
G04 Aperture macros list end*
%ADD10C,1.600000*%
%ADD11O,1.600000X1.600000*%
%ADD12R,3.200000X3.200000*%
%ADD13C,3.200000*%
%ADD14O,6.000000X3.250000*%
%ADD15R,2.400000X2.400000*%
%ADD16C,2.400000*%
%ADD17C,4.300000*%
%ADD18R,4.600000X1.100000*%
%ADD19R,9.400000X10.800000*%
%ADD20O,2.400000X2.400000*%
%ADD21RoundRect,0.250000X0.620000X0.845000X-0.620000X0.845000X-0.620000X-0.845000X0.620000X-0.845000X0*%
%ADD22O,1.740000X2.190000*%
%ADD23RoundRect,0.250000X1.330000X1.800000X-1.330000X1.800000X-1.330000X-1.800000X1.330000X-1.800000X0*%
%ADD24O,3.160000X4.100000*%
%ADD25R,1.600000X1.600000*%
%ADD26R,1.700000X1.700000*%
%ADD27O,1.700000X1.700000*%
%ADD28C,2.000000*%
G04 APERTURE END LIST*
D10*
%TO.C,R1*%
X133604000Y-70358000D03*
D11*
X143764000Y-70358000D03*
%TD*%
D12*
%TO.C,D1*%
X74138000Y-84994000D03*
D13*
X79218000Y-84994000D03*
X84298000Y-84994000D03*
X89378000Y-84994000D03*
%TD*%
%TO.C,F1*%
X56896000Y-69596000D03*
D14*
X56896000Y-88346000D03*
X56896000Y-50846000D03*
%TD*%
D10*
%TO.C,R3*%
X133858000Y-54864000D03*
D11*
X144018000Y-54864000D03*
%TD*%
D15*
%TO.C,C1*%
X92534220Y-69342000D03*
D16*
X100034220Y-69342000D03*
%TD*%
D17*
%TO.C,REF\u002A\u002A*%
X143764000Y-40640000D03*
%TD*%
D18*
%TO.C,Q1*%
X110811000Y-54610000D03*
D19*
X119961000Y-57150000D03*
D18*
X110811000Y-59690000D03*
%TD*%
D16*
%TO.C,R4*%
X70612000Y-45466000D03*
D20*
X126492000Y-45466000D03*
%TD*%
D21*
%TO.C,J3*%
X134874000Y-96246000D03*
D22*
X132334000Y-96246000D03*
X129794000Y-96246000D03*
%TD*%
D17*
%TO.C,REF\u002A\u002A*%
X53340000Y-98044000D03*
%TD*%
%TO.C,REF\u002A\u002A*%
X143764000Y-98044000D03*
%TD*%
D23*
%TO.C,J1*%
X106472000Y-94383000D03*
D24*
X102512000Y-94383000D03*
X98552000Y-94383000D03*
X94592000Y-94383000D03*
X90632000Y-94383000D03*
%TD*%
D25*
%TO.C,U2*%
X141224000Y-67056000D03*
D11*
X143764000Y-67056000D03*
X143764000Y-59436000D03*
X141224000Y-59436000D03*
%TD*%
D10*
%TO.C,R2*%
X133858000Y-50546000D03*
D11*
X144018000Y-50546000D03*
%TD*%
D26*
%TO.C,JP1*%
X131567000Y-88646000D03*
D27*
X134107000Y-88646000D03*
%TD*%
D23*
%TO.C,J2*%
X84836000Y-94383000D03*
D24*
X80876000Y-94383000D03*
X76916000Y-94383000D03*
X72956000Y-94383000D03*
X68996000Y-94383000D03*
%TD*%
D23*
%TO.C,J4*%
X121868000Y-94383000D03*
D24*
X117908000Y-94383000D03*
%TD*%
D28*
%TO.C,L1*%
X124206000Y-66294005D03*
X111706000Y-66294005D03*
X111706000Y-86294005D03*
X124206000Y-86294005D03*
%TD*%
D15*
%TO.C,C2*%
X72136000Y-69342000D03*
D16*
X79636000Y-69342000D03*
%TD*%
D18*
%TO.C,U1*%
X131893000Y-76200000D03*
D19*
X141043000Y-78740000D03*
D18*
X131893000Y-78740000D03*
X131893000Y-81280000D03*
%TD*%
D17*
%TO.C,REF\u002A\u002A*%
X53340000Y-40640000D03*
%TD*%
M02*
