%TF.GenerationSoftware,KiCad,Pcbnew,(6.0.1)*%
%TF.CreationDate,2022-01-30T09:16:28+01:00*%
%TF.ProjectId,board_shakercontrol,626f6172-645f-4736-9861-6b6572636f6e,rev?*%
%TF.SameCoordinates,Original*%
%TF.FileFunction,Legend,Top*%
%TF.FilePolarity,Positive*%
%FSLAX46Y46*%
G04 Gerber Fmt 4.6, Leading zero omitted, Abs format (unit mm)*
G04 Created by KiCad (PCBNEW (6.0.1)) date 2022-01-30 09:16:28*
%MOMM*%
%LPD*%
G01*
G04 APERTURE LIST*
%ADD10C,0.300000*%
%ADD11C,0.150000*%
%ADD12C,0.120000*%
G04 APERTURE END LIST*
D10*
X68262571Y-85451142D02*
X69405428Y-85451142D01*
X93916571Y-85451142D02*
X95059428Y-85451142D01*
X94488000Y-86022571D02*
X94488000Y-84879714D01*
D11*
X131620095Y-100798380D02*
X131143904Y-100798380D01*
X131096285Y-101274571D01*
X131143904Y-101226952D01*
X131239142Y-101179333D01*
X131477238Y-101179333D01*
X131572476Y-101226952D01*
X131620095Y-101274571D01*
X131667714Y-101369809D01*
X131667714Y-101607904D01*
X131620095Y-101703142D01*
X131572476Y-101750761D01*
X131477238Y-101798380D01*
X131239142Y-101798380D01*
X131143904Y-101750761D01*
X131096285Y-101703142D01*
X131953428Y-100798380D02*
X132286761Y-101798380D01*
X132620095Y-100798380D01*
X134286761Y-101703142D02*
X134239142Y-101750761D01*
X134096285Y-101798380D01*
X134001047Y-101798380D01*
X133858190Y-101750761D01*
X133762952Y-101655523D01*
X133715333Y-101560285D01*
X133667714Y-101369809D01*
X133667714Y-101226952D01*
X133715333Y-101036476D01*
X133762952Y-100941238D01*
X133858190Y-100846000D01*
X134001047Y-100798380D01*
X134096285Y-100798380D01*
X134239142Y-100846000D01*
X134286761Y-100893619D01*
X134572476Y-100798380D02*
X135143904Y-100798380D01*
X134858190Y-101798380D02*
X134858190Y-100798380D01*
X135953428Y-101798380D02*
X135477238Y-101798380D01*
X135477238Y-100798380D01*
X137572476Y-100846000D02*
X137477238Y-100798380D01*
X137334380Y-100798380D01*
X137191523Y-100846000D01*
X137096285Y-100941238D01*
X137048666Y-101036476D01*
X137001047Y-101226952D01*
X137001047Y-101369809D01*
X137048666Y-101560285D01*
X137096285Y-101655523D01*
X137191523Y-101750761D01*
X137334380Y-101798380D01*
X137429619Y-101798380D01*
X137572476Y-101750761D01*
X137620095Y-101703142D01*
X137620095Y-101369809D01*
X137429619Y-101369809D01*
X138048666Y-101798380D02*
X138048666Y-100798380D01*
X138620095Y-101798380D01*
X138620095Y-100798380D01*
X139096285Y-101798380D02*
X139096285Y-100798380D01*
X139334380Y-100798380D01*
X139477238Y-100846000D01*
X139572476Y-100941238D01*
X139620095Y-101036476D01*
X139667714Y-101226952D01*
X139667714Y-101369809D01*
X139620095Y-101560285D01*
X139572476Y-101655523D01*
X139477238Y-101750761D01*
X139334380Y-101798380D01*
X139096285Y-101798380D01*
X78344000Y-54209761D02*
X78486857Y-54257380D01*
X78724952Y-54257380D01*
X78820190Y-54209761D01*
X78867809Y-54162142D01*
X78915428Y-54066904D01*
X78915428Y-53971666D01*
X78867809Y-53876428D01*
X78820190Y-53828809D01*
X78724952Y-53781190D01*
X78534476Y-53733571D01*
X78439238Y-53685952D01*
X78391619Y-53638333D01*
X78344000Y-53543095D01*
X78344000Y-53447857D01*
X78391619Y-53352619D01*
X78439238Y-53305000D01*
X78534476Y-53257380D01*
X78772571Y-53257380D01*
X78915428Y-53305000D01*
X79344000Y-54257380D02*
X79344000Y-53257380D01*
X79772571Y-54257380D02*
X79772571Y-53733571D01*
X79724952Y-53638333D01*
X79629714Y-53590714D01*
X79486857Y-53590714D01*
X79391619Y-53638333D01*
X79344000Y-53685952D01*
X80677333Y-54257380D02*
X80677333Y-53733571D01*
X80629714Y-53638333D01*
X80534476Y-53590714D01*
X80344000Y-53590714D01*
X80248761Y-53638333D01*
X80677333Y-54209761D02*
X80582095Y-54257380D01*
X80344000Y-54257380D01*
X80248761Y-54209761D01*
X80201142Y-54114523D01*
X80201142Y-54019285D01*
X80248761Y-53924047D01*
X80344000Y-53876428D01*
X80582095Y-53876428D01*
X80677333Y-53828809D01*
X81153523Y-54257380D02*
X81153523Y-53257380D01*
X81248761Y-53876428D02*
X81534476Y-54257380D01*
X81534476Y-53590714D02*
X81153523Y-53971666D01*
X82344000Y-54209761D02*
X82248761Y-54257380D01*
X82058285Y-54257380D01*
X81963047Y-54209761D01*
X81915428Y-54114523D01*
X81915428Y-53733571D01*
X81963047Y-53638333D01*
X82058285Y-53590714D01*
X82248761Y-53590714D01*
X82344000Y-53638333D01*
X82391619Y-53733571D01*
X82391619Y-53828809D01*
X81915428Y-53924047D01*
X82820190Y-54257380D02*
X82820190Y-53590714D01*
X82820190Y-53781190D02*
X82867809Y-53685952D01*
X82915428Y-53638333D01*
X83010666Y-53590714D01*
X83105904Y-53590714D01*
X84772571Y-54162142D02*
X84724952Y-54209761D01*
X84582095Y-54257380D01*
X84486857Y-54257380D01*
X84344000Y-54209761D01*
X84248761Y-54114523D01*
X84201142Y-54019285D01*
X84153523Y-53828809D01*
X84153523Y-53685952D01*
X84201142Y-53495476D01*
X84248761Y-53400238D01*
X84344000Y-53305000D01*
X84486857Y-53257380D01*
X84582095Y-53257380D01*
X84724952Y-53305000D01*
X84772571Y-53352619D01*
X85344000Y-54257380D02*
X85248761Y-54209761D01*
X85201142Y-54162142D01*
X85153523Y-54066904D01*
X85153523Y-53781190D01*
X85201142Y-53685952D01*
X85248761Y-53638333D01*
X85344000Y-53590714D01*
X85486857Y-53590714D01*
X85582095Y-53638333D01*
X85629714Y-53685952D01*
X85677333Y-53781190D01*
X85677333Y-54066904D01*
X85629714Y-54162142D01*
X85582095Y-54209761D01*
X85486857Y-54257380D01*
X85344000Y-54257380D01*
X86105904Y-53590714D02*
X86105904Y-54257380D01*
X86105904Y-53685952D02*
X86153523Y-53638333D01*
X86248761Y-53590714D01*
X86391619Y-53590714D01*
X86486857Y-53638333D01*
X86534476Y-53733571D01*
X86534476Y-54257380D01*
X86867809Y-53590714D02*
X87248761Y-53590714D01*
X87010666Y-53257380D02*
X87010666Y-54114523D01*
X87058285Y-54209761D01*
X87153523Y-54257380D01*
X87248761Y-54257380D01*
X87582095Y-54257380D02*
X87582095Y-53590714D01*
X87582095Y-53781190D02*
X87629714Y-53685952D01*
X87677333Y-53638333D01*
X87772571Y-53590714D01*
X87867809Y-53590714D01*
X88344000Y-54257380D02*
X88248761Y-54209761D01*
X88201142Y-54162142D01*
X88153523Y-54066904D01*
X88153523Y-53781190D01*
X88201142Y-53685952D01*
X88248761Y-53638333D01*
X88344000Y-53590714D01*
X88486857Y-53590714D01*
X88582095Y-53638333D01*
X88629714Y-53685952D01*
X88677333Y-53781190D01*
X88677333Y-54066904D01*
X88629714Y-54162142D01*
X88582095Y-54209761D01*
X88486857Y-54257380D01*
X88344000Y-54257380D01*
X89248761Y-54257380D02*
X89153523Y-54209761D01*
X89105904Y-54114523D01*
X89105904Y-53257380D01*
X90582095Y-53257380D02*
X90677333Y-53257380D01*
X90772571Y-53305000D01*
X90820190Y-53352619D01*
X90867809Y-53447857D01*
X90915428Y-53638333D01*
X90915428Y-53876428D01*
X90867809Y-54066904D01*
X90820190Y-54162142D01*
X90772571Y-54209761D01*
X90677333Y-54257380D01*
X90582095Y-54257380D01*
X90486857Y-54209761D01*
X90439238Y-54162142D01*
X90391619Y-54066904D01*
X90344000Y-53876428D01*
X90344000Y-53638333D01*
X90391619Y-53447857D01*
X90439238Y-53352619D01*
X90486857Y-53305000D01*
X90582095Y-53257380D01*
X91344000Y-54162142D02*
X91391619Y-54209761D01*
X91344000Y-54257380D01*
X91296380Y-54209761D01*
X91344000Y-54162142D01*
X91344000Y-54257380D01*
X92344000Y-54257380D02*
X91772571Y-54257380D01*
X92058285Y-54257380D02*
X92058285Y-53257380D01*
X91963047Y-53400238D01*
X91867809Y-53495476D01*
X91772571Y-53543095D01*
X74963047Y-56248333D02*
X74915428Y-56200714D01*
X74820190Y-56057857D01*
X74772571Y-55962619D01*
X74724952Y-55819761D01*
X74677333Y-55581666D01*
X74677333Y-55391190D01*
X74724952Y-55153095D01*
X74772571Y-55010238D01*
X74820190Y-54915000D01*
X74915428Y-54772142D01*
X74963047Y-54724523D01*
X75772571Y-55819761D02*
X75677333Y-55867380D01*
X75486857Y-55867380D01*
X75391619Y-55819761D01*
X75344000Y-55772142D01*
X75296380Y-55676904D01*
X75296380Y-55391190D01*
X75344000Y-55295952D01*
X75391619Y-55248333D01*
X75486857Y-55200714D01*
X75677333Y-55200714D01*
X75772571Y-55248333D01*
X76105904Y-56248333D02*
X76153523Y-56200714D01*
X76248761Y-56057857D01*
X76296380Y-55962619D01*
X76344000Y-55819761D01*
X76391619Y-55581666D01*
X76391619Y-55391190D01*
X76344000Y-55153095D01*
X76296380Y-55010238D01*
X76248761Y-54915000D01*
X76153523Y-54772142D01*
X76105904Y-54724523D01*
X77582095Y-54962619D02*
X77629714Y-54915000D01*
X77724952Y-54867380D01*
X77963047Y-54867380D01*
X78058285Y-54915000D01*
X78105904Y-54962619D01*
X78153523Y-55057857D01*
X78153523Y-55153095D01*
X78105904Y-55295952D01*
X77534476Y-55867380D01*
X78153523Y-55867380D01*
X78772571Y-54867380D02*
X78867809Y-54867380D01*
X78963047Y-54915000D01*
X79010666Y-54962619D01*
X79058285Y-55057857D01*
X79105904Y-55248333D01*
X79105904Y-55486428D01*
X79058285Y-55676904D01*
X79010666Y-55772142D01*
X78963047Y-55819761D01*
X78867809Y-55867380D01*
X78772571Y-55867380D01*
X78677333Y-55819761D01*
X78629714Y-55772142D01*
X78582095Y-55676904D01*
X78534476Y-55486428D01*
X78534476Y-55248333D01*
X78582095Y-55057857D01*
X78629714Y-54962619D01*
X78677333Y-54915000D01*
X78772571Y-54867380D01*
X79486857Y-54962619D02*
X79534476Y-54915000D01*
X79629714Y-54867380D01*
X79867809Y-54867380D01*
X79963047Y-54915000D01*
X80010666Y-54962619D01*
X80058285Y-55057857D01*
X80058285Y-55153095D01*
X80010666Y-55295952D01*
X79439238Y-55867380D01*
X80058285Y-55867380D01*
X80439238Y-54962619D02*
X80486857Y-54915000D01*
X80582095Y-54867380D01*
X80820190Y-54867380D01*
X80915428Y-54915000D01*
X80963047Y-54962619D01*
X81010666Y-55057857D01*
X81010666Y-55153095D01*
X80963047Y-55295952D01*
X80391619Y-55867380D01*
X81010666Y-55867380D01*
X82201142Y-55200714D02*
X82201142Y-56200714D01*
X82201142Y-55248333D02*
X82296380Y-55200714D01*
X82486857Y-55200714D01*
X82582095Y-55248333D01*
X82629714Y-55295952D01*
X82677333Y-55391190D01*
X82677333Y-55676904D01*
X82629714Y-55772142D01*
X82582095Y-55819761D01*
X82486857Y-55867380D01*
X82296380Y-55867380D01*
X82201142Y-55819761D01*
X83105904Y-55867380D02*
X83105904Y-55200714D01*
X83105904Y-54867380D02*
X83058285Y-54915000D01*
X83105904Y-54962619D01*
X83153523Y-54915000D01*
X83105904Y-54867380D01*
X83105904Y-54962619D01*
X83582095Y-55200714D02*
X83582095Y-55867380D01*
X83582095Y-55295952D02*
X83629714Y-55248333D01*
X83724952Y-55200714D01*
X83867809Y-55200714D01*
X83963047Y-55248333D01*
X84010666Y-55343571D01*
X84010666Y-55867380D01*
X84486857Y-55867380D02*
X84486857Y-54867380D01*
X84486857Y-55248333D02*
X84582095Y-55200714D01*
X84772571Y-55200714D01*
X84867809Y-55248333D01*
X84915428Y-55295952D01*
X84963047Y-55391190D01*
X84963047Y-55676904D01*
X84915428Y-55772142D01*
X84867809Y-55819761D01*
X84772571Y-55867380D01*
X84582095Y-55867380D01*
X84486857Y-55819761D01*
X85820190Y-55867380D02*
X85820190Y-55343571D01*
X85772571Y-55248333D01*
X85677333Y-55200714D01*
X85486857Y-55200714D01*
X85391619Y-55248333D01*
X85820190Y-55819761D02*
X85724952Y-55867380D01*
X85486857Y-55867380D01*
X85391619Y-55819761D01*
X85344000Y-55724523D01*
X85344000Y-55629285D01*
X85391619Y-55534047D01*
X85486857Y-55486428D01*
X85724952Y-55486428D01*
X85820190Y-55438809D01*
X86439238Y-55867380D02*
X86344000Y-55819761D01*
X86296380Y-55724523D01*
X86296380Y-54867380D01*
X86963047Y-55867380D02*
X86867809Y-55819761D01*
X86820190Y-55724523D01*
X86820190Y-54867380D01*
X87344000Y-55486428D02*
X88105904Y-55486428D01*
X88582095Y-55200714D02*
X88582095Y-56200714D01*
X88582095Y-55248333D02*
X88677333Y-55200714D01*
X88867809Y-55200714D01*
X88963047Y-55248333D01*
X89010666Y-55295952D01*
X89058285Y-55391190D01*
X89058285Y-55676904D01*
X89010666Y-55772142D01*
X88963047Y-55819761D01*
X88867809Y-55867380D01*
X88677333Y-55867380D01*
X88582095Y-55819761D01*
X89629714Y-55867380D02*
X89534476Y-55819761D01*
X89486857Y-55772142D01*
X89439238Y-55676904D01*
X89439238Y-55391190D01*
X89486857Y-55295952D01*
X89534476Y-55248333D01*
X89629714Y-55200714D01*
X89772571Y-55200714D01*
X89867809Y-55248333D01*
X89915428Y-55295952D01*
X89963047Y-55391190D01*
X89963047Y-55676904D01*
X89915428Y-55772142D01*
X89867809Y-55819761D01*
X89772571Y-55867380D01*
X89629714Y-55867380D01*
X90296380Y-55200714D02*
X90486857Y-55867380D01*
X90677333Y-55391190D01*
X90867809Y-55867380D01*
X91058285Y-55200714D01*
X91820190Y-55819761D02*
X91724952Y-55867380D01*
X91534476Y-55867380D01*
X91439238Y-55819761D01*
X91391619Y-55724523D01*
X91391619Y-55343571D01*
X91439238Y-55248333D01*
X91534476Y-55200714D01*
X91724952Y-55200714D01*
X91820190Y-55248333D01*
X91867809Y-55343571D01*
X91867809Y-55438809D01*
X91391619Y-55534047D01*
X92296380Y-55867380D02*
X92296380Y-55200714D01*
X92296380Y-55391190D02*
X92344000Y-55295952D01*
X92391619Y-55248333D01*
X92486857Y-55200714D01*
X92582095Y-55200714D01*
X92915428Y-55772142D02*
X92963047Y-55819761D01*
X92915428Y-55867380D01*
X92867809Y-55819761D01*
X92915428Y-55772142D01*
X92915428Y-55867380D01*
X93820190Y-55819761D02*
X93724952Y-55867380D01*
X93534476Y-55867380D01*
X93439238Y-55819761D01*
X93391619Y-55772142D01*
X93344000Y-55676904D01*
X93344000Y-55391190D01*
X93391619Y-55295952D01*
X93439238Y-55248333D01*
X93534476Y-55200714D01*
X93724952Y-55200714D01*
X93820190Y-55248333D01*
X94391619Y-55867380D02*
X94296380Y-55819761D01*
X94248761Y-55772142D01*
X94201142Y-55676904D01*
X94201142Y-55391190D01*
X94248761Y-55295952D01*
X94296380Y-55248333D01*
X94391619Y-55200714D01*
X94534476Y-55200714D01*
X94629714Y-55248333D01*
X94677333Y-55295952D01*
X94724952Y-55391190D01*
X94724952Y-55676904D01*
X94677333Y-55772142D01*
X94629714Y-55819761D01*
X94534476Y-55867380D01*
X94391619Y-55867380D01*
X95153523Y-55867380D02*
X95153523Y-55200714D01*
X95153523Y-55295952D02*
X95201142Y-55248333D01*
X95296380Y-55200714D01*
X95439238Y-55200714D01*
X95534476Y-55248333D01*
X95582095Y-55343571D01*
X95582095Y-55867380D01*
X95582095Y-55343571D02*
X95629714Y-55248333D01*
X95724952Y-55200714D01*
X95867809Y-55200714D01*
X95963047Y-55248333D01*
X96010666Y-55343571D01*
X96010666Y-55867380D01*
%TO.C,J3*%
X140382666Y-94956380D02*
X140382666Y-95670666D01*
X140335047Y-95813523D01*
X140239809Y-95908761D01*
X140096952Y-95956380D01*
X140001714Y-95956380D01*
X140763619Y-94956380D02*
X141382666Y-94956380D01*
X141049333Y-95337333D01*
X141192190Y-95337333D01*
X141287428Y-95384952D01*
X141335047Y-95432571D01*
X141382666Y-95527809D01*
X141382666Y-95765904D01*
X141335047Y-95861142D01*
X141287428Y-95908761D01*
X141192190Y-95956380D01*
X140906476Y-95956380D01*
X140811238Y-95908761D01*
X140763619Y-95861142D01*
%TO.C,L1*%
X119281619Y-76127338D02*
X119281619Y-75651147D01*
X120281619Y-75651147D01*
X119281619Y-76984481D02*
X119281619Y-76413052D01*
X119281619Y-76698766D02*
X120281619Y-76698766D01*
X120138761Y-76603528D01*
X120043523Y-76508290D01*
X119995904Y-76413052D01*
%TO.C,R1*%
X146137333Y-70810380D02*
X145804000Y-70334190D01*
X145565904Y-70810380D02*
X145565904Y-69810380D01*
X145946857Y-69810380D01*
X146042095Y-69858000D01*
X146089714Y-69905619D01*
X146137333Y-70000857D01*
X146137333Y-70143714D01*
X146089714Y-70238952D01*
X146042095Y-70286571D01*
X145946857Y-70334190D01*
X145565904Y-70334190D01*
X147089714Y-70810380D02*
X146518285Y-70810380D01*
X146804000Y-70810380D02*
X146804000Y-69810380D01*
X146708761Y-69953238D01*
X146613523Y-70048476D01*
X146518285Y-70096095D01*
%TO.C,D1*%
X91463904Y-82748380D02*
X91463904Y-81748380D01*
X91702000Y-81748380D01*
X91844857Y-81796000D01*
X91940095Y-81891238D01*
X91987714Y-81986476D01*
X92035333Y-82176952D01*
X92035333Y-82319809D01*
X91987714Y-82510285D01*
X91940095Y-82605523D01*
X91844857Y-82700761D01*
X91702000Y-82748380D01*
X91463904Y-82748380D01*
X92987714Y-82748380D02*
X92416285Y-82748380D01*
X92702000Y-82748380D02*
X92702000Y-81748380D01*
X92606761Y-81891238D01*
X92511523Y-81986476D01*
X92416285Y-82034095D01*
%TO.C,F1*%
X66222571Y-83645333D02*
X66222571Y-83978666D01*
X66746380Y-83978666D02*
X65746380Y-83978666D01*
X65746380Y-83502476D01*
X66746380Y-82597714D02*
X66746380Y-83169142D01*
X66746380Y-82883428D02*
X65746380Y-82883428D01*
X65889238Y-82978666D01*
X65984476Y-83073904D01*
X66032095Y-83169142D01*
%TO.C,R3*%
X146391333Y-55570380D02*
X146058000Y-55094190D01*
X145819904Y-55570380D02*
X145819904Y-54570380D01*
X146200857Y-54570380D01*
X146296095Y-54618000D01*
X146343714Y-54665619D01*
X146391333Y-54760857D01*
X146391333Y-54903714D01*
X146343714Y-54998952D01*
X146296095Y-55046571D01*
X146200857Y-55094190D01*
X145819904Y-55094190D01*
X146724666Y-54570380D02*
X147343714Y-54570380D01*
X147010380Y-54951333D01*
X147153238Y-54951333D01*
X147248476Y-54998952D01*
X147296095Y-55046571D01*
X147343714Y-55141809D01*
X147343714Y-55379904D01*
X147296095Y-55475142D01*
X147248476Y-55522761D01*
X147153238Y-55570380D01*
X146867523Y-55570380D01*
X146772285Y-55522761D01*
X146724666Y-55475142D01*
%TO.C,C1*%
X96117553Y-59449142D02*
X96069934Y-59496761D01*
X95927077Y-59544380D01*
X95831839Y-59544380D01*
X95688981Y-59496761D01*
X95593743Y-59401523D01*
X95546124Y-59306285D01*
X95498505Y-59115809D01*
X95498505Y-58972952D01*
X95546124Y-58782476D01*
X95593743Y-58687238D01*
X95688981Y-58592000D01*
X95831839Y-58544380D01*
X95927077Y-58544380D01*
X96069934Y-58592000D01*
X96117553Y-58639619D01*
X97069934Y-59544380D02*
X96498505Y-59544380D01*
X96784220Y-59544380D02*
X96784220Y-58544380D01*
X96688981Y-58687238D01*
X96593743Y-58782476D01*
X96498505Y-58830095D01*
%TO.C,REF\u002A\u002A*%
X147510666Y-35792380D02*
X147177333Y-35316190D01*
X146939238Y-35792380D02*
X146939238Y-34792380D01*
X147320190Y-34792380D01*
X147415428Y-34840000D01*
X147463047Y-34887619D01*
X147510666Y-34982857D01*
X147510666Y-35125714D01*
X147463047Y-35220952D01*
X147415428Y-35268571D01*
X147320190Y-35316190D01*
X146939238Y-35316190D01*
X147939238Y-35268571D02*
X148272571Y-35268571D01*
X148415428Y-35792380D02*
X147939238Y-35792380D01*
X147939238Y-34792380D01*
X148415428Y-34792380D01*
X149177333Y-35268571D02*
X148844000Y-35268571D01*
X148844000Y-35792380D02*
X148844000Y-34792380D01*
X149320190Y-34792380D01*
X149844000Y-34792380D02*
X149844000Y-35030476D01*
X149605904Y-34935238D02*
X149844000Y-35030476D01*
X150082095Y-34935238D01*
X149701142Y-35220952D02*
X149844000Y-35030476D01*
X149986857Y-35220952D01*
X150605904Y-34792380D02*
X150605904Y-35030476D01*
X150367809Y-34935238D02*
X150605904Y-35030476D01*
X150844000Y-34935238D01*
X150463047Y-35220952D02*
X150605904Y-35030476D01*
X150748761Y-35220952D01*
%TO.C,Q1*%
X126142761Y-53125619D02*
X126047523Y-53078000D01*
X125952285Y-52982761D01*
X125809428Y-52839904D01*
X125714190Y-52792285D01*
X125618952Y-52792285D01*
X125666571Y-53030380D02*
X125571333Y-52982761D01*
X125476095Y-52887523D01*
X125428476Y-52697047D01*
X125428476Y-52363714D01*
X125476095Y-52173238D01*
X125571333Y-52078000D01*
X125666571Y-52030380D01*
X125857047Y-52030380D01*
X125952285Y-52078000D01*
X126047523Y-52173238D01*
X126095142Y-52363714D01*
X126095142Y-52697047D01*
X126047523Y-52887523D01*
X125952285Y-52982761D01*
X125857047Y-53030380D01*
X125666571Y-53030380D01*
X127047523Y-53030380D02*
X126476095Y-53030380D01*
X126761809Y-53030380D02*
X126761809Y-52030380D01*
X126666571Y-52173238D01*
X126571333Y-52268476D01*
X126476095Y-52316095D01*
%TO.C,R4*%
X98385333Y-40298380D02*
X98052000Y-39822190D01*
X97813904Y-40298380D02*
X97813904Y-39298380D01*
X98194857Y-39298380D01*
X98290095Y-39346000D01*
X98337714Y-39393619D01*
X98385333Y-39488857D01*
X98385333Y-39631714D01*
X98337714Y-39726952D01*
X98290095Y-39774571D01*
X98194857Y-39822190D01*
X97813904Y-39822190D01*
X99242476Y-39631714D02*
X99242476Y-40298380D01*
X99004380Y-39250761D02*
X98766285Y-39965047D01*
X99385333Y-39965047D01*
%TO.C,REF\u002A\u002A*%
X44386666Y-94432380D02*
X44053333Y-93956190D01*
X43815238Y-94432380D02*
X43815238Y-93432380D01*
X44196190Y-93432380D01*
X44291428Y-93480000D01*
X44339047Y-93527619D01*
X44386666Y-93622857D01*
X44386666Y-93765714D01*
X44339047Y-93860952D01*
X44291428Y-93908571D01*
X44196190Y-93956190D01*
X43815238Y-93956190D01*
X44815238Y-93908571D02*
X45148571Y-93908571D01*
X45291428Y-94432380D02*
X44815238Y-94432380D01*
X44815238Y-93432380D01*
X45291428Y-93432380D01*
X46053333Y-93908571D02*
X45720000Y-93908571D01*
X45720000Y-94432380D02*
X45720000Y-93432380D01*
X46196190Y-93432380D01*
X46720000Y-93432380D02*
X46720000Y-93670476D01*
X46481904Y-93575238D02*
X46720000Y-93670476D01*
X46958095Y-93575238D01*
X46577142Y-93860952D02*
X46720000Y-93670476D01*
X46862857Y-93860952D01*
X47481904Y-93432380D02*
X47481904Y-93670476D01*
X47243809Y-93575238D02*
X47481904Y-93670476D01*
X47720000Y-93575238D01*
X47339047Y-93860952D02*
X47481904Y-93670476D01*
X47624761Y-93860952D01*
%TO.C,J1*%
X109902666Y-94194380D02*
X109902666Y-94908666D01*
X109855047Y-95051523D01*
X109759809Y-95146761D01*
X109616952Y-95194380D01*
X109521714Y-95194380D01*
X110902666Y-95194380D02*
X110331238Y-95194380D01*
X110616952Y-95194380D02*
X110616952Y-94194380D01*
X110521714Y-94337238D01*
X110426476Y-94432476D01*
X110331238Y-94480095D01*
X96575809Y-101798380D02*
X96575809Y-100798380D01*
X96956761Y-100798380D01*
X97052000Y-100846000D01*
X97099619Y-100893619D01*
X97147238Y-100988857D01*
X97147238Y-101131714D01*
X97099619Y-101226952D01*
X97052000Y-101274571D01*
X96956761Y-101322190D01*
X96575809Y-101322190D01*
X97718666Y-101798380D02*
X97623428Y-101750761D01*
X97575809Y-101703142D01*
X97528190Y-101607904D01*
X97528190Y-101322190D01*
X97575809Y-101226952D01*
X97623428Y-101179333D01*
X97718666Y-101131714D01*
X97861523Y-101131714D01*
X97956761Y-101179333D01*
X98004380Y-101226952D01*
X98052000Y-101322190D01*
X98052000Y-101607904D01*
X98004380Y-101703142D01*
X97956761Y-101750761D01*
X97861523Y-101798380D01*
X97718666Y-101798380D01*
X98385333Y-101131714D02*
X98575809Y-101798380D01*
X98766285Y-101322190D01*
X98956761Y-101798380D01*
X99147238Y-101131714D01*
X99909142Y-101750761D02*
X99813904Y-101798380D01*
X99623428Y-101798380D01*
X99528190Y-101750761D01*
X99480571Y-101655523D01*
X99480571Y-101274571D01*
X99528190Y-101179333D01*
X99623428Y-101131714D01*
X99813904Y-101131714D01*
X99909142Y-101179333D01*
X99956761Y-101274571D01*
X99956761Y-101369809D01*
X99480571Y-101465047D01*
X100385333Y-101798380D02*
X100385333Y-101131714D01*
X100385333Y-101322190D02*
X100432952Y-101226952D01*
X100480571Y-101179333D01*
X100575809Y-101131714D01*
X100671047Y-101131714D01*
%TO.C,U2*%
X138346380Y-64007904D02*
X139155904Y-64007904D01*
X139251142Y-63960285D01*
X139298761Y-63912666D01*
X139346380Y-63817428D01*
X139346380Y-63626952D01*
X139298761Y-63531714D01*
X139251142Y-63484095D01*
X139155904Y-63436476D01*
X138346380Y-63436476D01*
X138441619Y-63007904D02*
X138394000Y-62960285D01*
X138346380Y-62865047D01*
X138346380Y-62626952D01*
X138394000Y-62531714D01*
X138441619Y-62484095D01*
X138536857Y-62436476D01*
X138632095Y-62436476D01*
X138774952Y-62484095D01*
X139346380Y-63055523D01*
X139346380Y-62436476D01*
%TO.C,R2*%
X146391333Y-51252380D02*
X146058000Y-50776190D01*
X145819904Y-51252380D02*
X145819904Y-50252380D01*
X146200857Y-50252380D01*
X146296095Y-50300000D01*
X146343714Y-50347619D01*
X146391333Y-50442857D01*
X146391333Y-50585714D01*
X146343714Y-50680952D01*
X146296095Y-50728571D01*
X146200857Y-50776190D01*
X145819904Y-50776190D01*
X146772285Y-50347619D02*
X146819904Y-50300000D01*
X146915142Y-50252380D01*
X147153238Y-50252380D01*
X147248476Y-50300000D01*
X147296095Y-50347619D01*
X147343714Y-50442857D01*
X147343714Y-50538095D01*
X147296095Y-50680952D01*
X146724666Y-51252380D01*
X147343714Y-51252380D01*
%TO.C,JP1*%
X130484666Y-85558380D02*
X130484666Y-86272666D01*
X130437047Y-86415523D01*
X130341809Y-86510761D01*
X130198952Y-86558380D01*
X130103714Y-86558380D01*
X130960857Y-86558380D02*
X130960857Y-85558380D01*
X131341809Y-85558380D01*
X131437047Y-85606000D01*
X131484666Y-85653619D01*
X131532285Y-85748857D01*
X131532285Y-85891714D01*
X131484666Y-85986952D01*
X131437047Y-86034571D01*
X131341809Y-86082190D01*
X130960857Y-86082190D01*
X132484666Y-86558380D02*
X131913238Y-86558380D01*
X132198952Y-86558380D02*
X132198952Y-85558380D01*
X132103714Y-85701238D01*
X132008476Y-85796476D01*
X131913238Y-85844095D01*
X137017714Y-89050761D02*
X136922476Y-89098380D01*
X136732000Y-89098380D01*
X136636761Y-89050761D01*
X136589142Y-88955523D01*
X136589142Y-88574571D01*
X136636761Y-88479333D01*
X136732000Y-88431714D01*
X136922476Y-88431714D01*
X137017714Y-88479333D01*
X137065333Y-88574571D01*
X137065333Y-88669809D01*
X136589142Y-88765047D01*
X137493904Y-88431714D02*
X137493904Y-89098380D01*
X137493904Y-88526952D02*
X137541523Y-88479333D01*
X137636761Y-88431714D01*
X137779619Y-88431714D01*
X137874857Y-88479333D01*
X137922476Y-88574571D01*
X137922476Y-89098380D01*
X138827238Y-89098380D02*
X138827238Y-88574571D01*
X138779619Y-88479333D01*
X138684380Y-88431714D01*
X138493904Y-88431714D01*
X138398666Y-88479333D01*
X138827238Y-89050761D02*
X138732000Y-89098380D01*
X138493904Y-89098380D01*
X138398666Y-89050761D01*
X138351047Y-88955523D01*
X138351047Y-88860285D01*
X138398666Y-88765047D01*
X138493904Y-88717428D01*
X138732000Y-88717428D01*
X138827238Y-88669809D01*
X139303428Y-89098380D02*
X139303428Y-88098380D01*
X139303428Y-88479333D02*
X139398666Y-88431714D01*
X139589142Y-88431714D01*
X139684380Y-88479333D01*
X139732000Y-88526952D01*
X139779619Y-88622190D01*
X139779619Y-88907904D01*
X139732000Y-89003142D01*
X139684380Y-89050761D01*
X139589142Y-89098380D01*
X139398666Y-89098380D01*
X139303428Y-89050761D01*
X140351047Y-89098380D02*
X140255809Y-89050761D01*
X140208190Y-88955523D01*
X140208190Y-88098380D01*
X141112952Y-89050761D02*
X141017714Y-89098380D01*
X140827238Y-89098380D01*
X140732000Y-89050761D01*
X140684380Y-88955523D01*
X140684380Y-88574571D01*
X140732000Y-88479333D01*
X140827238Y-88431714D01*
X141017714Y-88431714D01*
X141112952Y-88479333D01*
X141160571Y-88574571D01*
X141160571Y-88669809D01*
X140684380Y-88765047D01*
X142827238Y-88098380D02*
X142351047Y-88098380D01*
X142303428Y-88574571D01*
X142351047Y-88526952D01*
X142446285Y-88479333D01*
X142684380Y-88479333D01*
X142779619Y-88526952D01*
X142827238Y-88574571D01*
X142874857Y-88669809D01*
X142874857Y-88907904D01*
X142827238Y-89003142D01*
X142779619Y-89050761D01*
X142684380Y-89098380D01*
X142446285Y-89098380D01*
X142351047Y-89050761D01*
X142303428Y-89003142D01*
X143160571Y-88098380D02*
X143493904Y-89098380D01*
X143827238Y-88098380D01*
X145065333Y-89098380D02*
X144970095Y-89050761D01*
X144922476Y-89003142D01*
X144874857Y-88907904D01*
X144874857Y-88622190D01*
X144922476Y-88526952D01*
X144970095Y-88479333D01*
X145065333Y-88431714D01*
X145208190Y-88431714D01*
X145303428Y-88479333D01*
X145351047Y-88526952D01*
X145398666Y-88622190D01*
X145398666Y-88907904D01*
X145351047Y-89003142D01*
X145303428Y-89050761D01*
X145208190Y-89098380D01*
X145065333Y-89098380D01*
X146255809Y-88431714D02*
X146255809Y-89098380D01*
X145827238Y-88431714D02*
X145827238Y-88955523D01*
X145874857Y-89050761D01*
X145970095Y-89098380D01*
X146112952Y-89098380D01*
X146208190Y-89050761D01*
X146255809Y-89003142D01*
X146589142Y-88431714D02*
X146970095Y-88431714D01*
X146732000Y-88098380D02*
X146732000Y-88955523D01*
X146779619Y-89050761D01*
X146874857Y-89098380D01*
X146970095Y-89098380D01*
%TO.C,J2*%
X64690666Y-94089380D02*
X64690666Y-94803666D01*
X64643047Y-94946523D01*
X64547809Y-95041761D01*
X64404952Y-95089380D01*
X64309714Y-95089380D01*
X65119238Y-94184619D02*
X65166857Y-94137000D01*
X65262095Y-94089380D01*
X65500190Y-94089380D01*
X65595428Y-94137000D01*
X65643047Y-94184619D01*
X65690666Y-94279857D01*
X65690666Y-94375095D01*
X65643047Y-94517952D01*
X65071619Y-95089380D01*
X65690666Y-95089380D01*
X74985809Y-101798380D02*
X74985809Y-100798380D01*
X75366761Y-100798380D01*
X75462000Y-100846000D01*
X75509619Y-100893619D01*
X75557238Y-100988857D01*
X75557238Y-101131714D01*
X75509619Y-101226952D01*
X75462000Y-101274571D01*
X75366761Y-101322190D01*
X74985809Y-101322190D01*
X76128666Y-101798380D02*
X76033428Y-101750761D01*
X75985809Y-101703142D01*
X75938190Y-101607904D01*
X75938190Y-101322190D01*
X75985809Y-101226952D01*
X76033428Y-101179333D01*
X76128666Y-101131714D01*
X76271523Y-101131714D01*
X76366761Y-101179333D01*
X76414380Y-101226952D01*
X76462000Y-101322190D01*
X76462000Y-101607904D01*
X76414380Y-101703142D01*
X76366761Y-101750761D01*
X76271523Y-101798380D01*
X76128666Y-101798380D01*
X76795333Y-101131714D02*
X76985809Y-101798380D01*
X77176285Y-101322190D01*
X77366761Y-101798380D01*
X77557238Y-101131714D01*
X78319142Y-101750761D02*
X78223904Y-101798380D01*
X78033428Y-101798380D01*
X77938190Y-101750761D01*
X77890571Y-101655523D01*
X77890571Y-101274571D01*
X77938190Y-101179333D01*
X78033428Y-101131714D01*
X78223904Y-101131714D01*
X78319142Y-101179333D01*
X78366761Y-101274571D01*
X78366761Y-101369809D01*
X77890571Y-101465047D01*
X78795333Y-101798380D02*
X78795333Y-101131714D01*
X78795333Y-101322190D02*
X78842952Y-101226952D01*
X78890571Y-101179333D01*
X78985809Y-101131714D01*
X79081047Y-101131714D01*
%TO.C,J4*%
X125142666Y-94194380D02*
X125142666Y-94908666D01*
X125095047Y-95051523D01*
X124999809Y-95146761D01*
X124856952Y-95194380D01*
X124761714Y-95194380D01*
X126047428Y-94527714D02*
X126047428Y-95194380D01*
X125809333Y-94146761D02*
X125571238Y-94861047D01*
X126190285Y-94861047D01*
X117808666Y-101750761D02*
X117951523Y-101798380D01*
X118189619Y-101798380D01*
X118284857Y-101750761D01*
X118332476Y-101703142D01*
X118380095Y-101607904D01*
X118380095Y-101512666D01*
X118332476Y-101417428D01*
X118284857Y-101369809D01*
X118189619Y-101322190D01*
X117999142Y-101274571D01*
X117903904Y-101226952D01*
X117856285Y-101179333D01*
X117808666Y-101084095D01*
X117808666Y-100988857D01*
X117856285Y-100893619D01*
X117903904Y-100846000D01*
X117999142Y-100798380D01*
X118237238Y-100798380D01*
X118380095Y-100846000D01*
X118808666Y-101798380D02*
X118808666Y-100798380D01*
X119237238Y-101798380D02*
X119237238Y-101274571D01*
X119189619Y-101179333D01*
X119094380Y-101131714D01*
X118951523Y-101131714D01*
X118856285Y-101179333D01*
X118808666Y-101226952D01*
X120142000Y-101798380D02*
X120142000Y-101274571D01*
X120094380Y-101179333D01*
X119999142Y-101131714D01*
X119808666Y-101131714D01*
X119713428Y-101179333D01*
X120142000Y-101750761D02*
X120046761Y-101798380D01*
X119808666Y-101798380D01*
X119713428Y-101750761D01*
X119665809Y-101655523D01*
X119665809Y-101560285D01*
X119713428Y-101465047D01*
X119808666Y-101417428D01*
X120046761Y-101417428D01*
X120142000Y-101369809D01*
X120618190Y-101798380D02*
X120618190Y-100798380D01*
X120713428Y-101417428D02*
X120999142Y-101798380D01*
X120999142Y-101131714D02*
X120618190Y-101512666D01*
X121808666Y-101750761D02*
X121713428Y-101798380D01*
X121522952Y-101798380D01*
X121427714Y-101750761D01*
X121380095Y-101655523D01*
X121380095Y-101274571D01*
X121427714Y-101179333D01*
X121522952Y-101131714D01*
X121713428Y-101131714D01*
X121808666Y-101179333D01*
X121856285Y-101274571D01*
X121856285Y-101369809D01*
X121380095Y-101465047D01*
X122284857Y-101798380D02*
X122284857Y-101131714D01*
X122284857Y-101322190D02*
X122332476Y-101226952D01*
X122380095Y-101179333D01*
X122475333Y-101131714D01*
X122570571Y-101131714D01*
%TO.C,C2*%
X75719333Y-59449142D02*
X75671714Y-59496761D01*
X75528857Y-59544380D01*
X75433619Y-59544380D01*
X75290761Y-59496761D01*
X75195523Y-59401523D01*
X75147904Y-59306285D01*
X75100285Y-59115809D01*
X75100285Y-58972952D01*
X75147904Y-58782476D01*
X75195523Y-58687238D01*
X75290761Y-58592000D01*
X75433619Y-58544380D01*
X75528857Y-58544380D01*
X75671714Y-58592000D01*
X75719333Y-58639619D01*
X76100285Y-58639619D02*
X76147904Y-58592000D01*
X76243142Y-58544380D01*
X76481238Y-58544380D01*
X76576476Y-58592000D01*
X76624095Y-58639619D01*
X76671714Y-58734857D01*
X76671714Y-58830095D01*
X76624095Y-58972952D01*
X76052666Y-59544380D01*
X76671714Y-59544380D01*
%TO.C,U1*%
X149860095Y-77684380D02*
X149860095Y-78493904D01*
X149907714Y-78589142D01*
X149955333Y-78636761D01*
X150050571Y-78684380D01*
X150241047Y-78684380D01*
X150336285Y-78636761D01*
X150383904Y-78589142D01*
X150431523Y-78493904D01*
X150431523Y-77684380D01*
X151431523Y-78684380D02*
X150860095Y-78684380D01*
X151145809Y-78684380D02*
X151145809Y-77684380D01*
X151050571Y-77827238D01*
X150955333Y-77922476D01*
X150860095Y-77970095D01*
%TO.C,REF\u002A\u002A*%
X52006666Y-35792380D02*
X51673333Y-35316190D01*
X51435238Y-35792380D02*
X51435238Y-34792380D01*
X51816190Y-34792380D01*
X51911428Y-34840000D01*
X51959047Y-34887619D01*
X52006666Y-34982857D01*
X52006666Y-35125714D01*
X51959047Y-35220952D01*
X51911428Y-35268571D01*
X51816190Y-35316190D01*
X51435238Y-35316190D01*
X52435238Y-35268571D02*
X52768571Y-35268571D01*
X52911428Y-35792380D02*
X52435238Y-35792380D01*
X52435238Y-34792380D01*
X52911428Y-34792380D01*
X53673333Y-35268571D02*
X53340000Y-35268571D01*
X53340000Y-35792380D02*
X53340000Y-34792380D01*
X53816190Y-34792380D01*
X54340000Y-34792380D02*
X54340000Y-35030476D01*
X54101904Y-34935238D02*
X54340000Y-35030476D01*
X54578095Y-34935238D01*
X54197142Y-35220952D02*
X54340000Y-35030476D01*
X54482857Y-35220952D01*
X55101904Y-34792380D02*
X55101904Y-35030476D01*
X54863809Y-34935238D02*
X55101904Y-35030476D01*
X55340000Y-34935238D01*
X54959047Y-35220952D02*
X55101904Y-35030476D01*
X55244761Y-35220952D01*
D12*
%TO.C,J3*%
X132842000Y-94002000D02*
X132842000Y-93002000D01*
X133642000Y-98422000D02*
X132042000Y-98422000D01*
X136182000Y-98422000D02*
X134582000Y-98422000D01*
X137922000Y-94002000D02*
X132842000Y-94002000D01*
X139592000Y-97992000D02*
X139592000Y-93992000D01*
X133642000Y-99022000D02*
X133642000Y-98422000D01*
X139302000Y-99022000D02*
X139302000Y-93002000D01*
X137922000Y-94002000D02*
X137672000Y-94532000D01*
X137672000Y-94532000D02*
X133092000Y-94532000D01*
X132042000Y-98422000D02*
X132042000Y-99022000D01*
X136182000Y-99022000D02*
X136182000Y-98422000D01*
X133092000Y-93002000D02*
X133092000Y-94002000D01*
X131462000Y-99022000D02*
X139302000Y-99022000D01*
X133092000Y-94532000D02*
X132842000Y-94002000D01*
X137672000Y-93002000D02*
X137672000Y-94002000D01*
X138722000Y-98422000D02*
X137122000Y-98422000D01*
X139302000Y-93002000D02*
X131462000Y-93002000D01*
X138722000Y-99022000D02*
X138722000Y-98422000D01*
X134582000Y-98422000D02*
X134582000Y-99022000D01*
X137122000Y-98422000D02*
X137122000Y-99022000D01*
X131462000Y-93002000D02*
X131462000Y-99022000D01*
X137922000Y-93002000D02*
X137922000Y-94002000D01*
%TO.C,L1*%
X128956000Y-64794005D02*
X106956000Y-64794005D01*
X106956000Y-64794005D02*
X106956000Y-87794005D01*
X106956000Y-87794005D02*
X128956000Y-87794005D01*
X128956000Y-87794005D02*
X128956000Y-64794005D01*
%TO.C,R1*%
X134644000Y-70358000D02*
X135414000Y-70358000D01*
X135414000Y-68988000D02*
X135414000Y-71728000D01*
X142724000Y-70358000D02*
X141954000Y-70358000D01*
X141954000Y-68988000D02*
X135414000Y-68988000D01*
X135414000Y-71728000D02*
X141954000Y-71728000D01*
X141954000Y-71728000D02*
X141954000Y-68988000D01*
%TO.C,D1*%
X70638000Y-87394000D02*
X70638000Y-83794000D01*
X92938000Y-83794000D02*
X92938000Y-87394000D01*
X73838000Y-87394000D02*
X73838000Y-86894000D01*
X85838000Y-83794000D02*
X87838000Y-83794000D01*
X80838000Y-83794000D02*
X82738000Y-83794000D01*
X76138000Y-83794000D02*
X77638000Y-83794000D01*
X90938000Y-83794000D02*
X92938000Y-83794000D01*
X92938000Y-87394000D02*
X70638000Y-87394000D01*
X70638000Y-83794000D02*
X72138000Y-83794000D01*
%TO.C,F1*%
X64526000Y-48966000D02*
X64526000Y-90226000D01*
X49266000Y-90226000D02*
X54896000Y-90226000D01*
X58896000Y-48966000D02*
X64526000Y-48966000D01*
X58896000Y-90226000D02*
X64526000Y-90226000D01*
X49266000Y-48966000D02*
X54896000Y-48966000D01*
X49266000Y-90226000D02*
X49266000Y-48966000D01*
%TO.C,R3*%
X142208000Y-56234000D02*
X142208000Y-53494000D01*
X142208000Y-53494000D02*
X135668000Y-53494000D01*
X142978000Y-54864000D02*
X142208000Y-54864000D01*
X134898000Y-54864000D02*
X135668000Y-54864000D01*
X135668000Y-53494000D02*
X135668000Y-56234000D01*
X135668000Y-56234000D02*
X142208000Y-56234000D01*
%TO.C,C1*%
X98285220Y-60484000D02*
X98285220Y-78200000D01*
X101925220Y-62215000D02*
X101925220Y-76469000D01*
X103165220Y-63395000D02*
X103165220Y-75289000D01*
X100965220Y-61554000D02*
X100965220Y-67902000D01*
X104285220Y-65003000D02*
X104285220Y-73681000D01*
X103245220Y-63488000D02*
X103245220Y-75196000D01*
X97485220Y-60341000D02*
X97485220Y-78343000D01*
X100645220Y-61371000D02*
X100645220Y-67902000D01*
X98325220Y-60493000D02*
X98325220Y-78191000D01*
X98485220Y-60531000D02*
X98485220Y-78153000D01*
X101205220Y-61702000D02*
X101205220Y-67902000D01*
X102885220Y-63088000D02*
X102885220Y-75596000D01*
X96364220Y-60262000D02*
X96364220Y-78422000D01*
X102285220Y-62513000D02*
X102285220Y-76171000D01*
X99365220Y-60797000D02*
X99365220Y-67902000D01*
X100365220Y-61225000D02*
X100365220Y-67902000D01*
X101325220Y-70782000D02*
X101325220Y-76903000D01*
X101285220Y-70782000D02*
X101285220Y-76930000D01*
X103525220Y-63836000D02*
X103525220Y-74848000D01*
X104564220Y-65558000D02*
X104564220Y-73126000D01*
X100805220Y-70782000D02*
X100805220Y-77224000D01*
X104604220Y-65646000D02*
X104604220Y-73038000D01*
X105044220Y-66844000D02*
X105044220Y-71840000D01*
X100405220Y-61245000D02*
X100405220Y-67902000D01*
X96644220Y-60269000D02*
X96644220Y-78415000D01*
X105324220Y-68176000D02*
X105324220Y-70508000D01*
X96444220Y-60263000D02*
X96444220Y-78421000D01*
X98365220Y-60502000D02*
X98365220Y-78182000D01*
X102405220Y-62620000D02*
X102405220Y-76064000D01*
X103285220Y-63536000D02*
X103285220Y-75148000D01*
X98645220Y-60572000D02*
X98645220Y-67902000D01*
X101365220Y-70782000D02*
X101365220Y-76877000D01*
X97885220Y-60403000D02*
X97885220Y-78281000D01*
X97405220Y-60331000D02*
X97405220Y-78353000D01*
X97645220Y-60363000D02*
X97645220Y-78321000D01*
X104005220Y-64526000D02*
X104005220Y-74158000D01*
X103405220Y-63682000D02*
X103405220Y-75002000D01*
X103565220Y-63888000D02*
X103565220Y-74796000D01*
X101485220Y-61889000D02*
X101485220Y-76795000D01*
X98565220Y-60551000D02*
X98565220Y-78133000D01*
X102565220Y-62768000D02*
X102565220Y-75916000D01*
X99645220Y-70782000D02*
X99645220Y-77781000D01*
X104684220Y-65830000D02*
X104684220Y-72854000D01*
X100005220Y-70782000D02*
X100005220Y-77629000D01*
X103965220Y-64463000D02*
X103965220Y-74221000D01*
X99765220Y-70782000D02*
X99765220Y-77732000D01*
X103485220Y-63784000D02*
X103485220Y-74900000D01*
X100965220Y-70782000D02*
X100965220Y-77130000D01*
X98245220Y-60475000D02*
X98245220Y-78209000D01*
X98885220Y-60640000D02*
X98885220Y-67902000D01*
X101405220Y-70782000D02*
X101405220Y-76850000D01*
X98685220Y-70782000D02*
X98685220Y-78101000D01*
X98885220Y-70782000D02*
X98885220Y-78044000D01*
X102685220Y-62884000D02*
X102685220Y-75800000D01*
X99965220Y-61037000D02*
X99965220Y-67902000D01*
X101565220Y-61945000D02*
X101565220Y-76739000D01*
X105164220Y-67303000D02*
X105164220Y-71381000D01*
X97605220Y-60358000D02*
X97605220Y-78326000D01*
X100165220Y-70782000D02*
X100165220Y-77556000D01*
X101245220Y-61728000D02*
X101245220Y-67902000D01*
X98925220Y-60652000D02*
X98925220Y-67902000D01*
X96284220Y-60261000D02*
X96284220Y-78423000D01*
X99645220Y-60903000D02*
X99645220Y-67902000D01*
X101445220Y-70782000D02*
X101445220Y-76822000D01*
X100045220Y-70782000D02*
X100045220Y-77611000D01*
X96844220Y-60279000D02*
X96844220Y-78405000D01*
X99325220Y-70782000D02*
X99325220Y-77901000D01*
X96964220Y-60287000D02*
X96964220Y-78397000D01*
X104405220Y-65229000D02*
X104405220Y-73455000D01*
X102485220Y-62693000D02*
X102485220Y-75991000D01*
X99405220Y-60812000D02*
X99405220Y-67902000D01*
X97565220Y-60352000D02*
X97565220Y-78332000D01*
X100885220Y-70782000D02*
X100885220Y-77177000D01*
X99725220Y-60935000D02*
X99725220Y-67902000D01*
X102925220Y-63130000D02*
X102925220Y-75554000D01*
X99245220Y-70782000D02*
X99245220Y-77929000D01*
X104844220Y-66235000D02*
X104844220Y-72449000D01*
X103045220Y-63260000D02*
X103045220Y-75424000D01*
X103205220Y-63441000D02*
X103205220Y-75243000D01*
X104085220Y-64656000D02*
X104085220Y-74028000D01*
X99005220Y-70782000D02*
X99005220Y-78007000D01*
X101765220Y-62092000D02*
X101765220Y-76592000D01*
X87424780Y-63327000D02*
X87424780Y-65127000D01*
X86524780Y-64227000D02*
X88324780Y-64227000D01*
X100485220Y-61286000D02*
X100485220Y-67902000D01*
X104125220Y-64722000D02*
X104125220Y-73962000D01*
X100005220Y-61055000D02*
X100005220Y-67902000D01*
X100845220Y-70782000D02*
X100845220Y-77201000D01*
X99525220Y-70782000D02*
X99525220Y-77828000D01*
X96804220Y-60276000D02*
X96804220Y-78408000D01*
X99565220Y-70782000D02*
X99565220Y-77812000D01*
X97445220Y-60336000D02*
X97445220Y-78348000D01*
X100925220Y-61530000D02*
X100925220Y-67902000D01*
X102605220Y-62806000D02*
X102605220Y-75878000D01*
X101165220Y-61677000D02*
X101165220Y-67902000D01*
X98805220Y-60617000D02*
X98805220Y-67902000D01*
X102445220Y-62656000D02*
X102445220Y-76028000D01*
X104964220Y-66583000D02*
X104964220Y-72101000D01*
X100725220Y-61415000D02*
X100725220Y-67902000D01*
X97525220Y-60346000D02*
X97525220Y-78338000D01*
X99725220Y-70782000D02*
X99725220Y-77749000D01*
X100685220Y-61393000D02*
X100685220Y-67902000D01*
X96604220Y-60267000D02*
X96604220Y-78417000D01*
X100085220Y-61091000D02*
X100085220Y-67902000D01*
X100365220Y-70782000D02*
X100365220Y-77459000D01*
X100285220Y-61186000D02*
X100285220Y-67902000D01*
X97845220Y-60396000D02*
X97845220Y-78288000D01*
X102845220Y-63046000D02*
X102845220Y-75638000D01*
X104165220Y-64790000D02*
X104165220Y-73894000D01*
X99445220Y-70782000D02*
X99445220Y-77858000D01*
X101685220Y-62032000D02*
X101685220Y-76652000D01*
X96404220Y-60262000D02*
X96404220Y-78422000D01*
X97965220Y-60418000D02*
X97965220Y-78266000D01*
X101125220Y-61652000D02*
X101125220Y-67902000D01*
X99165220Y-70782000D02*
X99165220Y-77956000D01*
X100645220Y-70782000D02*
X100645220Y-77313000D01*
X99285220Y-70782000D02*
X99285220Y-77915000D01*
X98205220Y-60466000D02*
X98205220Y-78218000D01*
X99965220Y-70782000D02*
X99965220Y-77647000D01*
X99205220Y-70782000D02*
X99205220Y-77942000D01*
X100725220Y-70782000D02*
X100725220Y-77269000D01*
X99845220Y-60985000D02*
X99845220Y-67902000D01*
X97725220Y-60376000D02*
X97725220Y-78308000D01*
X103885220Y-64340000D02*
X103885220Y-74344000D01*
X104445220Y-65309000D02*
X104445220Y-73375000D01*
X100685220Y-70782000D02*
X100685220Y-77291000D01*
X98965220Y-60664000D02*
X98965220Y-67902000D01*
X98925220Y-70782000D02*
X98925220Y-78032000D01*
X100925220Y-70782000D02*
X100925220Y-77154000D01*
X100605220Y-70782000D02*
X100605220Y-77334000D01*
X98845220Y-60628000D02*
X98845220Y-67902000D01*
X104924220Y-66462000D02*
X104924220Y-72222000D01*
X101725220Y-62062000D02*
X101725220Y-76622000D01*
X100445220Y-61266000D02*
X100445220Y-67902000D01*
X98685220Y-60583000D02*
X98685220Y-67902000D01*
X101125220Y-70782000D02*
X101125220Y-77032000D01*
X99085220Y-60702000D02*
X99085220Y-67902000D01*
X97085220Y-60297000D02*
X97085220Y-78387000D01*
X99405220Y-70782000D02*
X99405220Y-77872000D01*
X103725220Y-64107000D02*
X103725220Y-74577000D01*
X101885220Y-62183000D02*
X101885220Y-76501000D01*
X105124220Y-67139000D02*
X105124220Y-71545000D01*
X104484220Y-65390000D02*
X104484220Y-73294000D01*
X105004220Y-66710000D02*
X105004220Y-71974000D01*
X100845220Y-61483000D02*
X100845220Y-67902000D01*
X99565220Y-60872000D02*
X99565220Y-67902000D01*
X103365220Y-63633000D02*
X103365220Y-75051000D01*
X101525220Y-61917000D02*
X101525220Y-76767000D01*
X98525220Y-60541000D02*
X98525220Y-78143000D01*
X104884220Y-66346000D02*
X104884220Y-72338000D01*
X98965220Y-70782000D02*
X98965220Y-78020000D01*
X101205220Y-70782000D02*
X101205220Y-76982000D01*
X100805220Y-61460000D02*
X100805220Y-67902000D01*
X100765220Y-61438000D02*
X100765220Y-67902000D01*
X100285220Y-70782000D02*
X100285220Y-77498000D01*
X104804220Y-66128000D02*
X104804220Y-72556000D01*
X100525220Y-61307000D02*
X100525220Y-67902000D01*
X96324220Y-60262000D02*
X96324220Y-78422000D01*
X103005220Y-63216000D02*
X103005220Y-75468000D01*
X96724220Y-60272000D02*
X96724220Y-78412000D01*
X101005220Y-61578000D02*
X101005220Y-67902000D01*
X100205220Y-61147000D02*
X100205220Y-67902000D01*
X105204220Y-67482000D02*
X105204220Y-71202000D01*
X102085220Y-62343000D02*
X102085220Y-76341000D01*
X103645220Y-63996000D02*
X103645220Y-74688000D01*
X101325220Y-61781000D02*
X101325220Y-67902000D01*
X100325220Y-70782000D02*
X100325220Y-77479000D01*
X99845220Y-70782000D02*
X99845220Y-77699000D01*
X101365220Y-61807000D02*
X101365220Y-67902000D01*
X102245220Y-62478000D02*
X102245220Y-76206000D01*
X104724220Y-65926000D02*
X104724220Y-72758000D01*
X98165220Y-60457000D02*
X98165220Y-78227000D01*
X101965220Y-62246000D02*
X101965220Y-76438000D01*
X97005220Y-60290000D02*
X97005220Y-78394000D01*
X98125220Y-60449000D02*
X98125220Y-78235000D01*
X98845220Y-70782000D02*
X98845220Y-78056000D01*
X103125220Y-63349000D02*
X103125220Y-75335000D01*
X100445220Y-70782000D02*
X100445220Y-77418000D01*
X96924220Y-60284000D02*
X96924220Y-78400000D01*
X104205220Y-64860000D02*
X104205220Y-73824000D01*
X105244220Y-67681000D02*
X105244220Y-71003000D01*
X102645220Y-62845000D02*
X102645220Y-75839000D01*
X97325220Y-60321000D02*
X97325220Y-78363000D01*
X102365220Y-62584000D02*
X102365220Y-76100000D01*
X104045220Y-64590000D02*
X104045220Y-74094000D01*
X104245220Y-64930000D02*
X104245220Y-73754000D01*
X98085220Y-60441000D02*
X98085220Y-78243000D01*
X98405220Y-60511000D02*
X98405220Y-78173000D01*
X102725220Y-62924000D02*
X102725220Y-75760000D01*
X98445220Y-60521000D02*
X98445220Y-78163000D01*
X104365220Y-65152000D02*
X104365220Y-73532000D01*
X101045220Y-61602000D02*
X101045220Y-67902000D01*
X99325220Y-60783000D02*
X99325220Y-67902000D01*
X102325220Y-62548000D02*
X102325220Y-76136000D01*
X99205220Y-60742000D02*
X99205220Y-67902000D01*
X98605220Y-60562000D02*
X98605220Y-67902000D01*
X102205220Y-62444000D02*
X102205220Y-76240000D01*
X105364220Y-68528000D02*
X105364220Y-70156000D01*
X103685220Y-64051000D02*
X103685220Y-74633000D01*
X103605220Y-63942000D02*
X103605220Y-74742000D01*
X99045220Y-60689000D02*
X99045220Y-67902000D01*
X97365220Y-60326000D02*
X97365220Y-78358000D01*
X101805220Y-62122000D02*
X101805220Y-76562000D01*
X105084220Y-66987000D02*
X105084220Y-71697000D01*
X101645220Y-62003000D02*
X101645220Y-76681000D01*
X97245220Y-60312000D02*
X97245220Y-78372000D01*
X101245220Y-70782000D02*
X101245220Y-76956000D01*
X97805220Y-60389000D02*
X97805220Y-78295000D01*
X100045220Y-61073000D02*
X100045220Y-67902000D01*
X102125220Y-62377000D02*
X102125220Y-76307000D01*
X104764220Y-66025000D02*
X104764220Y-72659000D01*
X102965220Y-63172000D02*
X102965220Y-75512000D01*
X97925220Y-60410000D02*
X97925220Y-78274000D01*
X100245220Y-61166000D02*
X100245220Y-67902000D01*
X98765220Y-70782000D02*
X98765220Y-78079000D01*
X98725220Y-70782000D02*
X98725220Y-78090000D01*
X97685220Y-60370000D02*
X97685220Y-78314000D01*
X100485220Y-70782000D02*
X100485220Y-77398000D01*
X99445220Y-60826000D02*
X99445220Y-67902000D01*
X98805220Y-70782000D02*
X98805220Y-78067000D01*
X100245220Y-70782000D02*
X100245220Y-77518000D01*
X100325220Y-61205000D02*
X100325220Y-67902000D01*
X103445220Y-63733000D02*
X103445220Y-74951000D01*
X101285220Y-61754000D02*
X101285220Y-67902000D01*
X103085220Y-63304000D02*
X103085220Y-75380000D01*
X100125220Y-70782000D02*
X100125220Y-77575000D01*
X99485220Y-70782000D02*
X99485220Y-77843000D01*
X104325220Y-65077000D02*
X104325220Y-73607000D01*
X105404220Y-69302000D02*
X105404220Y-69382000D01*
X105284220Y-67907000D02*
X105284220Y-70777000D01*
X102765220Y-62964000D02*
X102765220Y-75720000D01*
X96684220Y-60270000D02*
X96684220Y-78414000D01*
X102045220Y-62311000D02*
X102045220Y-76373000D01*
X96564220Y-60266000D02*
X96564220Y-78418000D01*
X103925220Y-64401000D02*
X103925220Y-74283000D01*
X101165220Y-70782000D02*
X101165220Y-77007000D01*
X99525220Y-60856000D02*
X99525220Y-67902000D01*
X99085220Y-70782000D02*
X99085220Y-77982000D01*
X97045220Y-60293000D02*
X97045220Y-78391000D01*
X100165220Y-61128000D02*
X100165220Y-67902000D01*
X99005220Y-60677000D02*
X99005220Y-67902000D01*
X99885220Y-70782000D02*
X99885220Y-77682000D01*
X103325220Y-63584000D02*
X103325220Y-75100000D01*
X98645220Y-70782000D02*
X98645220Y-78112000D01*
X98765220Y-60605000D02*
X98765220Y-67902000D01*
X97285220Y-60316000D02*
X97285220Y-78368000D01*
X100525220Y-70782000D02*
X100525220Y-77377000D01*
X100605220Y-61350000D02*
X100605220Y-67902000D01*
X99685220Y-60919000D02*
X99685220Y-67902000D01*
X104644220Y-65737000D02*
X104644220Y-72947000D01*
X98045220Y-60433000D02*
X98045220Y-78251000D01*
X101405220Y-61834000D02*
X101405220Y-67902000D01*
X101085220Y-61627000D02*
X101085220Y-67902000D01*
X101445220Y-61862000D02*
X101445220Y-67902000D01*
X101845220Y-62152000D02*
X101845220Y-76532000D01*
X103805220Y-64222000D02*
X103805220Y-74462000D01*
X96884220Y-60281000D02*
X96884220Y-78403000D01*
X99245220Y-60755000D02*
X99245220Y-67902000D01*
X99885220Y-61002000D02*
X99885220Y-67902000D01*
X97765220Y-60382000D02*
X97765220Y-78302000D01*
X99925220Y-61019000D02*
X99925220Y-67902000D01*
X99485220Y-60841000D02*
X99485220Y-67902000D01*
X103845220Y-64280000D02*
X103845220Y-74404000D01*
X96764220Y-60274000D02*
X96764220Y-78410000D01*
X100405220Y-70782000D02*
X100405220Y-77439000D01*
X100125220Y-61109000D02*
X100125220Y-67902000D01*
X100085220Y-70782000D02*
X100085220Y-77593000D01*
X98605220Y-70782000D02*
X98605220Y-78122000D01*
X100565220Y-61328000D02*
X100565220Y-67902000D01*
X101045220Y-70782000D02*
X101045220Y-77082000D01*
X99605220Y-60887000D02*
X99605220Y-67902000D01*
X98725220Y-60594000D02*
X98725220Y-67902000D01*
X97125220Y-60300000D02*
X97125220Y-78384000D01*
X99805220Y-60968000D02*
X99805220Y-67902000D01*
X99365220Y-70782000D02*
X99365220Y-77887000D01*
X102165220Y-62410000D02*
X102165220Y-76274000D01*
X101605220Y-61974000D02*
X101605220Y-76710000D01*
X99125220Y-70782000D02*
X99125220Y-77969000D01*
X100765220Y-70782000D02*
X100765220Y-77246000D01*
X99125220Y-60715000D02*
X99125220Y-67902000D01*
X96524220Y-60265000D02*
X96524220Y-78419000D01*
X100565220Y-70782000D02*
X100565220Y-77356000D01*
X99605220Y-70782000D02*
X99605220Y-77797000D01*
X96484220Y-60264000D02*
X96484220Y-78420000D01*
X97165220Y-60304000D02*
X97165220Y-78380000D01*
X99925220Y-70782000D02*
X99925220Y-77665000D01*
X99765220Y-60952000D02*
X99765220Y-67902000D01*
X99045220Y-70782000D02*
X99045220Y-77995000D01*
X104524220Y-65473000D02*
X104524220Y-73211000D01*
X99805220Y-70782000D02*
X99805220Y-77716000D01*
X102525220Y-62730000D02*
X102525220Y-75954000D01*
X102805220Y-63005000D02*
X102805220Y-75679000D01*
X102005220Y-62278000D02*
X102005220Y-76406000D01*
X103765220Y-64164000D02*
X103765220Y-74520000D01*
X101085220Y-70782000D02*
X101085220Y-77057000D01*
X98005220Y-60425000D02*
X98005220Y-78259000D01*
X99165220Y-60728000D02*
X99165220Y-67902000D01*
X100205220Y-70782000D02*
X100205220Y-77537000D01*
X101005220Y-70782000D02*
X101005220Y-77106000D01*
X99685220Y-70782000D02*
X99685220Y-77765000D01*
X100885220Y-61507000D02*
X100885220Y-67902000D01*
X99285220Y-60769000D02*
X99285220Y-67902000D01*
X97205220Y-60308000D02*
X97205220Y-78376000D01*
X105404220Y-69342000D02*
G75*
G03*
X105404220Y-69342000I-9120000J0D01*
G01*
%TO.C,Q1*%
X115136000Y-62350000D02*
X113636000Y-62350000D01*
X115136000Y-51950000D02*
X113636000Y-51950000D01*
X113636000Y-62350000D02*
X113636000Y-60540000D01*
X113636000Y-60540000D02*
X112536000Y-60540000D01*
X113636000Y-51950000D02*
X113636000Y-53760000D01*
X113636000Y-53760000D02*
X108511000Y-53760000D01*
%TO.C,R4*%
X125052000Y-45466000D02*
X123672000Y-45466000D01*
X73432000Y-40846000D02*
X73432000Y-50086000D01*
X123672000Y-40846000D02*
X73432000Y-40846000D01*
X123672000Y-50086000D02*
X123672000Y-40846000D01*
X73432000Y-50086000D02*
X123672000Y-50086000D01*
X72052000Y-45466000D02*
X73432000Y-45466000D01*
%TO.C,J1*%
X90517000Y-90378000D02*
X90517000Y-89373000D01*
X108782000Y-96383000D02*
X108782000Y-92383000D01*
X101712000Y-99003000D02*
X101712000Y-99603000D01*
X97752000Y-99003000D02*
X97752000Y-99603000D01*
X106587000Y-90378000D02*
X108492000Y-90378000D01*
X93792000Y-99003000D02*
X93792000Y-99603000D01*
X106472000Y-90373000D02*
X90632000Y-90373000D01*
X107272000Y-99603000D02*
X107272000Y-99003000D01*
X103312000Y-99003000D02*
X101712000Y-99003000D01*
X108492000Y-90378000D02*
X108492000Y-99603000D01*
X91432000Y-99603000D02*
X91432000Y-99003000D01*
X95392000Y-99003000D02*
X93792000Y-99003000D01*
X105672000Y-99003000D02*
X105672000Y-99603000D01*
X90632000Y-92043000D02*
X90632000Y-90373000D01*
X99352000Y-99603000D02*
X99352000Y-99003000D01*
X90517000Y-89373000D02*
X106587000Y-89373000D01*
X103312000Y-99603000D02*
X103312000Y-99003000D01*
X108492000Y-99603000D02*
X88612000Y-99603000D01*
X106472000Y-89373000D02*
X106472000Y-90373000D01*
X90632000Y-90373000D02*
X90632000Y-89373000D01*
X91432000Y-99003000D02*
X89832000Y-99003000D01*
X95392000Y-99603000D02*
X95392000Y-99003000D01*
X106472000Y-92043000D02*
X90632000Y-92043000D01*
X107272000Y-99003000D02*
X105672000Y-99003000D01*
X99352000Y-99003000D02*
X97752000Y-99003000D01*
X106587000Y-89373000D02*
X106587000Y-90378000D01*
X88612000Y-99603000D02*
X88612000Y-90378000D01*
X106472000Y-90373000D02*
X106472000Y-92043000D01*
X89832000Y-99003000D02*
X89832000Y-99603000D01*
X88612000Y-90378000D02*
X90517000Y-90378000D01*
%TO.C,U2*%
X139894000Y-65896000D02*
X145094000Y-65896000D01*
X139894000Y-64246000D02*
X139894000Y-65896000D01*
X145094000Y-65896000D02*
X145094000Y-60596000D01*
X139894000Y-60596000D02*
X139894000Y-62246000D01*
X145094000Y-60596000D02*
X139894000Y-60596000D01*
X139894000Y-64246000D02*
G75*
G03*
X139894000Y-62246000I0J1000000D01*
G01*
%TO.C,R2*%
X142208000Y-51916000D02*
X142208000Y-49176000D01*
X134898000Y-50546000D02*
X135668000Y-50546000D01*
X142208000Y-49176000D02*
X135668000Y-49176000D01*
X142978000Y-50546000D02*
X142208000Y-50546000D01*
X135668000Y-51916000D02*
X142208000Y-51916000D01*
X135668000Y-49176000D02*
X135668000Y-51916000D01*
%TO.C,JP1*%
X132837000Y-87316000D02*
X135437000Y-87316000D01*
X132837000Y-89976000D02*
X132837000Y-87316000D01*
X132837000Y-89976000D02*
X135437000Y-89976000D01*
X130237000Y-89976000D02*
X130237000Y-88646000D01*
X131567000Y-89976000D02*
X130237000Y-89976000D01*
X135437000Y-89976000D02*
X135437000Y-87316000D01*
%TO.C,J2*%
X85636000Y-99003000D02*
X84036000Y-99003000D01*
X84836000Y-92043000D02*
X68996000Y-92043000D01*
X69796000Y-99603000D02*
X69796000Y-99003000D01*
X77716000Y-99603000D02*
X77716000Y-99003000D01*
X72156000Y-99003000D02*
X72156000Y-99603000D01*
X81676000Y-99003000D02*
X80076000Y-99003000D01*
X66976000Y-90378000D02*
X68881000Y-90378000D01*
X85636000Y-99603000D02*
X85636000Y-99003000D01*
X68881000Y-90378000D02*
X68881000Y-89373000D01*
X84836000Y-90373000D02*
X84836000Y-92043000D01*
X69796000Y-99003000D02*
X68196000Y-99003000D01*
X84951000Y-90378000D02*
X86856000Y-90378000D01*
X66976000Y-99603000D02*
X66976000Y-90378000D01*
X81676000Y-99603000D02*
X81676000Y-99003000D01*
X84036000Y-99003000D02*
X84036000Y-99603000D01*
X84836000Y-89373000D02*
X84836000Y-90373000D01*
X73756000Y-99603000D02*
X73756000Y-99003000D01*
X68881000Y-89373000D02*
X84951000Y-89373000D01*
X77716000Y-99003000D02*
X76116000Y-99003000D01*
X84951000Y-89373000D02*
X84951000Y-90378000D01*
X68996000Y-92043000D02*
X68996000Y-90373000D01*
X68996000Y-90373000D02*
X68996000Y-89373000D01*
X80076000Y-99003000D02*
X80076000Y-99603000D01*
X84836000Y-90373000D02*
X68996000Y-90373000D01*
X87146000Y-96383000D02*
X87146000Y-92383000D01*
X73756000Y-99003000D02*
X72156000Y-99003000D01*
X76116000Y-99003000D02*
X76116000Y-99603000D01*
X68196000Y-99003000D02*
X68196000Y-99603000D01*
X86856000Y-99603000D02*
X66976000Y-99603000D01*
X86856000Y-90378000D02*
X86856000Y-99603000D01*
%TO.C,J4*%
X121868000Y-92043000D02*
X117908000Y-92043000D01*
X118708000Y-99603000D02*
X118708000Y-99003000D01*
X118708000Y-99003000D02*
X117108000Y-99003000D01*
X117108000Y-99003000D02*
X117108000Y-99603000D01*
X115888000Y-99603000D02*
X115888000Y-90378000D01*
X122668000Y-99003000D02*
X121068000Y-99003000D01*
X121983000Y-90378000D02*
X123888000Y-90378000D01*
X124178000Y-96383000D02*
X124178000Y-92383000D01*
X121983000Y-89373000D02*
X121983000Y-90378000D01*
X123888000Y-90378000D02*
X123888000Y-99603000D01*
X123888000Y-99603000D02*
X115888000Y-99603000D01*
X121868000Y-89373000D02*
X121868000Y-90373000D01*
X117908000Y-90373000D02*
X117908000Y-89373000D01*
X122668000Y-99603000D02*
X122668000Y-99003000D01*
X121868000Y-90373000D02*
X121868000Y-92043000D01*
X117793000Y-89373000D02*
X121983000Y-89373000D01*
X115888000Y-90378000D02*
X117793000Y-90378000D01*
X121068000Y-99003000D02*
X121068000Y-99603000D01*
X117908000Y-92043000D02*
X117908000Y-90373000D01*
X117793000Y-90378000D02*
X117793000Y-89373000D01*
X121868000Y-90373000D02*
X117908000Y-90373000D01*
%TO.C,C2*%
X80647000Y-70782000D02*
X80647000Y-77082000D01*
X77807000Y-60466000D02*
X77807000Y-78218000D01*
X82447000Y-63046000D02*
X82447000Y-75638000D01*
X84806000Y-67482000D02*
X84806000Y-71202000D01*
X84486000Y-66346000D02*
X84486000Y-72338000D01*
X77287000Y-60370000D02*
X77287000Y-78314000D01*
X79607000Y-61055000D02*
X79607000Y-67902000D01*
X78727000Y-70782000D02*
X78727000Y-77969000D01*
X82367000Y-62964000D02*
X82367000Y-75720000D01*
X81447000Y-62152000D02*
X81447000Y-76532000D01*
X79767000Y-70782000D02*
X79767000Y-77556000D01*
X78127000Y-60541000D02*
X78127000Y-78143000D01*
X78367000Y-60605000D02*
X78367000Y-67902000D01*
X79927000Y-61205000D02*
X79927000Y-67902000D01*
X79167000Y-60872000D02*
X79167000Y-67902000D01*
X77767000Y-60457000D02*
X77767000Y-78227000D01*
X83687000Y-64656000D02*
X83687000Y-74028000D01*
X84047000Y-65309000D02*
X84047000Y-73375000D01*
X78487000Y-60640000D02*
X78487000Y-67902000D01*
X79887000Y-61186000D02*
X79887000Y-67902000D01*
X78607000Y-70782000D02*
X78607000Y-78007000D01*
X81527000Y-62215000D02*
X81527000Y-76469000D01*
X77887000Y-60484000D02*
X77887000Y-78200000D01*
X77447000Y-60396000D02*
X77447000Y-78288000D01*
X77367000Y-60382000D02*
X77367000Y-78302000D01*
X76927000Y-60321000D02*
X76927000Y-78363000D01*
X79887000Y-70782000D02*
X79887000Y-77498000D01*
X80167000Y-61328000D02*
X80167000Y-67902000D01*
X78887000Y-60769000D02*
X78887000Y-67902000D01*
X77007000Y-60331000D02*
X77007000Y-78353000D01*
X81847000Y-62478000D02*
X81847000Y-76206000D01*
X78687000Y-60702000D02*
X78687000Y-67902000D01*
X83007000Y-63682000D02*
X83007000Y-75002000D01*
X76286000Y-60270000D02*
X76286000Y-78414000D01*
X81167000Y-61945000D02*
X81167000Y-76739000D01*
X83927000Y-65077000D02*
X83927000Y-73607000D01*
X82847000Y-63488000D02*
X82847000Y-75196000D01*
X82087000Y-62693000D02*
X82087000Y-75991000D01*
X81807000Y-62444000D02*
X81807000Y-76240000D01*
X76206000Y-60267000D02*
X76206000Y-78417000D01*
X78567000Y-60664000D02*
X78567000Y-67902000D01*
X81407000Y-62122000D02*
X81407000Y-76562000D01*
X79287000Y-70782000D02*
X79287000Y-77765000D01*
X78647000Y-60689000D02*
X78647000Y-67902000D01*
X77527000Y-60410000D02*
X77527000Y-78274000D01*
X78687000Y-70782000D02*
X78687000Y-77982000D01*
X75886000Y-60261000D02*
X75886000Y-78423000D01*
X81927000Y-62548000D02*
X81927000Y-76136000D01*
X83207000Y-63942000D02*
X83207000Y-74742000D01*
X76166000Y-60266000D02*
X76166000Y-78418000D01*
X78567000Y-70782000D02*
X78567000Y-78020000D01*
X82247000Y-62845000D02*
X82247000Y-75839000D01*
X83887000Y-65003000D02*
X83887000Y-73681000D01*
X78767000Y-60728000D02*
X78767000Y-67902000D01*
X80927000Y-70782000D02*
X80927000Y-76903000D01*
X80927000Y-61781000D02*
X80927000Y-67902000D01*
X78047000Y-60521000D02*
X78047000Y-78163000D01*
X82727000Y-63349000D02*
X82727000Y-75335000D01*
X80847000Y-61728000D02*
X80847000Y-67902000D01*
X78447000Y-70782000D02*
X78447000Y-78056000D01*
X83247000Y-63996000D02*
X83247000Y-74688000D01*
X79327000Y-70782000D02*
X79327000Y-77749000D01*
X80407000Y-70782000D02*
X80407000Y-77224000D01*
X78967000Y-70782000D02*
X78967000Y-77887000D01*
X81047000Y-70782000D02*
X81047000Y-76822000D01*
X79407000Y-60968000D02*
X79407000Y-67902000D01*
X84766000Y-67303000D02*
X84766000Y-71381000D01*
X77167000Y-60352000D02*
X77167000Y-78332000D01*
X76406000Y-60276000D02*
X76406000Y-78408000D01*
X78407000Y-60617000D02*
X78407000Y-67902000D01*
X80087000Y-70782000D02*
X80087000Y-77398000D01*
X76647000Y-60293000D02*
X76647000Y-78391000D01*
X82527000Y-63130000D02*
X82527000Y-75554000D01*
X77927000Y-60493000D02*
X77927000Y-78191000D01*
X80127000Y-61307000D02*
X80127000Y-67902000D01*
X78207000Y-70782000D02*
X78207000Y-78122000D01*
X81607000Y-62278000D02*
X81607000Y-76406000D01*
X77727000Y-60449000D02*
X77727000Y-78235000D01*
X80327000Y-61415000D02*
X80327000Y-67902000D01*
X79687000Y-70782000D02*
X79687000Y-77593000D01*
X77207000Y-60358000D02*
X77207000Y-78326000D01*
X82887000Y-63536000D02*
X82887000Y-75148000D01*
X80727000Y-70782000D02*
X80727000Y-77032000D01*
X80207000Y-70782000D02*
X80207000Y-77334000D01*
X78527000Y-60652000D02*
X78527000Y-67902000D01*
X81007000Y-61834000D02*
X81007000Y-67902000D01*
X79487000Y-70782000D02*
X79487000Y-77682000D01*
X76687000Y-60297000D02*
X76687000Y-78387000D01*
X79647000Y-61073000D02*
X79647000Y-67902000D01*
X81087000Y-61889000D02*
X81087000Y-76795000D01*
X83527000Y-64401000D02*
X83527000Y-74283000D01*
X80367000Y-70782000D02*
X80367000Y-77246000D01*
X80087000Y-61286000D02*
X80087000Y-67902000D01*
X83847000Y-64930000D02*
X83847000Y-73754000D01*
X77047000Y-60336000D02*
X77047000Y-78348000D01*
X81767000Y-62410000D02*
X81767000Y-76274000D01*
X84007000Y-65229000D02*
X84007000Y-73455000D01*
X76607000Y-60290000D02*
X76607000Y-78394000D01*
X82487000Y-63088000D02*
X82487000Y-75596000D01*
X77687000Y-60441000D02*
X77687000Y-78243000D01*
X79727000Y-70782000D02*
X79727000Y-77575000D01*
X82687000Y-63304000D02*
X82687000Y-75380000D01*
X77967000Y-60502000D02*
X77967000Y-78182000D01*
X77847000Y-60475000D02*
X77847000Y-78209000D01*
X78847000Y-60755000D02*
X78847000Y-67902000D01*
X80367000Y-61438000D02*
X80367000Y-67902000D01*
X79967000Y-61225000D02*
X79967000Y-67902000D01*
X83047000Y-63733000D02*
X83047000Y-74951000D01*
X84726000Y-67139000D02*
X84726000Y-71545000D01*
X76807000Y-60308000D02*
X76807000Y-78376000D01*
X79127000Y-70782000D02*
X79127000Y-77828000D01*
X79007000Y-60812000D02*
X79007000Y-67902000D01*
X83127000Y-63836000D02*
X83127000Y-74848000D01*
X79607000Y-70782000D02*
X79607000Y-77629000D01*
X84526000Y-66462000D02*
X84526000Y-72222000D01*
X84206000Y-65646000D02*
X84206000Y-73038000D01*
X80327000Y-70782000D02*
X80327000Y-77269000D01*
X66126560Y-64227000D02*
X67926560Y-64227000D01*
X79447000Y-60985000D02*
X79447000Y-67902000D01*
X78287000Y-70782000D02*
X78287000Y-78101000D01*
X79527000Y-61019000D02*
X79527000Y-67902000D01*
X79247000Y-70782000D02*
X79247000Y-77781000D01*
X84086000Y-65390000D02*
X84086000Y-73294000D01*
X82287000Y-62884000D02*
X82287000Y-75800000D01*
X78327000Y-60594000D02*
X78327000Y-67902000D01*
X80807000Y-70782000D02*
X80807000Y-76982000D01*
X80967000Y-61807000D02*
X80967000Y-67902000D01*
X82567000Y-63172000D02*
X82567000Y-75512000D01*
X76006000Y-60262000D02*
X76006000Y-78422000D01*
X76526000Y-60284000D02*
X76526000Y-78400000D01*
X78647000Y-70782000D02*
X78647000Y-77995000D01*
X80887000Y-61754000D02*
X80887000Y-67902000D01*
X82167000Y-62768000D02*
X82167000Y-75916000D01*
X80487000Y-70782000D02*
X80487000Y-77177000D01*
X77607000Y-60425000D02*
X77607000Y-78259000D01*
X84326000Y-65926000D02*
X84326000Y-72758000D01*
X79807000Y-70782000D02*
X79807000Y-77537000D01*
X81887000Y-62513000D02*
X81887000Y-76171000D01*
X77247000Y-60363000D02*
X77247000Y-78321000D01*
X84246000Y-65737000D02*
X84246000Y-72947000D01*
X81047000Y-61862000D02*
X81047000Y-67902000D01*
X76326000Y-60272000D02*
X76326000Y-78412000D01*
X83407000Y-64222000D02*
X83407000Y-74462000D01*
X83767000Y-64790000D02*
X83767000Y-73894000D01*
X84886000Y-67907000D02*
X84886000Y-70777000D01*
X80287000Y-70782000D02*
X80287000Y-77291000D01*
X78767000Y-70782000D02*
X78767000Y-77956000D01*
X79167000Y-70782000D02*
X79167000Y-77812000D01*
X81367000Y-62092000D02*
X81367000Y-76592000D01*
X82807000Y-63441000D02*
X82807000Y-75243000D01*
X79687000Y-61091000D02*
X79687000Y-67902000D01*
X84446000Y-66235000D02*
X84446000Y-72449000D01*
X78527000Y-70782000D02*
X78527000Y-78032000D01*
X84686000Y-66987000D02*
X84686000Y-71697000D01*
X82207000Y-62806000D02*
X82207000Y-75878000D01*
X80127000Y-70782000D02*
X80127000Y-77377000D01*
X79127000Y-60856000D02*
X79127000Y-67902000D01*
X80287000Y-61393000D02*
X80287000Y-67902000D01*
X80807000Y-61702000D02*
X80807000Y-67902000D01*
X81207000Y-61974000D02*
X81207000Y-76710000D01*
X76446000Y-60279000D02*
X76446000Y-78405000D01*
X84966000Y-68528000D02*
X84966000Y-70156000D01*
X76126000Y-60265000D02*
X76126000Y-78419000D01*
X79727000Y-61109000D02*
X79727000Y-67902000D01*
X67026560Y-63327000D02*
X67026560Y-65127000D01*
X78927000Y-70782000D02*
X78927000Y-77901000D01*
X82127000Y-62730000D02*
X82127000Y-75954000D01*
X79407000Y-70782000D02*
X79407000Y-77716000D01*
X80767000Y-61677000D02*
X80767000Y-67902000D01*
X83807000Y-64860000D02*
X83807000Y-73824000D01*
X79847000Y-70782000D02*
X79847000Y-77518000D01*
X84366000Y-66025000D02*
X84366000Y-72659000D01*
X80007000Y-70782000D02*
X80007000Y-77439000D01*
X80687000Y-61627000D02*
X80687000Y-67902000D01*
X79847000Y-61166000D02*
X79847000Y-67902000D01*
X80167000Y-70782000D02*
X80167000Y-77356000D01*
X80567000Y-70782000D02*
X80567000Y-77130000D01*
X81967000Y-62584000D02*
X81967000Y-76100000D01*
X80967000Y-70782000D02*
X80967000Y-76877000D01*
X84646000Y-66844000D02*
X84646000Y-71840000D01*
X79367000Y-60952000D02*
X79367000Y-67902000D01*
X80047000Y-70782000D02*
X80047000Y-77418000D01*
X80447000Y-61483000D02*
X80447000Y-67902000D01*
X83327000Y-64107000D02*
X83327000Y-74577000D01*
X78247000Y-60572000D02*
X78247000Y-67902000D01*
X78447000Y-60628000D02*
X78447000Y-67902000D01*
X79007000Y-70782000D02*
X79007000Y-77872000D01*
X75926000Y-60262000D02*
X75926000Y-78422000D01*
X78487000Y-70782000D02*
X78487000Y-78044000D01*
X78607000Y-60677000D02*
X78607000Y-67902000D01*
X81327000Y-62062000D02*
X81327000Y-76622000D01*
X83727000Y-64722000D02*
X83727000Y-73962000D01*
X77567000Y-60418000D02*
X77567000Y-78266000D01*
X80487000Y-61507000D02*
X80487000Y-67902000D01*
X80447000Y-70782000D02*
X80447000Y-77201000D01*
X78367000Y-70782000D02*
X78367000Y-78079000D01*
X83087000Y-63784000D02*
X83087000Y-74900000D01*
X82767000Y-63395000D02*
X82767000Y-75289000D01*
X83967000Y-65152000D02*
X83967000Y-73532000D01*
X80527000Y-61530000D02*
X80527000Y-67902000D01*
X80767000Y-70782000D02*
X80767000Y-77007000D01*
X80887000Y-70782000D02*
X80887000Y-76930000D01*
X76727000Y-60300000D02*
X76727000Y-78384000D01*
X78287000Y-60583000D02*
X78287000Y-67902000D01*
X81687000Y-62343000D02*
X81687000Y-76341000D01*
X82327000Y-62924000D02*
X82327000Y-75760000D01*
X82007000Y-62620000D02*
X82007000Y-76064000D01*
X80247000Y-70782000D02*
X80247000Y-77313000D01*
X83447000Y-64280000D02*
X83447000Y-74404000D01*
X76086000Y-60264000D02*
X76086000Y-78420000D01*
X80527000Y-70782000D02*
X80527000Y-77154000D01*
X84926000Y-68176000D02*
X84926000Y-70508000D01*
X84166000Y-65558000D02*
X84166000Y-73126000D01*
X84406000Y-66128000D02*
X84406000Y-72556000D01*
X83567000Y-64463000D02*
X83567000Y-74221000D01*
X80607000Y-61578000D02*
X80607000Y-67902000D01*
X81127000Y-61917000D02*
X81127000Y-76767000D01*
X76486000Y-60281000D02*
X76486000Y-78403000D01*
X78087000Y-60531000D02*
X78087000Y-78153000D01*
X79647000Y-70782000D02*
X79647000Y-77611000D01*
X78247000Y-70782000D02*
X78247000Y-78112000D01*
X82967000Y-63633000D02*
X82967000Y-75051000D01*
X82407000Y-63005000D02*
X82407000Y-75679000D01*
X81567000Y-62246000D02*
X81567000Y-76438000D01*
X76046000Y-60263000D02*
X76046000Y-78421000D01*
X79567000Y-70782000D02*
X79567000Y-77647000D01*
X79807000Y-61147000D02*
X79807000Y-67902000D01*
X78207000Y-60562000D02*
X78207000Y-67902000D01*
X82607000Y-63216000D02*
X82607000Y-75468000D01*
X82047000Y-62656000D02*
X82047000Y-76028000D01*
X79927000Y-70782000D02*
X79927000Y-77479000D01*
X78407000Y-70782000D02*
X78407000Y-78067000D01*
X78847000Y-70782000D02*
X78847000Y-77929000D01*
X84606000Y-66710000D02*
X84606000Y-71974000D01*
X83487000Y-64340000D02*
X83487000Y-74344000D01*
X83647000Y-64590000D02*
X83647000Y-74094000D01*
X79367000Y-70782000D02*
X79367000Y-77732000D01*
X76887000Y-60316000D02*
X76887000Y-78368000D01*
X77487000Y-60403000D02*
X77487000Y-78281000D01*
X76566000Y-60287000D02*
X76566000Y-78397000D01*
X80607000Y-70782000D02*
X80607000Y-77106000D01*
X77327000Y-60376000D02*
X77327000Y-78308000D01*
X78327000Y-70782000D02*
X78327000Y-78090000D01*
X80847000Y-70782000D02*
X80847000Y-76956000D01*
X79047000Y-70782000D02*
X79047000Y-77858000D01*
X79207000Y-70782000D02*
X79207000Y-77797000D01*
X79447000Y-70782000D02*
X79447000Y-77699000D01*
X83287000Y-64051000D02*
X83287000Y-74633000D01*
X78007000Y-60511000D02*
X78007000Y-78173000D01*
X77087000Y-60341000D02*
X77087000Y-78343000D01*
X80727000Y-61652000D02*
X80727000Y-67902000D01*
X80687000Y-70782000D02*
X80687000Y-77057000D01*
X79087000Y-60841000D02*
X79087000Y-67902000D01*
X83167000Y-63888000D02*
X83167000Y-74796000D01*
X85006000Y-69302000D02*
X85006000Y-69382000D01*
X79087000Y-70782000D02*
X79087000Y-77843000D01*
X79967000Y-70782000D02*
X79967000Y-77459000D01*
X80247000Y-61371000D02*
X80247000Y-67902000D01*
X76967000Y-60326000D02*
X76967000Y-78358000D01*
X80047000Y-61266000D02*
X80047000Y-67902000D01*
X79567000Y-61037000D02*
X79567000Y-67902000D01*
X79207000Y-60887000D02*
X79207000Y-67902000D01*
X77127000Y-60346000D02*
X77127000Y-78338000D01*
X78967000Y-60797000D02*
X78967000Y-67902000D01*
X78167000Y-60551000D02*
X78167000Y-78133000D01*
X78887000Y-70782000D02*
X78887000Y-77915000D01*
X81487000Y-62183000D02*
X81487000Y-76501000D01*
X78807000Y-70782000D02*
X78807000Y-77942000D01*
X79527000Y-70782000D02*
X79527000Y-77665000D01*
X81287000Y-62032000D02*
X81287000Y-76652000D01*
X76767000Y-60304000D02*
X76767000Y-78380000D01*
X80207000Y-61350000D02*
X80207000Y-67902000D01*
X81727000Y-62377000D02*
X81727000Y-76307000D01*
X76847000Y-60312000D02*
X76847000Y-78372000D01*
X78807000Y-60742000D02*
X78807000Y-67902000D01*
X80567000Y-61554000D02*
X80567000Y-67902000D01*
X75966000Y-60262000D02*
X75966000Y-78422000D01*
X79327000Y-60935000D02*
X79327000Y-67902000D01*
X80007000Y-61245000D02*
X80007000Y-67902000D01*
X79767000Y-61128000D02*
X79767000Y-67902000D01*
X78727000Y-60715000D02*
X78727000Y-67902000D01*
X80647000Y-61602000D02*
X80647000Y-67902000D01*
X79047000Y-60826000D02*
X79047000Y-67902000D01*
X84566000Y-66583000D02*
X84566000Y-72101000D01*
X82647000Y-63260000D02*
X82647000Y-75424000D01*
X83607000Y-64526000D02*
X83607000Y-74158000D01*
X82927000Y-63584000D02*
X82927000Y-75100000D01*
X79487000Y-61002000D02*
X79487000Y-67902000D01*
X84846000Y-67681000D02*
X84846000Y-71003000D01*
X81647000Y-62311000D02*
X81647000Y-76373000D01*
X80407000Y-61460000D02*
X80407000Y-67902000D01*
X79287000Y-60919000D02*
X79287000Y-67902000D01*
X84126000Y-65473000D02*
X84126000Y-73211000D01*
X84286000Y-65830000D02*
X84286000Y-72854000D01*
X77647000Y-60433000D02*
X77647000Y-78251000D01*
X76366000Y-60274000D02*
X76366000Y-78410000D01*
X78927000Y-60783000D02*
X78927000Y-67902000D01*
X81247000Y-62003000D02*
X81247000Y-76681000D01*
X83367000Y-64164000D02*
X83367000Y-74520000D01*
X77407000Y-60389000D02*
X77407000Y-78295000D01*
X76246000Y-60269000D02*
X76246000Y-78415000D01*
X81007000Y-70782000D02*
X81007000Y-76850000D01*
X79247000Y-60903000D02*
X79247000Y-67902000D01*
X85006000Y-69342000D02*
G75*
G03*
X85006000Y-69342000I-9120000J0D01*
G01*
%TO.C,U1*%
X138020000Y-83686000D02*
X138020000Y-81876000D01*
X139520000Y-73286000D02*
X138020000Y-73286000D01*
X138020000Y-81876000D02*
X136920000Y-81876000D01*
X138020000Y-73286000D02*
X138020000Y-75096000D01*
X139520000Y-83686000D02*
X138020000Y-83686000D01*
X138020000Y-75096000D02*
X132895000Y-75096000D01*
%TD*%
M02*
