M48
; DRILL file {KiCad (6.0.1)} date Sun Jan 30 09:16:29 2022
; FORMAT={-:-/ absolute / inch / decimal}
; #@! TF.CreationDate,2022-01-30T09:16:29+01:00
; #@! TF.GenerationSoftware,Kicad,Pcbnew,(6.0.1)
; #@! TF.FileFunction,Plated,1,2,PTH
FMAT,2
INCH
; #@! TA.AperFunction,Plated,PTH,ViaDrill
T1C0.0157
; #@! TA.AperFunction,Plated,PTH,ComponentDrill
T2C0.0300
; #@! TA.AperFunction,Plated,PTH,ComponentDrill
T3C0.0315
; #@! TA.AperFunction,Plated,PTH,ComponentDrill
T4C0.0394
; #@! TA.AperFunction,Plated,PTH,ComponentDrill
T5C0.0469
; #@! TA.AperFunction,Plated,PTH,ComponentDrill
T6C0.0472
; #@! TA.AperFunction,Plated,PTH,ComponentDrill
T7C0.0512
; #@! TA.AperFunction,Plated,PTH,ComponentDrill
T8C0.0630
; #@! TA.AperFunction,Plated,PTH,ComponentDrill
T9C0.0669
%
G90
G05
T1
X4.97Y-2.0
T2
X4.89Y-3.3974
T3
X5.26Y-2.77
X5.27Y-1.99
X5.27Y-2.16
X5.56Y-2.34
X5.56Y-2.64
X5.66Y-2.34
X5.66Y-2.64
X5.66Y-2.77
X5.67Y-1.99
X5.67Y-2.16
T4
X4.3979Y-2.61
X4.3979Y-3.3974
X4.89Y-2.61
X5.1798Y-3.49
X5.2798Y-3.49
T5
X5.23Y-3.7792
X5.33Y-3.7792
X5.43Y-3.7792
T6
X2.78Y-1.79
X2.84Y-2.73
X3.1353Y-2.73
X3.6431Y-2.73
X3.9384Y-2.73
X4.98Y-1.79
T7
X2.24Y-2.0018
X2.24Y-3.4782
T8
X2.9188Y-3.3462
X3.1188Y-3.3462
X3.3188Y-3.3462
X3.5188Y-3.3462
T9
X2.7164Y-3.7159
X2.8723Y-3.7159
X3.0282Y-3.7159
X3.1841Y-3.7159
X3.34Y-3.7159
X3.5682Y-3.7159
X3.7241Y-3.7159
X3.88Y-3.7159
X4.0359Y-3.7159
X4.1918Y-3.7159
X4.642Y-3.7159
X4.798Y-3.7159
T0
M30
