%TF.GenerationSoftware,KiCad,Pcbnew,(6.0.1)*%
%TF.CreationDate,2022-01-30T09:16:28+01:00*%
%TF.ProjectId,board_shakercontrol,626f6172-645f-4736-9861-6b6572636f6e,rev?*%
%TF.SameCoordinates,Original*%
%TF.FileFunction,Copper,L2,Bot*%
%TF.FilePolarity,Positive*%
%FSLAX46Y46*%
G04 Gerber Fmt 4.6, Leading zero omitted, Abs format (unit mm)*
G04 Created by KiCad (PCBNEW (6.0.1)) date 2022-01-30 09:16:28*
%MOMM*%
%LPD*%
G01*
G04 APERTURE LIST*
G04 Aperture macros list*
%AMRoundRect*
0 Rectangle with rounded corners*
0 $1 Rounding radius*
0 $2 $3 $4 $5 $6 $7 $8 $9 X,Y pos of 4 corners*
0 Add a 4 corners polygon primitive as box body*
4,1,4,$2,$3,$4,$5,$6,$7,$8,$9,$2,$3,0*
0 Add four circle primitives for the rounded corners*
1,1,$1+$1,$2,$3*
1,1,$1+$1,$4,$5*
1,1,$1+$1,$6,$7*
1,1,$1+$1,$8,$9*
0 Add four rect primitives between the rounded corners*
20,1,$1+$1,$2,$3,$4,$5,0*
20,1,$1+$1,$4,$5,$6,$7,0*
20,1,$1+$1,$6,$7,$8,$9,0*
20,1,$1+$1,$8,$9,$2,$3,0*%
G04 Aperture macros list end*
%TA.AperFunction,ComponentPad*%
%ADD10RoundRect,0.250000X0.620000X0.845000X-0.620000X0.845000X-0.620000X-0.845000X0.620000X-0.845000X0*%
%TD*%
%TA.AperFunction,ComponentPad*%
%ADD11O,1.740000X2.190000*%
%TD*%
%TA.AperFunction,ComponentPad*%
%ADD12C,2.000000*%
%TD*%
%TA.AperFunction,ComponentPad*%
%ADD13C,1.600000*%
%TD*%
%TA.AperFunction,ComponentPad*%
%ADD14O,1.600000X1.600000*%
%TD*%
%TA.AperFunction,ComponentPad*%
%ADD15R,3.200000X3.200000*%
%TD*%
%TA.AperFunction,ComponentPad*%
%ADD16C,3.200000*%
%TD*%
%TA.AperFunction,ComponentPad*%
%ADD17O,6.000000X3.250000*%
%TD*%
%TA.AperFunction,ComponentPad*%
%ADD18R,2.400000X2.400000*%
%TD*%
%TA.AperFunction,ComponentPad*%
%ADD19C,2.400000*%
%TD*%
%TA.AperFunction,ComponentPad*%
%ADD20O,2.400000X2.400000*%
%TD*%
%TA.AperFunction,ComponentPad*%
%ADD21RoundRect,0.250000X1.330000X1.800000X-1.330000X1.800000X-1.330000X-1.800000X1.330000X-1.800000X0*%
%TD*%
%TA.AperFunction,ComponentPad*%
%ADD22O,3.160000X4.100000*%
%TD*%
%TA.AperFunction,ComponentPad*%
%ADD23R,1.600000X1.600000*%
%TD*%
%TA.AperFunction,ComponentPad*%
%ADD24O,1.700000X1.700000*%
%TD*%
%TA.AperFunction,ComponentPad*%
%ADD25R,1.700000X1.700000*%
%TD*%
%TA.AperFunction,ViaPad*%
%ADD26C,0.800000*%
%TD*%
%TA.AperFunction,Conductor*%
%ADD27C,0.762000*%
%TD*%
%TA.AperFunction,Conductor*%
%ADD28C,0.254000*%
%TD*%
G04 APERTURE END LIST*
D10*
%TO.P,J3,1,Pin_1*%
%TO.N,GND*%
X137922000Y-95992000D03*
D11*
%TO.P,J3,2,Pin_2*%
%TO.N,Net-(J3-Pad2)*%
X135382000Y-95992000D03*
%TO.P,J3,3,Pin_3*%
%TO.N,Net-(J3-Pad3)*%
X132842000Y-95992000D03*
%TD*%
D12*
%TO.P,L1,1,1*%
%TO.N,Net-(L1-Pad1)*%
X124206000Y-66294005D03*
%TO.P,L1,2,2*%
%TO.N,Net-(L1-Pad2)*%
X111706000Y-66294005D03*
%TO.P,L1,3,3*%
%TO.N,Net-(J4-Pad2)*%
X111706000Y-86294005D03*
%TO.P,L1,4,4*%
%TO.N,Net-(J4-Pad1)*%
X124206000Y-86294005D03*
%TD*%
D13*
%TO.P,R1,1*%
%TO.N,GND*%
X133604000Y-70358000D03*
D14*
%TO.P,R1,2*%
%TO.N,Net-(R1-Pad2)*%
X143764000Y-70358000D03*
%TD*%
D15*
%TO.P,D1,1,-*%
%TO.N,GND*%
X74138000Y-84994000D03*
D16*
%TO.P,D1,2*%
%TO.N,/16VAC2*%
X79218000Y-84994000D03*
%TO.P,D1,3*%
%TO.N,/16VAC1*%
X84298000Y-84994000D03*
%TO.P,D1,4,+*%
%TO.N,/VIN*%
X89378000Y-84994000D03*
%TD*%
D17*
%TO.P,F1,1*%
%TO.N,/VIN*%
X56896000Y-88346000D03*
%TO.P,F1,2*%
%TO.N,VCC*%
X56896000Y-50846000D03*
%TD*%
D13*
%TO.P,R3,1*%
%TO.N,Net-(Q1-Pad1)*%
X133858000Y-54864000D03*
D14*
%TO.P,R3,2*%
%TO.N,GND*%
X144018000Y-54864000D03*
%TD*%
D18*
%TO.P,C1,1*%
%TO.N,/VIN*%
X92534220Y-69342000D03*
D19*
%TO.P,C1,2*%
%TO.N,GND*%
X100034220Y-69342000D03*
%TD*%
%TO.P,R4,1*%
%TO.N,VCC*%
X70612000Y-45466000D03*
D20*
%TO.P,R4,2*%
%TO.N,Net-(L1-Pad1)*%
X126492000Y-45466000D03*
%TD*%
D21*
%TO.P,J1,1,Pin_1*%
%TO.N,Net-(J1-Pad1)*%
X106472000Y-94383000D03*
D22*
%TO.P,J1,2,Pin_2*%
%TO.N,Net-(J1-Pad2)*%
X102512000Y-94383000D03*
%TO.P,J1,3,Pin_3*%
%TO.N,Net-(J1-Pad3)*%
X98552000Y-94383000D03*
%TO.P,J1,4,Pin_4*%
%TO.N,/16VAC1*%
X94592000Y-94383000D03*
%TO.P,J1,5,Pin_5*%
%TO.N,/16VAC2*%
X90632000Y-94383000D03*
%TD*%
D23*
%TO.P,U2,1*%
%TO.N,Net-(J3-Pad2)*%
X141224000Y-67056000D03*
D14*
%TO.P,U2,2*%
%TO.N,Net-(R1-Pad2)*%
X143764000Y-67056000D03*
%TO.P,U2,3*%
%TO.N,GND*%
X143764000Y-59436000D03*
%TO.P,U2,4*%
%TO.N,Net-(Q1-Pad1)*%
X141224000Y-59436000D03*
%TD*%
D13*
%TO.P,R2,1*%
%TO.N,VCC*%
X133858000Y-50546000D03*
D14*
%TO.P,R2,2*%
%TO.N,Net-(Q1-Pad1)*%
X144018000Y-50546000D03*
%TD*%
D24*
%TO.P,JP1,2,B*%
%TO.N,+5V*%
X134107000Y-88646000D03*
D25*
%TO.P,JP1,1,A*%
%TO.N,Net-(J3-Pad3)*%
X131567000Y-88646000D03*
%TD*%
D21*
%TO.P,J2,1,Pin_1*%
%TO.N,Net-(J1-Pad1)*%
X84836000Y-94383000D03*
D22*
%TO.P,J2,2,Pin_2*%
%TO.N,Net-(J1-Pad2)*%
X80876000Y-94383000D03*
%TO.P,J2,3,Pin_3*%
%TO.N,Net-(J1-Pad3)*%
X76916000Y-94383000D03*
%TO.P,J2,4,Pin_4*%
%TO.N,/16VAC1*%
X72956000Y-94383000D03*
%TO.P,J2,5,Pin_5*%
%TO.N,/16VAC2*%
X68996000Y-94383000D03*
%TD*%
D21*
%TO.P,J4,1,Pin_1*%
%TO.N,Net-(J4-Pad1)*%
X121868000Y-94383000D03*
D22*
%TO.P,J4,2,Pin_2*%
%TO.N,Net-(J4-Pad2)*%
X117908000Y-94383000D03*
%TD*%
D18*
%TO.P,C2,1*%
%TO.N,/VIN*%
X72136000Y-69342000D03*
D19*
%TO.P,C2,2*%
%TO.N,GND*%
X79636000Y-69342000D03*
%TD*%
D26*
%TO.N,Net-(Q1-Pad1)*%
X126238000Y-50800000D03*
%TD*%
D27*
%TO.N,Net-(J1-Pad2)*%
X80876000Y-94727532D02*
X84446468Y-98298000D01*
X80876000Y-94383000D02*
X80876000Y-94727532D01*
X84446468Y-98298000D02*
X101092000Y-98298000D01*
X101092000Y-98298000D02*
X102512000Y-96878000D01*
X102512000Y-96878000D02*
X102512000Y-94383000D01*
D28*
%TO.N,Net-(Q1-Pad1)*%
X130302000Y-54864000D02*
X133858000Y-54864000D01*
X126238000Y-50800000D02*
X130302000Y-54864000D01*
D27*
%TO.N,/16VAC1*%
X85203000Y-84994000D02*
X94592000Y-94383000D01*
X84298000Y-84994000D02*
X85203000Y-84994000D01*
%TO.N,/16VAC2*%
X79218000Y-84994000D02*
X81184000Y-84994000D01*
X90573000Y-94383000D02*
X90632000Y-94383000D01*
X81184000Y-84994000D02*
X90573000Y-94383000D01*
%TD*%
%TA.AperFunction,Conductor*%
%TO.N,/VIN*%
G36*
X95954121Y-65806002D02*
G01*
X96000614Y-65859658D01*
X96012000Y-65912000D01*
X96012000Y-91060000D01*
X95991998Y-91128121D01*
X95938342Y-91174614D01*
X95886000Y-91186000D01*
X92705133Y-91186000D01*
X92637012Y-91165998D01*
X92616038Y-91149095D01*
X88707926Y-87240983D01*
X88673900Y-87178671D01*
X88678965Y-87107856D01*
X88721512Y-87051020D01*
X88788032Y-87026209D01*
X88832808Y-87031077D01*
X88912971Y-87054823D01*
X88921318Y-87056689D01*
X89196954Y-87098867D01*
X89205487Y-87099583D01*
X89484291Y-87103963D01*
X89492842Y-87103514D01*
X89769659Y-87070016D01*
X89778073Y-87068411D01*
X90047786Y-86997654D01*
X90055902Y-86994923D01*
X90313521Y-86888213D01*
X90321183Y-86884410D01*
X90561933Y-86743727D01*
X90569020Y-86738910D01*
X90663883Y-86664529D01*
X90672353Y-86652670D01*
X90665836Y-86641046D01*
X89019922Y-84995132D01*
X89742408Y-84995132D01*
X89742539Y-84996965D01*
X89746790Y-85003580D01*
X91025264Y-86282054D01*
X91037474Y-86288721D01*
X91048973Y-86280032D01*
X91159464Y-86129617D01*
X91164048Y-86122393D01*
X91297099Y-85877346D01*
X91300667Y-85869553D01*
X91399227Y-85608721D01*
X91401704Y-85600515D01*
X91463954Y-85328718D01*
X91465294Y-85320257D01*
X91490243Y-85040715D01*
X91490489Y-85035776D01*
X91490900Y-84996485D01*
X91490757Y-84991519D01*
X91471669Y-84711520D01*
X91470508Y-84703046D01*
X91413962Y-84429998D01*
X91411658Y-84421744D01*
X91318579Y-84158897D01*
X91315183Y-84151049D01*
X91187286Y-83903254D01*
X91182858Y-83895942D01*
X91049812Y-83706636D01*
X91039290Y-83698256D01*
X91025902Y-83705308D01*
X89750022Y-84981188D01*
X89742408Y-84995132D01*
X89019922Y-84995132D01*
X87730160Y-83705370D01*
X87718150Y-83698811D01*
X87706410Y-83707779D01*
X87584748Y-83877091D01*
X87580226Y-83884385D01*
X87449757Y-84130799D01*
X87446271Y-84138627D01*
X87350446Y-84400481D01*
X87348057Y-84408704D01*
X87288654Y-84681151D01*
X87287405Y-84689607D01*
X87265526Y-84967604D01*
X87265437Y-84976154D01*
X87281488Y-85254533D01*
X87282561Y-85263033D01*
X87336244Y-85536652D01*
X87336293Y-85536837D01*
X87336292Y-85536897D01*
X87337070Y-85540865D01*
X87336193Y-85541037D01*
X87334607Y-85607814D01*
X87294816Y-85666612D01*
X87229553Y-85694563D01*
X87159539Y-85682793D01*
X87125493Y-85658550D01*
X86441204Y-84974261D01*
X86407178Y-84911949D01*
X86404591Y-84893736D01*
X86392165Y-84711452D01*
X86392164Y-84711446D01*
X86391873Y-84707175D01*
X86387336Y-84685264D01*
X86334443Y-84429855D01*
X86333574Y-84425658D01*
X86237607Y-84154657D01*
X86105750Y-83899188D01*
X86095347Y-83884385D01*
X86023096Y-83781583D01*
X85940441Y-83663977D01*
X85744740Y-83453378D01*
X85600549Y-83335359D01*
X88083442Y-83335359D01*
X88089837Y-83346627D01*
X89365188Y-84621978D01*
X89379132Y-84629592D01*
X89380965Y-84629461D01*
X89387580Y-84625210D01*
X90665667Y-83347123D01*
X90672858Y-83333954D01*
X90665535Y-83323716D01*
X90605298Y-83274413D01*
X90598326Y-83269457D01*
X90360560Y-83123754D01*
X90352990Y-83119796D01*
X90097657Y-83007714D01*
X90089597Y-83004812D01*
X89821432Y-82928424D01*
X89813054Y-82926642D01*
X89536998Y-82887353D01*
X89528451Y-82886726D01*
X89249614Y-82885265D01*
X89241081Y-82885802D01*
X88964622Y-82922200D01*
X88956221Y-82923894D01*
X88687274Y-82997469D01*
X88679179Y-83000288D01*
X88422694Y-83109688D01*
X88415071Y-83113572D01*
X88175809Y-83256767D01*
X88168771Y-83261658D01*
X88091912Y-83323233D01*
X88083442Y-83335359D01*
X85600549Y-83335359D01*
X85522268Y-83271287D01*
X85277142Y-83121073D01*
X85259048Y-83113130D01*
X85017830Y-83007243D01*
X85013898Y-83005517D01*
X84995542Y-83000288D01*
X84784717Y-82940233D01*
X84737406Y-82926756D01*
X84514477Y-82895029D01*
X84457036Y-82886854D01*
X84457034Y-82886854D01*
X84452784Y-82886249D01*
X84448495Y-82886227D01*
X84448488Y-82886226D01*
X84169583Y-82884765D01*
X84169576Y-82884765D01*
X84165297Y-82884743D01*
X84161053Y-82885302D01*
X84161049Y-82885302D01*
X84035660Y-82901810D01*
X83880266Y-82922268D01*
X83876126Y-82923401D01*
X83876124Y-82923401D01*
X83857763Y-82928424D01*
X83602964Y-82998129D01*
X83599016Y-82999813D01*
X83342476Y-83109237D01*
X83342472Y-83109239D01*
X83338524Y-83110923D01*
X83289758Y-83140109D01*
X83095521Y-83256357D01*
X83095517Y-83256360D01*
X83091839Y-83258561D01*
X82867472Y-83438313D01*
X82669577Y-83646851D01*
X82501814Y-83880317D01*
X82367288Y-84134392D01*
X82268489Y-84404373D01*
X82267575Y-84408565D01*
X82243121Y-84520722D01*
X82209066Y-84583018D01*
X82146738Y-84617013D01*
X82075925Y-84611915D01*
X82030918Y-84582975D01*
X81869489Y-84421546D01*
X81856652Y-84406518D01*
X81848669Y-84395530D01*
X81798937Y-84350751D01*
X81794153Y-84346210D01*
X81780006Y-84332063D01*
X81764446Y-84319463D01*
X81759425Y-84315175D01*
X81714619Y-84274830D01*
X81714615Y-84274827D01*
X81709715Y-84270415D01*
X81704005Y-84267119D01*
X81704002Y-84267116D01*
X81697955Y-84263625D01*
X81681670Y-84252432D01*
X81671125Y-84243893D01*
X81611520Y-84213523D01*
X81605724Y-84210376D01*
X81599975Y-84207057D01*
X81547785Y-84176925D01*
X81534875Y-84172730D01*
X81516616Y-84165167D01*
X81504524Y-84159006D01*
X81439906Y-84141691D01*
X81433582Y-84139818D01*
X81405196Y-84130595D01*
X81369956Y-84119145D01*
X81363389Y-84118455D01*
X81363385Y-84118454D01*
X81357712Y-84117858D01*
X81356470Y-84117728D01*
X81337028Y-84114125D01*
X81323915Y-84110611D01*
X81317318Y-84110265D01*
X81317316Y-84110265D01*
X81257113Y-84107110D01*
X81250539Y-84106593D01*
X81233895Y-84104844D01*
X81233891Y-84104844D01*
X81230620Y-84104500D01*
X81210593Y-84104500D01*
X81204008Y-84104328D01*
X81201816Y-84104213D01*
X81134838Y-84080668D01*
X81096455Y-84036176D01*
X81027715Y-83902995D01*
X81027715Y-83902994D01*
X81025750Y-83899188D01*
X81015347Y-83884385D01*
X80943096Y-83781583D01*
X80860441Y-83663977D01*
X80664740Y-83453378D01*
X80442268Y-83271287D01*
X80197142Y-83121073D01*
X80179048Y-83113130D01*
X79937830Y-83007243D01*
X79933898Y-83005517D01*
X79915542Y-83000288D01*
X79704717Y-82940233D01*
X79657406Y-82926756D01*
X79434477Y-82895029D01*
X79377036Y-82886854D01*
X79377034Y-82886854D01*
X79372784Y-82886249D01*
X79368495Y-82886227D01*
X79368488Y-82886226D01*
X79089583Y-82884765D01*
X79089576Y-82884765D01*
X79085297Y-82884743D01*
X79081053Y-82885302D01*
X79081049Y-82885302D01*
X78955660Y-82901810D01*
X78800266Y-82922268D01*
X78796126Y-82923401D01*
X78796124Y-82923401D01*
X78777763Y-82928424D01*
X78522964Y-82998129D01*
X78519016Y-82999813D01*
X78262476Y-83109237D01*
X78262472Y-83109239D01*
X78258524Y-83110923D01*
X78209758Y-83140109D01*
X78015521Y-83256357D01*
X78015517Y-83256360D01*
X78011839Y-83258561D01*
X77787472Y-83438313D01*
X77589577Y-83646851D01*
X77421814Y-83880317D01*
X77287288Y-84134392D01*
X77188489Y-84404373D01*
X77127245Y-84685264D01*
X77104689Y-84971869D01*
X77121238Y-85258883D01*
X77122063Y-85263088D01*
X77122064Y-85263096D01*
X77133279Y-85320257D01*
X77176586Y-85540995D01*
X77177973Y-85545045D01*
X77177974Y-85545050D01*
X77229164Y-85694563D01*
X77269710Y-85812986D01*
X77398885Y-86069822D01*
X77561721Y-86306750D01*
X77755206Y-86519388D01*
X77758501Y-86522143D01*
X77758502Y-86522144D01*
X77966983Y-86696460D01*
X77975759Y-86703798D01*
X78219298Y-86856571D01*
X78481318Y-86974877D01*
X78485437Y-86976097D01*
X78752857Y-87055311D01*
X78752862Y-87055312D01*
X78756970Y-87056529D01*
X78761204Y-87057177D01*
X78761209Y-87057178D01*
X78969169Y-87089000D01*
X79041153Y-87100015D01*
X79187485Y-87102314D01*
X79324317Y-87104464D01*
X79324323Y-87104464D01*
X79328608Y-87104531D01*
X79332860Y-87104016D01*
X79332868Y-87104016D01*
X79609756Y-87070508D01*
X79609761Y-87070507D01*
X79614017Y-87069992D01*
X79710748Y-87044615D01*
X79887954Y-86998126D01*
X79887955Y-86998126D01*
X79892097Y-86997039D01*
X80157704Y-86887021D01*
X80405922Y-86741974D01*
X80632159Y-86564582D01*
X80668644Y-86526933D01*
X80796626Y-86394865D01*
X80832227Y-86358128D01*
X80867637Y-86309924D01*
X80939291Y-86212378D01*
X80995739Y-86169319D01*
X81066506Y-86163613D01*
X81129933Y-86197876D01*
X85902962Y-90970905D01*
X85936988Y-91033217D01*
X85931923Y-91104032D01*
X85889376Y-91160868D01*
X85822856Y-91185679D01*
X85813867Y-91186000D01*
X51942000Y-91186000D01*
X51873879Y-91165998D01*
X51827386Y-91112342D01*
X51816000Y-91060000D01*
X51816000Y-88617583D01*
X53405316Y-88617583D01*
X53424636Y-88764332D01*
X53426329Y-88772730D01*
X53500806Y-89044973D01*
X53503622Y-89053060D01*
X53614356Y-89312672D01*
X53618249Y-89320311D01*
X53763191Y-89562491D01*
X53768082Y-89569529D01*
X53944546Y-89789792D01*
X53950353Y-89796108D01*
X54155089Y-89990395D01*
X54161682Y-89995848D01*
X54390888Y-90160550D01*
X54398173Y-90165067D01*
X54647607Y-90297135D01*
X54655435Y-90300621D01*
X54920497Y-90397620D01*
X54928708Y-90400006D01*
X55204487Y-90460135D01*
X55212949Y-90461384D01*
X55434316Y-90478807D01*
X55439241Y-90479000D01*
X56623885Y-90479000D01*
X56639124Y-90474525D01*
X56640329Y-90473135D01*
X56642000Y-90465452D01*
X56642000Y-90460885D01*
X57150000Y-90460885D01*
X57154475Y-90476124D01*
X57155865Y-90477329D01*
X57163548Y-90479000D01*
X58341960Y-90479000D01*
X58346255Y-90478854D01*
X58556881Y-90464495D01*
X58565355Y-90463334D01*
X58841740Y-90406097D01*
X58849994Y-90403793D01*
X59116055Y-90309576D01*
X59123903Y-90306180D01*
X59374720Y-90176723D01*
X59382047Y-90172285D01*
X59612961Y-90009997D01*
X59619625Y-90004601D01*
X59826380Y-89812472D01*
X59832239Y-89806232D01*
X60011014Y-89587812D01*
X60015969Y-89580840D01*
X60163453Y-89340170D01*
X60167410Y-89332600D01*
X60280863Y-89074145D01*
X60283765Y-89066085D01*
X60361087Y-88794642D01*
X60362869Y-88786264D01*
X60386825Y-88617936D01*
X60384794Y-88603949D01*
X60371309Y-88600000D01*
X57168115Y-88600000D01*
X57152876Y-88604475D01*
X57151671Y-88605865D01*
X57150000Y-88613548D01*
X57150000Y-90460885D01*
X56642000Y-90460885D01*
X56642000Y-88618115D01*
X56637525Y-88602876D01*
X56636135Y-88601671D01*
X56628452Y-88600000D01*
X53421116Y-88600000D01*
X53407345Y-88604044D01*
X53405316Y-88617583D01*
X51816000Y-88617583D01*
X51816000Y-88074064D01*
X53405175Y-88074064D01*
X53407206Y-88088051D01*
X53420691Y-88092000D01*
X56623885Y-88092000D01*
X56639124Y-88087525D01*
X56640329Y-88086135D01*
X56642000Y-88078452D01*
X56642000Y-88073885D01*
X57150000Y-88073885D01*
X57154475Y-88089124D01*
X57155865Y-88090329D01*
X57163548Y-88092000D01*
X60370884Y-88092000D01*
X60384655Y-88087956D01*
X60386684Y-88074417D01*
X60367364Y-87927668D01*
X60365671Y-87919270D01*
X60291194Y-87647027D01*
X60288378Y-87638940D01*
X60177644Y-87379328D01*
X60173751Y-87371689D01*
X60028809Y-87129509D01*
X60023918Y-87122471D01*
X59847454Y-86902208D01*
X59841647Y-86895892D01*
X59636911Y-86701605D01*
X59630318Y-86696152D01*
X59555144Y-86642134D01*
X72029500Y-86642134D01*
X72036255Y-86704316D01*
X72087385Y-86840705D01*
X72174739Y-86957261D01*
X72291295Y-87044615D01*
X72427684Y-87095745D01*
X72489866Y-87102500D01*
X75786134Y-87102500D01*
X75848316Y-87095745D01*
X75984705Y-87044615D01*
X76101261Y-86957261D01*
X76188615Y-86840705D01*
X76239745Y-86704316D01*
X76246500Y-86642134D01*
X76246500Y-83345866D01*
X76239745Y-83283684D01*
X76188615Y-83147295D01*
X76101261Y-83030739D01*
X75984705Y-82943385D01*
X75848316Y-82892255D01*
X75786134Y-82885500D01*
X72489866Y-82885500D01*
X72427684Y-82892255D01*
X72291295Y-82943385D01*
X72174739Y-83030739D01*
X72087385Y-83147295D01*
X72036255Y-83283684D01*
X72029500Y-83345866D01*
X72029500Y-86642134D01*
X59555144Y-86642134D01*
X59401112Y-86531450D01*
X59393827Y-86526933D01*
X59144393Y-86394865D01*
X59136565Y-86391379D01*
X58871503Y-86294380D01*
X58863292Y-86291994D01*
X58587513Y-86231865D01*
X58579051Y-86230616D01*
X58357684Y-86213193D01*
X58352758Y-86213000D01*
X57168115Y-86213000D01*
X57152876Y-86217475D01*
X57151671Y-86218865D01*
X57150000Y-86226548D01*
X57150000Y-88073885D01*
X56642000Y-88073885D01*
X56642000Y-86231115D01*
X56637525Y-86215876D01*
X56636135Y-86214671D01*
X56628452Y-86213000D01*
X55450041Y-86213000D01*
X55445745Y-86213146D01*
X55235119Y-86227505D01*
X55226645Y-86228666D01*
X54950260Y-86285903D01*
X54942006Y-86288207D01*
X54675945Y-86382424D01*
X54668097Y-86385820D01*
X54417280Y-86515277D01*
X54409953Y-86519715D01*
X54179039Y-86682003D01*
X54172375Y-86687399D01*
X53965620Y-86879528D01*
X53959761Y-86885768D01*
X53780986Y-87104188D01*
X53776031Y-87111160D01*
X53628547Y-87351830D01*
X53624590Y-87359400D01*
X53511137Y-87617855D01*
X53508235Y-87625915D01*
X53430913Y-87897358D01*
X53429131Y-87905736D01*
X53405175Y-88074064D01*
X51816000Y-88074064D01*
X51816000Y-69728703D01*
X54786743Y-69728703D01*
X54787302Y-69732947D01*
X54787302Y-69732951D01*
X54803810Y-69858340D01*
X54824268Y-70013734D01*
X54900129Y-70291036D01*
X54901813Y-70294984D01*
X54974767Y-70466020D01*
X55012923Y-70555476D01*
X55035672Y-70593486D01*
X55157551Y-70797131D01*
X55160561Y-70802161D01*
X55340313Y-71026528D01*
X55548851Y-71224423D01*
X55782317Y-71392186D01*
X55786112Y-71394195D01*
X55786113Y-71394196D01*
X55807869Y-71405715D01*
X56036392Y-71526712D01*
X56306373Y-71625511D01*
X56587264Y-71686755D01*
X56615841Y-71689004D01*
X56810282Y-71704307D01*
X56810291Y-71704307D01*
X56812739Y-71704500D01*
X56968271Y-71704500D01*
X56970407Y-71704354D01*
X56970418Y-71704354D01*
X57178548Y-71690165D01*
X57178554Y-71690164D01*
X57182825Y-71689873D01*
X57187020Y-71689004D01*
X57187022Y-71689004D01*
X57323583Y-71660724D01*
X57464342Y-71631574D01*
X57735343Y-71535607D01*
X57990812Y-71403750D01*
X57994313Y-71401289D01*
X57994317Y-71401287D01*
X58108418Y-71321095D01*
X58226023Y-71238441D01*
X58424787Y-71053738D01*
X58433479Y-71045661D01*
X58433481Y-71045658D01*
X58436622Y-71042740D01*
X58618713Y-70820268D01*
X58761863Y-70586669D01*
X70428001Y-70586669D01*
X70428371Y-70593490D01*
X70433895Y-70644352D01*
X70437521Y-70659604D01*
X70482676Y-70780054D01*
X70491214Y-70795649D01*
X70567715Y-70897724D01*
X70580276Y-70910285D01*
X70682351Y-70986786D01*
X70697946Y-70995324D01*
X70818394Y-71040478D01*
X70833649Y-71044105D01*
X70884514Y-71049631D01*
X70891328Y-71050000D01*
X71863885Y-71050000D01*
X71879124Y-71045525D01*
X71880329Y-71044135D01*
X71882000Y-71036452D01*
X71882000Y-71031884D01*
X72390000Y-71031884D01*
X72394475Y-71047123D01*
X72395865Y-71048328D01*
X72403548Y-71049999D01*
X73380669Y-71049999D01*
X73387490Y-71049629D01*
X73438352Y-71044105D01*
X73453604Y-71040479D01*
X73574054Y-70995324D01*
X73589649Y-70986786D01*
X73691724Y-70910285D01*
X73704285Y-70897724D01*
X73780786Y-70795649D01*
X73789324Y-70780054D01*
X73834478Y-70659606D01*
X73838105Y-70644351D01*
X73843631Y-70593486D01*
X73844000Y-70586672D01*
X73844000Y-69614115D01*
X73839525Y-69598876D01*
X73838135Y-69597671D01*
X73830452Y-69596000D01*
X72408115Y-69596000D01*
X72392876Y-69600475D01*
X72391671Y-69601865D01*
X72390000Y-69609548D01*
X72390000Y-71031884D01*
X71882000Y-71031884D01*
X71882000Y-69614115D01*
X71877525Y-69598876D01*
X71876135Y-69597671D01*
X71868452Y-69596000D01*
X70446116Y-69596000D01*
X70430877Y-69600475D01*
X70429672Y-69601865D01*
X70428001Y-69609548D01*
X70428001Y-70586669D01*
X58761863Y-70586669D01*
X58768927Y-70575142D01*
X58772488Y-70567031D01*
X58882757Y-70315830D01*
X58884483Y-70311898D01*
X58963244Y-70035406D01*
X59003751Y-69750784D01*
X59003845Y-69732951D01*
X59005235Y-69467583D01*
X59005235Y-69467576D01*
X59005257Y-69463297D01*
X58983383Y-69297151D01*
X77923296Y-69297151D01*
X77935480Y-69550798D01*
X77945638Y-69601865D01*
X77976106Y-69755036D01*
X77985021Y-69799857D01*
X77986600Y-69804255D01*
X77986602Y-69804262D01*
X78061811Y-70013734D01*
X78070831Y-70038858D01*
X78191025Y-70262551D01*
X78193820Y-70266294D01*
X78193822Y-70266297D01*
X78340171Y-70462282D01*
X78340176Y-70462288D01*
X78342963Y-70466020D01*
X78346272Y-70469300D01*
X78346277Y-70469306D01*
X78471546Y-70593486D01*
X78523307Y-70644797D01*
X78527069Y-70647555D01*
X78527072Y-70647558D01*
X78632764Y-70725054D01*
X78728094Y-70794953D01*
X78732229Y-70797129D01*
X78732233Y-70797131D01*
X78782516Y-70823586D01*
X78952827Y-70913191D01*
X79087160Y-70960102D01*
X79188021Y-70995324D01*
X79192568Y-70996912D01*
X79442050Y-71044278D01*
X79562532Y-71049011D01*
X79691125Y-71054064D01*
X79691130Y-71054064D01*
X79695793Y-71054247D01*
X79794774Y-71043407D01*
X79943569Y-71027112D01*
X79943575Y-71027111D01*
X79948222Y-71026602D01*
X80057680Y-70997784D01*
X80189273Y-70963138D01*
X80193793Y-70961948D01*
X80343280Y-70897724D01*
X80422807Y-70863557D01*
X80422810Y-70863555D01*
X80427110Y-70861708D01*
X80431090Y-70859245D01*
X80431094Y-70859243D01*
X80639064Y-70730547D01*
X80639066Y-70730545D01*
X80643047Y-70728082D01*
X80646624Y-70725054D01*
X80810092Y-70586669D01*
X90826221Y-70586669D01*
X90826591Y-70593490D01*
X90832115Y-70644352D01*
X90835741Y-70659604D01*
X90880896Y-70780054D01*
X90889434Y-70795649D01*
X90965935Y-70897724D01*
X90978496Y-70910285D01*
X91080571Y-70986786D01*
X91096166Y-70995324D01*
X91216614Y-71040478D01*
X91231869Y-71044105D01*
X91282734Y-71049631D01*
X91289548Y-71050000D01*
X92262105Y-71050000D01*
X92277344Y-71045525D01*
X92278549Y-71044135D01*
X92280220Y-71036452D01*
X92280220Y-71031884D01*
X92788220Y-71031884D01*
X92792695Y-71047123D01*
X92794085Y-71048328D01*
X92801768Y-71049999D01*
X93778889Y-71049999D01*
X93785710Y-71049629D01*
X93836572Y-71044105D01*
X93851824Y-71040479D01*
X93972274Y-70995324D01*
X93987869Y-70986786D01*
X94089944Y-70910285D01*
X94102505Y-70897724D01*
X94179006Y-70795649D01*
X94187544Y-70780054D01*
X94232698Y-70659606D01*
X94236325Y-70644351D01*
X94241851Y-70593486D01*
X94242220Y-70586672D01*
X94242220Y-69614115D01*
X94237745Y-69598876D01*
X94236355Y-69597671D01*
X94228672Y-69596000D01*
X92806335Y-69596000D01*
X92791096Y-69600475D01*
X92789891Y-69601865D01*
X92788220Y-69609548D01*
X92788220Y-71031884D01*
X92280220Y-71031884D01*
X92280220Y-69614115D01*
X92275745Y-69598876D01*
X92274355Y-69597671D01*
X92266672Y-69596000D01*
X90844336Y-69596000D01*
X90829097Y-69600475D01*
X90827892Y-69601865D01*
X90826221Y-69609548D01*
X90826221Y-70586669D01*
X80810092Y-70586669D01*
X80833289Y-70567031D01*
X80833291Y-70567029D01*
X80836862Y-70564006D01*
X81004295Y-70373084D01*
X81046307Y-70307770D01*
X81139141Y-70163442D01*
X81141669Y-70159512D01*
X81245967Y-69927980D01*
X81314896Y-69683575D01*
X81345182Y-69445512D01*
X81346545Y-69434798D01*
X81346545Y-69434792D01*
X81346943Y-69431667D01*
X81349291Y-69342000D01*
X81337440Y-69182522D01*
X81330818Y-69093411D01*
X81330817Y-69093407D01*
X81330472Y-69088759D01*
X81328974Y-69082135D01*
X81326202Y-69069885D01*
X90826220Y-69069885D01*
X90830695Y-69085124D01*
X90832085Y-69086329D01*
X90839768Y-69088000D01*
X92262105Y-69088000D01*
X92277344Y-69083525D01*
X92278549Y-69082135D01*
X92280220Y-69074452D01*
X92280220Y-69069885D01*
X92788220Y-69069885D01*
X92792695Y-69085124D01*
X92794085Y-69086329D01*
X92801768Y-69088000D01*
X94224104Y-69088000D01*
X94239343Y-69083525D01*
X94240548Y-69082135D01*
X94242219Y-69074452D01*
X94242219Y-68097331D01*
X94241849Y-68090510D01*
X94236325Y-68039648D01*
X94232699Y-68024396D01*
X94187544Y-67903946D01*
X94179006Y-67888351D01*
X94102505Y-67786276D01*
X94089944Y-67773715D01*
X93987869Y-67697214D01*
X93972274Y-67688676D01*
X93851826Y-67643522D01*
X93836571Y-67639895D01*
X93785706Y-67634369D01*
X93778892Y-67634000D01*
X92806335Y-67634000D01*
X92791096Y-67638475D01*
X92789891Y-67639865D01*
X92788220Y-67647548D01*
X92788220Y-69069885D01*
X92280220Y-69069885D01*
X92280220Y-67652116D01*
X92275745Y-67636877D01*
X92274355Y-67635672D01*
X92266672Y-67634001D01*
X91289551Y-67634001D01*
X91282730Y-67634371D01*
X91231868Y-67639895D01*
X91216616Y-67643521D01*
X91096166Y-67688676D01*
X91080571Y-67697214D01*
X90978496Y-67773715D01*
X90965935Y-67786276D01*
X90889434Y-67888351D01*
X90880896Y-67903946D01*
X90835742Y-68024394D01*
X90832115Y-68039649D01*
X90826589Y-68090514D01*
X90826220Y-68097328D01*
X90826220Y-69069885D01*
X81326202Y-69069885D01*
X81275459Y-68845639D01*
X81274428Y-68841082D01*
X81182391Y-68604409D01*
X81161866Y-68568498D01*
X81058702Y-68387997D01*
X81058700Y-68387995D01*
X81056383Y-68383940D01*
X80899171Y-68184517D01*
X80728957Y-68024396D01*
X80717610Y-68013722D01*
X80717608Y-68013720D01*
X80714209Y-68010523D01*
X80656555Y-67970527D01*
X80509393Y-67868437D01*
X80509390Y-67868435D01*
X80505561Y-67865779D01*
X80501384Y-67863719D01*
X80501377Y-67863715D01*
X80281996Y-67755528D01*
X80281992Y-67755527D01*
X80277810Y-67753464D01*
X80035960Y-67676047D01*
X80031355Y-67675297D01*
X79789935Y-67635980D01*
X79789934Y-67635980D01*
X79785323Y-67635229D01*
X79658364Y-67633567D01*
X79536083Y-67631966D01*
X79536080Y-67631966D01*
X79531406Y-67631905D01*
X79279787Y-67666149D01*
X79035993Y-67737208D01*
X78805380Y-67843522D01*
X78801471Y-67846085D01*
X78596928Y-67980189D01*
X78596923Y-67980193D01*
X78593015Y-67982755D01*
X78546360Y-68024396D01*
X78464647Y-68097328D01*
X78403562Y-68151848D01*
X78241183Y-68347087D01*
X78109447Y-68564182D01*
X78107638Y-68568496D01*
X78107637Y-68568498D01*
X78079112Y-68636524D01*
X78011246Y-68798365D01*
X77948738Y-69044490D01*
X77923296Y-69297151D01*
X58983383Y-69297151D01*
X58967732Y-69178266D01*
X58938082Y-69069885D01*
X70428000Y-69069885D01*
X70432475Y-69085124D01*
X70433865Y-69086329D01*
X70441548Y-69088000D01*
X71863885Y-69088000D01*
X71879124Y-69083525D01*
X71880329Y-69082135D01*
X71882000Y-69074452D01*
X71882000Y-69069885D01*
X72390000Y-69069885D01*
X72394475Y-69085124D01*
X72395865Y-69086329D01*
X72403548Y-69088000D01*
X73825884Y-69088000D01*
X73841123Y-69083525D01*
X73842328Y-69082135D01*
X73843999Y-69074452D01*
X73843999Y-68097331D01*
X73843629Y-68090510D01*
X73838105Y-68039648D01*
X73834479Y-68024396D01*
X73789324Y-67903946D01*
X73780786Y-67888351D01*
X73704285Y-67786276D01*
X73691724Y-67773715D01*
X73589649Y-67697214D01*
X73574054Y-67688676D01*
X73453606Y-67643522D01*
X73438351Y-67639895D01*
X73387486Y-67634369D01*
X73380672Y-67634000D01*
X72408115Y-67634000D01*
X72392876Y-67638475D01*
X72391671Y-67639865D01*
X72390000Y-67647548D01*
X72390000Y-69069885D01*
X71882000Y-69069885D01*
X71882000Y-67652116D01*
X71877525Y-67636877D01*
X71876135Y-67635672D01*
X71868452Y-67634001D01*
X70891331Y-67634001D01*
X70884510Y-67634371D01*
X70833648Y-67639895D01*
X70818396Y-67643521D01*
X70697946Y-67688676D01*
X70682351Y-67697214D01*
X70580276Y-67773715D01*
X70567715Y-67786276D01*
X70491214Y-67888351D01*
X70482676Y-67903946D01*
X70437522Y-68024394D01*
X70433895Y-68039649D01*
X70428369Y-68090514D01*
X70428000Y-68097328D01*
X70428000Y-69069885D01*
X58938082Y-69069885D01*
X58891871Y-68900964D01*
X58779077Y-68636524D01*
X58631439Y-68389839D01*
X58451687Y-68165472D01*
X58262428Y-67985872D01*
X58246258Y-67970527D01*
X58246255Y-67970525D01*
X58243149Y-67967577D01*
X58009683Y-67799814D01*
X57987843Y-67788250D01*
X57922143Y-67753464D01*
X57755608Y-67665288D01*
X57485627Y-67566489D01*
X57204736Y-67505245D01*
X57173685Y-67502801D01*
X56981718Y-67487693D01*
X56981709Y-67487693D01*
X56979261Y-67487500D01*
X56823729Y-67487500D01*
X56821593Y-67487646D01*
X56821582Y-67487646D01*
X56613452Y-67501835D01*
X56613446Y-67501836D01*
X56609175Y-67502127D01*
X56604980Y-67502996D01*
X56604978Y-67502996D01*
X56468416Y-67531277D01*
X56327658Y-67560426D01*
X56056657Y-67656393D01*
X56052848Y-67658359D01*
X55805013Y-67786276D01*
X55801188Y-67788250D01*
X55797687Y-67790711D01*
X55797683Y-67790713D01*
X55787594Y-67797804D01*
X55565977Y-67953559D01*
X55355378Y-68149260D01*
X55173287Y-68371732D01*
X55023073Y-68616858D01*
X54907517Y-68880102D01*
X54828756Y-69156594D01*
X54788249Y-69441216D01*
X54788227Y-69445505D01*
X54788226Y-69445512D01*
X54786765Y-69724417D01*
X54786743Y-69728703D01*
X51816000Y-69728703D01*
X51816000Y-65912000D01*
X51836002Y-65843879D01*
X51889658Y-65797386D01*
X51942000Y-65786000D01*
X95886000Y-65786000D01*
X95954121Y-65806002D01*
G37*
%TD.AperFunction*%
%TD*%
M02*
